<?xml version="1.0" encoding="utf-8"?>
<!-- Generator: Adobe Illustrator 22.0.1, SVG Export Plug-In . SVG Version: 6.00 Build 0)  -->
<svg version="1.1" xmlns="http://www.w3.org/2000/svg" xmlns:xlink="http://www.w3.org/1999/xlink" x="0px" y="0px"
	 viewBox="0 0 3840 1080" style="enable-background:new 0 0 3840 1080;" xml:space="preserve">
<style type="text/css">
	.st0{display:none;}
	.st1{display:inline;}
	.st2{clip-path:url(#SVGID_2_);fill:#0786FF;}
	.st3{clip-path:url(#SVGID_2_);fill:#0933DC;}
	.st4{clip-path:url(#SVGID_2_);fill:url(#SVGID_3_);}
	.st5{clip-path:url(#SVGID_2_);}
	.st6{fill:url(#SVGID_4_);}
	.st7{fill:url(#SVGID_5_);}
	.st8{fill:url(#SVGID_6_);}
	.st9{fill:url(#SVGID_7_);}
	.st10{fill:url(#SVGID_8_);}
	.st11{fill:url(#SVGID_9_);}
	.st12{fill:url(#SVGID_10_);}
	.st13{fill:url(#SVGID_11_);}
	.st14{clip-path:url(#SVGID_2_);fill:url(#SVGID_12_);}
	.st15{opacity:0.21;clip-path:url(#SVGID_2_);}
	.st16{fill:#39E2FF;}
	.st17{opacity:0.6;}
	.st18{opacity:0.37;clip-path:url(#SVGID_2_);}
	.st19{opacity:0.29;}
	.st20{display:none;opacity:0.22;clip-path:url(#SVGID_2_);}
	.st21{fill:url(#SVGID_13_);}
	.st22{fill:url(#SVGID_14_);}
	.st23{fill:url(#SVGID_15_);}
	.st24{fill:url(#SVGID_16_);}
	.st25{clip-path:url(#SVGID_2_);fill:url(#XMLID_8_);}
	.st26{clip-path:url(#SVGID_2_);fill:url(#XMLID_9_);}
	.st27{clip-path:url(#SVGID_2_);fill:url(#XMLID_10_);}
	.st28{opacity:0.21;clip-path:url(#SVGID_2_);fill:url(#SVGID_17_);}
	.st29{opacity:0.11;clip-path:url(#SVGID_2_);fill:url(#SVGID_18_);}
	.st30{clip-path:url(#SVGID_2_);fill:url(#SVGID_19_);}
	.st31{clip-path:url(#SVGID_21_);fill:#0786FF;}
	.st32{clip-path:url(#SVGID_21_);fill:#0933DC;}
	.st33{clip-path:url(#SVGID_21_);fill:url(#SVGID_22_);}
	.st34{clip-path:url(#SVGID_21_);}
	.st35{fill:url(#SVGID_23_);}
	.st36{fill:url(#SVGID_24_);}
	.st37{fill:url(#SVGID_25_);}
	.st38{fill:url(#SVGID_26_);}
	.st39{fill:url(#SVGID_27_);}
	.st40{fill:url(#SVGID_28_);}
	.st41{fill:url(#SVGID_29_);}
	.st42{fill:url(#SVGID_30_);}
	.st43{clip-path:url(#SVGID_21_);fill:url(#SVGID_31_);}
	.st44{opacity:0.21;clip-path:url(#SVGID_21_);}
	.st45{opacity:0.37;clip-path:url(#SVGID_21_);}
	.st46{display:none;opacity:0.22;clip-path:url(#SVGID_21_);}
	.st47{fill:url(#SVGID_32_);}
	.st48{fill:url(#SVGID_33_);}
	.st49{fill:url(#SVGID_34_);}
	.st50{fill:url(#SVGID_35_);}
	.st51{clip-path:url(#SVGID_21_);fill:url(#XMLID_11_);}
	.st52{clip-path:url(#SVGID_21_);fill:url(#XMLID_12_);}
	.st53{clip-path:url(#SVGID_21_);fill:url(#XMLID_13_);}
	.st54{opacity:0.21;clip-path:url(#SVGID_21_);fill:url(#SVGID_36_);}
	.st55{opacity:0.11;clip-path:url(#SVGID_21_);fill:url(#SVGID_37_);}
	.st56{clip-path:url(#SVGID_21_);fill:url(#SVGID_38_);}
</style>
<g id="background" class="st0">
	<g class="st1">
		<defs>
			<rect id="SVGID_1_" width="3840" height="1080"/>
		</defs>
		<clipPath id="SVGID_2_">
			<use xlink:href="#SVGID_1_"  style="overflow:visible;"/>
		</clipPath>
		<rect y="-236" class="st2" width="3840" height="1512"/>
		<rect y="-263" class="st3" width="3840" height="1652"/>
		
			<linearGradient id="SVGID_3_" gradientUnits="userSpaceOnUse" x1="1919.5" y1="-42.0839" x2="1919.5" y2="1039.9161" gradientTransform="matrix(1 0 0 -1 0 1039.9161)">
			<stop  offset="0" style="stop-color:#005BF6;stop-opacity:0"/>
			<stop  offset="1" style="stop-color:#0056F5"/>
		</linearGradient>
		<rect x="-2" class="st4" width="3843" height="1082"/>
		<g class="st5">
			
				<radialGradient id="SVGID_4_" cx="1908.9307" cy="163.4654" r="458.3207" gradientTransform="matrix(-0.368 0.7826 -3.546 -0.3967 4097.8047 -1261.9821)" gradientUnits="userSpaceOnUse">
				<stop  offset="0" style="stop-color:#015BF7"/>
				<stop  offset="0.2981" style="stop-color:#015BF7;stop-opacity:0.9"/>
				<stop  offset="0.3865" style="stop-color:#015CF8;stop-opacity:0.7857"/>
				<stop  offset="0.9938" style="stop-color:#015FFF;stop-opacity:0"/>
			</radialGradient>
			<path class="st6" d="M395.8-142.1C73.2,37.8,56.7-90.7,106.1,177.5S-200.1,720.2,152.2,876s1264.2,346.8,1840.4,351.7
				s977.8-30.5,1310.3-128.5s872.5-160.6,767.1-624.6s250.2-438.4-200.8-650.3s-69.1-253.7-533.4-212s-1237.9,96.3-1237.9,96.3"/>
			
				<radialGradient id="SVGID_5_" cx="615.7622" cy="23.1112" r="619.2622" gradientTransform="matrix(0.414 0.7771 -2.8161 0.357 497.0462 -432.3854)" gradientUnits="userSpaceOnUse">
				<stop  offset="0.2453" style="stop-color:#015BF7;stop-opacity:0.9"/>
				<stop  offset="0.551" style="stop-color:#015EFC;stop-opacity:0.5"/>
				<stop  offset="0.9851" style="stop-color:#015FFF;stop-opacity:0"/>
			</radialGradient>
			<path class="st7" d="M395.8-142.1C73.2,37.8,56.7-90.7,106.1,177.5S-200.1,720.2,152.2,876s1264.2,346.8,1840.4,351.7
				s977.8-30.5,1310.3-128.5s872.5-160.6,767.1-624.6s250.2-438.4-200.8-650.3s-69.1-253.7-533.4-212s-1237.9,96.3-1237.9,96.3"/>
			
				<radialGradient id="SVGID_6_" cx="770.3588" cy="-91.7498" r="1014.3188" gradientTransform="matrix(1.6458 1.662437e-02 -1.275965e-02 0.3005 -327.6146 -23.0966)" gradientUnits="userSpaceOnUse">
				<stop  offset="0.2453" style="stop-color:#015BF7;stop-opacity:0.9"/>
				<stop  offset="0.8003" style="stop-color:#015EFC;stop-opacity:0.1779"/>
				<stop  offset="0.8218" style="stop-color:#015EFC;stop-opacity:0.15"/>
				<stop  offset="0.9851" style="stop-color:#015FFF;stop-opacity:0"/>
			</radialGradient>
			<path class="st8" d="M395.8-142.1C73.2,37.8,56.7-90.7,106.1,177.5S-200.1,720.2,152.2,876s1264.2,346.8,1840.4,351.7
				s977.8-30.5,1310.3-128.5s872.5-160.6,767.1-624.6s250.2-438.4-200.8-650.3s-69.1-253.7-533.4-212s-1237.9,96.3-1237.9,96.3"/>
			
				<radialGradient id="SVGID_7_" cx="1637.7701" cy="-71.7689" r="1014.3188" gradientTransform="matrix(1.6458 1.662437e-02 -1.275965e-02 0.3005 -327.0536 -27.4786)" gradientUnits="userSpaceOnUse">
				<stop  offset="0.2453" style="stop-color:#015BF7;stop-opacity:0.9"/>
				<stop  offset="0.8003" style="stop-color:#015EFC;stop-opacity:0.1779"/>
				<stop  offset="0.8218" style="stop-color:#015EFC;stop-opacity:0.15"/>
				<stop  offset="0.9851" style="stop-color:#015FFF;stop-opacity:0"/>
			</radialGradient>
			<path class="st9" d="M395.8-142.1C73.2,37.8,56.7-90.7,106.1,177.5S-200.1,720.2,152.2,876s1264.2,346.8,1840.4,351.7
				s977.8-30.5,1310.3-128.5s872.5-160.6,767.1-624.6s250.2-438.4-200.8-650.3s-69.1-253.7-533.4-212s-1237.9,96.3-1237.9,96.3"/>
		</g>
		<g class="st5">
			
				<radialGradient id="SVGID_8_" cx="1908.9307" cy="163.4654" r="458.3207" gradientTransform="matrix(-0.368 0.7826 -3.546 -0.3967 4097.8047 -1261.9821)" gradientUnits="userSpaceOnUse">
				<stop  offset="0" style="stop-color:#015BF7"/>
				<stop  offset="0.2981" style="stop-color:#015BF7;stop-opacity:0.9"/>
				<stop  offset="0.3865" style="stop-color:#015CF8;stop-opacity:0.7857"/>
				<stop  offset="0.9938" style="stop-color:#015FFF;stop-opacity:0"/>
			</radialGradient>
			<path class="st10" d="M395.8-142.1C73.2,37.8,56.7-90.7,106.1,177.5S-200.1,720.2,152.2,876s1264.2,346.8,1840.4,351.7
				s977.8-30.5,1310.3-128.5s872.5-160.6,767.1-624.6s250.2-438.4-200.8-650.3s-69.1-253.7-533.4-212s-1237.9,96.3-1237.9,96.3"/>
			
				<radialGradient id="SVGID_9_" cx="615.7622" cy="23.1112" r="619.2622" gradientTransform="matrix(0.414 0.7771 -2.8161 0.357 497.0462 -432.3854)" gradientUnits="userSpaceOnUse">
				<stop  offset="0.2453" style="stop-color:#015BF7;stop-opacity:0.9"/>
				<stop  offset="0.551" style="stop-color:#015EFC;stop-opacity:0.5"/>
				<stop  offset="0.9851" style="stop-color:#015FFF;stop-opacity:0"/>
			</radialGradient>
			<path class="st11" d="M395.8-142.1C73.2,37.8,56.7-90.7,106.1,177.5S-200.1,720.2,152.2,876s1264.2,346.8,1840.4,351.7
				s977.8-30.5,1310.3-128.5s872.5-160.6,767.1-624.6s250.2-438.4-200.8-650.3s-69.1-253.7-533.4-212s-1237.9,96.3-1237.9,96.3"/>
			
				<radialGradient id="SVGID_10_" cx="770.3588" cy="-91.7498" r="1014.3188" gradientTransform="matrix(1.6458 1.662437e-02 -1.275965e-02 0.3005 -327.6146 -23.0966)" gradientUnits="userSpaceOnUse">
				<stop  offset="0.2453" style="stop-color:#015BF7;stop-opacity:0.9"/>
				<stop  offset="0.8003" style="stop-color:#015EFC;stop-opacity:0.1779"/>
				<stop  offset="0.8218" style="stop-color:#015EFC;stop-opacity:0.15"/>
				<stop  offset="0.9851" style="stop-color:#015FFF;stop-opacity:0"/>
			</radialGradient>
			<path class="st12" d="M395.8-142.1C73.2,37.8,56.7-90.7,106.1,177.5S-200.1,720.2,152.2,876s1264.2,346.8,1840.4,351.7
				s977.8-30.5,1310.3-128.5s872.5-160.6,767.1-624.6s250.2-438.4-200.8-650.3s-69.1-253.7-533.4-212s-1237.9,96.3-1237.9,96.3"/>
			
				<radialGradient id="SVGID_11_" cx="1637.7701" cy="-71.7689" r="1014.3188" gradientTransform="matrix(1.6458 1.662437e-02 -1.275965e-02 0.3005 -327.0536 -27.4786)" gradientUnits="userSpaceOnUse">
				<stop  offset="0.2453" style="stop-color:#015BF7;stop-opacity:0.9"/>
				<stop  offset="0.8003" style="stop-color:#015EFC;stop-opacity:0.1779"/>
				<stop  offset="0.8218" style="stop-color:#015EFC;stop-opacity:0.15"/>
				<stop  offset="0.9851" style="stop-color:#015FFF;stop-opacity:0"/>
			</radialGradient>
			<path class="st13" d="M395.8-142.1C73.2,37.8,56.7-90.7,106.1,177.5S-200.1,720.2,152.2,876s1264.2,346.8,1840.4,351.7
				s977.8-30.5,1310.3-128.5s872.5-160.6,767.1-624.6s250.2-438.4-200.8-650.3s-69.1-253.7-533.4-212s-1237.9,96.3-1237.9,96.3"/>
		</g>
		<linearGradient id="SVGID_12_" gradientUnits="userSpaceOnUse" x1="1920" y1="507.4789" x2="1920" y2="-1.4931">
			<stop  offset="0" style="stop-color:#015FFF;stop-opacity:0"/>
			<stop  offset="1" style="stop-color:#015BF7"/>
		</linearGradient>
		<rect x="-8" class="st14" width="3856" height="1082"/>
		<g class="st15">
			<path class="st16" d="M2599.6,2.6c-0.7,6.3,12.5,9.3-17.2,16.9s-55.5,11-52.7,19.7c2.8,8.7,37.4,9.5,83.9,3.2
				s97.3-13.6,98.2-24.7c0.9-11-57.1-16.7-76.7-18.8C2615.5-3.3,2600.5-5.4,2599.6,2.6z"/>
			<path class="st16" d="M2554.6-2.6c1,10.4-60.2,19-95.1,21.4s-97.3-3.7-124.1-3.9c-26.8-0.2-131,10.2-130.4-0.4s73-19.5,123.8-24
				s137.2-7.1,173.4-6.3S2554-9.3,2554.6-2.6z"/>
			<path class="st16" d="M1432.1,19.1c-0.7,7.6,74.2,18.9,111.4,21.5c37.2,2.6,104.6,4.8,171.7-0.3s110-5.3,170.9-14.1
				s73.2-14.1,72.4-21.4s-62.4-14.7-99.2-9.1s-29.7,12.7-68.4,15.6S1630,11.2,1598.4,12S1432.7,11.9,1432.1,19.1z"/>
			<path class="st16" d="M1233.5,17.5c-1.2,10.8,61.1,19.7,112.9,24.2c51.8,4.5,96.4,1.3,97.6-5c1.2-6.3-50.8-12.1-64.9-16.2
				c-14-4.1-55.2-18.2-79.8-18.2s-14,3.9-29.9,5.8S1234.1,11.7,1233.5,17.5z"/>
			<path class="st16" d="M961.8-3.1c-6.8,12,29.3,19.5,56.5,26.4c27.1,6.9,72,24.7,140,27.1c68,2.4,87.3-1.1,87-6.9
				s-34.9-25.1-56.5-27.3c-21.5-2.2-74.5-2.4-121.9-14.1C1019.5-9.6,968.1-14.1,961.8-3.1z"/>
			<path class="st16" d="M1429.4,56.7c-0.7,2.9,21.2,20.1,83.9,23.8s65.8-9.5,64.6-13.4c-1.2-3.9-45.2-10.8-77-13.6
				C1469,50.6,1431.2,48.5,1429.4,56.7z"/>
			<path class="st16" d="M1601.2,60.1c-0.6,5.3,47.4,15.2,101.7,16.5s100.4,0.9,102.3-6.9s-52.4-10.4-83.6-11.3
				C1690.4,57.5,1602.5,49.1,1601.2,60.1z"/>
			<path class="st16" d="M1819.2,48c-2.2,10.6,46.5,25.3,111.3,25.3c64.9,0,66.1-3,88.6-10.6c22.5-7.6,46.2-16.2,69.9-16
				c23.7,0.2,85.5-10,86.4-21.6c0.9-11.7-90.4-8.2-129.4-8S1821.1,38.9,1819.2,48z"/>
			<g class="st17">
				<path class="st16" d="M976.8-43.5c-0.5,3.3,1.6,8.7,53,26.4s67.1,20.3,109.5,23.4s106,0.9,107.6-8.7s-16.8-19-10.3-25.8
					s48.7-0.9,47.7-10.2c-0.9-9.3-39.3-31.8-57.1-34.2S980.6-66.3,976.8-43.5z"/>
				<path class="st16" d="M1312.7-19.5c-1.3,14.9,3.1,17.3,70.2,19.9c67.1,2.6,230.8,8.2,270.7,2.8c39.9-5.4,49.3-7.6,49.6-18
					s-42.1-21.9-119.5-24.2s-140-4.5-160.6-5.4S1315.5-52.8,1312.7-19.5z"/>
				<path class="st16" d="M2740.2-5c-5.7,10.5,15.3,14.5,19,21c3.7,6.5-15.3,7.1-8.7,13s38.4,9.5,67.1-0.4
					c28.7-10,32.7-15.4,51.5-21.6s14.7-17.7-6.2-20.8C2841.9-16.9,2750.5-24.1,2740.2-5z"/>
				<path class="st16" d="M2029.2,2.8c0.4,4.4,25.8,10,53.9,8.9c28.1-1,99.8-6.9,99.4-15c-0.4-8.1-54.5-4.3-70.3-4
					C2096.4-7,2028.6-4.7,2029.2,2.8z"/>
				<path class="st16" d="M1169.9,67.1c-1.4,6.9,38.1,9.7,98.6,10.4c60.5,0.6,138.2-2.4,136.9-10.8s-29-12.6-71.1-15.8
					c-42.1-3.2-67.1-4.1-70.2,1.3c-3.1,5.4-6.9,5-37.1,8C1196.7,63.2,1171.1,60.8,1169.9,67.1z"/>
				<path class="st16" d="M388.4,19.1c-0.7,7.6,74.2,18.9,111.4,21.5s104.6,4.8,171.7-0.3s110-5.3,170.9-14.1
					c60.9-8.8,73.2-14.1,72.4-21.4c-0.8-7.2-62.4-14.7-99.2-9.1s-29.7,12.7-68.4,15.6c-38.7,2.9-160.9-0.1-192.5,0.7
					C523.1,12.9,389,11.9,388.4,19.1z"/>
				<path class="st16" d="M189.8,17.5c-1.2,10.8,61.1,19.7,112.9,24.2s96.4,1.3,97.6-5c1.2-6.3-50.8-12.1-64.9-16.2
					c-14-4.1-55.2-18.2-79.8-18.2c-24.6,0-14,3.9-29.9,5.8S190.4,11.7,189.8,17.5z"/>
				<path class="st16" d="M-81.9-3.1c-6.8,12,29.3,19.5,56.5,26.4s72,24.7,140,27.1s87.3-1.1,87-6.9s-34.9-25.1-56.5-27.3
					S70.6,13.8,23.2,2.1S-75.6-14.1-81.9-3.1z"/>
				<path class="st16" d="M385.6,56.7c-0.7,2.9,21.2,20.1,83.9,23.8s65.8-9.5,64.6-13.4s-45.2-10.8-77-13.6S387.5,48.5,385.6,56.7z"
					/>
				<path class="st16" d="M557.5,60.1c-0.6,5.3,47.4,15.2,101.7,16.5s100.4,0.9,102.3-6.9c1.9-7.8-52.4-10.4-83.6-11.3
					S558.7,49.1,557.5,60.1z"/>
				<path class="st16" d="M775.5,48c-1.8,10.3,38.4,29.9,92,36.2c53.6,6.3,54.6,3.4,73.2-2s38.1-11.7,57.7-9.2
					c19.6,2.5,70.6-1.6,71.4-13.2s-74.7-17-107-20.6C930.6,35.6,777,39.1,775.5,48z"/>
				<path class="st16" d="M-66.9-43.5c-0.5,3.3,1.6,8.7,53,26.4S53.2,3.2,95.6,6.2s106,0.9,107.6-8.7c1.6-9.5-16.8-19-10.3-25.8
					s48.7-0.9,47.7-10.2s-39.3-31.8-57.1-34.2S-63.2-66.3-66.9-43.5z"/>
				<path class="st16" d="M269-19.5c-1.3,14.9,3.1,17.3,70.2,19.9S570,8.6,609.9,3.2s49.3-7.6,49.6-18S617.4-36.6,540-39
					s-140-4.5-160.6-5.4S271.8-52.8,269-19.5z"/>
				<path class="st16" d="M126.2,67.1c-1.4,6.9,38.1,9.7,98.6,10.4c60.5,0.6,138.2-2.4,136.9-10.8c-1.2-8.4-29-12.6-71.1-15.8
					c-42.1-3.2-67.1-4.1-70.2,1.3s-6.9,5-37.1,8C153,63.2,127.4,60.8,126.2,67.1z"/>
				<path class="st16" d="M3461.6,19.1c0.7,7.6-74.2,18.9-111.4,21.5c-37.2,2.6-104.6,4.8-171.7-0.3c-67.2-5.1-110-5.3-170.9-14.1
					s-73.2-14.1-72.4-21.4s62.4-14.7,99.2-9.1s29.7,12.7,68.4,15.6s160.9-0.1,192.5,0.7C3326.9,12.9,3461,11.9,3461.6,19.1z"/>
				<path class="st16" d="M3660.2,17.5c1.2,10.8-61.1,19.7-112.9,24.2s-96.4,1.3-97.6-5s50.8-12.1,64.9-16.2
					c14-4.1,55.2-18.2,79.8-18.2s14,3.9,29.9,5.8C3640.2,10.1,3659.6,11.7,3660.2,17.5z"/>
				<path class="st16" d="M3931.8-3.1c6.8,12-29.3,19.5-56.5,26.4s-72,24.7-140,27.1s-87.3-1.1-87-6.9c0.3-5.8,34.9-25.1,56.5-27.3
					c21.5-2.2,74.5-2.4,121.9-14.1C3874.1-9.6,3925.6-14.1,3931.8-3.1z"/>
				<path class="st16" d="M3464.3,56.7c0.7,2.9-21.2,20.1-83.9,23.8s-65.8-9.5-64.6-13.4s45.2-10.8,77-13.6
					C3424.7,50.6,3462.5,48.5,3464.3,56.7z"/>
				<path class="st16" d="M3292.5,60.1c0.6,5.3-47.4,15.2-101.7,16.5s-100.4,0.9-102.3-6.9c-1.9-7.8,52.4-10.4,83.6-11.3
					S3291.2,49.1,3292.5,60.1z"/>
				<path class="st16" d="M3074.5,48c1.8,10.3-38.4,29.9-92,36.2c-53.6,6.3-54.6,3.4-73.2-2c-18.6-5.4-38.1-11.7-57.7-9.2
					s-70.6-1.6-71.4-13.2c-0.8-11.6,74.7-17,107-20.6C2919.3,35.6,3072.9,39.1,3074.5,48z"/>
				<path class="st16" d="M3916.9-43.5c0.5,3.3-1.6,8.7-53,26.4c-51.5,17.7-67.1,20.3-109.5,23.4c-42.4,3-106,0.9-107.6-8.7
					s16.8-19,10.3-25.8s-48.7-0.9-47.7-10.2c0.9-9.3,39.3-31.8,57.1-34.2C3684.2-74.9,3913.1-66.3,3916.9-43.5z"/>
				<path class="st16" d="M3581-19.5c1.3,14.9-3.1,17.3-70.2,19.9C3443.7,3,3280,8.6,3240.1,3.2s-49.3-7.6-49.6-18
					c-0.3-10.4,42.1-21.9,119.5-24.2s140-4.5,160.6-5.4C3491.2-45.3,3578.2-52.8,3581-19.5z"/>
				<path class="st16" d="M3723.8,67.1c1.4,6.9-38.1,9.7-98.6,10.4c-60.5,0.6-138.2-2.4-136.9-10.8s29-12.6,71.1-15.8
					c42.1-3.2,67.1-4.1,70.2,1.3c3.1,5.4,6.9,5,37.1,8C3697,63.2,3722.6,60.8,3723.8,67.1z"/>
				<path class="st16" d="M2084.9,62.3c1,4.4-1.6,12.6,83,5c84.5-7.6,136-13.2,191.8-14.7c55.8-1.5,102.6-5.2,102.9-13.9
					c0.3-8.7-55.2-10-90.4-10.6c-35.2-0.6-80.5-6.3-148.5,4.3S2082.8,52.4,2084.9,62.3z"/>
			</g>
		</g>
		<path class="st18" d="M3605.9,1081c5.4-51.1,50.9-108.5,129.9-227.6c130.2-196.3,22.6-373-179-486.7
			C3356.3,253.7,3327.1,57.9,3322.9,0h-535.2c0,0,43.3,49.3,26.3,147.2s-60.6,149.1-115.9,221.6c-67.6,88.5-120.5,234.5,0,361.3
			c120.5,126.9,221,154,146.8,350.8L3605.9,1081z"/>
		<g class="st5">
			<path class="st19" d="M797.8,274.8c-168.1,119.5-187.3,269.9-87.9,444.5c94.9,166.7,78.9,289.6-39.6,361.8h1929.4
				c0,0-27.3-33.1-133.5-49.3c-108.1-16.5-185.1-8.1-316.6-60.7c-125.1-50.1-181.2-159-152-301.7c29.2-142.8,18.5-257.2-69.2-349.3
				c-87.7-92.1-165.6-97.2-326.3-134.7S1392.8,1,1392.8,1L931.6,0.9C933.2,76.8,926,183.6,797.8,274.8z"/>
			<path class="st19" d="M172.8,0L0-0.1v293.8C68.5,199.7,182.2,121,172.8,0z"/>
			<path class="st19" d="M222.7,817.8C115.1,733.5,44.6,665.9,0,589.8V1081h235.4C280.4,1037.5,318.9,893.3,222.7,817.8z"/>
		</g>
		<g class="st20">
			<g class="st1">
				
					<linearGradient id="SVGID_13_" gradientUnits="userSpaceOnUse" x1="1703.6362" y1="-90.0595" x2="1703.6362" y2="534.8126" gradientTransform="matrix(0.996 8.937037e-02 -8.937037e-02 0.996 31.4685 -158.1098)">
					<stop  offset="0" style="stop-color:#39E2FF"/>
					<stop  offset="0.9409" style="stop-color:#39E2FF;stop-opacity:0"/>
				</linearGradient>
				<polygon class="st21" points="1578.3,-69.4 1903,-42 1900.5,621.9 1446.8,583.7 				"/>
				
					<linearGradient id="SVGID_14_" gradientUnits="userSpaceOnUse" x1="1275.9921" y1="-94.0329" x2="1275.9921" y2="539.5359" gradientTransform="matrix(0.9477 0.3191 -0.3191 0.9477 143.1853 -460.338)">
					<stop  offset="0" style="stop-color:#39E2FF"/>
					<stop  offset="0.9409" style="stop-color:#39E2FF;stop-opacity:0"/>
				</linearGradient>
				<polygon class="st22" points="1234.1,-155.7 1543.1,-58.1 1375.7,587 944.1,450.6 				"/>
			</g>
			<g class="st1">
				
					<linearGradient id="SVGID_15_" gradientUnits="userSpaceOnUse" x1="2495.7278" y1="-161.1335" x2="2495.7278" y2="463.7386" gradientTransform="matrix(-0.996 8.937037e-02 8.937037e-02 0.996 4604.8057 -158.1098)">
					<stop  offset="0" style="stop-color:#39E2FF"/>
					<stop  offset="0.9409" style="stop-color:#39E2FF;stop-opacity:0"/>
				</linearGradient>
				<polygon class="st23" points="2262.7,-69.4 1938,-42 1940.5,621.9 2394.2,583.7 				"/>
				
					<linearGradient id="SVGID_16_" gradientUnits="userSpaceOnUse" x1="2033.8081" y1="-349.1614" x2="2033.8081" y2="284.4074" gradientTransform="matrix(-0.9477 0.3191 0.3191 0.9477 4493.0884 -460.338)">
					<stop  offset="0" style="stop-color:#39E2FF"/>
					<stop  offset="0.9409" style="stop-color:#39E2FF;stop-opacity:0"/>
				</linearGradient>
				<polygon class="st24" points="2602.6,-155.7 2293.6,-58.1 2460.9,587 2892.6,450.6 				"/>
			</g>
		</g>
		
			<radialGradient id="XMLID_8_" cx="1998.6813" cy="-356.9236" r="826.7251" gradientTransform="matrix(1.225367e-12 1.0004 -1.4931 1.830003e-12 1465.7642 -2356.6829)" gradientUnits="userSpaceOnUse">
			<stop  offset="0" style="stop-color:#66CBEA;stop-opacity:0.8"/>
			<stop  offset="2.288759e-02" style="stop-color:#65C9E9;stop-opacity:0.7817"/>
			<stop  offset="0.4452" style="stop-color:#55A3D5;stop-opacity:0.4439"/>
			<stop  offset="0.7858" style="stop-color:#4B8CC9;stop-opacity:0.1714"/>
			<stop  offset="1" style="stop-color:#4784C4;stop-opacity:0"/>
		</radialGradient>
		<rect id="XMLID_3_" x="967" y="-318" class="st25" width="1925" height="1155"/>
		
			<radialGradient id="XMLID_9_" cx="2365.1365" cy="-359.9745" r="826.7251" gradientTransform="matrix(2.429727e-12 1.21 -2.9605 2.213432e-12 1727.6121 -3230.9211)" gradientUnits="userSpaceOnUse">
			<stop  offset="0" style="stop-color:#66CBEA;stop-opacity:0.8"/>
			<stop  offset="2.288759e-02" style="stop-color:#65C9E9;stop-opacity:0.7817"/>
			<stop  offset="0.4452" style="stop-color:#55A3D5;stop-opacity:0.4439"/>
			<stop  offset="0.7858" style="stop-color:#4B8CC9;stop-opacity:0.1714"/>
			<stop  offset="1" style="stop-color:#4784C4;stop-opacity:0"/>
		</radialGradient>
		<rect id="XMLID_2_" x="21" y="-318" class="st26" width="3817" height="1397"/>
		
			<radialGradient id="XMLID_10_" cx="2365.1365" cy="-359.9745" r="826.7251" gradientTransform="matrix(-2.443095e-12 1.21 2.9768 2.213432e-12 2121.9988 -3230.9211)" gradientUnits="userSpaceOnUse">
			<stop  offset="0" style="stop-color:#66CBEA;stop-opacity:0.8"/>
			<stop  offset="2.288759e-02" style="stop-color:#65C9E9;stop-opacity:0.7817"/>
			<stop  offset="0.4452" style="stop-color:#55A3D5;stop-opacity:0.4439"/>
			<stop  offset="0.7858" style="stop-color:#4B8CC9;stop-opacity:0.1714"/>
			<stop  offset="1" style="stop-color:#4784C4;stop-opacity:0"/>
		</radialGradient>
		<polygon id="XMLID_1_" class="st27" points="0,1079 3838,1079 3838,-318 0,-318 		"/>
		
			<radialGradient id="SVGID_17_" cx="1413.7549" cy="822.8356" r="1446.7919" gradientTransform="matrix(0.9222 0.3867 -7.355435e-02 0.1754 170.4936 131.8199)" gradientUnits="userSpaceOnUse">
			<stop  offset="0.1843" style="stop-color:#2323AF"/>
			<stop  offset="0.6577" style="stop-color:#2323AF;stop-opacity:0"/>
		</radialGradient>
		<path class="st28" d="M2375.9-69.2c-312-132-1887.2-156-1902.2-135s96,480,105,858.1s54,606.1,216,753.1s252,351,984.1,231
			c732.1-120,804.1-168,1017.1-291s291-48,330-276s123-777.1,66-942.1s42-204-147-225c-189-21-705.1-21-705.1-21L2375.9-69.2z"/>
		<radialGradient id="SVGID_18_" cx="1316.7708" cy="779.8431" r="939.5731" gradientUnits="userSpaceOnUse">
			<stop  offset="0" style="stop-color:#2323AF"/>
			<stop  offset="0.922" style="stop-color:#2323AF;stop-opacity:0"/>
		</radialGradient>
		<path class="st29" d="M2375.9-69.2c-312-132-1887.2-156-1902.2-135s96,480,105,858.1s54,606.1,216,753.1s252,351,984.1,231
			c732.1-120,804.1-168,1017.1-291s291-48,330-276s123-777.1,66-942.1s42-204-147-225c-189-21-705.1-21-705.1-21L2375.9-69.2z"/>
		<linearGradient id="SVGID_19_" gradientUnits="userSpaceOnUse" x1="1921.5" y1="1074.231" x2="1921.5" y2="319.2375">
			<stop  offset="0" style="stop-color:#2D1D8F"/>
			<stop  offset="1" style="stop-color:#2D1D8F;stop-opacity:0"/>
		</linearGradient>
		<rect y="-30" class="st30" width="3843" height="1110"/>
	</g>
</g>
<g id="background_copy">
	<g>
		<defs>
			<rect id="SVGID_20_" width="3840" height="1080"/>
		</defs>
		<clipPath id="SVGID_21_">
			<use xlink:href="#SVGID_20_"  style="overflow:visible;"/>
		</clipPath>
		<rect y="-236" class="st31" width="3840" height="1512"/>
		<rect y="-263" class="st32" width="3840" height="1652"/>
		
			<linearGradient id="SVGID_22_" gradientUnits="userSpaceOnUse" x1="1919.5" y1="-42.0839" x2="1919.5" y2="1039.9161" gradientTransform="matrix(1 0 0 -1 0 1039.9161)">
			<stop  offset="0" style="stop-color:#005BF6;stop-opacity:0"/>
			<stop  offset="1" style="stop-color:#0056F5"/>
		</linearGradient>
		<rect x="-2" class="st33" width="3843" height="1082"/>
		<g class="st34">
			
				<radialGradient id="SVGID_23_" cx="1908.9307" cy="163.4654" r="458.3207" gradientTransform="matrix(-0.368 0.7826 -3.546 -0.3967 4097.8047 -1261.9821)" gradientUnits="userSpaceOnUse">
				<stop  offset="0" style="stop-color:#015BF7"/>
				<stop  offset="0.2981" style="stop-color:#015BF7;stop-opacity:0.9"/>
				<stop  offset="0.3865" style="stop-color:#015CF8;stop-opacity:0.7857"/>
				<stop  offset="0.9938" style="stop-color:#015FFF;stop-opacity:0"/>
			</radialGradient>
			<path class="st35" d="M395.8-142.1C73.2,37.8,56.7-90.7,106.1,177.5S-200.1,720.2,152.2,876s1264.2,346.8,1840.4,351.7
				s977.8-30.5,1310.3-128.5s872.5-160.6,767.1-624.6s250.2-438.4-200.8-650.3s-69.1-253.7-533.4-212s-1237.9,96.3-1237.9,96.3"/>
			
				<radialGradient id="SVGID_24_" cx="615.7622" cy="23.1112" r="619.2622" gradientTransform="matrix(0.414 0.7771 -2.8161 0.357 497.0462 -432.3854)" gradientUnits="userSpaceOnUse">
				<stop  offset="0.2453" style="stop-color:#015BF7;stop-opacity:0.9"/>
				<stop  offset="0.551" style="stop-color:#015EFC;stop-opacity:0.5"/>
				<stop  offset="0.9851" style="stop-color:#015FFF;stop-opacity:0"/>
			</radialGradient>
			<path class="st36" d="M395.8-142.1C73.2,37.8,56.7-90.7,106.1,177.5S-200.1,720.2,152.2,876s1264.2,346.8,1840.4,351.7
				s977.8-30.5,1310.3-128.5s872.5-160.6,767.1-624.6s250.2-438.4-200.8-650.3s-69.1-253.7-533.4-212s-1237.9,96.3-1237.9,96.3"/>
			
				<radialGradient id="SVGID_25_" cx="770.3588" cy="-91.7498" r="1014.3188" gradientTransform="matrix(1.6458 1.662437e-02 -1.275965e-02 0.3005 -327.6146 -23.0966)" gradientUnits="userSpaceOnUse">
				<stop  offset="0.2453" style="stop-color:#015BF7;stop-opacity:0.9"/>
				<stop  offset="0.8003" style="stop-color:#015EFC;stop-opacity:0.1779"/>
				<stop  offset="0.8218" style="stop-color:#015EFC;stop-opacity:0.15"/>
				<stop  offset="0.9851" style="stop-color:#015FFF;stop-opacity:0"/>
			</radialGradient>
			<path class="st37" d="M395.8-142.1C73.2,37.8,56.7-90.7,106.1,177.5S-200.1,720.2,152.2,876s1264.2,346.8,1840.4,351.7
				s977.8-30.5,1310.3-128.5s872.5-160.6,767.1-624.6s250.2-438.4-200.8-650.3s-69.1-253.7-533.4-212s-1237.9,96.3-1237.9,96.3"/>
			
				<radialGradient id="SVGID_26_" cx="1637.7701" cy="-71.7689" r="1014.3188" gradientTransform="matrix(1.6458 1.662437e-02 -1.275965e-02 0.3005 -327.0536 -27.4786)" gradientUnits="userSpaceOnUse">
				<stop  offset="0.2453" style="stop-color:#015BF7;stop-opacity:0.9"/>
				<stop  offset="0.8003" style="stop-color:#015EFC;stop-opacity:0.1779"/>
				<stop  offset="0.8218" style="stop-color:#015EFC;stop-opacity:0.15"/>
				<stop  offset="0.9851" style="stop-color:#015FFF;stop-opacity:0"/>
			</radialGradient>
			<path class="st38" d="M395.8-142.1C73.2,37.8,56.7-90.7,106.1,177.5S-200.1,720.2,152.2,876s1264.2,346.8,1840.4,351.7
				s977.8-30.5,1310.3-128.5s872.5-160.6,767.1-624.6s250.2-438.4-200.8-650.3s-69.1-253.7-533.4-212s-1237.9,96.3-1237.9,96.3"/>
		</g>
		<g class="st34">
			
				<radialGradient id="SVGID_27_" cx="1908.9307" cy="163.4654" r="458.3207" gradientTransform="matrix(-0.368 0.7826 -3.546 -0.3967 4097.8047 -1261.9821)" gradientUnits="userSpaceOnUse">
				<stop  offset="0" style="stop-color:#015BF7"/>
				<stop  offset="0.2981" style="stop-color:#015BF7;stop-opacity:0.9"/>
				<stop  offset="0.3865" style="stop-color:#015CF8;stop-opacity:0.7857"/>
				<stop  offset="0.9938" style="stop-color:#015FFF;stop-opacity:0"/>
			</radialGradient>
			<path class="st39" d="M395.8-142.1C73.2,37.8,56.7-90.7,106.1,177.5S-200.1,720.2,152.2,876s1264.2,346.8,1840.4,351.7
				s977.8-30.5,1310.3-128.5s872.5-160.6,767.1-624.6s250.2-438.4-200.8-650.3s-69.1-253.7-533.4-212s-1237.9,96.3-1237.9,96.3"/>
			
				<radialGradient id="SVGID_28_" cx="615.7622" cy="23.1112" r="619.2622" gradientTransform="matrix(0.414 0.7771 -2.8161 0.357 497.0462 -432.3854)" gradientUnits="userSpaceOnUse">
				<stop  offset="0.2453" style="stop-color:#015BF7;stop-opacity:0.9"/>
				<stop  offset="0.551" style="stop-color:#015EFC;stop-opacity:0.5"/>
				<stop  offset="0.9851" style="stop-color:#015FFF;stop-opacity:0"/>
			</radialGradient>
			<path class="st40" d="M395.8-142.1C73.2,37.8,56.7-90.7,106.1,177.5S-200.1,720.2,152.2,876s1264.2,346.8,1840.4,351.7
				s977.8-30.5,1310.3-128.5s872.5-160.6,767.1-624.6s250.2-438.4-200.8-650.3s-69.1-253.7-533.4-212s-1237.9,96.3-1237.9,96.3"/>
			
				<radialGradient id="SVGID_29_" cx="770.3588" cy="-91.7498" r="1014.3188" gradientTransform="matrix(1.6458 1.662437e-02 -1.275965e-02 0.3005 -327.6146 -23.0966)" gradientUnits="userSpaceOnUse">
				<stop  offset="0.2453" style="stop-color:#015BF7;stop-opacity:0.9"/>
				<stop  offset="0.8003" style="stop-color:#015EFC;stop-opacity:0.1779"/>
				<stop  offset="0.8218" style="stop-color:#015EFC;stop-opacity:0.15"/>
				<stop  offset="0.9851" style="stop-color:#015FFF;stop-opacity:0"/>
			</radialGradient>
			<path class="st41" d="M395.8-142.1C73.2,37.8,56.7-90.7,106.1,177.5S-200.1,720.2,152.2,876s1264.2,346.8,1840.4,351.7
				s977.8-30.5,1310.3-128.5s872.5-160.6,767.1-624.6s250.2-438.4-200.8-650.3s-69.1-253.7-533.4-212s-1237.9,96.3-1237.9,96.3"/>
			
				<radialGradient id="SVGID_30_" cx="1637.7701" cy="-71.7689" r="1014.3188" gradientTransform="matrix(1.6458 1.662437e-02 -1.275965e-02 0.3005 -327.0536 -27.4786)" gradientUnits="userSpaceOnUse">
				<stop  offset="0.2453" style="stop-color:#015BF7;stop-opacity:0.9"/>
				<stop  offset="0.8003" style="stop-color:#015EFC;stop-opacity:0.1779"/>
				<stop  offset="0.8218" style="stop-color:#015EFC;stop-opacity:0.15"/>
				<stop  offset="0.9851" style="stop-color:#015FFF;stop-opacity:0"/>
			</radialGradient>
			<path class="st42" d="M395.8-142.1C73.2,37.8,56.7-90.7,106.1,177.5S-200.1,720.2,152.2,876s1264.2,346.8,1840.4,351.7
				s977.8-30.5,1310.3-128.5s872.5-160.6,767.1-624.6s250.2-438.4-200.8-650.3s-69.1-253.7-533.4-212s-1237.9,96.3-1237.9,96.3"/>
		</g>
		<linearGradient id="SVGID_31_" gradientUnits="userSpaceOnUse" x1="1920" y1="507.4789" x2="1920" y2="-1.4931">
			<stop  offset="0" style="stop-color:#015FFF;stop-opacity:0"/>
			<stop  offset="1" style="stop-color:#015BF7"/>
		</linearGradient>
		<rect x="-8" class="st43" width="3856" height="1082"/>
		<g class="st44">
			<path class="st16" d="M2599.6,2.6c-0.7,6.3,12.5,9.3-17.2,16.9s-55.5,11-52.7,19.7c2.8,8.7,37.4,9.5,83.9,3.2
				s97.3-13.6,98.2-24.7c0.9-11-57.1-16.7-76.7-18.8C2615.5-3.3,2600.5-5.4,2599.6,2.6z"/>
			<path class="st16" d="M2554.6-2.6c1,10.4-60.2,19-95.1,21.4s-97.3-3.7-124.1-3.9c-26.8-0.2-131,10.2-130.4-0.4s73-19.5,123.8-24
				s137.2-7.1,173.4-6.3S2554-9.3,2554.6-2.6z"/>
			<path class="st16" d="M1432.1,19.1c-0.7,7.6,74.2,18.9,111.4,21.5c37.2,2.6,104.6,4.8,171.7-0.3s110-5.3,170.9-14.1
				s73.2-14.1,72.4-21.4s-62.4-14.7-99.2-9.1s-29.7,12.7-68.4,15.6S1630,11.2,1598.4,12S1432.7,11.9,1432.1,19.1z"/>
			<path class="st16" d="M1233.5,17.5c-1.2,10.8,61.1,19.7,112.9,24.2c51.8,4.5,96.4,1.3,97.6-5c1.2-6.3-50.8-12.1-64.9-16.2
				c-14-4.1-55.2-18.2-79.8-18.2s-14,3.9-29.9,5.8S1234.1,11.7,1233.5,17.5z"/>
			<path class="st16" d="M961.8-3.1c-6.8,12,29.3,19.5,56.5,26.4c27.1,6.9,72,24.7,140,27.1c68,2.4,87.3-1.1,87-6.9
				s-34.9-25.1-56.5-27.3c-21.5-2.2-74.5-2.4-121.9-14.1C1019.5-9.6,968.1-14.1,961.8-3.1z"/>
			<path class="st16" d="M1429.4,56.7c-0.7,2.9,21.2,20.1,83.9,23.8s65.8-9.5,64.6-13.4c-1.2-3.9-45.2-10.8-77-13.6
				C1469,50.6,1431.2,48.5,1429.4,56.7z"/>
			<path class="st16" d="M1601.2,60.1c-0.6,5.3,47.4,15.2,101.7,16.5s100.4,0.9,102.3-6.9s-52.4-10.4-83.6-11.3
				C1690.4,57.5,1602.5,49.1,1601.2,60.1z"/>
			<path class="st16" d="M1819.2,48c-2.2,10.6,46.5,25.3,111.3,25.3c64.9,0,66.1-3,88.6-10.6c22.5-7.6,46.2-16.2,69.9-16
				c23.7,0.2,85.5-10,86.4-21.6c0.9-11.7-90.4-8.2-129.4-8S1821.1,38.9,1819.2,48z"/>
			<g class="st17">
				<path class="st16" d="M976.8-43.5c-0.5,3.3,1.6,8.7,53,26.4s67.1,20.3,109.5,23.4s106,0.9,107.6-8.7s-16.8-19-10.3-25.8
					s48.7-0.9,47.7-10.2c-0.9-9.3-39.3-31.8-57.1-34.2S980.6-66.3,976.8-43.5z"/>
				<path class="st16" d="M1312.7-19.5c-1.3,14.9,3.1,17.3,70.2,19.9c67.1,2.6,230.8,8.2,270.7,2.8c39.9-5.4,49.3-7.6,49.6-18
					s-42.1-21.9-119.5-24.2s-140-4.5-160.6-5.4S1315.5-52.8,1312.7-19.5z"/>
				<path class="st16" d="M2740.2-5c-5.7,10.5,15.3,14.5,19,21c3.7,6.5-15.3,7.1-8.7,13s38.4,9.5,67.1-0.4
					c28.7-10,32.7-15.4,51.5-21.6s14.7-17.7-6.2-20.8C2841.9-16.9,2750.5-24.1,2740.2-5z"/>
				<path class="st16" d="M2029.2,2.8c0.4,4.4,25.8,10,53.9,8.9c28.1-1,99.8-6.9,99.4-15c-0.4-8.1-54.5-4.3-70.3-4
					C2096.4-7,2028.6-4.7,2029.2,2.8z"/>
				<path class="st16" d="M1169.9,67.1c-1.4,6.9,38.1,9.7,98.6,10.4c60.5,0.6,138.2-2.4,136.9-10.8s-29-12.6-71.1-15.8
					c-42.1-3.2-67.1-4.1-70.2,1.3c-3.1,5.4-6.9,5-37.1,8C1196.7,63.2,1171.1,60.8,1169.9,67.1z"/>
				<path class="st16" d="M388.4,19.1c-0.7,7.6,74.2,18.9,111.4,21.5s104.6,4.8,171.7-0.3s110-5.3,170.9-14.1
					c60.9-8.8,73.2-14.1,72.4-21.4c-0.8-7.2-62.4-14.7-99.2-9.1s-29.7,12.7-68.4,15.6c-38.7,2.9-160.9-0.1-192.5,0.7
					C523.1,12.9,389,11.9,388.4,19.1z"/>
				<path class="st16" d="M189.8,17.5c-1.2,10.8,61.1,19.7,112.9,24.2s96.4,1.3,97.6-5c1.2-6.3-50.8-12.1-64.9-16.2
					c-14-4.1-55.2-18.2-79.8-18.2c-24.6,0-14,3.9-29.9,5.8S190.4,11.7,189.8,17.5z"/>
				<path class="st16" d="M-81.9-3.1c-6.8,12,29.3,19.5,56.5,26.4s72,24.7,140,27.1s87.3-1.1,87-6.9s-34.9-25.1-56.5-27.3
					S70.6,13.8,23.2,2.1S-75.6-14.1-81.9-3.1z"/>
				<path class="st16" d="M385.6,56.7c-0.7,2.9,21.2,20.1,83.9,23.8s65.8-9.5,64.6-13.4s-45.2-10.8-77-13.6S387.5,48.5,385.6,56.7z"
					/>
				<path class="st16" d="M557.5,60.1c-0.6,5.3,47.4,15.2,101.7,16.5s100.4,0.9,102.3-6.9c1.9-7.8-52.4-10.4-83.6-11.3
					S558.7,49.1,557.5,60.1z"/>
				<path class="st16" d="M775.5,48c-1.8,10.3,38.4,29.9,92,36.2c53.6,6.3,54.6,3.4,73.2-2s38.1-11.7,57.7-9.2
					c19.6,2.5,70.6-1.6,71.4-13.2s-74.7-17-107-20.6C930.6,35.6,777,39.1,775.5,48z"/>
				<path class="st16" d="M-66.9-43.5c-0.5,3.3,1.6,8.7,53,26.4S53.2,3.2,95.6,6.2s106,0.9,107.6-8.7c1.6-9.5-16.8-19-10.3-25.8
					s48.7-0.9,47.7-10.2s-39.3-31.8-57.1-34.2S-63.2-66.3-66.9-43.5z"/>
				<path class="st16" d="M269-19.5c-1.3,14.9,3.1,17.3,70.2,19.9S570,8.6,609.9,3.2s49.3-7.6,49.6-18S617.4-36.6,540-39
					s-140-4.5-160.6-5.4S271.8-52.8,269-19.5z"/>
				<path class="st16" d="M126.2,67.1c-1.4,6.9,38.1,9.7,98.6,10.4c60.5,0.6,138.2-2.4,136.9-10.8c-1.2-8.4-29-12.6-71.1-15.8
					c-42.1-3.2-67.1-4.1-70.2,1.3s-6.9,5-37.1,8C153,63.2,127.4,60.8,126.2,67.1z"/>
				<path class="st16" d="M3461.6,19.1c0.7,7.6-74.2,18.9-111.4,21.5c-37.2,2.6-104.6,4.8-171.7-0.3c-67.2-5.1-110-5.3-170.9-14.1
					s-73.2-14.1-72.4-21.4s62.4-14.7,99.2-9.1s29.7,12.7,68.4,15.6s160.9-0.1,192.5,0.7C3326.9,12.9,3461,11.9,3461.6,19.1z"/>
				<path class="st16" d="M3660.2,17.5c1.2,10.8-61.1,19.7-112.9,24.2s-96.4,1.3-97.6-5s50.8-12.1,64.9-16.2
					c14-4.1,55.2-18.2,79.8-18.2s14,3.9,29.9,5.8C3640.2,10.1,3659.6,11.7,3660.2,17.5z"/>
				<path class="st16" d="M3931.8-3.1c6.8,12-29.3,19.5-56.5,26.4s-72,24.7-140,27.1s-87.3-1.1-87-6.9c0.3-5.8,34.9-25.1,56.5-27.3
					c21.5-2.2,74.5-2.4,121.9-14.1C3874.1-9.6,3925.6-14.1,3931.8-3.1z"/>
				<path class="st16" d="M3464.3,56.7c0.7,2.9-21.2,20.1-83.9,23.8s-65.8-9.5-64.6-13.4s45.2-10.8,77-13.6
					C3424.7,50.6,3462.5,48.5,3464.3,56.7z"/>
				<path class="st16" d="M3292.5,60.1c0.6,5.3-47.4,15.2-101.7,16.5s-100.4,0.9-102.3-6.9c-1.9-7.8,52.4-10.4,83.6-11.3
					S3291.2,49.1,3292.5,60.1z"/>
				<path class="st16" d="M3074.5,48c1.8,10.3-38.4,29.9-92,36.2c-53.6,6.3-54.6,3.4-73.2-2c-18.6-5.4-38.1-11.7-57.7-9.2
					s-70.6-1.6-71.4-13.2c-0.8-11.6,74.7-17,107-20.6C2919.3,35.6,3072.9,39.1,3074.5,48z"/>
				<path class="st16" d="M3916.9-43.5c0.5,3.3-1.6,8.7-53,26.4c-51.5,17.7-67.1,20.3-109.5,23.4c-42.4,3-106,0.9-107.6-8.7
					s16.8-19,10.3-25.8s-48.7-0.9-47.7-10.2c0.9-9.3,39.3-31.8,57.1-34.2C3684.2-74.9,3913.1-66.3,3916.9-43.5z"/>
				<path class="st16" d="M3581-19.5c1.3,14.9-3.1,17.3-70.2,19.9C3443.7,3,3280,8.6,3240.1,3.2s-49.3-7.6-49.6-18
					c-0.3-10.4,42.1-21.9,119.5-24.2s140-4.5,160.6-5.4C3491.2-45.3,3578.2-52.8,3581-19.5z"/>
				<path class="st16" d="M3723.8,67.1c1.4,6.9-38.1,9.7-98.6,10.4c-60.5,0.6-138.2-2.4-136.9-10.8s29-12.6,71.1-15.8
					c42.1-3.2,67.1-4.1,70.2,1.3c3.1,5.4,6.9,5,37.1,8C3697,63.2,3722.6,60.8,3723.8,67.1z"/>
				<path class="st16" d="M2084.9,62.3c1,4.4-1.6,12.6,83,5c84.5-7.6,136-13.2,191.8-14.7c55.8-1.5,102.6-5.2,102.9-13.9
					c0.3-8.7-55.2-10-90.4-10.6c-35.2-0.6-80.5-6.3-148.5,4.3S2082.8,52.4,2084.9,62.3z"/>
			</g>
		</g>
		<path class="st45" d="M3605.9,1081c5.4-51.1,50.9-108.5,129.9-227.6c130.2-196.3,22.6-373-179-486.7
			C3356.3,253.7,3327.1,57.9,3322.9,0h-535.2c0,0,43.3,49.3,26.3,147.2s-60.6,149.1-115.9,221.6c-67.6,88.5-120.5,234.5,0,361.3
			c120.5,126.9,221,154,146.8,350.8L3605.9,1081z"/>
		<g class="st34">
			<path class="st19" d="M797.8,274.8c-168.1,119.5-187.3,269.9-87.9,444.5c94.9,166.7,78.9,289.6-39.6,361.8h1929.4
				c0,0-27.3-33.1-133.5-49.3c-108.1-16.5-185.1-8.1-316.6-60.7c-125.1-50.1-181.2-159-152-301.7c29.2-142.8,18.5-257.2-69.2-349.3
				c-87.7-92.1-165.6-97.2-326.3-134.7S1392.8,1,1392.8,1L931.6,0.9C933.2,76.8,926,183.6,797.8,274.8z"/>
			<path class="st19" d="M172.8,0L0-0.1v293.8C68.5,199.7,182.2,121,172.8,0z"/>
			<path class="st19" d="M222.7,817.8C115.1,733.5,44.6,665.9,0,589.8V1081h235.4C280.4,1037.5,318.9,893.3,222.7,817.8z"/>
		</g>
		<g class="st46">
			<g class="st1">
				
					<linearGradient id="SVGID_32_" gradientUnits="userSpaceOnUse" x1="1703.6362" y1="-90.0595" x2="1703.6362" y2="534.8126" gradientTransform="matrix(0.996 8.937037e-02 -8.937037e-02 0.996 31.4685 -158.1098)">
					<stop  offset="0" style="stop-color:#39E2FF"/>
					<stop  offset="0.9409" style="stop-color:#39E2FF;stop-opacity:0"/>
				</linearGradient>
				<polygon class="st47" points="1578.3,-69.4 1903,-42 1900.5,621.9 1446.8,583.7 				"/>
				
					<linearGradient id="SVGID_33_" gradientUnits="userSpaceOnUse" x1="1275.9921" y1="-94.0329" x2="1275.9921" y2="539.5359" gradientTransform="matrix(0.9477 0.3191 -0.3191 0.9477 143.1853 -460.338)">
					<stop  offset="0" style="stop-color:#39E2FF"/>
					<stop  offset="0.9409" style="stop-color:#39E2FF;stop-opacity:0"/>
				</linearGradient>
				<polygon class="st48" points="1234.1,-155.7 1543.1,-58.1 1375.7,587 944.1,450.6 				"/>
			</g>
			<g class="st1">
				
					<linearGradient id="SVGID_34_" gradientUnits="userSpaceOnUse" x1="2495.7278" y1="-161.1335" x2="2495.7278" y2="463.7386" gradientTransform="matrix(-0.996 8.937037e-02 8.937037e-02 0.996 4604.8057 -158.1098)">
					<stop  offset="0" style="stop-color:#39E2FF"/>
					<stop  offset="0.9409" style="stop-color:#39E2FF;stop-opacity:0"/>
				</linearGradient>
				<polygon class="st49" points="2262.7,-69.4 1938,-42 1940.5,621.9 2394.2,583.7 				"/>
				
					<linearGradient id="SVGID_35_" gradientUnits="userSpaceOnUse" x1="2033.8081" y1="-349.1614" x2="2033.8081" y2="284.4074" gradientTransform="matrix(-0.9477 0.3191 0.3191 0.9477 4493.0884 -460.338)">
					<stop  offset="0" style="stop-color:#39E2FF"/>
					<stop  offset="0.9409" style="stop-color:#39E2FF;stop-opacity:0"/>
				</linearGradient>
				<polygon class="st50" points="2602.6,-155.7 2293.6,-58.1 2460.9,587 2892.6,450.6 				"/>
			</g>
		</g>
		
			<radialGradient id="XMLID_11_" cx="1998.6813" cy="-356.9236" r="826.7251" gradientTransform="matrix(1.225367e-12 1.0004 -1.4931 1.830003e-12 1465.7642 -2356.6829)" gradientUnits="userSpaceOnUse">
			<stop  offset="0" style="stop-color:#66CBEA;stop-opacity:0.8"/>
			<stop  offset="2.288759e-02" style="stop-color:#65C9E9;stop-opacity:0.7817"/>
			<stop  offset="0.4452" style="stop-color:#55A3D5;stop-opacity:0.4439"/>
			<stop  offset="0.7858" style="stop-color:#4B8CC9;stop-opacity:0.1714"/>
			<stop  offset="1" style="stop-color:#4784C4;stop-opacity:0"/>
		</radialGradient>
		<rect id="XMLID_6_" x="967" y="-318" class="st51" width="1925" height="1155"/>
		
			<radialGradient id="XMLID_12_" cx="2365.1365" cy="-359.9745" r="826.7251" gradientTransform="matrix(2.429727e-12 1.21 -2.9605 2.213432e-12 1727.6121 -3230.9211)" gradientUnits="userSpaceOnUse">
			<stop  offset="0" style="stop-color:#66CBEA;stop-opacity:0.8"/>
			<stop  offset="2.288759e-02" style="stop-color:#65C9E9;stop-opacity:0.7817"/>
			<stop  offset="0.4452" style="stop-color:#55A3D5;stop-opacity:0.4439"/>
			<stop  offset="0.7858" style="stop-color:#4B8CC9;stop-opacity:0.1714"/>
			<stop  offset="1" style="stop-color:#4784C4;stop-opacity:0"/>
		</radialGradient>
		<rect id="XMLID_5_" x="21" y="-318" class="st52" width="3817" height="1397"/>
		
			<radialGradient id="XMLID_13_" cx="2365.1365" cy="-359.9745" r="826.7251" gradientTransform="matrix(-2.443095e-12 1.21 2.9768 2.213432e-12 2121.9988 -3230.9211)" gradientUnits="userSpaceOnUse">
			<stop  offset="0" style="stop-color:#66CBEA;stop-opacity:0.8"/>
			<stop  offset="2.288759e-02" style="stop-color:#65C9E9;stop-opacity:0.7817"/>
			<stop  offset="0.4452" style="stop-color:#55A3D5;stop-opacity:0.4439"/>
			<stop  offset="0.7858" style="stop-color:#4B8CC9;stop-opacity:0.1714"/>
			<stop  offset="1" style="stop-color:#4784C4;stop-opacity:0"/>
		</radialGradient>
		<polygon id="XMLID_4_" class="st53" points="0,1079 3838,1079 3838,-318 0,-318 		"/>
		
			<radialGradient id="SVGID_36_" cx="1413.7549" cy="822.8356" r="1446.7919" gradientTransform="matrix(0.9222 0.3867 -7.355435e-02 0.1754 170.4936 131.8199)" gradientUnits="userSpaceOnUse">
			<stop  offset="0.1843" style="stop-color:#2323AF"/>
			<stop  offset="0.6577" style="stop-color:#2323AF;stop-opacity:0"/>
		</radialGradient>
		<path class="st54" d="M2375.9-69.2c-312-132-1887.2-156-1902.2-135s96,480,105,858.1s54,606.1,216,753.1s252,351,984.1,231
			c732.1-120,804.1-168,1017.1-291s291-48,330-276s123-777.1,66-942.1s42-204-147-225c-189-21-705.1-21-705.1-21L2375.9-69.2z"/>
		<radialGradient id="SVGID_37_" cx="1316.7708" cy="779.8431" r="939.5731" gradientUnits="userSpaceOnUse">
			<stop  offset="0" style="stop-color:#2323AF"/>
			<stop  offset="0.922" style="stop-color:#2323AF;stop-opacity:0"/>
		</radialGradient>
		<path class="st55" d="M2375.9-69.2c-312-132-1887.2-156-1902.2-135s96,480,105,858.1s54,606.1,216,753.1s252,351,984.1,231
			c732.1-120,804.1-168,1017.1-291s291-48,330-276s123-777.1,66-942.1s42-204-147-225c-189-21-705.1-21-705.1-21L2375.9-69.2z"/>
		<linearGradient id="SVGID_38_" gradientUnits="userSpaceOnUse" x1="1921.5" y1="1074.231" x2="1921.5" y2="319.2375">
			<stop  offset="0" style="stop-color:#2D1D8F"/>
			<stop  offset="1" style="stop-color:#2D1D8F;stop-opacity:0"/>
		</linearGradient>
		<rect y="-30" class="st56" width="3843" height="1110"/>
	</g>
</g>
</svg>
