<?xml version="1.0" encoding="utf-8"?>
<!-- Generator: Adobe Illustrator 22.0.1, SVG Export Plug-In . SVG Version: 6.00 Build 0)  -->
<svg version="1.1" id="Layer_1" xmlns="http://www.w3.org/2000/svg" xmlns:xlink="http://www.w3.org/1999/xlink" x="0px" y="0px"
	 viewBox="0 0 123.6 52.9" style="enable-background:new 0 0 123.6 52.9;" xml:space="preserve">
<style type="text/css">
	.st0{fill:#1F52FF;}
	.st1{clip-path:url(#SVGID_2_);}
	.st2{fill:#370487;}
	.st3{fill:#61FDED;}
	.st4{fill:#FFFFFF;stroke:#003535;stroke-width:1.13;stroke-miterlimit:10;}
	.st5{fill:#00726F;}
	.st6{clip-path:url(#SVGID_4_);}
	.st7{opacity:0.7;fill:#00726F;enable-background:new    ;}
	.st8{fill:#C8FCF3;}
	.st9{opacity:0.6;fill:#E9FFFB;enable-background:new    ;}
	.st10{fill:#003535;}
	.st11{fill:none;stroke:#41AFA2;stroke-width:3.39;stroke-linecap:round;stroke-linejoin:round;}
	.st12{fill:none;stroke:#FFFFFF;stroke-width:3.39;stroke-linecap:round;stroke-linejoin:round;}
	.st13{fill:none;stroke:#9CB6FF;stroke-width:1.13;stroke-linecap:round;stroke-linejoin:round;}
</style>
<title>Asset 8</title>
<g id="Layer_2_1_">
	<g id="fishes_right">
		<path class="st0" d="M101.6,25.2c0,0,15.7-11.8,19.2-10.7s3.1,28.9-2,33.6c-3.4,2-20.3-15.2-20.3-15.2S97,26.3,101.6,25.2z
			 M40.8,10.9l52.6,13.2c0,0,11.7-14.9,11.6-16.2s-5-5.1-28.8-7.3S40,10.4,40,10.4L40.8,10.9z M63,47.2c0,0,34.1,7.9,39,3.6
			S86.3,39.7,86.3,39.7S62.4,46.2,63,47.2z"/>
		<g>
			<defs>
				<path id="SVGID_1_" d="M101.6,25.2c0,0,15.7-11.8,19.2-10.7s3.1,28.9-2,33.6c-3.4,2-20.3-15.2-20.3-15.2S97,26.3,101.6,25.2z
					 M40.8,10.9l52.6,13.2c0,0,11.7-14.9,11.6-16.2s-5-5.1-28.8-7.3S40,10.4,40,10.4L40.8,10.9z M63,47.2c0,0,34.1,7.9,39,3.6
					S86.3,39.7,86.3,39.7S62.4,46.2,63,47.2z"/>
			</defs>
			<clipPath id="SVGID_2_">
				<use xlink:href="#SVGID_1_"  style="overflow:visible;"/>
			</clipPath>
			<g class="st1">
				<path class="st2" d="M93.4,25.6c12.5,0.3,7.4-4.2,11.5-7.8c4.1-3.5,2.2-4.5,2.4-6.2S105,4.3,105,4.3s-12.1-5.1-6.5-1.8
					c5.6,3.4-0.8,8.4-5.7,9.3C88,12.7,71.7,6.5,58.9,5.4C46.1,4.4,40.3,8,40.3,8L40,8c-0.3,0.1-0.8,5.1,0.5,6.6
					c1.3,1.5,10.8,4.6,10.8,4.6s2.3,0.4,9.7,2.8C68.4,24.3,80.9,25.3,93.4,25.6z"/>
				<path class="st2" d="M61.7,52.4c1.4,0.2,2.8,0.5,4.2,0.8c2.3-0.2,4.6-0.4,7-0.1c4,0.4,7.8,1.3,11.7,1.9c6.3,1,12.4,0.6,18.5-1.4
					c1.3-0.4,2.5-0.6,3.6-0.6c-0.6-2.8-2-4.7-2.8-3.7c-2.1,2.9-17.3-0.1-15.2-0.5c2.2-0.5,8.4-6.5,8.4-6.5s-1.8-2.2-11.1-5.2
					c-9.3-3-16.2,5-24.4,12.7c-0.9,0.9-1.5,1.7-1.7,2.6C60.5,52.4,61.1,52.3,61.7,52.4z"/>
				<path class="st2" d="M113.8,51.6c0.5-0.2,0.9-0.5,1.4-0.7c1.7-1,3.5-1.5,5.4-1.5c0.9,0.1,1.7,0.2,2.6,0.3
					c0.5-2.6,1.2-5.1,1.5-7.7c0.5-4.4,0.1-9.1,0.1-13.5c0-4.3-1.2-7.3-2.6-11.4c-0.6-1.7-1.1-3.3-1.7-4.9c2.3,7.8-1,29-5.7,29.1
					c-5.2,0.2-14.4-11.5-14.4-11.5c-14.8,1.8-1.6,5.5,3.2,12c4.8,6.5,1.2,2.3,8.5,8.3C112.7,50.7,113.3,51.2,113.8,51.6z"/>
			</g>
		</g>
		<path class="st3" d="M2.7,39c-2.2-1.7-2.7-4.8-1.1-7.1c0.2-0.2,0.4-0.4,0.6-0.6c8.1-7.8,30.5-26.2,57.7-23.5
			c34.3,3.4,42.1,13.7,43,15.7s2.9,8.3-1.6,12.3S83.1,54.5,42.2,50C18.3,47.4,7.5,42.5,2.7,39z"/>
		<circle class="st4" cx="21.7" cy="31.2" r="6.6"/>
		<circle class="st5" cx="21.7" cy="31.2" r="4.7"/>
		<g>
			<defs>
				<path id="SVGID_3_" d="M2.7,39c-2.2-1.7-2.7-4.8-1.1-7.1c0.2-0.2,0.4-0.4,0.6-0.6c8.1-7.8,30.5-26.2,57.7-23.5
					c34.3,3.4,42.1,13.7,43,15.7s2.9,8.3-1.6,12.3S83.1,54.5,42.2,50C18.3,47.4,7.5,42.5,2.7,39z"/>
			</defs>
			<clipPath id="SVGID_4_">
				<use xlink:href="#SVGID_3_"  style="overflow:visible;"/>
			</clipPath>
			<g class="st6">
				<path class="st7" d="M-1.9,34.2c0.3-0.2,15.4,8.5,30,7.8s25.4-3.7,40.1-3.4s37.4-4,37.7-9.6s9.3,7.5,6.1,13.8
					c-2.3,4.5-5.6,8.4-9.6,11.6c-2.3,1.9-63.1,3.4-73.9,1S8.6,50.1,8.6,50.1S-11.8,40.1-1.9,34.2z"/>
				<path class="st8" d="M114.9,16c-0.7,0.3-1.5,0.6-2.2,1c-2.7,1.4-5.1,3.2-8.1,4.3c-1.5,0.6-2.7-0.1-3.2-1.2
					c-1.7-1.3-1.5-4.3,0.5-5.2c1.1-1.9,2.1-3.9,3.7-5.4c0-0.3-0.1-0.5-0.1-0.8c0-0.6,0.1-1.1,0.3-1.7c-2-1.5-4.1-2.9-6.3-4.3
					c-0.9-0.3-1.8-0.6-2.7-0.9C96,2.1,95.1,2.2,94.1,2c-7.8-1.4-15.8-4-23.7-3.8c-2.3,0-4.5,0.2-6.7,0.5c-0.1,0-0.1,0-0.2,0
					c-0.2,0-0.4,0-0.6,0.1c-0.5,0.1-1,0.1-1.5,0.2c-2.8,0.5-5.4,1.6-8,2.7c-1.7,0.7-6.2,1.6-7,3.5c-0.6,1.4-1.8,1.8-3,1.5
					c-0.2,0.3-0.5,0.5-0.8,0.7c-3.9,2.3-8.1,3.7-12.4,5c-5.2,1.7-9.6,4.2-14.2,7c-0.8,0.5-1.5,0.5-2.2,0.4c-2.6,2-5.3,4-8.1,5.8
					C5.5,25.8,5.3,26,5,26.2c-0.9,0.8-1.8,1.6-2.7,2.5c-0.1,0.2-0.2,0.3-0.3,0.5c-1,1.7-1.2,3.5-1.5,5.4c5.2-5,24.9-22.4,49.1-24.1
					c28.2-2,53.8,9.9,54.9,18.1C105.4,35.5,121.8,27.8,114.9,16z"/>
				<path class="st9" d="M3.9,39.9c0,0,21,9.5,52.1,9.5s47.8-13.9,49.6-17.2s4.1,7.5,2.4,11.6s11.6,20.9-34.2,18.6
					S6.3,57.1,5.1,53.2S3.9,39.9,3.9,39.9z"/>
			</g>
		</g>
		<ellipse transform="matrix(0.109 -0.994 0.994 0.109 -12.2031 49.8263)" class="st10" cx="21.7" cy="31.7" rx="4.2" ry="4.7"/>
		<path class="st11" d="M40.9,17.9c5.1-1.7,10.6-2.3,15.9-1.8"/>
		<path class="st11" d="M64.7,16.9c0,0,5.8,0.1,7.8,1"/>
		<path class="st11" d="M45.4,25.5c0,0,14.2-1.9,23.4,0.2"/>
		<path class="st11" d="M76.8,27c0,0,4.6,0.7,6.5,1.2"/>
		<path class="st11" d="M54.8,32.4c4.6-0.4,9.3-0.2,13.9,0.7"/>
		<path class="st11" d="M40.3,44.9c2.8,0.9,5.6,1.3,8.5,1.2"/>
		<path class="st11" d="M55.8,46.2c0,0,4.3-0.2,5.1-0.4"/>
		<path class="st12" d="M25.7,19.5c0,0,13.3-7.4,34.6-6.1s32.8,8.1,32.8,8.1"/>
		<path class="st13" d="M65.5,2.8C76.3,2,87.1,3.4,97.3,6.8"/>
		<path class="st13" d="M58.6,3.6c0,0,1.3-0.3,3.7-0.6"/>
		<path class="st13" d="M109.3,22.3c3.7-2.3,8.9-5.3,10.1-5c1.9,0.5,3.3,11.3-0.2,25.4"/>
		<path class="st13" d="M105.5,24.7l1.6-1"/>
		<path class="st13" d="M92.9,44.2c0,0,8,2.8,8,5.3"/>
	</g>
</g>
</svg>
