<svg xmlns="http://www.w3.org/2000/svg" viewBox="0 0 361.72 1126.54"><defs><style>.cls-1{fill:#2581cd;}.cls-2{fill:#2b99ea;}.cls-3{fill:#2fa6fa;}.cls-4{fill:#4acbff;}.cls-5{fill:#48b9f2;}.cls-6{fill:#54faff;}</style></defs><title>Asset 35</title><g id="Layer_2" data-name="Layer 2"><g id="background"><path class="cls-1" d="M170.78,523.47s-3-19.6-25.76-23-59.2-1.57-97.54-36.67c0,0,7,21.41,21.93,31.34,0,0-6.34,5.95-17.8-5.15,0,0,9.16,21,42.86,30.35s54.47-11.9,74.95,11.42S170.78,523.47,170.78,523.47Z"/><path class="cls-1" d="M199.4,569.49s-7.78-26.5-30.14-26.11-53.46-3.29-59.55-17.44c0,0,3.62,41.78,34.5,64.35s57.47-7.51,57.47-7.51Z"/><path class="cls-1" d="M99.68,296.09l1.17,3.88s-21.08,1.54-39.18-17.55-29-68.78-61.24-63.29c0,0-6.37,37.69,30.15,70.19s74.56,17.06,74.56,17.06l-.77-11.77Z"/><path class="cls-1" d="M140.39,148.54s28,44.11,11.36,73.64-49.81,36.15-48.28,56-12-18.16-11-20.4,3.34-11.94,3.34-11.94,15.18-7.65,13.21-25S122.24,160.56,140.39,148.54Z"/><path class="cls-1" d="M230.17,646.14l1.3-4.11,2.14-.56,1.19-4.25s.51-.72,1.46-1.93a74.32,74.32,0,0,1,11.4-29.86c11.6-17.29,21.26-27.38,21-43.49s6.32-49.21,36.53-71.83c0,0,10.4,33.24-3.65,64.41-12.21,27.09-44.95,40.87-56.28,70.65a77.28,77.28,0,0,1,16.87-13c15.56-8.49,18.52-26.32,39.09-38.1,13.61-7.51,33.48-8.35,33.48-8.35s-3.86,29-31.37,43.74-33.26-1.66-57.59,37.11c22.53-1.28,48.31-13.11,64.67-20.16,18.6-8,51.29-7.48,51.29-7.48a82.58,82.58,0,0,1-26,29.1c-18.14,12.48-41.66,12.47-60.16,7.77s-38.46-2.67-39.27-2.37C236.26,653.44,217.49,646.26,230.17,646.14Z"/><path class="cls-2" d="M203.5,1126.5a9.54,9.54,0,0,1-6.74-15.24h0c.16-.21,16.1-21.76,32-67,14.7-41.87,32.37-113.16,33.06-215,.58-84.3-41.06-178.5-85.14-278.22C118.11,418.46,57.54,281.42,96.94,159.33a9.54,9.54,0,1,1,18.16,5.86C77.93,280.36,137,414,194.15,543.28c44.93,101.65,87.37,197.66,86.76,286.06-.71,105.16-19.18,179-34.55,222.36-16.88,47.65-33.67,70.12-34.37,71.06A9.56,9.56,0,0,1,203.5,1126.5Z"/><path class="cls-1" d="M234.64,422.77h0c-1.72,21.23-12.63,58.5-36,66.31-7.35,2.86-28.77,2.32-28.77,2.32s-1.86-21.7.8-29.31C177.46,438.6,213.69,425.7,234.64,422.77Z"/><path class="cls-2" d="M262.35,480h0c1.45,23.78-4.75,66.78-29.42,79.12-7.69,4.33-31.49,7.11-31.49,7.11S196,542.45,197.7,533.6C201.52,506.51,239.61,486.51,262.35,480Z"/><path class="cls-1" d="M209.37,370.62h0c-1.71,21.22-12.62,58.5-36,66.31-7.35,2.86-28.77,2.32-28.77,2.32s-1.87-21.7.8-29.31C152.19,386.45,188.43,373.55,209.37,370.62Z"/><path class="cls-1" d="M46,327.14h0c21.22,1.71,58.5,12.62,66.31,36,2.86,7.35,2.32,28.77,2.32,28.77s-21.71,1.87-29.31-.8C61.8,384.32,48.9,348.08,46,327.14Z"/><path class="cls-1" d="M79.18,448.87h0c15.45-5.4,45.06-9.33,57.83,4.67,4.3,4.28,10.59,19.5,10.59,19.5s-14.68,8.07-20.86,8.57C108.11,484.14,87.76,462.69,79.18,448.87Z"/><path class="cls-1" d="M275.35,915.15s-24.39.94,3.78,18.05,56.85-38.37,52-69S344,823.38,344,823.38c-43,2.47-54.1,53.72-53.95,74.4s-13.82,17.33-13.82,17.33"/><path class="cls-3" d="M236.37,1036.12s-1.92-4.22-22.54-.69S165.43,1027,151.3,998s-3.84-47.42-3.84-47.42,1.76,26.55,28.7,33.92,54.18,13.08,60.59,41.27S236.37,1036.12,236.37,1036.12Z"/><path class="cls-2" d="M259.08,750.84S249,724.36,227.44,712.46s-41.07-29.83-40.21-52.74c0,0-24.55,29.77,7,72.82s66.47,22.62,66.47,22.62Z"/><path class="cls-1" d="M266.24,853.94s-11.31-22-31.14-30.19-38.47-21.88-39.95-41.82c0,0-18.38,28.18,13.14,62.43s59.79,13.17,59.79,13.17Z"/><path class="cls-4" d="M247.8,601.56a82.45,82.45,0,0,1-16.57,27.16s-4.38-11.35-4.52-11.54c31.56-51.36-12.45-35.06-51.45-52-14.18-6.15-24.62-18.91-30.42-33-3.1-7.54-6.37-17.94-5.23-26.3,0-.25.07-.5.11-.75.95,2.58,1.32,5.34,2.54,7.86,2,4.24,5.53,7.57,9.12,10.61a91.72,91.72,0,0,0,25.79,15.86c11.31,4.38,23.53,5.79,35.36,8.54,14.24,3.3,33.17,10,37.16,26C252.13,583.76,250.71,593.28,247.8,601.56Z"/><path class="cls-4" d="M306.89,840.37v0c-7.68,14.6-27.68,11-28.31,11.31l-.39-9.64s16.41,4.37,15-16.2-61.24-34.59-98.2-61.81-31.81-71-31.81-71c.08.45.19.9.3,1.35a0,0,0,0,0,0,0c4.07,15.51,27,31.81,40.69,42.55,14.17,11.06,104.7,56,105.69,88.1C310,831.62,308.87,836.6,306.89,840.37Z"/><path class="cls-4" d="M271.62,1017.11a32.5,32.5,0,0,1-3.8,5.74c-6.49,8.31-18.22,20-18.69,20.42l4.08-12.6s13.22-10.88,2.82-27.79c-2.95-4.81-7.41-7.47-12.81-8.73-6.16-1.46-12.55-1.77-18.74-3a84.06,84.06,0,0,1-20.79-7.33,91.84,91.84,0,0,1-33.23-27.42,79,79,0,0,1-13.55-29.89,73,73,0,0,1-1.67-16.34c0-3.77.93-7.63,1.09-11.37q0-.76,0-1.53c2.25,14.17,9.9,30.2,21.89,40.3,10.94,9.21,23.64,15.08,37.3,19C230,960.67,245,963.86,258,971.64c7.57,4.51,14.44,11.3,16.61,20.1C276.7,1000.15,275.14,1009.32,271.62,1017.11Z"/><path class="cls-4" d="M191.58,493A63.11,63.11,0,0,1,179,509.15l-5-11.23s25.38-9.54,13.81-40.72-40.71-12.64-82.33-44.73c-37.27-28.74-27.7-65.41-25.29-72.76.28-.86.47-1.32.47-1.32.21,13.54,7.5,36.74,25.19,54.75S189,423.93,196.88,455.9C200.58,471,196.7,483.74,191.58,493Z"/><path class="cls-4" d="M175.92,401.7a29.84,29.84,0,0,1-1.43,3.71c-9.11,19.61-34.67,12.15-36,11.78l-10.63-6.78s37.11,9.69,32.64-15.84-33.29-36.2-70.66-65.27-32.72-83.44-32.72-83.44C61.48,275.14,88,300,121.68,320.27S183.4,377.51,175.92,401.7Z"/><path class="cls-4" d="M128,292.44a85.15,85.15,0,0,1-6.14,10.2,129.11,129.11,0,0,1-13.38,16.16c-1.74,1.8-4.41,5.55-6.84,6.48-.62.24-.3-6.85-.3-6.85,0-1.1,2.31-3.45,2.87-4.39a76.23,76.23,0,0,0,5.67-11.32c3.29-8.25,5.35-18.18,1.48-26.59-3-6.62-9.18-11.09-15-15.06-6.82-4.64-14-8.69-20.57-13.78a74.93,74.93,0,0,1-25.58-37.57c-1.5-4.78-4-9.15-3.26-14.41a2.29,2.29,0,0,0,.25,1.06c.77,1.79,3.1,4.47,3.79,5.43a53.82,53.82,0,0,0,5.14,6.13,54.56,54.56,0,0,0,12.67,9.7c9.91,5.5,21.7,7.61,32.05,12.43a80,80,0,0,1,13.35,7.75c7.18,5.23,13.35,12.13,16.69,20.37C135.68,270.17,133.35,281.78,128,292.44Z"/><path class="cls-4" d="M240.68,653.35c3.89-4.54,7.46-9,2.62-18.11-8.83-16.66-31.42,2.18-53.32,5.84-21.6,3.61-32.18-18.35-32.46-19,10.6,5.91,16.71,1.88,16.71,1.88a46.79,46.79,0,0,1-21.45-22.06,28,28,0,0,1-1.07-2.63c34.53,30.13,82.65,2.1,98.74,25.31,14.07,20.3-1,36.56-5.28,40.62C243.75,661.23,241.79,656.43,240.68,653.35Z"/><path class="cls-4" d="M286.79,929c-1.36,18.17-18.66,25.24-18.66,25.24-12.12,2.3-9.36-13.6-9.36-13.6s22.53.69,17.09-20.9c-16.29-37.89-43.82-13.93-90.78-43.38s-27.93-69.64-27.93-69.64v0c26.73,70.07,98.61,56.61,121.66,95.15C285.35,912.86,287.33,921.8,286.79,929Z"/><path class="cls-2" d="M97.79,214.25S47.54,168.47,51.9,119.67,70.8,28.52,52.57,0c0,0,41,38.28,44.12,70s-3.1,60.71-3.1,60.71-4.8,19.54,5.93,45.07S97.79,214.25,97.79,214.25Z"/><path class="cls-2" d="M90.69,178.64s1.74-37,12.37-54.81S123,89.33,116.3,71.56c0,0,25.25,33.55,12.2,67.81S87.39,237.81,90.69,178.64Z"/><path class="cls-2" d="M89.27,190.52s-20-31.24-38-41.34-34.46-20-37.56-38.7c0,0-5.14,41.68,23.26,64.87S121.65,240.16,89.27,190.52Z"/><path class="cls-5" d="M289.48,736.22h0A58.79,58.79,0,0,1,273.19,758s-3.43-12.77-3.37-13.5c26.9-39-12.48-30.82-48.18-53.88-29.36-19-27.33-59.3-25.62-64.79.36-1.18.71-.74.72,1.89.08,14.81,16.23,26.76,28.88,36.8s65.67,17.66,68,46.94A51.67,51.67,0,0,1,289.48,736.22Z"/><path class="cls-4" d="M67.31,348.37c4.65,2.77,9.15,5.79,13.52,9s8.62,6.57,12.74,10.09c2.06,1.77,4.05,3.62,6,5.47,1,.94,1.93,1.91,2.89,2.87s1.89,1.95,2.8,3A56,56,0,0,1,114.73,392c-.81-1.09-1.6-2.19-2.36-3.28l-2.61-3.08c-1.81-2-3.62-4-5.56-5.83-3.82-3.77-7.8-7.39-11.89-10.89s-8.21-7-12.4-10.36Z"/><path class="cls-4" d="M16,244a86.22,86.22,0,0,0,4.91,10.09,110.18,110.18,0,0,0,5.93,9.46,104.34,104.34,0,0,0,14.54,16.78,99.45,99.45,0,0,0,17.84,13.2,116.13,116.13,0,0,0,20.44,9.05,83.72,83.72,0,0,1-21.27-7.52,87.24,87.24,0,0,1-9.7-5.92A89.44,89.44,0,0,1,39.83,282a96.69,96.69,0,0,1-7.8-8.27,89.21,89.21,0,0,1-6.67-9.19A77.23,77.23,0,0,1,16,244Z"/><path class="cls-4" d="M108.83,252.25a96.37,96.37,0,0,0,7.74-8.31,100.32,100.32,0,0,0,6.78-9,77.45,77.45,0,0,0,5.56-9.77c.87-1.67,1.48-3.43,2.22-5.15.31-.88.59-1.77.88-2.65l.44-1.33c.14-.44.22-.9.34-1.35l.66-2.71c.21-.91.36-1.85.55-2.77.37-1.86.65-3.72,1-5.58q.93-5.59,1.64-11.22c.46-3.76.88-7.52,1.21-11.29s.61-7.55.8-11.34a162.13,162.13,0,0,1-.52,22.79,160.26,160.26,0,0,1-3.46,22.61c-.12.46-.21.94-.36,1.4l-.46,1.37c-.32.91-.61,1.83-.94,2.74l-1.12,2.66c-.19.44-.37.89-.57,1.33l-.65,1.28c-.45.86-.87,1.72-1.33,2.56L127.76,231c-.47.84-1,1.63-1.54,2.43s-1,1.6-1.63,2.36A82.19,82.19,0,0,1,108.83,252.25Z"/><path class="cls-4" d="M144.44,439.65c2-2.09,3.92-4.29,5.86-6.45l5.89-6.42c3.94-4.26,7.95-8.46,12-12.66s8.1-8.32,12.22-12.42l6.2-6.12,6.25-6.08c-3.6,4.58-7.45,8.94-11.36,13.24s-7.9,8.53-11.92,12.72-8.12,8.32-12.28,12.37S148.92,436,144.44,439.65Z"/><path class="cls-4" d="M95.5,454.31c4.63.82,9.22,1.83,13.77,3s9.07,2.47,13.56,3.88,8.92,3,13.26,4.86c2.17.93,4.31,1.93,6.39,3.07a30.45,30.45,0,0,1,3,1.9,7.56,7.56,0,0,1,2.48,2.52,8.59,8.59,0,0,0-2.76-2.09,30.13,30.13,0,0,0-3.15-1.48c-2.14-.92-4.33-1.72-6.52-2.51-4.4-1.55-8.84-3-13.3-4.43l-13.38-4.28C104.39,457.34,99.94,455.85,95.5,454.31Z"/><path class="cls-4" d="M169.37,492q5.77-7.66,11.94-15t12.56-14.49c4.31-4.73,8.65-9.43,13.21-13.93q1.69-1.69,3.45-3.35c1.15-1.1,2.32-2.2,3.53-3.25l1.82-1.58c.61-.52,1.25-1,1.87-1.52s1.22-1,1.91-1.46l2-1.32c-1.23,1-2.46,2-3.59,3.17-.57.55-1.15,1.09-1.71,1.66l-1.65,1.73c-1.12,1.13-2.22,2.29-3.3,3.46s-2.19,2.32-3.25,3.5c-4.32,4.7-8.59,9.44-12.87,14.18L182.44,478Q176,485.1,169.37,492Z"/><path class="cls-4" d="M86.64,501c3,1.09,6.08,2.1,9.17,3s6.18,1.69,9.3,2.36c1.56.37,3.14.62,4.7,1s3.14.56,4.72.74l2.37.31c.79.1,1.58.16,2.37.24,1.59.18,3.17.23,4.76.31s3.17,0,4.76.07,3.23-.06,4.84,0c3.23,0,6.47.14,9.7.46a49.77,49.77,0,0,1,9.59,1.74,18.73,18.73,0,0,1,8.38,4.79,19.62,19.62,0,0,0-8.62-3.88,58.77,58.77,0,0,0-9.46-1.15c-3.19-.13-6.38-.2-9.58-.13l-4.8.1c-1.63,0-3.26.07-4.89,0a89.34,89.34,0,0,1-19.19-3A93.57,93.57,0,0,1,86.64,501Z"/><path class="cls-4" d="M134.73,552.38a2.48,2.48,0,0,0,.48.85l.62.78c.41.51.84,1,1.27,1.52.88,1,1.78,2,2.72,2.88,1.84,1.89,3.78,3.68,5.77,5.4a75.78,75.78,0,0,0,12.85,9A50.66,50.66,0,0,0,173,578.21a42.54,42.54,0,0,0,15.67.07,34.66,34.66,0,0,1-15.91,1.41,45.11,45.11,0,0,1-15.27-5.2,62.48,62.48,0,0,1-12.94-9.57,67.39,67.39,0,0,1-5.46-5.88c-.84-1-1.65-2.11-2.42-3.2-.38-.55-.76-1.1-1.11-1.67-.17-.28-.34-.57-.5-.87A2.27,2.27,0,0,1,134.73,552.38Z"/><path class="cls-4" d="M209.3,556c6.3-10.27,13.08-20.2,20-30.05,3.48-4.91,7-9.8,10.56-14.63s7.23-9.61,11-14.32q-4.74,7.71-9.77,15.19c-3.34,5-6.76,9.94-10.21,14.87C223.9,536.82,216.84,546.56,209.3,556Z"/><path class="cls-4" d="M191.88,704.46c1.74,2.68,3.53,5.29,5.46,7.81s3.88,5,5.94,7.41,4.2,4.72,6.45,6.92a78.94,78.94,0,0,0,7,6.28,60,60,0,0,0,16.14,9.47,46.94,46.94,0,0,0,9.08,2.34,46,46,0,0,0,9.47.23,39.66,39.66,0,0,1-9.56.71,42.08,42.08,0,0,1-9.49-1.86,54.06,54.06,0,0,1-16.84-9.39,83.7,83.7,0,0,1-13.45-13.75A91.33,91.33,0,0,1,191.88,704.46Z"/><path class="cls-4" d="M201.07,814.4a78,78,0,0,0,5.86,8.6,101.51,101.51,0,0,0,6.71,7.91,91.74,91.74,0,0,0,15.7,13.36,78.64,78.64,0,0,0,18.44,9.11,80,80,0,0,0,10,2.66c1.69.4,3.4.63,5.12.89.86.16,1.72.22,2.59.31l2.59.29a68.33,68.33,0,0,1-20.75-2.72,73,73,0,0,1-9.87-3.74,81.5,81.5,0,0,1-9.19-5.2,80.53,80.53,0,0,1-15.75-14A74,74,0,0,1,201.07,814.4Z"/><path class="cls-4" d="M265.58,919.38a35.16,35.16,0,0,0,10.66,7.84,14.82,14.82,0,0,0,6.25,1.43,10.14,10.14,0,0,0,5.86-2,17.2,17.2,0,0,0,4.23-4.74,36.85,36.85,0,0,0,2.88-5.88,81.22,81.22,0,0,0,3.87-12.66c2-8.64,3-17.57,5.12-26.33a55.49,55.49,0,0,1,4.64-12.71,33.71,33.71,0,0,1,8.45-10.43,39.41,39.41,0,0,0-4.33,5.08,35.31,35.31,0,0,0-3.28,5.77,59.71,59.71,0,0,0-4,12.63c-.91,4.34-1.61,8.74-2.29,13.16s-1.44,8.86-2.42,13.26a79.8,79.8,0,0,1-4.07,12.93,38.63,38.63,0,0,1-3.15,6.09,17.65,17.65,0,0,1-4.79,5.07,11.27,11.27,0,0,1-6.72,2,15.84,15.84,0,0,1-6.65-1.83,29.14,29.14,0,0,1-5.58-3.85A35,35,0,0,1,265.58,919.38Z"/><path class="cls-4" d="M241.5,648.79a207,207,0,0,1,25.76-.7c4.29.08,8.61.34,12.83.34a112.73,112.73,0,0,0,12.72-.85,132.91,132.91,0,0,0,24.92-5.45,103.66,103.66,0,0,0,11.89-4.68,40,40,0,0,0,10.64-7c-.75.77-1.43,1.62-2.24,2.33l-1.24,1a13.65,13.65,0,0,1-1.28,1c-.89.61-1.74,1.28-2.67,1.83l-2.78,1.67a89.94,89.94,0,0,1-11.83,5.27A116.34,116.34,0,0,1,293,649.49a105.65,105.65,0,0,1-13,.76c-4.36-.11-8.61-.41-12.89-.66s-8.56-.46-12.84-.61S245.8,648.69,241.5,648.79Z"/><path class="cls-4" d="M240,641.39a47.26,47.26,0,0,1,13.51-20.09,46,46,0,0,1,10.25-6.8l5.49-2.56c.9-.43,1.74-1,2.62-1.42a28.77,28.77,0,0,0,2.55-1.54c6.77-4.21,12.48-10,18.53-15.33a86.45,86.45,0,0,1,9.56-7.58,53.91,53.91,0,0,1,10.82-5.54C306,584,299.74,589.14,294,594.76c-2.9,2.79-5.79,5.62-8.81,8.36a74,74,0,0,1-9.71,7.49c-.86.55-1.73,1.1-2.64,1.57s-1.8,1-2.73,1.45l-5.53,2.51a47.64,47.64,0,0,0-10.07,6.3A52.61,52.61,0,0,0,240,641.39Z"/><path class="cls-4" d="M238.1,635.64a50.11,50.11,0,0,1,1.2-8.51,64.76,64.76,0,0,1,2.41-8.28A56.51,56.51,0,0,1,250,603.71a42.53,42.53,0,0,1,2.79-3.34c1-1.11,1.93-2.11,2.89-3.17s1.85-2.14,2.79-3.21,1.77-2.22,2.65-3.32a110.13,110.13,0,0,0,9.31-14.23A94.17,94.17,0,0,0,277.39,561a68,68,0,0,0,2.29-8.15c.54-2.74,1-5.64,1.69-8.43s1.45-5.57,2.32-8.32,1.86-5.43,2.93-8.1,2.29-5.27,3.63-7.82A31.53,31.53,0,0,1,295,513a22.29,22.29,0,0,0-2.39,3.55c-.71,1.23-1.35,2.51-1.95,3.8-1.19,2.59-2.24,5.24-3.2,7.93a130,130,0,0,0-4.66,16.41c-.59,2.79-1,5.55-1.5,8.43a69.21,69.21,0,0,1-2.22,8.4,93.93,93.93,0,0,1-7,15.84,109.08,109.08,0,0,1-9.56,14.41c-.92,1.12-1.81,2.25-2.75,3.34S258,597.3,257,598.34s-2,2.1-2.95,3.13a42.27,42.27,0,0,0-2.8,3.17l-1.32,1.65c-.42.56-.81,1.16-1.21,1.73-.84,1.14-1.55,2.36-2.29,3.57s-1.35,2.49-2,3.73-1.24,2.55-1.75,3.88A63.4,63.4,0,0,0,238.1,635.64Z"/><path class="cls-4" d="M74.55,26.4c1.23,6.81,2.1,13.69,2.78,20.59s1.13,13.83,1.24,20.77a185.79,185.79,0,0,1-.68,20.83c-.33,3.45-.81,6.94-1.24,10.33s-.68,6.85-.86,10.29a214,214,0,0,0,2,41.26,142.82,142.82,0,0,0,4.36,20.15,62,62,0,0,0,3.71,9.52,31.77,31.77,0,0,0,2.59,4.33A16.62,16.62,0,0,0,91.88,188l-1.36.65a158.06,158.06,0,0,1,4.11-23.68,91.17,91.17,0,0,1,3.75-11.45,41.94,41.94,0,0,1,5.94-10.55c.65-.79,1.36-1.54,2-2.27a27.39,27.39,0,0,0,1.89-2.27c.56-.8,1.2-1.55,1.71-2.4s1.07-1.66,1.56-2.51a66.68,66.68,0,0,0,4.93-10.8,92.31,92.31,0,0,0,3.26-11.45,85.37,85.37,0,0,0,1.82-11.8A80.76,80.76,0,0,1,120,111.31a93.7,93.7,0,0,1-3,11.61,64,64,0,0,1-4.72,11c-.49.88-1,1.73-1.56,2.59s-1.15,1.66-1.71,2.5a28.55,28.55,0,0,1-1.91,2.36l-1.91,2.26A41.14,41.14,0,0,0,99.67,154a89.87,89.87,0,0,0-3.5,11.32,161.83,161.83,0,0,0-3.92,23.43l-.14,1.54-1.22-.89A22.92,22.92,0,0,1,84.28,181a64.1,64.1,0,0,1-3.88-9.79,131.43,131.43,0,0,1-4.46-20.42,215.45,215.45,0,0,1-1.82-41.63c.22-3.47.49-6.94.95-10.4s1-6.84,1.4-10.27a185.36,185.36,0,0,0,1-20.68A309.74,309.74,0,0,0,74.55,26.4Z"/><path class="cls-4" d="M24.42,137.8a75.92,75.92,0,0,0,12.66,17.14,73.61,73.61,0,0,0,8,7,66.32,66.32,0,0,0,8.86,5.78c3.1,1.68,6.38,3.06,9.67,4.5a105,105,0,0,1,9.68,4.81,162.91,162.91,0,0,1,18.14,11.63q-9.27-5.48-18.84-10.3c-1.6-.79-3.2-1.59-4.8-2.34s-3.25-1.44-4.9-2.12c-3.3-1.39-6.64-2.77-9.86-4.48A66.17,66.17,0,0,1,36,156,62,62,0,0,1,24.42,137.8Z"/><path class="cls-6" d="M175.92,401.7a29.84,29.84,0,0,1-1.43,3.71c.1-.75.2-1.55.33-2.38C182,353.33,110.73,320,83.39,295.92s-26.26-50.06-26.26-50.06C61.48,275.14,88,300,121.68,320.27S183.4,377.51,175.92,401.7Z"/><path class="cls-6" d="M128,292.44c18.68-57.4-42.84-64-60.71-73-15-7.6-19.16-19.41-20.13-23,.77,1.79,3.1,4.47,3.79,5.43a53.82,53.82,0,0,0,5.14,6.13,54.56,54.56,0,0,0,12.67,9.7c9.91,5.5,21.7,7.61,32.05,12.43a80,80,0,0,1,13.35,7.75c7.18,5.23,13.35,12.13,16.69,20.37C135.68,270.17,133.35,281.78,128,292.44Z"/><path class="cls-6" d="M193.31,488.8c16.81-39.29-12.78-56.36-45.39-70.47s-46.75-20.07-59.34-46.56c-7.82-16.45-8.88-26.62-8.42-32.06.28-.86.47-1.32.47-1.32-.38.93.14,3,.24,4,.16,1.54.38,3.08.66,4.61a79.29,79.29,0,0,0,2.62,10.3,92.62,92.62,0,0,0,11,22.64c3.71,5.58,7.91,11.13,13.11,15.41a73.92,73.92,0,0,0,13,8.13c13.54,7,27.82,12.52,41.34,19.6,11.31,5.91,23.61,13.09,30.55,24.2a29.71,29.71,0,0,1,3.72,8.62c3.7,15.09-.18,27.84-5.3,37.08C192.07,491.75,192.64,490.36,193.31,488.8Z"/><path class="cls-6" d="M247.8,601.56a19,19,0,0,1,.52-4.45c7.32-32.57-9.54-38.8-42.58-46.49s-48.71-18-58.19-27.25a25.61,25.61,0,0,1-7.94-17.47c0-.25.07-.5.11-.75.95,2.58,1.32,5.34,2.54,7.86,2,4.24,5.53,7.57,9.12,10.61a91.72,91.72,0,0,0,25.79,15.86c11.31,4.38,23.53,5.79,35.36,8.54,14.24,3.3,33.17,10,37.16,26C252.13,583.76,250.71,593.28,247.8,601.56Z"/><path class="cls-6" d="M250.09,624.31c-3.88-5-8.91-7.66-15.07-8.87-13-2.56-26.69-.42-39.85-.94-15.81-.63-31.3-4.58-43.46-15.19a28,28,0,0,0,1.07,2.63c3.91,4.89,15,14.65,41,14.73,7.31,0,14.62-.09,21.94-.11s15.13-.5,22.35,1.63a21.62,21.62,0,0,1,10.24,6.69c10.17,11.83,7.49,29.78-3.13,40.33h0c5.43-5.23,9.67-11.9,10.8-19.33A28.82,28.82,0,0,0,250.09,624.31Z"/><path class="cls-6" d="M289.48,736.22c1.5-3.47,2.1-7.8,2.59-11.53a44.77,44.77,0,0,0,.24-10,31.65,31.65,0,0,0-5.65-15.5c-3.19-4.47-7.43-7.76-12-10.73-7.58-5-17.08-8.13-25.65-11-2.35-.77-4.66-1.49-6.94-2.44A140.46,140.46,0,0,1,226,667.17c-4.6-2.62-8.87-6.26-13-9.61-16.68-13.58-17.26-27.46-17-31.78.36-1.18.71-.74.72,1.89,0,8.47,5.49,15.42,11.23,21.07,6.05,6,12.38,11.78,19.73,16.11,8,4.7,16.83,7.49,25.37,10.89,2.65,1,5.22,2.25,7.85,3.35.88.38,1.77.74,2.65,1.16,6.7,3.17,13.31,6.84,18.95,11.71,5,4.3,9.19,9.73,10.63,16.25a24.45,24.45,0,0,1,.48,3.2A51.67,51.67,0,0,1,289.48,736.22Z"/><path class="cls-6" d="M307.91,837.38c8.46-23.76-24.21-47.72-39.18-57S204,743,183.15,724.16c-15.27-13.79-18.8-24.78-19.7-29.76,4.07,15.51,27,31.81,40.69,42.55,14.17,11.06,104.7,56,105.69,88.1.2,6.57-1,11.55-2.94,15.32C307.14,839.6,307.47,838.61,307.91,837.38Z"/><path class="cls-6" d="M286.79,929c0-39.79-47.08-49.31-83.25-67.42-39.2-19.62-46.18-53.78-46.38-54.83,26.73,70.07,98.61,56.61,121.66,95.15C285.35,912.86,287.33,921.8,286.79,929Z"/><path class="cls-6" d="M271.62,1017.11a32.5,32.5,0,0,1-3.8,5.74c9.36-17.64,7.23-30.17-2.24-42-10.2-12.79-36.7-18.23-51.2-22.59s-32.85-8.67-46.42-28.55c-9.37-13.73-11.32-25.17-11.63-30.93q0-.76,0-1.53c2.25,14.17,9.9,30.2,21.89,40.3,10.94,9.21,23.64,15.08,37.3,19C230,960.67,245,963.86,258,971.64c7.57,4.51,14.44,11.3,16.61,20.1C276.7,1000.15,275.14,1009.32,271.62,1017.11Z"/><path class="cls-6" d="M88.16,236.48c.14-.49-1.3,3.6,15.13,14.62s23.65,27.33,16.33,43.93-9.48,18.33-9.5,18.34a21.19,21.19,0,0,1-1.77-1.3,173.53,173.53,0,0,0,8.29-17.29,36.36,36.36,0,0,0,3.19-12,26.48,26.48,0,0,0-3.72-14.65,36.53,36.53,0,0,0-4.6-6.24,72.06,72.06,0,0,0-6.44-5.9q-5.44-4.72-10.72-9.66C91.86,244,87,240.51,88.16,236.48Z"/><path class="cls-6" d="M95.57,321.57s23.55,18.28,35.62,27.62,42.31,26.29,37.05,50.34c-4.33,19.79-18.14,17.87-18.14,17.87l-3-.91s10.52-.34,15.88-9.53,5.55-23.7-9.22-37S95.69,325.61,95.57,321.57Z"/><path class="cls-6" d="M123.62,416.28c2.59,1.12,5.07,2.32,7.58,3.52s5.06,2.28,7.66,3.28,5.23,1.87,7.89,2.69,5.36,1.51,8.05,2.28a98.41,98.41,0,0,1,15.86,5.7,48,48,0,0,1,7.3,4.33c.58.41,1.15.84,1.69,1.3a19.33,19.33,0,0,1,1.61,1.39c.52.49,1.05,1,1.55,1.47l1.44,1.57a40.63,40.63,0,0,1,4.89,7A39.63,39.63,0,0,1,193.93,467a42.27,42.27,0,0,1-.24,8.49l-.33,2.11-.46,2.07a36.1,36.1,0,0,1-1.22,4.08,42,42,0,0,1-3.71,7.63,58.2,58.2,0,0,1-11,12.77l-.65-.72A56.8,56.8,0,0,0,187,490.79a40.34,40.34,0,0,0,3.54-7.45,33.81,33.81,0,0,0,1.14-4l.43-2,.31-2a41.17,41.17,0,0,0,.21-8.23A38.41,38.41,0,0,0,188,451.42a39.79,39.79,0,0,0-4.73-6.71l-1.4-1.51c-.48-.49-1-.94-1.49-1.41s-1-.92-1.55-1.35-1.07-.86-1.63-1.26a45.53,45.53,0,0,0-7.08-4.23,96.79,96.79,0,0,0-15.62-5.69c-2.68-.77-5.38-1.51-8.07-2.32s-5.34-1.73-8-2.75-5.2-2.12-7.73-3.34A28.5,28.5,0,0,1,123.62,416.28Z"/><path class="cls-6" d="M171.62,552.56a4.43,4.43,0,0,0,1.45.92c.52.25,1.05.51,1.59.73,1.07.46,2.15.89,3.24,1.32q3.25,1.28,6.58,2.35a140,140,0,0,0,13.5,3.79c4.58,1,9.19,1.67,13.82,2.59,2.32.46,4.63,1,6.91,1.65a60.5,60.5,0,0,1,6.77,2.28,34.92,34.92,0,0,1,12.18,7.66,18.92,18.92,0,0,1,4,6.19,17.8,17.8,0,0,1,1.18,7.32,24.51,24.51,0,0,1-1.5,7.16c-.84,2.26-1.74,4.38-2.63,6.57-1.8,4.36-3.58,8.67-5.71,13l-1.7-.89c2-4.13,3.78-8.52,5.53-12.84.87-2.16,1.76-4.38,2.57-6.51a22.38,22.38,0,0,0,1.4-6.56,15.84,15.84,0,0,0-1-6.48,17.15,17.15,0,0,0-3.59-5.54A33.13,33.13,0,0,0,224.74,570a59.51,59.51,0,0,0-6.56-2.22c-2.23-.64-4.49-1.18-6.77-1.64s-4.61-.91-6.88-1.49-4.57-1.16-6.85-1.75c-4.55-1.17-9.11-2.39-13.58-3.9-2.22-.78-4.43-1.61-6.58-2.6a30.49,30.49,0,0,1-3.15-1.65c-.5-.31-1-.61-1.49-1-.24-.17-.47-.36-.7-.55A1.67,1.67,0,0,1,171.62,552.56Z"/><path class="cls-6" d="M204,627.21c5.88-1.72,11.94-2.12,17.89-3.26,1.5-.24,3-.47,4.54-.64a23.19,23.19,0,0,1,4.65-.13,22,22,0,0,1,8.84,2.87,20.61,20.61,0,0,1,6.95,6.19,16.43,16.43,0,0,1,2.72,8.91,24,24,0,0,1-1.6,9.12,17.94,17.94,0,0,1-2.14,4.15,8.67,8.67,0,0,1-3.63,3.09l-.38-.89a7.71,7.71,0,0,0,3.15-2.8,16.38,16.38,0,0,0,1.95-3.93,23.53,23.53,0,0,0,1.4-8.7,15.18,15.18,0,0,0-2.53-8.23,19.4,19.4,0,0,0-6.54-5.76,19.23,19.23,0,0,0-12.72-2.67c-1.49.15-3,.36-4.47.59-3,.5-6,1-9,1.35a67,67,0,0,1-9.08.74Z"/><path class="cls-6" d="M221.12,677.59c7.91,4.62,15.53,9.58,23.74,13.45,4.1,1.91,8.37,3.48,12.65,5.09,2.14.8,4.28,1.62,6.4,2.5a57.53,57.53,0,0,1,6.28,2.93,27.77,27.77,0,0,1,10.38,9.3,22,22,0,0,1,3,13.59,34.21,34.21,0,0,1-4.1,13.25,36.72,36.72,0,0,1-8.66,10.77l-.63-.73a37,37,0,0,0,8.19-10.62,33.68,33.68,0,0,0,3.77-12.79,20.54,20.54,0,0,0-2.9-12.66,26.52,26.52,0,0,0-9.86-8.71,56.85,56.85,0,0,0-6.11-2.88c-2.09-.88-4.22-1.69-6.35-2.5-4.26-1.62-8.56-3.22-12.73-5.18A100.54,100.54,0,0,1,221.12,677.59Z"/><path class="cls-6" d="M207.58,758c11,6,21.47,12.65,32.06,19.16,5.31,3.24,10.65,6.43,16.09,9.37s11.07,5.73,16.46,8.93a103.34,103.34,0,0,1,15.47,10.83,53.93,53.93,0,0,1,6.69,6.82,30.11,30.11,0,0,1,4.85,8.42,21.51,21.51,0,0,1,1.1,4.84,19.11,19.11,0,0,1-.19,5,21.52,21.52,0,0,1-1.35,4.76,17.15,17.15,0,0,1-2.62,4.26,18.52,18.52,0,0,1-8.15,5.45,23.75,23.75,0,0,1-4.72,1.16,26.13,26.13,0,0,1-4.87.3l.1-1.93a25.22,25.22,0,0,0,8.75-1.55,16.31,16.31,0,0,0,7.13-4.9,15,15,0,0,0,2.2-3.7A18.37,18.37,0,0,0,297.7,831a18.67,18.67,0,0,0,.13-4.35,19.05,19.05,0,0,0-1-4.24,27.34,27.34,0,0,0-4.48-7.66,51.29,51.29,0,0,0-6.39-6.46,110.37,110.37,0,0,0-15.11-10.56c-5.3-3.19-10.79-6-16.31-9s-10.82-6.27-16.13-9.55A331.79,331.79,0,0,1,207.58,758Z"/><path class="cls-6" d="M179.2,860.25c5.55,3.46,11.09,6.86,16.68,10.17a176.08,176.08,0,0,0,17.18,9.08,95,95,0,0,0,18.23,6.29,193.41,193.41,0,0,1,19.1,4.82c1.56.55,3.15,1,4.68,1.67l2.31.93,2.26,1,1.14.53,1.1.6,2.2,1.21a45,45,0,0,1,4.15,2.86,40.33,40.33,0,0,1,3.81,3.36,35,35,0,0,1,3.19,4,33.19,33.19,0,0,1,2.54,4.41,35,35,0,0,1,1.72,4.78,40.33,40.33,0,0,1,1.08,4.94,29.91,29.91,0,0,1,.26,5.1,16.64,16.64,0,0,1-3.34,9.78,17.77,17.77,0,0,1-8.68,5.52,36.67,36.67,0,0,1-9.92,1.48l-.08-1.93a35.07,35.07,0,0,0,9.35-1.57,15.57,15.57,0,0,0,7.56-4.9,14.29,14.29,0,0,0,2.72-8.47,30,30,0,0,0-1.32-9.27,32.74,32.74,0,0,0-1.61-4.41,29.22,29.22,0,0,0-2.35-4,31.84,31.84,0,0,0-2.94-3.64,37.4,37.4,0,0,0-3.54-3.1,45.66,45.66,0,0,0-3.91-2.67l-2.1-1.14-1.05-.57-1.09-.5-2.17-1-2.24-.89c-1.47-.62-3-1.08-4.53-1.63a189.8,189.8,0,0,0-18.84-4.86,97.3,97.3,0,0,1-18.67-6.56,154,154,0,0,1-17.33-9.39,110.22,110.22,0,0,1-15.69-11.83Z"/><path class="cls-6" d="M177.44,953.15a141.75,141.75,0,0,0,13.07,10.48,121.47,121.47,0,0,0,14.16,8.71,78.5,78.5,0,0,0,15.24,6.38c1.34.34,2.65.73,4,1l4.12.92,4.11,1,4.08,1.1a77.78,77.78,0,0,1,15.82,6.2,32.55,32.55,0,0,1,7,5.07,19.89,19.89,0,0,1,4.77,7.32,13.14,13.14,0,0,1,.64,2.11,16,16,0,0,1,.43,2.15,26.32,26.32,0,0,1,.23,4.34,34.53,34.53,0,0,1-1.3,8.52,32.17,32.17,0,0,1-3.39,8,16.67,16.67,0,0,1-2.79,3.47,8.07,8.07,0,0,1-2,1.34,4.29,4.29,0,0,1-2.63.36l.39-1.89a3.75,3.75,0,0,0,3-1.23,14.49,14.49,0,0,0,2.46-3A30,30,0,0,0,262,1018a31.92,31.92,0,0,0,1.24-8.05,24.88,24.88,0,0,0-.22-4,13.1,13.1,0,0,0-.4-2,11.36,11.36,0,0,0-.57-1.91,18.22,18.22,0,0,0-4.34-6.63,31.29,31.29,0,0,0-6.59-4.76,76.17,76.17,0,0,0-15.44-6l-4-1.09-4.06-1c-2.72-.6-5.45-1.19-8.23-1.89a73.92,73.92,0,0,1-15.88-6.13A88.3,88.3,0,0,1,189.45,965,87.42,87.42,0,0,1,177.44,953.15Z"/><path class="cls-6" d="M169.65,1001.5a79.1,79.1,0,0,0,16.61,12.38,57,57,0,0,0,19.23,6.75c6.87,1,13.88,1.93,20.63,4.25a21.54,21.54,0,0,1,9.13,5.61,16,16,0,0,1,3.48,9.91,16.86,16.86,0,0,0-4.33-9.11,21.73,21.73,0,0,0-8.85-4.65,84.44,84.44,0,0,0-10.09-2.14c-3.41-.58-6.85-1-10.32-1.51a48.62,48.62,0,0,1-5.23-1.12c-.86-.24-1.74-.43-2.57-.73l-2.52-.9a55.13,55.13,0,0,1-9.5-4.76A59.88,59.88,0,0,1,169.65,1001.5Z"/></g></g></svg>