<svg xmlns="http://www.w3.org/2000/svg" viewBox="0 0 228.35 770.05"><defs><style>.cls-1{fill:#fff;opacity:0.11;}</style></defs><title>Asset 41</title><g id="Layer_2" data-name="Layer 2"><g id="background"><path class="cls-1" d="M192.6,458c-10.51,1.14-26.26,3.16-40.14,1.42a18.36,18.36,0,0,0,1.68-8.18c15.89-10.87,18.77-2.39,37.23-6,21.38-4.18,29.92-22.72,29.92-22.72s-13.42-3.52-24-1.32c-16.14,3.63-21.78,14.91-33.91,17.37a50.22,50.22,0,0,0-11.19,3.84c-.2-.39-.4-.76-.62-1.13,14-15.31,36.92-18.27,50-33.06a57.46,57.46,0,0,0,8.87-13.63c1.25-.84,1.91-1.36,1.91-1.36s-.25-.47-.74-1.27a73.71,73.71,0,0,0,5.65-25.94,63,63,0,0,0-19.77,11.42,45.53,45.53,0,0,0-23.27-7.82c-22.21-1.26-32.92,9.43-35.84,13-2.07-1.15-4.11-2.24-6-3.29l-.08-.69q-1.53-13-3-26.05a40.38,40.38,0,0,0,6.21-3.58c4,1,8.32,1.94,10.84,1.76,17.2-.4,32.15-23,37.66-36.81h0c-8.56-1.39-21.35-1.56-32.35,1.43a34.88,34.88,0,0,0-6.23-12.72c15-4.07,27.62-23.62,32.58-36h0a85.54,85.54,0,0,0-25-.1c.06-15.63-9.54-36.33-23.16-51.54-1.7-1.9-3.36-3.82-4.95-5.75,9.46-5.72,22.78-16,24-28.44a27.44,27.44,0,0,0-1.51-12c7.39-2.8,15.58-6.33,22.69-13.07,17.14-16.28,7.58-51.45,7.58-51.45C163,108.62,144,134.12,141.75,146.09a16.86,16.86,0,0,1-3.81,8.06c-.63-.68-1.28-1.34-1.94-2a171.76,171.76,0,0,1,20.42-40.68c5.25-5.62,10.5-11.67,14.67-16.66,16.41-19.65,7.38-47.53,7.38-47.53.35,13.24-9.58,22.17-20.63,31.48a49.74,49.74,0,0,0-8.73,10.4c.14-.26.23-.4.23-.4a145.16,145.16,0,0,0,13.73-36.93C167.33,31.65,149.41,0,149.41,0c5.72,21.18-11.52,44.53-23.7,73.85-8.15,19.6-.95,43.12,4.72,56.55q-2.9,6.25-5.34,12.72c-1.79-1.27-3.5-2.39-5-3.36-10.91-6.87-14.56-23.47-14.56-23.47s-2.51,3.35.74,23.15c1.52,9.25,7,16.68,12.5,23.33a264,264,0,0,0-6.18,29.5C104.38,178.78,100,165.12,102,152.1A82.74,82.74,0,0,0,97.45,171c-5.22-17.83-5.39-45.33-25.24-47.94,0,0-12,23.83,5.66,53a55.5,55.5,0,0,0,20.75,20.42,52.9,52.9,0,0,0,8,18c1,1.44,2,2.83,3,4.19-.2,2.77-.37,5.56-.51,8.35-7.65-10.66-21.64-19.16-31.31-23h0c-2.36,14.57-1.21,41.39,13,50.76.18.13.38.27.59.4a53.18,53.18,0,0,0,8.47,18,78.94,78.94,0,0,0,9.69,11.37q.62,10.92,1.53,22A65.64,65.64,0,0,0,92.44,299h0c0,11.35,4.24,31.56,16.23,36.89a21,21,0,0,0,5.4,1.49c.34,3.21.69,6.43,1.05,9.64l-.53-.52C103,335.4,81.45,321.78,73.69,286.34c0,0-4.64,15-.09,26.69,0,0-6,.85-8.08-10.09,0,0-3.23,15.68,12.25,34.54,7.62,9.3,16.44,13.1,23.69,17.15a54.52,54.52,0,0,0,1.51,14.6c-11.72-4.81-22.71-11.67-23.55-19.52,0,0-6.19,28.61,9.76,50,10.66,14.31,24.88,12.54,33.14,9.79q1.07,9.48,2,18.83c-11.66-3.48-24.14-8.33-32-21.07a32.24,32.24,0,0,0,9.94,21.12s-4.9,1.42-10.77-4.71c0,0,2.39,17.27,17.75,19.34,1.25.16,2.52.26,3.8.31-2.48,10.18-3.54,26.5,7.13,39.21a100.07,100.07,0,0,0,8.54,8.91,380.22,380.22,0,0,1-1.58,48.11c-9-12.62-17.41-23.23-19.81-27.47-6.17-10.93-17-28.22-14.68-39.29,0,0-15,26.86,1.5,54.3,7.77,12.89,19.57,25.25,29.42,36.15a196.08,196.08,0,0,1-5.12,20q-1.85,5.85-3.74,11.44c-1.91-5.81-5.79-14.63-13-20.58-11.53-9.57-21.16-22.51-18-36.11,0,0-18.06,15-4.09,44.33,9.75,20.47,24,22.64,31.71,22.09q-2.73,7.65-5.53,14.85C88.88,600.59,56,588.49,53.26,546.74c0,0-21,22.9,4.29,52.2,17.87,20.73,34.75,21.64,44.19,30.53-6.13,14.91-12.39,28.21-18.53,40-.87.73-1.75,1.5-2.62,2.29-6-4.94-12.75-8.89-19.22-13.12-8.3-5.42-15.56-11.95-21-20.35-5.92-9.2-9.44-20.57-6.3-31.39-.82,2.83-2.49,5.53-3.41,8.38a50,50,0,0,0-2.24,11.24,55,55,0,0,0,2.88,22.72,64.05,64.05,0,0,0,16.52,25.14,58.89,58.89,0,0,0,12.35,9.16c2.76,1.51,5.69,2.73,8.52,4.11a110.08,110.08,0,0,1-7.59,15.55c-1.91-16.12-17.06-24.65-31.79-34-16.45-10.46-12.16-28.54-12.16-28.54S6.53,650.88,10,673.1,29.51,709,44,710.93a53.7,53.7,0,0,1,10.42,2.21,57.26,57.26,0,0,1-6.73,7.27c-.57-.32-.94-.5-.94-.5s-10.46,7-21.24,4.56S0,735.83,0,735.83s8.1,8,22.33,7.65a22.2,22.2,0,0,0,7.41-1.28,42.64,42.64,0,0,0-1.69,5.25c-.18.39-.34.76-.5,1.14A108.92,108.92,0,0,1,17,758a6.66,6.66,0,0,0,6.17,11.66,6.59,6.59,0,0,0,1.61-.86c.43-.31,7.19-5.23,17.59-16.3l.25-.22c7.09-6.12,19.42-3.08,34.65-8.31S103,719.85,103,719.85s-13.86-11-26.88,3.36c-5.78,6.39-13.64,11-20.59,14.07q3.28-4.1,6.8-8.8c1.34-1.8,2.73-3.71,4.15-5.71,1.28-.88,2.57-1.81,3.86-2.81a2.36,2.36,0,0,0,.34,1.08.75.75,0,0,0,.3.21c.69.27,1.65-.51,2.48-1a44,44,0,0,0,12.84-9.69c4-4.48,6.88-10.27,7.23-16.3a19.06,19.06,0,0,0-1.31-7.89,80.32,80.32,0,0,0,1.68-8.64q2.59-4.92,5.21-10.2c3.19-.74,9.15-2.81,13.11-8.33,16,9.58,42.4-18.54,45.23-38.37,3.06-21.44,17-24.56,17-24.56a32.82,32.82,0,0,0-23.32,2.61c.25-.56.5-1.14.73-1.76,3.56-9.38-3.77-25.24-13.51-40.87q1.48-9.15,2.34-18.63c6.26-3,19.8-11.17,23.2-26.41,2.95-13.23-10.83-24.71-22.34-33.65q-.17-3.57-.38-7.16a27.08,27.08,0,0,0,8.32-6.4,73.67,73.67,0,0,1,13.77,6.41c11.37,6.94,27.06,11.79,41.72,7.2a57.7,57.7,0,0,0,23.36-14.05S206.66,456.52,192.6,458Zm-52.87-8q-.25-3.09-.53-6.2l.75-.5a9.2,9.2,0,0,1,3.3,1.73c-.79,1.36-1.44,2.6-1.94,3.66-.88.61-1.37,1-1.37,1Zm38.11-43c-3.29,10.39-11.69,15.14-22.78,24.12a48.19,48.19,0,0,0-6.69,6.61l-.29-.24c6-5.14,14.1-14.28,14.8-26.93a17,17,0,0,0-.06-2.58l5.5-.14A79.3,79.3,0,0,0,177.84,407Zm-44.75-80c-2,2.73-4,9.22-5.23,13.94-1.48-13.65-2.81-27.27-3.83-40.78a94.16,94.16,0,0,0,12.68,3.06c4.58,3.39,7.75,7.39,8.69,14.25C140.27,319.68,135.9,322.76,133.09,327Zm-8.37-125.24c.15-1.19.31-2.38.47-3.56l.81-3.4h-.32q1.26-8.36,3-16.48a14.59,14.59,0,0,1,1.09-1.14A17.42,17.42,0,0,1,132,184C132.6,190.66,128.74,197.06,124.72,201.79Zm15.81,67.91c-5.62,2.2-10.43,5.42-13.44,10a12.27,12.27,0,0,0-.83,1.35,33.8,33.8,0,0,1-3.49-1.08l0,0c-.78-15.28-1-30.33-.56-45C132.94,248.42,140.69,258.23,140.53,269.7Zm-36.37-9.35-.29-.6c1.95.53,3.67,1,4.84,1.23q.06,2.91.15,5.82A32.52,32.52,0,0,1,104.16,260.35Zm31.6,149.52a38.44,38.44,0,0,1,7.76-1.18c7.53,5.92,9.28,12.2-2.22,25-1-.42-2.07-.82-3.16-1.2Q137,421.27,135.76,409.87Zm-19.52,33.51c3.2,0,6.42-.29,9.5-.52q1,11.14,1.75,22.05C122.92,458.27,117.63,450.7,116.24,443.38ZM104.55,656.27l1.45-3.16.84,1A8.3,8.3,0,0,1,104.55,656.27Zm11.57-12.13a45.22,45.22,0,0,0-1.31-8.87c-.13-.53-.27-1-.43-1.55q5.36-13.08,10.53-27.71c2,1,7.34,3.64,13,3.26a71.73,71.73,0,0,0-14.77,25.56C121.32,641,118.59,643.37,116.12,644.14Zm24.78-50.91c-2.84,8.48-9.43,8.38-14,7.09q2.17-6.36,4.28-13,1.75-5.59,3.21-11.35C139.53,582.77,142.44,588.65,140.9,593.23Zm.55-64.9q.77-12.26.75-25C150.56,511.14,153.69,517.52,141.45,528.33Zm-.82-66.58,0-.35.42.1Z"/></g></g></svg>