<?xml version="1.0" encoding="UTF-8" standalone="no"?>
<svg
   xmlns:dc="http://purl.org/dc/elements/1.1/"
   xmlns:cc="http://creativecommons.org/ns#"
   xmlns:rdf="http://www.w3.org/1999/02/22-rdf-syntax-ns#"
   xmlns:svg="http://www.w3.org/2000/svg"
   xmlns="http://www.w3.org/2000/svg"
   xmlns:sodipodi="http://sodipodi.sourceforge.net/DTD/sodipodi-0.dtd"
   xmlns:inkscape="http://www.inkscape.org/namespaces/inkscape"
   viewBox="0 0 363.23 1170.03"
   version="1.1"
   id="svg136"
   sodipodi:docname="kelp1.svg"
   inkscape:version="0.92.5 (2060ec1f9f, 2020-04-08)">
  <metadata
     id="metadata140">
    <rdf:RDF>
      <cc:Work
         rdf:about="">
        <dc:format>image/svg+xml</dc:format>
        <dc:type
           rdf:resource="http://purl.org/dc/dcmitype/StillImage" />
      </cc:Work>
    </rdf:RDF>
  </metadata>
  <sodipodi:namedview
     pagecolor="#ffffff"
     bordercolor="#666666"
     borderopacity="1"
     objecttolerance="10"
     gridtolerance="10"
     guidetolerance="10"
     inkscape:pageopacity="0"
     inkscape:pageshadow="2"
     inkscape:window-width="1920"
     inkscape:window-height="1016"
     id="namedview138"
     showgrid="false"
     inkscape:zoom="0.20170422"
     inkscape:cx="181.61501"
     inkscape:cy="585.01501"
     inkscape:window-x="0"
     inkscape:window-y="27"
     inkscape:window-maximized="1"
     inkscape:current-layer="svg136" />
  <defs
     id="defs4">
    <style
       id="style2">.cls-1{fill:#004854;}.cls-2{fill:#015f71;}.cls-3{fill:#026c81;}.cls-4{fill:#22988e;}.cls-5{fill:#238479;}.cls-6{fill:#2ed1ba;}</style>
  </defs>
  <title
     id="title6">Asset 32</title>
  <g
     id="Layer_2"
     data-name="Layer 2"
     transform="matrix(-1,0,0,1,363.14796,0)">
    <g
       id="background">
      <path
         class="cls-1"
         d="m 194.89,545 c 0,0 2.54,-20.36 26,-24.49 23.46,-4.13 61.21,-3.29 99.89,-40.7 0,0 -6.59,22.35 -21.81,33.05 0,0 6.73,6 18.28,-5.82 0,0 -8.89,22 -43.49,32.61 -34.6,10.61 -56.71,-10.77 -77.24,13.94 -20.53,24.71 -1.63,-8.59 -1.63,-8.59 z"
         id="path8"
         inkscape:connector-curvature="0"
         style="fill:#004854" />
      <path
         class="cls-1"
         d="m 166.57,593.46 c 0,0 7.3,-27.65 30.45,-27.87 23.15,-0.22 55.23,-4.92 61.13,-19.74 0,0 -2.56,43.33 -33.88,67.57 -31.32,24.24 -59.68,-6.15 -59.68,-6.15 z"
         id="path10"
         inkscape:connector-curvature="0"
         style="fill:#004854" />
      <path
         class="cls-1"
         d="m 262,307.72 -1.1,4.06 c 0,0 21.85,1 40,-19.28 18.15,-20.28 28.06,-72 61.59,-67.22 0,0 7.65,38.82 -29.22,73.48 -36.87,34.66 -76.68,19.77 -76.68,19.77 l 0.47,-12.21 z"
         id="path12"
         inkscape:connector-curvature="0"
         style="fill:#004854" />
      <path
         class="cls-1"
         d="m 215.73,156.19 c 0,0 -27.67,46.44 -9.66,76.52 18.01,30.08 52.56,36 51.54,56.58 -1.02,20.58 11.93,-19.13 10.82,-21.42 -1.11,-2.29 -3.79,-12.27 -3.79,-12.27 0,0 -15.93,-7.48 -14.38,-25.49 1.55,-18.01 -15.4,-61.99 -34.53,-73.92 z"
         id="path14"
         inkscape:connector-curvature="0"
         style="fill:#004854" />
      <path
         class="cls-1"
         d="m 136.9,673.64 -1.47,-4.21 -2.23,-0.53 -1.34,-4.36 c 0,0 -0.56,-0.73 -1.57,-1.95 A 76.94,76.94 0 0 0 117.65,632 c -12.49,-17.56 -22.77,-27.73 -23,-44.41 -0.23,-16.68 -7.93,-50.74 -39.83,-73.3 0,0 -9.82,34.69 5.6,66.55 13.4,27.69 47.66,41 60.23,71.52 a 80.09,80.09 0 0 0 -17.82,-13 C 86.48,631.02 82.92,612.65 61.3,601.04 47,593.66 26.42,593.35 26.42,593.35 c 0,0 4.81,29.88 33.69,44.37 28.88,14.49 34.37,-2.65 60.65,36.77 C 97.41,673.81 70.4,662.3 53.27,655.49 33.81,647.73 0,649.21 0,649.21 a 85.5,85.5 0 0 0 27.77,29.38 c 19.12,12.41 43.45,11.73 62.47,6.34 19.02,-5.39 39.71,-3.86 40.56,-3.56 0,0 19.2,-7.96 6.1,-7.73 z"
         id="path16"
         inkscape:connector-curvature="0"
         style="fill:#004854" />
      <path
         class="cls-2"
         d="m 178.07,1170 a 9.88,9.88 0 0 0 6.55,-16 v 0 c -0.17,-0.22 -17.27,-22.06 -35,-68.48 -16.4,-42.91 -36.7,-116.18 -40.3,-221.54 -3,-87.23 37.44,-185.87 80.24,-290.31 C 246.42,434.87 305.23,291.35 261,166.13 a 9.88,9.88 0 1 0 -18.63,6.57 c 41.71,118.13 -15.64,258.11 -71.11,393.48 -43.62,106.46 -84.82,207 -81.7,298.47 3.71,108.8 24.91,184.65 42,229.12 18.82,48.83 36.82,71.61 37.58,72.55 a 9.85,9.85 0 0 0 8.93,3.68 z"
         id="path18"
         inkscape:connector-curvature="0"
         style="fill:#015f71" />
      <path
         class="cls-1"
         d="m 126,442.63 v 0 c 2.38,21.91 14.73,60.17 39.14,67.59 7.69,2.76 29.83,1.59 29.83,1.59 0,0 1.32,-22.51 -1.65,-30.31 -7.74,-24.11 -45.6,-36.44 -67.32,-38.87 z"
         id="path20"
         inkscape:connector-curvature="0"
         style="fill:#004854" />
      <path
         class="cls-2"
         d="m 98.9,502.59 v 0 c -0.82,24.64 6.81,69 32.68,81 8.08,4.26 32.79,6.47 32.79,6.47 0,0 5,-24.73 2.95,-33.83 -4.72,-27.88 -44.7,-47.51 -68.42,-53.64 z"
         id="path22"
         inkscape:connector-curvature="0"
         style="fill:#015f71" />
      <path
         class="cls-1"
         d="m 150.63,388 v 0 c 2.38,21.91 14.72,60.17 39.14,67.6 7.68,2.75 29.83,1.58 29.83,1.58 0,0 1.32,-22.51 -1.65,-30.31 -7.7,-24.16 -45.56,-36.49 -67.32,-38.87 z"
         id="path24"
         inkscape:connector-curvature="0"
         style="fill:#004854" />
      <path
         class="cls-1"
         d="m 318.49,338.33 v 0 c -21.91,2.38 -60.18,14.72 -67.6,39.13 -2.75,7.69 -1.58,29.84 -1.58,29.84 0,0 22.51,1.32 30.3,-1.66 24.12,-7.64 36.44,-45.55 38.88,-67.31 z"
         id="path26"
         inkscape:connector-curvature="0"
         style="fill:#004854" />
      <path
         class="cls-1"
         d="m 287.57,465.24 v 0 c -16.15,-5.15 -46.89,-8.39 -59.71,6.47 -4.33,4.54 -10.41,20.48 -10.41,20.48 0,0 15.42,7.93 21.83,8.27 19.35,2.1 39.8,-20.68 48.29,-35.22 z"
         id="path28"
         inkscape:connector-curvature="0"
         style="fill:#004854" />
      <path
         class="cls-1"
         d="m 97.75,953.28 c 0,0 25.27,0.29 -3.4,18.79 C 65.68,990.57 34.44,934 38.61,902.14 42.78,870.28 24.09,860.27 24.09,860.27 c 44.56,1.33 57.49,54.06 57.91,75.46 0.42,21.4 14.79,17.54 14.79,17.54"
         id="path30"
         inkscape:connector-curvature="0"
         style="fill:#004854" />
      <path
         class="cls-3"
         d="m 141.51,1077.37 c 0,0 1.87,-4.42 23.31,-1.36 21.44,3.06 49.84,-10.13 63.64,-40.5 13.8,-30.37 2.63,-49.18 2.63,-49.18 0,0 -1.07,27.53 -28.74,35.92 -27.67,8.39 -55.69,15.06 -61.53,44.41 -5.84,29.35 0.69,10.71 0.69,10.71 z"
         id="path32"
         inkscape:connector-curvature="0"
         style="fill:#026c81" />
      <path
         class="cls-2"
         d="m 110,782.8 c 0,0 9.69,-27.68 31.65,-40.61 21.96,-12.93 41.66,-32 40.12,-55.71 0,0 26.24,30.11 -5.21,75.55 -31.45,45.44 -68.15,25.29 -68.15,25.29 z"
         id="path34"
         inkscape:connector-curvature="0"
         style="fill:#015f71" />
      <path
         class="cls-1"
         d="m 105.45,889.69 c 0,0 11.08,-23.05 31.36,-32.12 20.28,-9.07 39.19,-23.73 40.19,-44.4 0,0 19.83,28.64 -11.82,65 -31.65,36.36 -61.51,15.32 -61.51,15.32 z"
         id="path36"
         inkscape:connector-curvature="0"
         style="fill:#004854" />
      <path
         class="cls-4"
         d="m 117.39,628 a 85.39,85.39 0 0 0 17.92,27.64 c 0,0 4.21,-11.87 4.35,-12.08 -34.1,-52.25 11.89,-36.63 51.77,-55.23 14.51,-6.76 24.95,-20.26 30.55,-35 3,-7.9 6.08,-18.75 4.66,-27.37 0,-0.26 -0.08,-0.51 -0.13,-0.77 -0.9,2.69 -1.22,5.56 -2.4,8.2 -2,4.45 -5.52,8 -9.14,11.24 a 95,95 0 0 1 -26.24,17.14 c -11.58,4.85 -24.19,6.66 -36.35,9.84 -14.64,3.82 -34,11.26 -37.72,27.91 -2.25,10.19 -0.51,20.01 2.73,28.48 z"
         id="path38"
         inkscape:connector-curvature="0"
         style="fill:#22988e" />
      <path
         class="cls-4"
         d="m 63,876.8 c 8.36,14.89 29,10.6 29.61,10.9 l 0.13,-10 c 0,0 -16.85,5 -15.94,-16.33 0.91,-21.33 62.39,-37.53 99.86,-66.74 37.47,-29.21 30.92,-74.4 30.92,-74.4 -0.08,0.46 -0.17,0.94 -0.28,1.4 v 0 c -3.77,16.17 -27,33.68 -40.91,45.18 -14.34,11.91 -106.75,61 -106.86,94.19 -0.03,6.84 1.31,12 3.47,15.8 z"
         id="path40"
         inkscape:connector-curvature="0"
         style="fill:#22988e" />
      <path
         class="cls-4"
         d="m 104.5,1058.69 a 33.34,33.34 0 0 0 4.09,5.83 c 7,8.42 19.42,20.15 19.92,20.6 l -4.59,-12.92 c 0,0 -14,-10.88 -3.69,-28.68 2.91,-5.06 7.45,-7.93 13,-9.4 6.33,-1.67 12.93,-2.18 19.3,-3.67 a 87.1,87.1 0 0 0 21.3,-8.17 95.09,95.09 0 0 0 33.63,-29.28 82,82 0 0 0 13.18,-31.32 75.87,75.87 0 0 0 1.26,-16.95 c -0.15,-3.91 -1.18,-7.88 -1.45,-11.73 0,-0.53 -0.07,-1.06 -0.07,-1.59 -1.93,14.73 -9.4,31.53 -21.52,42.32 -11.06,9.84 -24,16.28 -38.06,20.72 -14.8,4.69 -30.26,8.42 -43.52,16.83 -7.71,4.88 -14.62,12.1 -16.62,21.27 -1.9,8.73 -0.03,18.17 3.84,26.14 z"
         id="path42"
         inkscape:connector-curvature="0"
         style="fill:#22988e" />
      <path
         class="cls-4"
         d="m 172.5,514.07 a 65.62,65.62 0 0 0 13.5,16.37 l 4.89,-11.77 c 0,0 -26.53,-9.15 -15.44,-41.74 11.09,-32.59 41.77,-14.24 83.93,-48.62 37.76,-30.79 26.81,-68.46 24.12,-76 -0.32,-0.89 -0.52,-1.36 -0.52,-1.36 0.16,14 -6.73,38.24 -24.53,57.37 -17.8,19.13 -85.26,34.21 -92.45,67.52 -3.43,15.72 0.94,28.8 6.5,38.23 z"
         id="path44"
         inkscape:connector-curvature="0"
         style="fill:#22988e" />
      <path
         class="cls-4"
         d="m 186.13,419.16 a 30.11,30.11 0 0 0 1.58,3.8 c 10,20 36.22,11.6 37.58,11.18 l 10.8,-7.32 c 0,0 -38.09,11.07 -34.22,-15.47 3.87,-26.54 33.42,-38.4 71.27,-69.54 37.85,-31.14 31.51,-87.27 31.51,-87.27 C 301,285 274.26,311.45 240,333.36 c -34.26,21.91 -62.3,60.98 -53.87,85.8 z"
         id="path46"
         inkscape:connector-curvature="0"
         style="fill:#22988e" />
      <path
         class="cls-4"
         d="m 232.64,304.74 a 85.61,85.61 0 0 0 6.64,10.38 132.28,132.28 0 0 0 14.3,16.35 c 1.85,1.81 4.72,5.62 7.27,6.52 0.64,0.22 0.11,-7.1 0.11,-7.1 -0.09,-1.14 -2.49,-3.51 -3.09,-4.46 a 78.28,78.28 0 0 1 -6.19,-11.56 c -3.64,-8.45 -6.05,-18.66 -2.29,-27.47 3,-6.93 9.19,-11.74 15.14,-16 6.92,-5 14.29,-9.39 20.9,-14.84 A 77.6,77.6 0 0 0 310.84,217 c 1.41,-5 3.85,-9.58 3,-15 a 2.24,2.24 0 0 1 -0.23,1.1 c -0.74,1.88 -3.08,4.72 -3.77,5.74 a 55.39,55.39 0 0 1 -5.14,6.48 56.13,56.13 0 0 1 -12.84,10.4 c -10.1,6 -22.24,8.49 -32.81,13.77 a 83.32,83.32 0 0 0 -13.6,8.39 c -7.28,5.62 -13.47,12.93 -16.69,21.56 -4.71,12.48 -1.98,24.43 3.88,35.3 z"
         id="path48"
         inkscape:connector-curvature="0"
         style="fill:#22988e" />
      <path
         class="cls-4"
         d="m 126.22,681.4 c -4.15,-4.58 -8,-9.11 -3.22,-18.67 8.67,-17.49 32.58,1.37 55.34,4.54 22.46,3.12 32.78,-19.9 33.06,-20.54 -10.81,6.41 -17.24,2.42 -17.24,2.42 a 48.48,48.48 0 0 0 21.57,-23.43 26.3,26.3 0 0 0 1,-2.76 c -34.87,32.16 -85.46,4.51 -101.45,29 -14,21.41 2.06,37.81 6.61,41.89 1.38,-4.21 3.28,-9.23 4.33,-12.45 z"
         id="path50"
         inkscape:connector-curvature="0"
         style="fill:#22988e" />
      <path
         class="cls-4"
         d="m 86.31,968 c 1.92,18.77 20,25.6 20,25.6 12.61,2 9.3,-14.35 9.3,-14.35 0,0 -23.3,1.35 -18.28,-21.14 15.79,-39.66 45,-15.65 92.71,-47.45 47.71,-31.8 26.96,-72.91 26.96,-72.91 v 0 C 191.32,911.02 116.56,899.12 93.8,939.65 87.34,951.2 85.55,960.51 86.31,968 Z"
         id="path52"
         inkscape:connector-curvature="0"
         style="fill:#22988e" />
      <path
         class="cls-2"
         d="m 261.67,223 c 0,0 50.71,-48.8 44.82,-99.18 C 300.6,73.44 284.36,30 302.41,0 c 0,0 -41.37,40.77 -43.67,73.65 -2.3,32.88 4.92,62.74 4.92,62.74 0,0 5.52,20.08 -4.86,46.8 -10.38,26.72 2.87,39.81 2.87,39.81 z"
         id="path54"
         inkscape:connector-curvature="0"
         style="fill:#015f71" />
      <path
         class="cls-2"
         d="m 268,185.94 c 0,0 -2.84,-38.29 -14.34,-56.38 -11.5,-18.09 -21.56,-35.13 -15.17,-53.71 0,0 -25.18,35.43 -10.7,70.52 14.48,35.09 45.32,100.7 40.21,39.57 z"
         id="path56"
         inkscape:connector-curvature="0"
         style="fill:#015f71" />
      <path
         class="cls-2"
         d="m 269.82,198.19 c 0,0 19.8,-32.9 38.21,-43.86 18.41,-10.96 35.09,-21.64 37.77,-41.1 0,0 6.5,43 -22.24,67.77 -28.74,24.77 -85.84,69.46 -53.74,17.19 z"
         id="path58"
         inkscape:connector-curvature="0"
         style="fill:#015f71" />
      <path
         class="cls-5"
         d="m 78.08,768.53 v 0 a 60.83,60.83 0 0 0 17.46,22 c 0,0 3.19,-13.32 3.1,-14.07 -28.93,-39.61 12,-32.25 48.34,-57.11 29.84,-20.46 26.6,-62.14 24.69,-67.77 -0.41,-1.22 -0.77,-0.75 -0.7,2 0.34,15.33 -16,28.16 -28.84,38.9 -12.84,10.74 -67.46,20.13 -69,50.49 a 53.26,53.26 0 0 0 4.95,25.56 z"
         id="path60"
         inkscape:connector-curvature="0"
         style="fill:#238479" />
      <path
         class="cls-4"
         d="m 297,360.9 -12.76,10.89 c -4.23,3.65 -8.43,7.32 -12.53,11.08 -4.1,3.76 -8.15,7.59 -12,11.6 -2,2 -3.77,4.08 -5.58,6.19 l -2.62,3.26 c -0.76,1.16 -1.55,2.31 -2.35,3.46 2.28,-5.15 5.75,-9.69 9.4,-14 0.91,-1.07 1.82,-2.14 2.81,-3.14 0.99,-1 1.92,-2.06 2.9,-3.06 2,-2 4,-3.94 6.1,-5.82 4.16,-3.77 8.44,-7.4 12.89,-10.81 4.45,-3.41 9.01,-6.65 13.74,-9.65 z"
         id="path62"
         inkscape:connector-curvature="0"
         style="fill:#22988e" />
      <path
         class="cls-4"
         d="m 347.18,251.48 a 79.76,79.76 0 0 1 -9.13,21.52 91.35,91.35 0 0 1 -6.64,9.7 101.94,101.94 0 0 1 -7.84,8.78 93.08,93.08 0 0 1 -8.93,7.67 91.93,91.93 0 0 1 -9.87,6.4 A 86.8,86.8 0 0 1 283,313.9 120.59,120.59 0 0 0 303.86,304 103.32,103.32 0 0 0 321.94,289.84 108.84,108.84 0 0 0 336.53,272 c 2.1,-3.22 4.08,-6.53 5.86,-10 a 89,89 0 0 0 4.79,-10.52 z"
         id="path64"
         inkscape:connector-curvature="0"
         style="fill:#22988e" />
      <path
         class="cls-4"
         d="M 251.33,262.61 A 84.31,84.31 0 0 1 234.56,246 c -0.63,-0.77 -1.17,-1.6 -1.76,-2.4 -0.59,-0.8 -1.15,-1.61 -1.66,-2.47 l -1.58,-2.52 c -0.5,-0.86 -1,-1.74 -1.45,-2.61 l -0.71,-1.31 c -0.22,-0.45 -0.42,-0.91 -0.63,-1.36 l -1.23,-2.72 c -0.37,-0.93 -0.7,-1.87 -1,-2.81 l -0.51,-1.41 c -0.17,-0.47 -0.28,-1 -0.42,-1.44 a 164.87,164.87 0 0 1 -4.22,-23.3 168.8,168.8 0 0 1 -1.18,-23.57 c 0.3,3.92 0.66,7.83 1.15,11.72 0.49,3.89 1,7.78 1.57,11.65 0.57,3.87 1.26,7.72 2,11.56 0.4,1.91 0.74,3.84 1.18,5.74 0.21,0.95 0.39,1.92 0.64,2.86 l 0.76,2.78 c 0.14,0.47 0.24,0.94 0.39,1.39 l 0.49,1.37 c 0.33,0.9 0.64,1.82 1,2.72 l 1.18,2.65 c 0.2,0.44 0.38,0.88 0.59,1.32 l 0.67,1.29 a 80.82,80.82 0 0 0 6,10 104.69,104.69 0 0 0 7.27,9.16 97.24,97.24 0 0 0 8.23,8.32 z"
         id="path66"
         inkscape:connector-curvature="0"
         style="fill:#22988e" />
      <path
         class="cls-4"
         d="m 219.77,457.54 c -4.74,-3.7 -9.17,-7.8 -13.6,-11.87 -4.43,-4.07 -8.76,-8.25 -13.06,-12.45 -4.3,-4.2 -8.54,-8.47 -12.69,-12.82 -4.15,-4.35 -8.28,-8.74 -12.14,-13.38 l 6.65,6.11 6.58,6.16 c 4.38,4.12 8.69,8.31 13,12.51 4.31,4.2 8.54,8.46 12.74,12.76 l 6.28,6.48 c 2.07,2.18 4.12,4.4 6.24,6.5 z"
         id="path68"
         inkscape:connector-curvature="0"
         style="fill:#22988e" />
      <path
         class="cls-4"
         d="m 270.84,471.33 c -9.1,3.47 -18.3,6.55 -27.43,9.78 -4.57,1.59 -9.13,3.23 -13.64,4.95 -2.24,0.89 -4.49,1.78 -6.67,2.79 a 33.48,33.48 0 0 0 -3.22,1.63 8.8,8.8 0 0 0 -2.8,2.23 8.21,8.21 0 0 1 2.49,-2.69 17.77,17.77 0 0 1 1.51,-1.06 c 0.51,-0.35 1,-0.66 1.56,-1 2.12,-1.24 4.31,-2.33 6.53,-3.35 4.43,-2 9,-3.77 13.58,-5.41 4.58,-1.64 9.23,-3.07 13.92,-4.39 4.69,-1.32 9.39,-2.53 14.17,-3.48 z"
         id="path70"
         inkscape:connector-curvature="0"
         style="fill:#22988e" />
      <path
         class="cls-4"
         d="m 195.46,512.45 q -7.05,-7 -13.92,-14.15 L 167.82,484 c -4.55,-4.79 -9.1,-9.57 -13.7,-14.3 -1.14,-1.2 -2.32,-2.36 -3.47,-3.53 -1.15,-1.17 -2.32,-2.36 -3.51,-3.5 l -1.76,-1.74 c -0.6,-0.57 -1.21,-1.11 -1.82,-1.67 -1.2,-1.15 -2.5,-2.13 -3.8,-3.17 l 2.12,1.3 c 0.72,0.42 1.34,1 2,1.46 0.66,0.46 1.34,1 2,1.51 l 1.92,1.59 c 1.28,1.06 2.52,2.16 3.75,3.27 1.23,1.11 2.46,2.22 3.66,3.37 4.84,4.52 9.47,9.26 14.06,14 4.59,4.74 9,9.68 13.41,14.65 4.41,4.97 8.65,10.03 12.78,15.21 z"
         id="path72"
         inkscape:connector-curvature="0"
         style="fill:#22988e" />
      <path
         class="cls-4"
         d="m 281.32,519.43 a 98.15,98.15 0 0 1 -18.56,7.51 91.91,91.91 0 0 1 -19.76,3.66 c -1.68,0.16 -3.37,0.11 -5.06,0.18 h -5 c -3.31,0 -6.61,0.18 -9.91,0.41 a 59.13,59.13 0 0 0 -9.75,1.46 20.16,20.16 0 0 0 -8.81,4.25 19.36,19.36 0 0 1 8.53,-5.19 51.69,51.69 0 0 1 9.88,-2.07 c 3.33,-0.42 6.68,-0.62 10,-0.75 1.67,-0.07 3.35,0 5,-0.1 1.65,-0.1 3.28,-0.05 4.92,-0.21 1.64,-0.16 3.28,-0.22 4.92,-0.45 0.81,-0.11 1.63,-0.19 2.45,-0.31 l 2.44,-0.4 c 1.63,-0.22 3.24,-0.6 4.87,-0.89 1.63,-0.29 3.23,-0.69 4.83,-1.12 3.21,-0.78 6.4,-1.7 9.56,-2.7 3.16,-1 6.35,-2.07 9.45,-3.28 z"
         id="path74"
         inkscape:connector-curvature="0"
         style="fill:#22988e" />
      <path
         class="cls-4"
         d="m 233,573.92 a 2.47,2.47 0 0 1 -0.35,1 c -0.15,0.31 -0.32,0.61 -0.49,0.91 -0.35,0.6 -0.72,1.18 -1.1,1.76 -0.77,1.15 -1.58,2.27 -2.41,3.38 a 67.56,67.56 0 0 1 -5.49,6.23 64.69,64.69 0 0 1 -13.11,10.27 46.67,46.67 0 0 1 -15.66,5.82 37.06,37.06 0 0 1 -8.34,0.46 36.11,36.11 0 0 1 -8.16,-1.47 43.9,43.9 0 0 0 16.21,-0.52 52.35,52.35 0 0 0 14.94,-6 77.54,77.54 0 0 0 13,-9.66 c 2,-1.83 4,-3.74 5.82,-5.74 0.93,-1 1.85,-2 2.72,-3.07 0.44,-0.52 0.87,-1.06 1.28,-1.6 0.21,-0.27 0.42,-0.55 0.61,-0.83 a 2.35,2.35 0 0 0 0.53,-0.94 z"
         id="path76"
         inkscape:connector-curvature="0"
         style="fill:#22988e" />
      <path
         class="cls-4"
         d="m 156,579.72 q -6,-7.12 -11.78,-14.5 c -3.85,-4.9 -7.6,-9.86 -11.34,-14.84 -3.74,-4.98 -7.39,-10 -11,-15.1 -3.61,-5.1 -7.12,-10.21 -10.53,-15.43 q 6,7.14 11.78,14.5 c 3.85,4.9 7.61,9.86 11.34,14.84 3.73,4.98 7.39,10 11,15.1 3.61,5.1 7.07,10.21 10.53,15.43 z"
         id="path78"
         inkscape:connector-curvature="0"
         style="fill:#22988e" />
      <path
         class="cls-4"
         d="m 178.17,732.91 a 94.21,94.21 0 0 1 -10.14,17 87.09,87.09 0 0 1 -13.53,14.61 55.87,55.87 0 0 1 -17.16,10.19 43.21,43.21 0 0 1 -9.76,2.19 41.07,41.07 0 0 1 -9.92,-0.46 47.67,47.67 0 0 0 9.79,-0.51 48.46,48.46 0 0 0 9.34,-2.68 61.64,61.64 0 0 0 16.43,-10.25 84.61,84.61 0 0 0 7.1,-6.69 c 2.27,-2.35 4.4,-4.82 6.48,-7.35 2.08,-2.53 4,-5.15 5.94,-7.83 1.94,-2.68 3.71,-5.4 5.43,-8.22 z"
         id="path80"
         inkscape:connector-curvature="0"
         style="fill:#22988e" />
      <path
         class="cls-4"
         d="m 171.77,846.93 a 76.31,76.31 0 0 1 -11.36,18.45 82.9,82.9 0 0 1 -15.9,14.89 88,88 0 0 1 -9.36,5.64 77.79,77.79 0 0 1 -10.15,4.15 70.65,70.65 0 0 1 -21.4,3.39 l 2.68,-0.37 c 0.89,-0.12 1.79,-0.2 2.67,-0.39 1.77,-0.32 3.54,-0.61 5.27,-1.06 a 82.41,82.41 0 0 0 10.27,-3 88.61,88.61 0 0 0 9.75,-4.36 89.91,89.91 0 0 0 9.08,-5.59 95.09,95.09 0 0 0 15.87,-14.27 106.51,106.51 0 0 0 6.81,-8.41 82.27,82.27 0 0 0 5.77,-9.07 z"
         id="path82"
         inkscape:connector-curvature="0"
         style="fill:#22988e" />
      <path
         class="cls-4"
         d="m 108,957.39 a 36.22,36.22 0 0 1 -4.69,5.14 30.1,30.1 0 0 1 -5.67,4.14 16.32,16.32 0 0 1 -6.83,2.09 11.77,11.77 0 0 1 -7,-1.89 18.25,18.25 0 0 1 -5.1,-5.11 39.32,39.32 0 0 1 -3.43,-6.21 82.94,82.94 0 0 1 -4.58,-13.27 c -1.14,-4.53 -2,-9.09 -2.88,-13.64 -0.88,-4.55 -1.67,-9.09 -2.74,-13.57 a 61.91,61.91 0 0 0 -4.51,-13 35.9,35.9 0 0 0 -3.57,-5.83 40.87,40.87 0 0 0 -4.63,-5.13 35.09,35.09 0 0 1 9,10.55 57.71,57.71 0 0 1 5.15,13 c 2.49,9 3.73,18.22 6,27.1 a 83.75,83.75 0 0 0 4.36,13 38,38 0 0 0 3.15,6 17.62,17.62 0 0 0 4.51,4.79 10.42,10.42 0 0 0 6.12,1.88 15.14,15.14 0 0 0 6.42,-1.65 36.33,36.33 0 0 0 10.92,-8.39 z"
         id="path84"
         inkscape:connector-curvature="0"
         style="fill:#22988e" />
      <path
         class="cls-4"
         d="m 125.25,676.7 c -4.45,0 -8.88,0.25 -13.3,0.56 -4.42,0.31 -8.85,0.64 -13.27,1 -4.42,0.36 -8.82,0.81 -13.32,1 a 111.24,111.24 0 0 1 -13.42,-0.42 126,126 0 0 1 -13.27,-2 c -2.18,-0.49 -4.37,-0.95 -6.53,-1.56 -2.16,-0.61 -4.3,-1.22 -6.43,-1.9 a 92.78,92.78 0 0 1 -12.39,-5.11 l -2.92,-1.65 c -1,-0.54 -1.88,-1.22 -2.82,-1.82 a 11.68,11.68 0 0 1 -1.35,-1 l -1.31,-1 a 11,11 0 0 1 -1.21,-1.15 l -1.17,-1.19 a 41.43,41.43 0 0 0 11.21,7 107.19,107.19 0 0 0 12.43,4.54 137.94,137.94 0 0 0 25.94,4.93 113.89,113.89 0 0 0 13.19,0.52 c 4.37,-0.12 8.82,-0.51 13.26,-0.71 a 212.06,212.06 0 0 1 26.68,-0.04 z"
         id="path86"
         inkscape:connector-curvature="0"
         style="fill:#22988e" />
      <path
         class="cls-4"
         d="m 126.59,669 a 54.27,54.27 0 0 0 -15.52,-19.19 49.12,49.12 0 0 0 -10.59,-6.24 l -5.8,-2.45 c -1,-0.42 -1.9,-0.94 -2.86,-1.41 -0.96,-0.47 -1.87,-1 -2.78,-1.56 a 76.44,76.44 0 0 1 -10.26,-7.47 c -3.2,-2.75 -6.27,-5.6 -9.35,-8.41 C 63.3,616.63 56.68,611.5 49,608.09 a 55.83,55.83 0 0 1 11.35,5.44 87,87 0 0 1 10.11,7.57 c 6.42,5.39 12.48,11.17 19.61,15.34 0.88,0.54 1.76,1.07 2.68,1.52 0.92,0.45 1.81,1 2.76,1.39 l 5.74,2.5 a 47.59,47.59 0 0 1 10.81,6.75 48.82,48.82 0 0 1 14.53,20.4 z"
         id="path88"
         inkscape:connector-curvature="0"
         style="fill:#22988e" />
      <path
         class="cls-4"
         d="m 128.39,663 a 65.55,65.55 0 0 0 -5.1,-16.89 c -0.57,-1.36 -1.29,-2.64 -1.92,-4 -0.63,-1.36 -1.4,-2.59 -2.22,-3.8 -0.82,-1.21 -1.57,-2.47 -2.47,-3.63 -0.44,-0.59 -0.85,-1.19 -1.31,-1.76 L 114,631.29 a 43,43 0 0 0 -3,-3.2 c -1,-1 -2.1,-2.1 -3.14,-3.15 -1.04,-1.05 -2,-2.17 -3.08,-3.26 -1.08,-1.09 -2,-2.25 -3,-3.37 a 113.08,113.08 0 0 1 -10.29,-14.65 97.07,97.07 0 0 1 -7.67,-16.19 76,76 0 0 1 -2.53,-8.62 c -0.63,-3 -1.1,-5.82 -1.79,-8.69 a 134.83,134.83 0 0 0 -5.29,-16.85 c -1.07,-2.75 -2.22,-5.47 -3.54,-8.11 -0.65,-1.33 -1.35,-2.63 -2.12,-3.89 a 23.82,23.82 0 0 0 -2.57,-3.6 32.76,32.76 0 0 1 5.19,7.29 c 1.46,2.59 2.76,5.27 4,8 1.24,2.73 2.25,5.51 3.26,8.31 1.01,2.8 1.85,5.66 2.63,8.54 0.78,2.88 1.35,5.86 2,8.67 a 70.43,70.43 0 0 0 2.6,8.37 97.19,97.19 0 0 0 7.61,15.83 113.28,113.28 0 0 0 10,14.46 c 1,1.12 1.87,2.27 2.84,3.37 0.97,1.1 2,2.2 3,3.24 1,1.04 2,2.07 3.08,3.2 a 43.23,43.23 0 0 1 3,3.37 58.6,58.6 0 0 1 9,15.44 63.71,63.71 0 0 1 2.73,8.5 51.34,51.34 0 0 1 1.47,8.7 z"
         id="path90"
         inkscape:connector-curvature="0"
         style="fill:#22988e" />
      <path
         class="cls-4"
         d="m 280.42,27.94 a 320.27,320.27 0 0 0 -1.87,42.89 193,193 0 0 0 1.64,21.37 c 0.48,3.54 1.12,7 1.73,10.59 0.61,3.59 1,7.15 1.28,10.74 a 223.49,223.49 0 0 1 -0.7,43.12 136.48,136.48 0 0 1 -4,21.26 66.83,66.83 0 0 1 -3.74,10.24 23.63,23.63 0 0 1 -6.61,8.92 l -1.23,1 -0.19,-1.59 A 167.15,167.15 0 0 0 262,172.3 a 92.9,92.9 0 0 0 -4,-11.62 42.47,42.47 0 0 0 -6,-10.52 c -0.65,-0.76 -1.34,-1.48 -2,-2.28 a 28.92,28.92 0 0 1 -2,-2.39 c -0.61,-0.85 -1.29,-1.64 -1.84,-2.53 -0.55,-0.89 -1.15,-1.74 -1.68,-2.64 a 65.21,65.21 0 0 1 -5.2,-11.3 95.6,95.6 0 0 1 -3.42,-11.94 84.36,84.36 0 0 1 -1.81,-12.25 89.33,89.33 0 0 0 2.09,12.17 94.55,94.55 0 0 0 3.71,11.77 67.87,67.87 0 0 0 5.4,11 c 0.53,0.87 1.12,1.7 1.68,2.55 0.56,0.85 1.24,1.62 1.85,2.44 a 27.21,27.21 0 0 0 2,2.29 c 0.67,0.74 1.41,1.5 2.12,2.29 a 34.4,34.4 0 0 1 3.61,5.16 54.24,54.24 0 0 1 2.83,5.59 95,95 0 0 1 4.2,11.75 164.28,164.28 0 0 1 4.93,24.38 l -1.43,-0.62 a 17.17,17.17 0 0 0 3.43,-3.72 32.63,32.63 0 0 0 2.56,-4.55 65.52,65.52 0 0 0 3.57,-10 146.8,146.8 0 0 0 3.94,-21 220.48,220.48 0 0 0 0.92,-42.75 c -0.28,-3.56 -0.68,-7.1 -1.18,-10.63 -0.5,-3.53 -1.14,-7.09 -1.57,-10.65 a 194.06,194.06 0 0 1 -1.3,-21.53 c -0.08,-7.19 0.19,-14.37 0.7,-21.53 0.51,-7.16 1.23,-14.24 2.31,-21.3 z"
         id="path92"
         inkscape:connector-curvature="0"
         style="fill:#22988e" />
      <path
         class="cls-4"
         d="M 335.44,141.8 A 64.12,64.12 0 0 1 324,160.93 68.6,68.6 0 0 1 306.79,175.35 c -3.28,1.86 -6.7,3.38 -10.07,4.91 -1.69,0.76 -3.37,1.52 -5,2.33 -1.63,0.81 -3.26,1.7 -4.9,2.57 q -9.75,5.28 -19.2,11.18 A 167.57,167.57 0 0 1 286,183.8 a 104.94,104.94 0 0 1 9.88,-5.26 c 3.36,-1.58 6.72,-3.1 9.88,-4.93 a 68.85,68.85 0 0 0 9,-6.23 77.83,77.83 0 0 0 8,-7.48 79.12,79.12 0 0 0 12.68,-18.1 z"
         id="path94"
         inkscape:connector-curvature="0"
         style="fill:#22988e" />
      <path
         class="cls-6"
         d="m 186.13,419.16 a 30.11,30.11 0 0 0 1.58,3.8 c -0.12,-0.77 -0.25,-1.59 -0.4,-2.45 -8.85,-51.22 64,-87.77 91.58,-113.42 27.58,-25.65 25.76,-52.55 25.76,-52.55 C 301,285 274.26,311.45 240,333.36 c -34.26,21.91 -62.3,60.98 -53.87,85.8 z"
         id="path96"
         inkscape:connector-curvature="0"
         style="fill:#2ed1ba" />
      <path
         class="cls-6"
         d="m 232.64,304.74 c -21,-58.86 42.52,-67.42 60.75,-77.28 15.3,-8.28 19.29,-20.63 20.18,-24.42 -0.74,1.88 -3.08,4.72 -3.77,5.74 a 55.39,55.39 0 0 1 -5.14,6.48 56.13,56.13 0 0 1 -12.84,10.4 c -10.1,6 -22.24,8.49 -32.81,13.77 a 83.32,83.32 0 0 0 -13.6,8.39 c -7.28,5.62 -13.47,12.93 -16.69,21.56 -4.67,12.54 -1.94,24.49 3.92,35.36 z"
         id="path98"
         inkscape:connector-curvature="0"
         style="fill:#2ed1ba" />
      <path
         class="cls-6"
         d="m 170.6,509.79 c -18.51,-40.19 11.63,-58.69 45,-74.21 33.37,-15.52 47.81,-22.09 60.09,-49.86 7.63,-17.24 8.44,-27.79 7.81,-33.41 -0.32,-0.89 -0.52,-1.36 -0.52,-1.36 0.42,1 -0.07,3.11 -0.14,4.15 -0.12,1.6 -0.31,3.2 -0.55,4.79 a 80.58,80.58 0 0 1 -2.43,10.74 96.43,96.43 0 0 1 -10.72,23.73 c -3.68,5.88 -7.87,11.74 -13.14,16.32 a 76.61,76.61 0 0 1 -13.24,8.78 c -13.81,7.65 -28.43,13.74 -42.22,21.45 -11.54,6.44 -24.06,14.22 -30.94,25.91 a 30.65,30.65 0 0 0 -3.6,9 c -3.4,15.72 1,28.8 6.53,38.23 -0.53,-1.25 -1.2,-2.67 -1.93,-4.26 z"
         id="path100"
         inkscape:connector-curvature="0"
         style="fill:#2ed1ba" />
      <path
         class="cls-6"
         d="m 117.39,628 a 19.8,19.8 0 0 0 -0.65,-4.59 c -8.51,-33.5 8.77,-40.42 42.74,-49.31 33.97,-8.89 49.9,-20 59.44,-29.85 a 26.46,26.46 0 0 0 7.72,-18.3 c 0,-0.26 -0.08,-0.51 -0.13,-0.77 -0.9,2.69 -1.22,5.56 -2.4,8.2 -2,4.45 -5.52,8 -9.14,11.24 a 95,95 0 0 1 -26.24,17.14 c -11.58,4.85 -24.19,6.66 -36.35,9.84 -14.64,3.82 -34,11.26 -37.72,27.91 -2.25,10.2 -0.51,20.02 2.73,28.49 z"
         id="path102"
         inkscape:connector-curvature="0"
         style="fill:#2ed1ba" />
      <path
         class="cls-6"
         d="m 115.67,651.61 c 3.87,-5.32 9,-8.17 15.34,-9.6 13.4,-3 27.61,-1.19 41.21,-2.1 16.35,-1.1 32.26,-5.62 44.54,-16.95 a 26.3,26.3 0 0 1 -1,2.76 c -3.91,5.17 -15.09,15.58 -42,16.39 -7.57,0.23 -15.14,0.32 -22.71,0.52 -7.57,0.2 -15.67,-0.1 -23.09,2.31 a 22.32,22.32 0 0 0 -10.4,7.22 c -10.19,12.52 -6.91,31 4.37,41.64 v 0 c -5.77,-5.26 -10.34,-12 -11.73,-19.7 a 29.87,29.87 0 0 1 5.47,-22.49 z"
         id="path104"
         inkscape:connector-curvature="0"
         style="fill:#2ed1ba" />
      <path
         class="cls-6"
         d="m 78.08,768.53 c -1.66,-3.55 -2.4,-8 -3,-11.86 a 46.61,46.61 0 0 1 -0.54,-10.35 32.9,32.9 0 0 1 5.41,-16.21 c 3.18,-4.71 7.47,-8.24 12.1,-11.44 7.71,-5.34 17.45,-8.89 26.24,-12 2.41,-0.87 4.78,-1.68 7.11,-2.72 a 146.2,146.2 0 0 0 16.46,-8.61 c 4.69,-2.85 9,-6.73 13.15,-10.31 16.87,-14.53 17.09,-28.91 16.67,-33.37 -0.41,-1.22 -0.77,-0.75 -0.7,2 0.19,8.77 -5.25,16.11 -11,22.12 -6.1,6.34 -12.48,12.54 -20,17.23 -8.11,5.09 -17.2,8.22 -25.95,12 -2.72,1.17 -5.34,2.48 -8,3.7 -0.9,0.41 -1.81,0.81 -2.71,1.27 -6.85,3.47 -13.58,7.46 -19.27,12.66 -5,4.58 -9.24,10.32 -10.55,17.11 a 24.66,24.66 0 0 0 -0.4,3.32 53.26,53.26 0 0 0 4.98,25.46 z"
         id="path106"
         inkscape:connector-curvature="0"
         style="fill:#2ed1ba" />
      <path
         class="cls-6"
         d="m 61.86,873.73 c -9.43,-24.35 23.71,-50.07 38.94,-60.09 15.23,-10.02 65.89,-40.5 87,-60.59 15.41,-14.7 18.75,-26.18 19.55,-31.36 -3.77,16.17 -27,33.68 -40.91,45.18 -14.39,11.85 -106.8,60.94 -106.91,94.13 0,6.81 1.31,11.92 3.47,15.77 C 62.72,876 62.35,875 61.86,873.73 Z"
         id="path108"
         inkscape:connector-curvature="0"
         style="fill:#2ed1ba" />
      <path
         class="cls-6"
         d="m 86.31,968 c -1.14,-41.18 47.31,-52.35 84.23,-72.12 40,-21.41 46.27,-57 46.45,-58.05 -25.68,73.27 -100.44,61.37 -123.2,101.9 -6.45,11.47 -8.24,20.78 -7.48,28.27 z"
         id="path110"
         inkscape:connector-curvature="0"
         style="fill:#2ed1ba" />
      <path
         class="cls-6"
         d="m 104.5,1058.69 a 33.34,33.34 0 0 0 4.09,5.83 c -10.18,-18 -8.33,-31 1.13,-43.55 10.19,-13.51 37.46,-19.9 52.34,-24.81 14.88,-4.91 33.75,-9.91 47.23,-30.86 9.31,-14.47 11,-26.36 11.16,-32.33 0,-0.53 -0.07,-1.06 -0.07,-1.59 -1.93,14.73 -9.4,31.53 -21.52,42.32 -11.06,9.84 -24,16.28 -38.06,20.72 -14.8,4.69 -30.26,8.42 -43.52,16.83 -7.71,4.88 -14.62,12.1 -16.62,21.27 -1.9,8.76 -0.03,18.2 3.84,26.17 z"
         id="path112"
         inkscape:connector-curvature="0"
         style="fill:#2ed1ba" />
      <path
         class="cls-6"
         d="m 272.27,245.72 c -0.16,-0.51 1.45,3.68 -15.24,15.55 -16.69,11.87 -23.71,29 -15.66,45.92 8.05,16.92 10.33,18.7 10.35,18.71 a 21.88,21.88 0 0 0 1.79,-1.4 180.12,180.12 0 0 1 -9.06,-17.65 37.37,37.37 0 0 1 -3.64,-12.34 27.51,27.51 0 0 1 3.43,-15.27 38.34,38.34 0 0 1 4.58,-6.58 74.25,74.25 0 0 1 6.5,-6.29 q 5.51,-5.06 10.83,-10.3 c 2.51,-2.47 7.42,-6.22 6.12,-10.35 z"
         id="path114"
         inkscape:connector-curvature="0"
         style="fill:#2ed1ba" />
      <path
         class="cls-6"
         d="m 267,334 c 0,0 -23.85,19.59 -36.07,29.59 -12.22,10 -43.03,28.41 -36.93,53.11 5,20.35 19.27,18 19.27,18 l 3.06,-1 c 0,0 -10.9,0 -16.7,-9.41 -5.8,-9.41 -6.42,-24.37 8.49,-38.54 C 223.03,371.58 267,338.16 267,334 Z"
         id="path116"
         inkscape:connector-curvature="0"
         style="fill:#2ed1ba" />
      <path
         class="cls-6"
         d="m 240.66,432.77 a 29.5,29.5 0 0 1 -7.2,4.93 c -2.58,1.33 -5.22,2.55 -7.9,3.68 -2.68,1.13 -5.41,2.12 -8.16,3.07 -2.75,0.95 -5.53,1.75 -8.28,2.62 a 100.78,100.78 0 0 0 -16,6.33 48.29,48.29 0 0 0 -7.22,4.6 c -0.56,0.43 -1.12,0.87 -1.64,1.35 a 19.56,19.56 0 0 0 -1.57,1.44 c -0.5,0.5 -1,1 -1.51,1.5 l -1.4,1.6 a 41,41 0 0 0 -4.71,7.09 42.91,42.91 0 0 0 -3.07,7.92 43.45,43.45 0 0 0 -1.32,8.41 41.83,41.83 0 0 0 0.46,8.51 l 0.37,2.1 0.49,2.08 a 36.28,36.28 0 0 0 1.29,4.07 41.59,41.59 0 0 0 3.87,7.61 59.15,59.15 0 0 0 11.4,12.77 l -0.64,0.77 a 60.1,60.1 0 0 1 -11.72,-12.92 42.7,42.7 0 0 1 -4.06,-7.79 36.45,36.45 0 0 1 -1.37,-4.18 l -0.55,-2.14 -0.39,-2.16 a 43.12,43.12 0 0 1 -0.49,-8.79 41.19,41.19 0 0 1 4.5,-16.92 42.29,42.29 0 0 1 4.85,-7.35 l 1.46,-1.66 c 0.49,-0.54 1,-1 1.55,-1.56 0.55,-0.56 1.07,-1 1.63,-1.5 0.56,-0.5 1.13,-0.94 1.71,-1.39 a 50,50 0 0 1 7.44,-4.68 101.41,101.41 0 0 1 16.24,-6.35 c 2.77,-0.87 5.54,-1.69 8.28,-2.58 2.74,-0.89 5.43,-1.91 8.08,-3 2.65,-1.09 5.28,-2.3 7.83,-3.61 2.55,-1.31 5.09,-2.64 7.75,-3.87 z"
         id="path118"
         inkscape:connector-curvature="0"
         style="fill:#2ed1ba" />
      <path
         class="cls-6"
         d="m 194.85,575.15 a 1.81,1.81 0 0 1 -0.57,0.72 c -0.23,0.21 -0.47,0.4 -0.71,0.59 -0.48,0.38 -1,0.71 -1.52,1 a 33.46,33.46 0 0 1 -3.2,1.79 c -2.2,1.08 -4.46,2 -6.75,2.88 -4.58,1.69 -9.25,3.07 -13.94,4.42 -2.34,0.67 -4.68,1.36 -7,2 -2.32,0.64 -4.75,1.19 -7.08,1.74 -2.33,0.55 -4.67,1.16 -7,1.88 a 63.82,63.82 0 0 0 -6.73,2.49 34.39,34.39 0 0 0 -11.66,7.8 17.63,17.63 0 0 0 -3.56,5.84 16.15,16.15 0 0 0 -0.88,6.73 23.45,23.45 0 0 0 1.63,6.75 c 0.9,2.19 1.89,4.45 2.85,6.66 1.94,4.43 3.91,8.92 6.09,13.13 l -1.74,1 c -2.32,-4.4 -4.28,-8.8 -6.28,-13.26 -1,-2.24 -2,-4.42 -2.9,-6.73 a 25.29,25.29 0 0 1 -1.76,-7.37 18.55,18.55 0 0 1 1,-7.6 19.52,19.52 0 0 1 4,-6.52 36.31,36.31 0 0 1 12.39,-8.28 64.11,64.11 0 0 1 6.94,-2.55 c 2.34,-0.73 4.72,-1.36 7.11,-1.9 4.75,-1.08 9.51,-1.87 14.22,-3.07 4.71,-1.2 9.32,-2.64 13.86,-4.3 q 3.42,-1.21 6.75,-2.62 c 1.11,-0.48 2.22,-0.95 3.32,-1.45 0.55,-0.25 1.08,-0.53 1.62,-0.8 0.27,-0.14 0.53,-0.29 0.79,-0.44 0.26,-0.15 0.57,-0.27 0.71,-0.53 z"
         id="path120"
         inkscape:connector-curvature="0"
         style="fill:#2ed1ba" />
      <path
         class="cls-6"
         d="m 163.43,653.31 a 68.67,68.67 0 0 1 -9.41,-0.5 c -3.11,-0.33 -6.26,-0.72 -9.35,-1.14 -1.55,-0.2 -3.1,-0.38 -4.65,-0.5 a 23.24,23.24 0 0 0 -4.57,0 21.72,21.72 0 0 0 -8.51,3.11 20.15,20.15 0 0 0 -6.61,6.14 15.67,15.67 0 0 0 -2.33,8.58 24.2,24.2 0 0 0 1.69,9 17.18,17.18 0 0 0 2.13,4 8,8 0 0 0 3.33,2.81 l -0.35,0.93 a 9,9 0 0 1 -3.85,-3.09 19.1,19.1 0 0 1 -2.34,-4.24 24.73,24.73 0 0 1 -1.91,-9.39 17,17 0 0 1 2.56,-9.3 21.52,21.52 0 0 1 7,-6.61 23,23 0 0 1 9.07,-3.22 24.25,24.25 0 0 1 4.82,0 c 1.58,0.13 3.15,0.33 4.71,0.54 6.19,1 12.47,1.25 18.61,2.86 z"
         id="path122"
         inkscape:connector-curvature="0"
         style="fill:#2ed1ba" />
      <path
         class="cls-6"
         d="m 147.15,705.93 c -6.94,6.5 -15.05,11.6 -23.49,16 -4.26,2.15 -8.67,3.93 -13,5.72 -2.18,0.9 -4.36,1.81 -6.5,2.77 a 59.73,59.73 0 0 0 -6.24,3.15 27.53,27.53 0 0 0 -10,9.3 21.22,21.22 0 0 0 -2.63,13.13 35,35 0 0 0 4.26,13.13 38.43,38.43 0 0 0 8.77,10.76 l -0.63,0.77 a 38.21,38.21 0 0 1 -9.26,-10.9 35.49,35.49 0 0 1 -4.62,-13.6 22.84,22.84 0 0 1 2.77,-14.16 28.69,28.69 0 0 1 10.47,-9.92 61,61 0 0 1 6.42,-3.21 c 2.17,-1 4.36,-1.87 6.55,-2.77 4.38,-1.78 8.76,-3.53 13,-5.62 8.34,-4.2 16.08,-9.54 24.13,-14.55 z"
         id="path124"
         inkscape:connector-curvature="0"
         style="fill:#2ed1ba" />
      <path
         class="cls-6"
         d="m 163.44,788.78 a 345.14,345.14 0 0 1 -31.32,22.75 c -5.4,3.55 -10.81,7.06 -16.42,10.34 -5.61,3.28 -11.23,6.31 -16.62,9.77 A 115.34,115.34 0 0 0 83.74,843 a 54.13,54.13 0 0 0 -6.43,6.87 28.38,28.38 0 0 0 -4.42,8.06 19.83,19.83 0 0 0 -0.9,4.42 18.85,18.85 0 0 0 0.25,4.49 20,20 0 0 0 1.28,4.33 15.25,15.25 0 0 0 2.39,3.77 16.8,16.8 0 0 0 7.51,4.87 26.12,26.12 0 0 0 9.1,1.36 l 0.15,2 a 27.21,27.21 0 0 1 -5,-0.17 25.17,25.17 0 0 1 -4.91,-1.07 19.11,19.11 0 0 1 -8.59,-5.41 17.2,17.2 0 0 1 -2.83,-4.33 21.21,21.21 0 0 1 -1.54,-4.89 20.4,20.4 0 0 1 -0.34,-5.13 22.54,22.54 0 0 1 1,-5 30.93,30.93 0 0 1 4.79,-8.85 55.89,55.89 0 0 1 6.69,-7.32 107.37,107.37 0 0 1 15.7,-11.64 c 5.49,-3.46 11.21,-6.55 16.78,-9.7 5.57,-3.15 11,-6.65 16.38,-10.15 10.77,-7.04 21.47,-14.21 32.64,-20.73 z"
         id="path126"
         inkscape:connector-curvature="0"
         style="fill:#2ed1ba" />
      <path
         class="cls-6"
         d="m 195.85,893.94 a 115,115 0 0 1 -15.91,12.69 160.28,160.28 0 0 1 -17.66,10.2 101.07,101.07 0 0 1 -19.14,7.32 194.48,194.48 0 0 0 -19.35,5.56 c -1.55,0.61 -3.14,1.13 -4.65,1.82 l -2.29,1 -2.22,1.1 -1.11,0.55 -1.07,0.61 -2.14,1.21 a 45.67,45.67 0 0 0 -4,2.88 36.17,36.17 0 0 0 -3.58,3.31 31.34,31.34 0 0 0 -2.94,3.85 30.65,30.65 0 0 0 -2.32,4.25 33.65,33.65 0 0 0 -1.47,4.62 31,31 0 0 0 -1.11,9.63 14.88,14.88 0 0 0 3,8.69 16.19,16.19 0 0 0 8,4.85 36.62,36.62 0 0 0 9.72,1.37 v 2 a 38.09,38.09 0 0 1 -10.31,-1.24 18.45,18.45 0 0 1 -9.14,-5.47 17.25,17.25 0 0 1 -3.73,-10 31,31 0 0 1 0.12,-5.28 42.73,42.73 0 0 1 1,-5.14 35.68,35.68 0 0 1 1.65,-5 34,34 0 0 1 2.5,-4.64 34.38,34.38 0 0 1 3.19,-4.2 40.6,40.6 0 0 1 3.84,-3.59 50.55,50.55 0 0 1 4.22,-3.08 l 2.24,-1.31 1.13,-0.65 1.15,-0.58 2.32,-1.16 2.36,-1 c 1.57,-0.72 3.2,-1.25 4.79,-1.87 a 198.63,198.63 0 0 1 19.63,-5.52 98,98 0 0 0 18.7,-7 183.21,183.21 0 0 0 17.52,-9.89 c 5.69,-3.57 11.32,-7.25 17,-11 z"
         id="path128"
         inkscape:connector-curvature="0"
         style="fill:#2ed1ba" />
      <path
         class="cls-6"
         d="m 200.14,989.84 a 94.74,94.74 0 0 1 -26.37,22.85 77,77 0 0 1 -16.26,6.8 c -1.42,0.38 -2.86,0.79 -4.26,1.14 l -4.2,1 -4.18,1.14 -4.14,1.24 a 79,79 0 0 0 -15.8,6.65 32.58,32.58 0 0 0 -6.68,5.11 18.75,18.75 0 0 0 -4.31,7 11.91,11.91 0 0 0 -0.54,2 15.26,15.26 0 0 0 -0.36,2 26.64,26.64 0 0 0 -0.11,4.19 33.08,33.08 0 0 0 1.51,8.3 31,31 0 0 0 3.54,7.62 14.92,14.92 0 0 0 2.63,3.09 c 1,0.84 2.17,1.44 3.09,1.19 l 0.45,2 a 4.51,4.51 0 0 1 -2.74,-0.3 8.32,8.32 0 0 1 -2.08,-1.33 17,17 0 0 1 -3,-3.51 32.84,32.84 0 0 1 -3.73,-8.13 35.38,35.38 0 0 1 -1.59,-8.78 28.2,28.2 0 0 1 0.11,-4.5 17.21,17.21 0 0 1 0.39,-2.24 13,13 0 0 1 0.6,-2.2 20.61,20.61 0 0 1 4.73,-7.71 33.91,33.91 0 0 1 7.09,-5.45 80.2,80.2 0 0 1 16.2,-6.85 l 4.19,-1.26 4.22,-1.16 4.23,-1.06 c 1.42,-0.36 2.76,-0.8 4.13,-1.19 a 81.55,81.55 0 0 0 15.6,-7 122.79,122.79 0 0 0 14.4,-9.42 144.91,144.91 0 0 0 13.24,-11.23 z"
         id="path130"
         inkscape:connector-curvature="0"
         style="fill:#2ed1ba" />
      <path
         class="cls-6"
         d="m 209.57,1039.65 a 61.88,61.88 0 0 1 -15.82,14.91 57.18,57.18 0 0 1 -9.7,5.2 l -2.57,1 c -0.86,0.33 -1.76,0.55 -2.64,0.83 a 52.21,52.21 0 0 1 -5.39,1.3 c -3.58,0.63 -7.12,1.16 -10.64,1.86 a 87.06,87.06 0 0 0 -10.37,2.5 22.39,22.39 0 0 0 -9,5.06 17.46,17.46 0 0 0 -4.22,9.55 16.58,16.58 0 0 1 3.32,-10.35 22.3,22.3 0 0 1 9.28,-6.07 c 6.92,-2.59 14.16,-3.69 21.23,-5 a 59,59 0 0 0 19.71,-7.54 81.65,81.65 0 0 0 16.81,-13.25 z"
         id="path132"
         inkscape:connector-curvature="0"
         style="fill:#2ed1ba" />
    </g>
  </g>
</svg>
