<?xml version="1.0" encoding="utf-8"?>
<!-- Generator: Adobe Illustrator 22.0.1, SVG Export Plug-In . SVG Version: 6.00 Build 0)  -->
<svg version="1.1" id="Layer_1" xmlns="http://www.w3.org/2000/svg" xmlns:xlink="http://www.w3.org/1999/xlink" x="0px" y="0px"
	 viewBox="0 0 397.4 224" style="enable-background:new 0 0 397.4 224;" xml:space="preserve">
<style type="text/css">
	.st0{fill:#3F143B;}
	.st1{fill:#933886;}
	.st2{fill:#F980E3;}
	.st3{fill:none;stroke:#933886;stroke-width:5.23;stroke-linecap:round;stroke-miterlimit:10;}
	.st4{clip-path:url(#SVGID_2_);}
	.st5{fill:none;stroke:#FE70DE;stroke-width:5.23;stroke-linecap:round;stroke-miterlimit:10;}
	.st6{fill:#FFFFFF;}
	.st7{fill:#FF97EB;}
	.st8{opacity:0.26;fill:#FF97EB;enable-background:new    ;}
	.st9{fill:none;stroke:#FFD2F7;stroke-width:10.46;stroke-linecap:round;stroke-miterlimit:10;}
	.st10{fill:none;stroke:#FFFFFF;stroke-width:10.46;stroke-linecap:round;stroke-miterlimit:10;}
	.st11{fill:none;stroke:#FE70DE;stroke-width:3.14;stroke-linecap:round;stroke-miterlimit:10;}
	.st12{fill:none;stroke:#FF97EB;stroke-width:3.14;stroke-linecap:round;stroke-miterlimit:10;}
	.st13{fill:none;stroke:#FE70DE;stroke-width:2.95;stroke-linecap:round;stroke-miterlimit:10;}
	.st14{fill:none;stroke:#FF97EB;stroke-width:2.95;stroke-linecap:round;stroke-miterlimit:10;}
</style>
<title>Asset 7</title>
<g>
	<g id="Layer_2_1_">
		<g id="fishes_right">
			<path class="st0" d="M281.4,99.4c-53.2,30.2-58.1-20.3-58.5-29.9c0-1,0-1.5,0-1.5s19.9-21.2,51-27.7c16.4-3.4,33.9,3.9,38.2,16.5
				C315.9,68.2,309.2,83.7,281.4,99.4z"/>
			<path class="st0" d="M297.9,187.1c-0.4,0.4-0.8,0.8-1.2,1.1c-33.4,30-80.9-12.9-80.9-12.9c-2.6,0.4-5.2,0.6-7.8,0.6
				c-10,0.2-24.5-2.4-8.9-21.3C221.3,127.7,326.1,158.8,297.9,187.1z"/>
			<path class="st0" d="M181,218.4c-0.9,0.7-1.8,1.4-2.7,2c-26.2,17-50.1-32.9-50.1-32.9c2.1,0.2,4.2,0.3,6.4,0.2
				c3.9-0.2,8.6-1.1,10.6-3.8C149.1,178.7,208.2,195.9,181,218.4z"/>
			<path class="st1" d="M312,56.8c-4.6-7.9-14.2-15-30-14.2c-24.4,1.4-52.1,21.5-59.1,26.9c0-1,0-1.5,0-1.5s19.9-21.2,51-27.7
				C290.3,36.9,307.7,44.2,312,56.8z"/>
			<path class="st1" d="M296.7,188.2c-33.4,30-80.9-12.9-80.9-12.9c-2.6,0.4-5.2,0.6-7.8,0.6c-1.8-3.9-2.7-5.3,1.7-7.5
				c7-3.5,11.1,5.6,11.1,5.6S263.9,211.5,296.7,188.2z"/>
			<path class="st1" d="M178.3,220.4c-26.2,17-50.1-32.8-50.1-32.8c2.1,0.2,4.2,0.3,6.4,0.2c0,0.4,0,0.7,0,0.7l-0.7,1.9
				C133.8,190.4,151.9,229.1,178.3,220.4z"/>
			<path class="st1" d="M106.1,7.8c0,0,2.1,9.4,11.5,10.3c9.4,0.9,14-2.1,14-2.1s8.9,8.2,24.8,5.4c5.2-1.7,6.4-5.2,6.4-5.2
				s8.7,14.5,26.3,10.3l3.7-0.3c0,0,3.8,11.7,22.8,7.3c0,0,3.1,1.2,3.3,1.8s1,2.6,1,2.6s1.9,11.2,21.1,11.5c0,0-21.8,20.8-22.1,21.6
				s8.7,5.9-3.8,7.2s-29.3,0.5-39.4-2.4s-73.6-6.1-75.1-9.4S85.7,16,106.1,7.8z"/>
			<path class="st0" d="M94.3,66.6h-0.1c-2.9-0.1-5.2-2.5-5.1-5.4c0-1.3,1-30.9,11.5-57.2c0.9-2.7,3.9-4.2,6.6-3.3
				c2.7,0.9,4.2,3.9,3.3,6.6c-0.1,0.2-0.1,0.4-0.2,0.5c-9.8,24.6-10.8,53.4-10.8,53.7C99.4,64.3,97.1,66.5,94.3,66.6z"/>
			<path class="st0" d="M124.6,64c-0.2,0-0.4,0-0.7,0c-2.9-0.4-4.9-3-4.5-5.8c0,0,0,0,0,0c2.1-16.7,6-33.2,11.9-49
				c1.1-2.7,4.1-4,6.8-2.9c2.7,1.1,4,4.1,2.9,6.8l0,0c-5.5,15-9.3,30.6-11.2,46.4C129.4,62,127.2,63.9,124.6,64z"/>
			<path class="st0" d="M151.6,67.1h-0.5c-2.9-0.3-5-2.8-4.7-5.7c0,0,0,0,0,0c2.7-30.4,10.1-48.5,10.4-49.2c1.1-2.7,4.2-3.9,6.8-2.8
				c2.7,1.1,3.9,4.2,2.8,6.8l0,0l0,0c-0.1,0.2-7.1,17.5-9.6,46.2C156.5,65,154.3,67.1,151.6,67.1z"/>
			<path class="st0" d="M173.8,72.2c-0.9,0-1.8-0.2-2.6-0.7c-2-1.2-3-3.6-2.4-5.9v-0.3c2.4-13.3,9.1-29.1,19-44.6
				c1.6-2.4,4.8-3.2,7.3-1.6c2.4,1.6,3.2,4.8,1.6,7.3l0,0c-9.2,14.4-15.4,28.9-17.5,40.8c-0.1,0.8-0.4,1.6-0.8,2.4
				C177.4,71.2,175.6,72.2,173.8,72.2z"/>
			<path class="st0" d="M194.7,77.4c-2.9,0-5.2-2.4-5.2-5.3c0-0.6,0.1-1.3,0.4-1.9c0.4-1,10.1-25.1,26.4-39.8
				c2.1-1.9,5.5-1.8,7.4,0.4c1.9,2.1,1.8,5.5-0.4,7.4c-14.4,13-23.5,35.6-23.6,35.8C198.7,76.1,196.8,77.4,194.7,77.4z"/>
			<path class="st0" d="M213.3,85.9c-2.9,0-5.2-2.3-5.2-5.2c0-0.9,0.3-1.9,0.7-2.7c0.5-0.9,13.1-22,33.2-34.2
				c2.5-1.5,5.7-0.7,7.2,1.7c1.5,2.5,0.7,5.7-1.7,7.2c0,0,0,0,0,0c-17.9,10.8-29.5,30.3-29.6,30.5C216.9,85,215.2,85.9,213.3,85.9z"
				/>
			<path class="st2" d="M390.6,160.4c-1,3.6-3.1,7.3-6.6,8.6c-2.7,1.1-5.8,0.6-8.7,0c-12.4-2.3-24.8-4.6-36.4-9.5
				c-9.5-4-18.3-9.8-28.3-12.2c-23.6-5.7-49.1,7.1-68.9,18.7c-18.7,10.9-40.8,17-61.9,21.1c-22.8,4.5-46.2,5.4-69.3,2.8
				c-39.1-4.7-77-20.9-105.6-47.9c-0.3-0.2-0.4-0.6-0.4-0.9c-0.1-0.7,0.5-1.4,1.3-1.4c0,0,0,0,0,0c7.1-0.4,14.1,0.3,21,2.1
				c0.3,0.1,0.5,0.1,0.8,0.2c-2.5-0.7-5.6-4-7.7-5.5l-9.2-6.5c-2.4-1.7-5.2-3-6.7-4.8c-1.2-1.4-1.6-3.2-0.3-5.6
				c1.6-3.1,4.2-6,6.3-8.8c7.5-9.6,15.9-18.3,25.3-26C64.6,60.3,104.1,46,142.3,43.4c20.2-1.5,40.5,0.7,59.9,6.5
				c20.8,6.2,38,17.5,55.9,29.4c7.4,5,15,9.9,23.3,13.1s17.7,4.4,26.2,1.8c7.1-2.2,13.2-6.8,19.6-10.8c18-11.3,37.4-15.5,58.4-16.4
				c11.1-0.5,10.8,33.2,11,39.9C397.1,124.7,395.5,143.2,390.6,160.4z"/>
			<path class="st3" d="M100.7,66.2c0,0,50.5,58.9,8.9,112.5"/>
			<path class="st3" d="M149.9,107.7c5.2,21.4,5,47.7-12.6,72.6"/>
			<path class="st3" d="M128.4,61.5c7,9.6,12.6,20.2,16.8,31.3"/>
			<path class="st3" d="M177.3,152.1c-2.7,10.2-7.2,19.8-13.3,28.4"/>
			<path class="st3" d="M175.8,98.2c3.8,13.1,5.2,26.8,3.9,40.4"/>
			<path class="st3" d="M158.3,59.7c5.8,8.7,10.5,18,14.1,27.8"/>
			<path class="st3" d="M201.7,155.3c-2.2,7-5.1,13.7-8.7,20"/>
			<path class="st3" d="M204.3,107c2.1,10.9,2.4,22.2,0.9,33.2"/>
			<path class="st3" d="M185.7,62c6.2,9,11.1,18.9,14.5,29.3"/>
			<path class="st3" d="M227.2,150.7c-2.3,6.7-5.4,13.2-9.3,19.1"/>
			<path class="st3" d="M230.1,110.9c1.7,9.5,1.7,19.3-0.1,28.8"/>
			<path class="st3" d="M212.6,67.3c6.6,9.5,11.5,20,14.8,31.1"/>
			<path class="st3" d="M256,125.4c-0.2,10.9-3.1,21.5-8.6,30.9"/>
			<path class="st3" d="M244,83c5.4,8.8,9.1,18.6,10.9,28.8"/>
			<path class="st3" d="M269.9,99.4c0,0,17,23.7,2.3,47.1"/>
			<path class="st3" d="M296.6,106.4c0,0,9.3,17.7,1.3,35.2"/>
			<g>
				<defs>
					<path id="SVGID_1_" d="M3.9,125.2c-1.2-1.4-1.6-3.2-0.3-5.6c1.6-3.1,4.2-6,6.3-8.8c7.5-9.6,15.9-18.3,25.3-26
						C64.6,60.4,104.1,46,142.3,43.4c20.2-1.5,40.5,0.7,59.9,6.5c20.8,6.2,38,17.5,55.9,29.4c7.4,5,15,9.9,23.3,13.1
						s17.7,4.4,26.2,1.8c7.2-2.2,13.3-6.8,19.6-10.8c18-11.3,37.4-15.5,58.4-16.4c11.1-0.5,10.8,33.2,11,39.9
						c0.6,17.8-1,36.3-5.9,53.5c-1,3.6-3.1,7.3-6.6,8.6c-2.7,1.1-5.8,0.6-8.7,0c-12.3-2.3-24.8-4.6-36.4-9.5
						c-9.5-4-18.3-9.8-28.3-12.2c-23.6-5.7-49.1,7.1-68.9,18.7c-18.7,10.9-40.8,17-61.9,21.1c-22.8,4.5-46.2,5.4-69.3,2.8
						c-39-4.7-77-20.9-105.6-47.9c-0.5-0.5-0.6-1.4,0-1.9c0.2-0.2,0.6-0.4,0.9-0.4c7.3-0.4,14.7,0.4,21.8,2.3
						c-2.5-0.7-5.6-4-7.7-5.5l-9.2-6.5C8.3,128.4,5.4,127,3.9,125.2z"/>
				</defs>
				<clipPath id="SVGID_2_">
					<use xlink:href="#SVGID_1_"  style="overflow:visible;"/>
				</clipPath>
				<g class="st4">
					<path class="st1" d="M316.5,84c0,0,18.8-0.8,18.8,35s-30.8,41.3-30,41.3s-30.9,26.4,49.2,20.1s147.5-20.7,90.8-74.8
						S387.4,39,368,35.1s-31.4-10.5-34.3-3.1S316.5,84,316.5,84z"/>
					<path class="st1" d="M68.3,62.6c0,0,35.1,45.8,37.7,57s6.3,20.9-11.2,38.2s-29.3,30.1-30.1,30.3s-102.8-15.1-112.7-61.4
						s-44.7-32.9-9.4-59.1s34-27.5,43.9-29.5S68.3,62.6,68.3,62.6z"/>
					<line class="st5" x1="378.2" y1="88.3" x2="380.7" y2="87.7"/>
					<line class="st5" x1="329.3" y1="99.5" x2="370.2" y2="90.1"/>
					<line class="st5" x1="380.7" y1="120.7" x2="382.3" y2="120.8"/>
					<line class="st5" x1="329.6" y1="118.4" x2="372.2" y2="120.4"/>
					<line class="st5" x1="375.6" y1="150.3" x2="377.1" y2="150.8"/>
					<line class="st5" x1="326.1" y1="137" x2="366.2" y2="148"/>
					<path class="st6" d="M397.7,77.5c-3.3-6.7-6.1-11.1-11.8-15.7c0.4,0.4-1.7-1.1-1.7-1.1c-0.6-0.4-1.1-0.7-1.7-1
						c-4.7,0.6-9.3,1.4-13.9,2.5c-1.9,0.4-3.6,0.4-5.1,0c-3.8,0.9-7.6,1.4-11.4,2c-4.9,0.7-9.7,1.4-14.4,2.9
						c0.4-0.1,0.1,0.1-0.4,0.3c1.3,12.5-18,17.3-20.9,4.3c-1.3-5.8-0.5-10.6,1.7-14.5c-3.6-2.5-4.9-7.1-4.2-11.7
						c0.2-1.1,0.4-2.1,0.6-3.2c-1.2-2.2-2.3-4-4-5.6c-0.3-0.3-0.5-0.5-0.6-0.6c-0.1-0.1-0.4-0.2-0.8-0.4c-0.2-0.1-1.8-0.8-1.8-0.9
						c-1-0.3-2.1-0.6-3.1-0.8c-0.2,0-0.3,0-0.4-0.1c-0.6-0.1-1.2-0.1-1.8-0.1c-2.4-0.1-4.8-0.1-7.2,0c-12,0.4-24.8,0.4-35.6,6.4
						c-5.3,2.9-10.3,1-13.3-2.5c-1,0.3-2.1,0.5-3.1,0.5c-0.9-0.1-1.9-0.3-2.8-0.4c-1.8-0.5-3.4-1.4-4.7-2.8
						c-0.1-0.2-0.2-0.3-0.4-0.5c-1.6-0.1-3.3-0.5-5-1.4c-4-2.1-6.3-7.8-5-12.3c-1.9-0.2-3.9-0.3-5.8-0.4c-0.7,0-1.4,0-2.1,0
						c-5.6,9.5-22.8,3.8-19.5-8.5c0.1-0.3,0.2-0.7,0.3-1c-1.9,0-3.7,0-5.5,0.1c-0.3,0-0.5,0-0.8,0c-0.1,0-0.1,0-0.2,0
						c-1.1,0-2.2,0-3.3-0.1c-0.6,4.8-4,9.1-10.2,9.1c-6.1,0-9.5-4.2-10.2-8.8c-0.1-0.1-0.3-0.2-0.4-0.3c-2.3-2.2-3.4-5.8-3-9.2
						c-0.1,0-0.2,0-0.2,0c-0.9-0.3-1.8-0.5-2.8-0.7c-0.6,0.8-1.3,1.5-2.1,2c-1.2,3.9-4.5,7-9.8,7c-7.6,0-11-6.5-10.2-12.3
						c-0.8,0-1.7,0-2.5-0.1c-0.6,1.9-1.8,3.7-3.5,4.9c-1.3,3.8-4.5,6.9-9.8,6.9c-6.8,0-10.3-5.3-10.3-10.6c-5.3,0.7-10.6,1.7-15.8,3
						c-0.1,0.7-0.2,1.5-0.5,2.2c-4.7,12.1-6.2,24.9-7.6,37.7c-0.6,5.5-4,10.2-9.8,10.7c-0.3,0.3-0.5,0.6-0.8,0.9
						c-6.4,6.4-13.8,10.7-22.3,13.8c-4,1.5-8.2,2.6-12.3,4c-2.3,2-4.5,4.2-6.7,6.3c-4,3.6-8.2,7-12.1,10.8c-7.1,7-12.8,14.2-17.3,23
						c-2.4,4.7-4.8,9.2-7.8,13.3l2.3-0.5c0-0.7,39.4-54.9,113.2-70.1S221,62.6,248.2,78c27.2,15.5,39.4,34.7,79.9,11.3
						c31.9-18.5,51.7-18,57.2-16s12,22.2,14.1,50.5c0.1,0.9,0.2,1.7,0.4,2.4c0.9-1.5,2.1-2.8,3.7-3.7c-2.1-14.3-4.3-28.5-4.8-42.9
						C398.3,78.9,398,78.2,397.7,77.5z"/>
				</g>
			</g>
			<path class="st7" d="M73.7,70.2c0,0,33.1,46.6,31.7,65.2c-2.1,14.5-26.7,38.5-26.7,38.5s32.4-23.9,34.4-40.1S75.9,69.7,73.7,70.2
				z"/>
			<path class="st8" d="M81.1,110.8c0,0,14.4,14,13.5,25.1s-21.3,23.3-21.3,23.3s16.4-15.6,16.4-24.7S81.1,110.8,81.1,110.8z"/>
			<path class="st0" d="M106,146.5l44.1,14.7c3.1,1,6.6,0.2,8.8-2.3c7.3-8.1,21.7-28.4,14.7-57.6c-1-4.1-5.1-6.6-9.2-5.6
				c-0.1,0-0.1,0-0.2,0c-12.4,3.3-38.1,11.7-54.6,27.4C109.6,123.2,111,142.5,106,146.5z"/>
			<circle class="st0" cx="48.4" cy="109.5" r="12.7"/>
			<circle class="st6" cx="48.4" cy="109.5" r="11.2"/>
			<circle class="st0" cx="48.4" cy="109.5" r="9.1"/>
			<path class="st9" d="M80.9,82.2c17.8-8.3,50.2-19.3,95.3-16c70.1,4.7,99.6,51.8,134.4,45"/>
			<path class="st10" d="M154,65.7c8.7-0.3,17.5,0,26.2,0.9"/>
			<path class="st10" d="M124.5,68.6c2.7-0.5,5.6-0.9,8.5-1.3"/>
			<path class="st9" d="M65.3,90.5c0.3-0.2,0.7-0.4,1-0.5"/>
			<path class="st8" d="M69.8,120.1c-2.4,3.4-2.4,9.3-8.8,14.5s-11.4,9.8-10.7,12s15.2,12,32.7-9.3C88.9,124,72.8,115.8,69.8,120.1z
				"/>
			<path class="st11" d="M147.5,115.4c1.1-0.2,0.6-0.1,1.7-0.4"/>
			<path class="st12" d="M107.3,128.9c11-5.1,22.4-9.2,34.2-12.2"/>
			<path class="st13" d="M147.4,132.5c1,0.1,0.6,0,1.7,0.1"/>
			<path class="st14" d="M107.5,134.7c11.2-1.9,22.6-2.8,34-2.5"/>
			<path class="st11" d="M137.5,146.8c0.6,0.2,0.4,0.1,1,0.4"/>
			<path class="st12" d="M110.4,139.9c7.2,0.9,14.3,2.5,21.3,4.8"/>
			<path class="st7" d="M106.7,1.9L106.7,1.9c2.2,1,3.1,3.6,2.1,5.8l-1.3,2.9c-1,2.2-3.6,3.1-5.7,2.1l0,0c-2.2-1-3.1-3.6-2.1-5.7
				l1.3-2.9C102,1.9,104.5,0.9,106.7,1.9z"/>
			<path class="st7" d="M137.3,6.4L137.3,6.4c2.2,1,3.1,3.6,2.1,5.8l-1.3,2.9c-1,2.2-3.6,3.1-5.7,2.1l0,0c-2.2-1-3.1-3.6-2.1-5.7
				l1.3-2.9C132.6,6.3,135.1,5.4,137.3,6.4z"/>
			<path class="st7" d="M162.4,10L162.4,10c2.2,1,3.1,3.6,2.1,5.8l-1.3,2.9c-1,2.2-3.6,3.1-5.7,2.1l0,0c-2.2-1-3.1-3.6-2.1-5.7
				l1.3-2.9C157.7,10,160.2,9,162.4,10z"/>
			<path class="st7" d="M193.5,19.3L193.5,19.3c2.1,1.2,2.7,3.9,1.5,6l-1.7,2.7c-1.2,2-3.9,2.7-5.9,1.5l0,0c-2-1.2-2.7-3.9-1.5-5.9
				l1.7-2.7C188.7,18.7,191.4,18,193.5,19.3z"/>
			<path class="st7" d="M221.7,29.9L221.7,29.9c1.8,1.6,1.9,4.3,0.3,6.1l-2.1,2.4c-1.6,1.8-4.3,1.9-6.1,0.3l0,0
				c-1.8-1.6-1.9-4.3-0.3-6.1l2.1-2.4C217.2,28.4,219.9,28.3,221.7,29.9z"/>
			<path class="st7" d="M247.2,44.2L247.2,44.2c1.4,1.7,1.2,4.2-0.5,5.6l-2.3,1.9c-1.7,1.4-4.2,1.1-5.5-0.5l0,0
				c-1.4-1.7-1.1-4.2,0.5-5.5l2.3-1.9C243.3,42.2,245.8,42.5,247.2,44.2z"/>
			<path class="st6" d="M28.3,145.9c-6.8-3.8-19-4.6-23.8-4.7c-0.1-0.7,0.5-1.4,1.3-1.4c0,0,0,0,0,0c7.1-0.4,14.1,0.3,21,2.1
				C33.1,145.4,34.6,149.4,28.3,145.9z"/>
		</g>
	</g>
</g>
</svg>
