<svg xmlns="http://www.w3.org/2000/svg" viewBox="0 0 3841.65 202.42"><defs><style>.cls-1{fill:#77f7ed;}.cls-2{fill:#30eedd;}.cls-3{fill:#a6fff6;}</style></defs><title>Asset 24</title><g id="Layer_2" data-name="Layer 2"><g id="sand"><path class="cls-1" d="M3568.2,126.5c-39.74,13.1-65.47,18.6-96.27,19.76-51,1.92-91.53-30.65-136.23-55.35-32-17.69-97.63-46.76-179.43-44.09-116.85,3.81-145.58,81-239.57,83.5s-112.7-39-206.69-30.1-133.56,92.48-244.22,53.91c-70.94-24.72-133.12-43.44-238.05-2.7-37.84,14.7-93.48,16.34-148.85,6.73-44.11-7.65-92.74-21.35-150.24-22.65l-2.7-.06h-1.07c-1,0-2.08,0-3.13,0h-1.85l-3.13,0h-1.06l-2.71.06c-57.49,1.3-106.13,15-150.24,22.65-55.36,9.61-111.71,9.66-148.84-6.73-86.14-38-136.94-37.64-238.05-17.3C1261,157.25,1245.5,92.68,1151.5,83.78S1019,132.86,925,130.32s-92.72-59.69-209.58-63.5C633.58,64.15,568,93.22,536,110.91c-44.71,24.7-95.19,37.27-146.23,35.35-30.81-1.16-66.53-6.66-106.27-19.76C166.57,88,146.23,1.88,0,1.88V202.42H3841.65V1.88C3695.42,1.88,3685.08,88,3568.2,126.5Z"/><path class="cls-2" d="M3568.2,134.29c-39.74,11.76-65.47,16.7-96.27,17.74-51,1.72-91.53-27.51-136.23-49.67-32-15.87-97.63-42-179.43-39.57-116.85,3.42-145.58,72.66-239.57,74.94s-112.7-35-206.69-27-133.56,83-244.22,48.38c-70.94-22.18-133.12-39-238.05-2.42-37.84,13.18-93.48,14.66-148.85,6-44.11-6.87-92.74-19.16-150.24-20.33l-2.7,0h-1.07c-1,0-2.08,0-3.13,0h-1.85l-3.13,0h-1.06l-2.71,0c-57.49,1.17-106.13,13.46-150.24,20.33-55.36,8.62-111.71,8.67-148.84-6-86.14-34.12-136.94-33.78-238.05-15.52C1261,161.89,1245.5,103.94,1151.5,96S1019,140,925,137.73s-92.72-53.57-209.58-57C633.58,78.34,568,104.43,536,120.3A306.91,306.91,0,0,1,389.73,152c-30.81-1-66.53-6-106.27-17.74C166.57,99.72,146.23,22.47,0,22.47v180H3841.65V22.47C3695.42,22.47,3685.08,99.72,3568.2,134.29Z"/><path class="cls-2" d="M3568.2,125.78c-39.74,13.23-65.47,18.79-96.27,19.95-51,1.94-91.53-30.94-136.23-55.87-32-17.85-97.63-47.2-179.43-44.5-116.85,3.84-145.57,86.32-239.57,84.29-92.12-2-112.7,55.27-206.69,64.24s-133.56-1.28-244.22-40.21c-70.94-25-133.12-43.85-238.05-2.72-18.91,7.41-162.95,46.15-307,46.37s-288.29-38.1-306.86-46.37c-86.14-38.38-136.94-38-238.05-17.47-114.89,23.34-130.37,68.2-224.37,59.22S1019,132.21,925,129.65,832.24,69.39,715.38,65.54C633.58,62.85,568,92.2,536,110.05c-44.71,24.93-95.19,37.62-146.23,35.68-30.81-1.16-66.53-6.72-106.27-19.95C166.57,86.9,146.23,0,0,0V202.42H3841.65V0C3695.42,0,3685.08,86.9,3568.2,125.78Z"/><path class="cls-1" d="M3568.2,132.78c-39.74,12-65.47,17.06-96.27,18.13-51,1.75-91.53-28.12-136.23-50.78-32-16.22-97.63-42.89-179.43-40.44-116.85,3.49-145.57,78.45-239.57,76.6-92.12-1.81-112.7,50.22-206.69,58.38s-133.56-1.16-244.22-36.54c-70.94-22.68-133.12-39.86-238.05-2.48-18.91,6.74-162.95,41.95-307,42.15s-288.29-34.63-306.86-42.15c-86.14-34.88-136.94-34.53-238.05-15.87C1261,161,1245.5,201.75,1151.5,193.6S1019,138.62,925,136.29,832.24,81.53,715.38,78C633.58,75.58,568,102.25,536,118.48a301.57,301.57,0,0,1-146.23,32.43c-30.81-1.07-66.53-6.12-106.27-18.13C166.57,97.44,146.23,18.47,0,18.47v184H3841.65V18.47C3695.42,18.47,3685.08,97.44,3568.2,132.78Z"/><ellipse class="cls-2" cx="2208.32" cy="182.8" rx="5.4" ry="1.87" transform="translate(-5.88 268.84) rotate(-6.96)"/><ellipse class="cls-2" cx="2417.14" cy="151.64" rx="1.87" ry="5.4" transform="translate(1542.89 2410.23) rotate(-72.43)"/><ellipse class="cls-1" cx="2805.71" cy="128.46" rx="1.87" ry="5.4" transform="translate(1836.26 2764.49) rotate(-72.43)"/><ellipse class="cls-2" cx="3237.84" cy="74.92" rx="4.55" ry="13.16" transform="translate(2572.94 3244.64) rotate(-79.48)"/><ellipse class="cls-2" cx="2307.63" cy="144.99" rx="27.43" ry="9.66" transform="translate(7.2 377.77) rotate(-9.37)"/><ellipse class="cls-3" cx="2296.59" cy="145.71" rx="10" ry="4.1" transform="translate(7.73 383.79) rotate(-9.57)"/><ellipse class="cls-1" cx="2727.04" cy="115.58" rx="27.43" ry="9.66" transform="translate(2.1 273.07) rotate(-5.73)"/><ellipse class="cls-3" cx="2714.93" cy="115.61" rx="10" ry="4.1" transform="translate(2.58 281.12) rotate(-5.93)"/><ellipse class="cls-2" cx="3118.07" cy="75.84" rx="36.42" ry="12.83" transform="matrix(0.98, -0.21, 0.21, 0.98, 52.75, 651.96)"/><ellipse class="cls-3" cx="3103.47" cy="77.48" rx="13.27" ry="5.45" transform="translate(54.05 659.36) rotate(-12.23)"/><ellipse class="cls-2" cx="2279.04" cy="160.33" rx="16.62" ry="5.75" transform="translate(5.03 380.84) rotate(-9.56)"/><ellipse class="cls-3" cx="2274.8" cy="160.58" rx="5.77" ry="2" transform="matrix(0.99, -0.17, 0.17, 0.99, 4.93, 380.14)"/><ellipse class="cls-1" cx="2768.93" cy="128.87" rx="5.75" ry="16.62" transform="translate(2487.76 2886.5) rotate(-86.84)"/><ellipse class="cls-3" cx="2763.69" cy="128.18" rx="2" ry="5.77" transform="translate(2483.51 2880.62) rotate(-86.84)"/><ellipse class="cls-2" cx="3186.3" cy="80.02" rx="23.69" ry="8.2" transform="translate(-1 85.73) rotate(-1.54)"/><ellipse class="cls-3" cx="3180.26" cy="79.52" rx="8.23" ry="2.85" transform="matrix(1, -0.03, 0.03, 1, -0.99, 85.57)"/><ellipse class="cls-1" cx="1872.7" cy="178.55" rx="1.87" ry="5.4" transform="matrix(0.09, -1, 1, 0.09, 1527.32, 2027.77)"/><ellipse class="cls-1" cx="1938.98" cy="148.44" rx="9.66" ry="32.55" transform="translate(1613.46 2065.66) rotate(-84.74)"/><ellipse class="cls-3" cx="1926.05" cy="146.18" rx="4.11" ry="11.86" transform="translate(1608.14 2051.43) rotate(-84.87)"/><ellipse class="cls-1" cx="1927.59" cy="160.93" rx="5.75" ry="16.62" transform="translate(1594.85 2066.4) rotate(-84.87)"/><ellipse class="cls-3" cx="1923.42" cy="160.09" rx="2" ry="5.77" transform="translate(1591.89 2061.48) rotate(-84.87)"/><ellipse class="cls-1" cx="1880.57" cy="158.78" rx="4.11" ry="11.86" transform="translate(1554.18 2017.61) rotate(-84.87)"/><ellipse class="cls-3" cx="1876.32" cy="157.8" rx="2" ry="5.77" transform="translate(1551.29 2012.48) rotate(-84.87)"/><ellipse class="cls-2" cx="2221.86" cy="170.07" rx="11.86" ry="4.11" transform="translate(1.7 361.05) rotate(-9.29)"/><ellipse class="cls-3" cx="2217.49" cy="170.17" rx="5.77" ry="2" transform="translate(1.63 360.34) rotate(-9.29)"/><ellipse class="cls-2" cx="2392.99" cy="149.89" rx="4.6" ry="13.29" transform="translate(1762.53 2463.2) rotate(-78.34)"/><ellipse class="cls-3" cx="2388.38" cy="148.25" rx="2.24" ry="6.47" transform="translate(1760.47 2457.38) rotate(-78.34)"/><ellipse class="cls-1" cx="2679.24" cy="137.47" rx="13.29" ry="4.6" transform="translate(23.33 516.13) rotate(-11.05)"/><ellipse class="cls-3" cx="2673.32" cy="137.74" rx="6.47" ry="2.24" transform="translate(23.17 515) rotate(-11.05)"/><ellipse class="cls-1" cx="2639.35" cy="134.58" rx="16.62" ry="5.75" transform="translate(51.75 671.82) rotate(-14.65)"/><ellipse class="cls-2" cx="1573.33" cy="154.01" rx="1.87" ry="5.4" transform="matrix(0.35, -0.94, 0.94, 0.35, 875.5, 1572.5)"/><ellipse class="cls-2" cx="1494.4" cy="136.94" rx="27.43" ry="9.66" transform="translate(-4.79 70.57) rotate(-2.7)"/><ellipse class="cls-3" cx="1483.35" cy="136.37" rx="10" ry="4.1" transform="translate(-5 75.13) rotate(-2.9)"/><ellipse class="cls-2" cx="1535.53" cy="152.42" rx="5.75" ry="16.62" transform="translate(1218.41 1662.56) rotate(-83.81)"/><ellipse class="cls-3" cx="1531.38" cy="151.51" rx="2" ry="5.77" transform="translate(1215.61 1657.62) rotate(-83.81)"/><ellipse class="cls-2" cx="1445.51" cy="156.26" rx="13.29" ry="4.6" transform="translate(-7.67 203.15) rotate(-8.02)"/><ellipse class="cls-3" cx="1440.62" cy="156.27" rx="6.47" ry="2.24" transform="translate(-7.71 202.46) rotate(-8.02)"/><ellipse class="cls-2" cx="1405.83" cy="151.26" rx="16.62" ry="5.75" transform="translate(-1.67 286.12) rotate(-11.61)"/><ellipse class="cls-2" cx="863.9" cy="139.14" rx="2.52" ry="7.29" transform="translate(302.17 810.07) rotate(-59.21)"/><ellipse class="cls-2" cx="763.01" cy="97.58" rx="13.05" ry="37.06" transform="translate(566.9 841.38) rotate(-82.52)"/><ellipse class="cls-3" cx="748.44" cy="94.19" rx="5.55" ry="13.51" transform="matrix(0.13, -0.99, 0.99, 0.13, 560.08, 824.64)"/><ellipse class="cls-2" cx="814.01" cy="128" rx="7.77" ry="22.46" transform="translate(461.72 872.91) rotate(-73.63)"/><ellipse class="cls-3" cx="808.71" cy="125.79" rx="2.7" ry="7.8" transform="translate(460.03 866.24) rotate(-73.63)"/><ellipse class="cls-2" cx="693.37" cy="111.6" rx="6.21" ry="17.95" transform="translate(555.65 800.26) rotate(-87.83)"/><ellipse class="cls-3" cx="686.87" cy="110.44" rx="3.02" ry="8.74" transform="translate(550.55 792.65) rotate(-87.83)"/><ellipse class="cls-2" cx="641.79" cy="95.47" rx="22.46" ry="7.77" transform="translate(-2.18 16.05) rotate(-1.43)"/><ellipse class="cls-2" cx="3050.98" cy="101.89" rx="20.83" ry="7.21" transform="translate(134.36 1003.1) rotate(-19.08)"/><ellipse class="cls-1" cx="1189.17" cy="112.17" rx="9.66" ry="32.55" transform="translate(863.43 1261.34) rotate(-79.56)"/><ellipse class="cls-3" cx="1175.45" cy="108.75" rx="4.11" ry="11.86" transform="matrix(0.18, -0.98, 0.98, 0.18, 858.05, 1245.74)"/><ellipse class="cls-1" cx="1176.69" cy="123.58" rx="5.75" ry="16.62" transform="translate(844.49 1259.15) rotate(-79.69)"/><ellipse class="cls-3" cx="1171.58" cy="122.37" rx="2" ry="5.77" transform="translate(841.48 1253.12) rotate(-79.69)"/><ellipse class="cls-1" cx="1130.06" cy="117.19" rx="4.11" ry="11.86" transform="translate(812.48 1208.02) rotate(-79.69)"/><ellipse class="cls-3" cx="1124.88" cy="115.83" rx="2" ry="5.77" transform="translate(809.57 1201.8) rotate(-79.69)"/><ellipse class="cls-1" cx="1089.49" cy="124.64" rx="13.29" ry="4.6" transform="translate(-6.74 153.18) rotate(-8.02)"/><ellipse class="cls-3" cx="1083.56" cy="124.65" rx="6.47" ry="2.24" transform="matrix(0.99, -0.14, 0.14, 0.99, -6.79, 152.35)"/><ellipse class="cls-1" cx="1049.81" cy="119.65" rx="16.62" ry="5.75" transform="translate(-2.59 213.8) rotate(-11.61)"/></g></g></svg>