<?xml version="1.0" encoding="UTF-8" standalone="no"?>
<svg
   xmlns:dc="http://purl.org/dc/elements/1.1/"
   xmlns:cc="http://creativecommons.org/ns#"
   xmlns:rdf="http://www.w3.org/1999/02/22-rdf-syntax-ns#"
   xmlns:svg="http://www.w3.org/2000/svg"
   xmlns="http://www.w3.org/2000/svg"
   xmlns:sodipodi="http://sodipodi.sourceforge.net/DTD/sodipodi-0.dtd"
   xmlns:inkscape="http://www.inkscape.org/namespaces/inkscape"
   viewBox="0 0 984.36 280.72"
   version="1.1"
   id="svg169"
   sodipodi:docname="fish3-flip.svg"
   inkscape:version="0.92.5 (2060ec1f9f, 2020-04-08)">
  <metadata
     id="metadata173">
    <rdf:RDF>
      <cc:Work
         rdf:about="">
        <dc:format>image/svg+xml</dc:format>
        <dc:type
           rdf:resource="http://purl.org/dc/dcmitype/StillImage" />
        <dc:title>Asset 12</dc:title>
      </cc:Work>
    </rdf:RDF>
  </metadata>
  <sodipodi:namedview
     pagecolor="#ffffff"
     bordercolor="#666666"
     borderopacity="1"
     objecttolerance="10"
     gridtolerance="10"
     guidetolerance="10"
     inkscape:pageopacity="0"
     inkscape:pageshadow="2"
     inkscape:window-width="759"
     inkscape:window-height="521"
     id="namedview171"
     showgrid="false"
     inkscape:zoom="0.30781422"
     inkscape:cx="492.17999"
     inkscape:cy="140.36"
     inkscape:window-x="787"
     inkscape:window-y="203"
     inkscape:window-maximized="0"
     inkscape:current-layer="svg169" />
  <defs
     id="defs7">
    <style
       id="style2">.cls-1{fill:none;}.cls-2{fill:#563426;}.cls-3{fill:#8d6448;}.cls-4{fill:#794629;}.cls-5{fill:#ab816b;}.cls-6{fill:#8f6a58;}.cls-7{fill:#b3978b;}.cls-8{clip-path:url(#clip-path);}.cls-9{fill:#73442a;stroke:#462919;stroke-miterlimit:10;stroke-width:2.08px;}.cls-10{fill:#e5bfac;}.cls-11{fill:#502b1b;}.cls-12{fill:#6f4129;}.cls-13{fill:#cfbcb5;}.cls-14{fill:#73432d;}.cls-15{fill:#502a1d;}.cls-16,.cls-17,.cls-18{fill:#fff;}.cls-17{opacity:0.36;}.cls-18{opacity:0.66;}</style>
    <clipPath
       id="clip-path">
      <path
         class="cls-1"
         d="M983.61,243a10.56,10.56,0,0,0-.77-5h0a8.67,8.67,0,0,0-.38-.82c-2-4-6.46-7.43-12.59-10.78a174,174,0,0,0-16.62-7.61c-2.5-1-5.1-2.09-7.78-3.16-.27-.1-.52-.21-.78-.32l-1.66-.66-3.37-1.35-3.43-1.4c-1.38-.56-2.76-1.12-4.17-1.71l-2.85-1.2c-1.37-.58-2.75-1.16-4.14-1.77l-1.76-.77c-1-.45-2-.92-3.08-1.38l-1.26-.57c-.79-.36-1.58-.72-2.38-1.1l-1.26-.6c-1.73-.81-3.45-1.65-5.18-2.52l-1.11-.57c-.6-.3-1.19-.6-1.79-.92-1.12-.58-2.24-1.17-3.36-1.79-3.61-2-7.19-4-10.68-6.26-20.56-11.47-134.37-88.8-275.13-96.7C527.75,92.27,462.46,119.75,419,127.92s-240.15,46.27-240.15,46.27C94,107.8,0,114,0,114a117,117,0,0,0,9.58,26.75c25.53,51,81.61,74.72,81.61,74.72-16,8.9-29.87,22.92-40.12,35.52,0,0,0,0,0,0A214,214,0,0,0,31.8,278.69l1.53.08C103.86,282.53,185,214.12,185,214.12c129.22-4.08,222.84,7.41,245.25,12s196.23,23.17,234.63,24.95S813.68,274.71,900.27,274l2.91,0,1.18,0,1.66,0,1.38,0,1.39,0,1.45,0,1.25-.05,1.46-.07,1.18-.06,1.46-.07,1.1-.07,1.47-.09,1-.07,1.46-.1,1-.08,1.46-.12.9-.08,1.46-.13.83-.08,1.47-.15.75-.08,1.48-.17.65-.07,1.53-.19.43-.05c3.25-.42,6.3-.9,9.15-1.42l.2,0,1.44-.27.39-.08,1.31-.26.47-.1,1.21-.27.52-.11,1.13-.26.54-.13,1.08-.26.52-.14c.36-.08.71-.18,1.05-.27l.52-.13,1-.28.51-.14,1-.28.5-.16.93-.28.47-.15.92-.29.41-.15.93-.31.33-.12,1-.34.11,0c1.06-.39,2.07-.79,3-1.2l.4-.17.66-.28.47-.21.6-.27.49-.23.55-.26.49-.24.51-.26.49-.25.48-.25.49-.26.45-.25.48-.27.41-.24.48-.29.38-.23.47-.29.35-.23c.16-.1.32-.2.47-.31l.32-.21.48-.33.27-.19.51-.37.2-.15.59-.45.1-.07c.45-.36.88-.71,1.29-1.06l.1-.09.48-.43.16-.15.4-.37.18-.18.34-.34.19-.19.3-.32.2-.21c.09-.1.18-.19.26-.29l.21-.23.23-.27.2-.24a2.43,2.43,0,0,0,.2-.25l.21-.25.17-.22.21-.28a2.14,2.14,0,0,0,.13-.19l.23-.31.08-.12.25-.36,0-.05a19.85,19.85,0,0,0,1.63-3l0,0c.12-.29.22-.57.32-.83s.1-.27.13-.4A11.11,11.11,0,0,0,983.61,243Z"
         id="path4" />
    </clipPath>
  </defs>
  <title
     id="title9">Asset 12</title>
  <g
     id="Layer_2"
     data-name="Layer 2"
     transform="matrix(-1,0,0,1,984.36,0)">
    <g
       id="fishes_left"
       data-name="fishes left">
      <path
         class="cls-2"
         d="m 774.87,227.22 a 40.21,40.21 0 0 1 -6.49,9.66 c -23.39,26 -80.32,28.94 -90.55,26.64 -11.38,-2.56 -7.11,-21.69 -43.33,-42.38 -21.71,-14 -33.26,-12.16 -39.29,-15.44 a 8.15,8.15 0 0 1 -3.45,-3.56 c -4.51,-8.66 22.49,-21.64 63.78,-21.63 41.29,0.01 127.64,20.16 119.33,46.71 z"
         id="path11"
         inkscape:connector-curvature="0"
         style="fill:#563426" />
      <path
         class="cls-3"
         d="m 774.87,227.22 a 40.21,40.21 0 0 1 -6.49,9.66 c -0.74,-13.67 -11.87,-29.6 -50.59,-39.07 -68,-16.63 -100.87,-7.91 -114.2,-3 -12.16,4.51 -9,9.95 -8.38,10.87 a 8.15,8.15 0 0 1 -3.45,-3.56 c -4.51,-8.66 22.49,-21.64 63.78,-21.63 41.29,0.01 127.64,20.18 119.33,46.73 z"
         id="path13"
         inkscape:connector-curvature="0"
         style="fill:#8d6448" />
      <path
         class="cls-4"
         d="m 644.81,99.37 -9.08,3.89 -13.11,5.58 c -12.42,5.29 -25.9,11 -28.34,11.89 -4.71,1.73 -105.93,-1 -105.93,-1 0,0 44,-22 54,-67 7.34,-33.15 1.47,-39.63 -0.29,-43.92 -0.64,-1.54 -0.75,-2.8 0.46,-4.89 4.56,-8 29.19,-5.67 58,24.74 28.81,30.41 44.29,70.71 44.29,70.71 z"
         id="path15"
         inkscape:connector-curvature="0"
         style="fill:#794629" />
      <path
         class="cls-3"
         d="m 644.81,99.37 -9.08,3.89 c -1,-0.94 -1.61,-1.5 -1.61,-1.5 0,0 -3.8,-18.51 -25.72,-53.76 -21.92,-35.25 -50,-43.81 -57.83,-44.22 -7.83,-0.41 -8.51,5 -8.51,5 -0.64,-1.54 -0.75,-2.8 0.46,-4.89 4.56,-8 29.19,-5.67 58,24.74 28.81,30.41 44.29,70.74 44.29,70.74 z"
         id="path17"
         inkscape:connector-curvature="0"
         style="fill:#8d6448" />
      <path
         class="cls-5"
         d="m 969.87,226.37 c -10.29,-2.41 -41.45,-9.17 -75.14,-11.3 -41.24,-2.61 -248,-26.07 -276.6,-24.8 -28.6,1.27 -211.94,2.15 -258.68,2 -46.74,-0.15 -150.89,-12.77 -179.12,-3.44 -22,7.28 -88.49,23.7 -129.26,62.1 10.25,-12.6 24.07,-26.62 40.12,-35.52 0,0 -56.08,-23.69 -81.61,-74.72 A 117,117 0 0 1 0,114 c 0,0 94,-6.16 178.88,60.23 0,0 196.71,-38.11 240.15,-46.27 43.44,-8.16 108.72,-35.69 199.05,-33.96 140.76,7.9 254.57,85.23 275.13,96.7 3.49,2.23 7.07,4.3 10.68,6.26 1.12,0.62 2.24,1.21 3.36,1.79 0.6,0.32 1.19,0.62 1.79,0.92 l 1.11,0.57 c 1.73,0.87 3.45,1.71 5.18,2.52 l 1.26,0.6 c 0.8,0.38 1.59,0.74 2.38,1.1 l 1.26,0.57 c 1,0.46 2,0.93 3.08,1.38 l 1.76,0.77 c 1.39,0.61 2.77,1.19 4.14,1.77 l 2.85,1.2 c 1.41,0.59 2.79,1.15 4.17,1.71 l 3.43,1.4 3.37,1.35 1.66,0.66 c 0.26,0.11 0.51,0.22 0.78,0.32 2.68,1.07 5.28,2.12 7.78,3.16 a 174,174 0 0 1 16.62,7.62 z"
         id="path19"
         inkscape:connector-curvature="0"
         style="fill:#ab816b" />
      <path
         class="cls-6"
         d="m 982.93,247.22 c 0,0.13 -0.09,0.26 -0.13,0.4 a 18.3,18.3 0 0 1 -0.74,1.73 c -4.35,8.89 -20.74,24.06 -81.79,24.6 -86.59,0.76 -197,-21.1 -235.35,-22.88 -38.35,-1.78 -212.21,-20.36 -234.63,-24.95 -22.42,-4.59 -116,-16.08 -245.25,-12 0,0 -81.18,68.41 -151.71,64.65 L 31.8,278.69 A 214,214 0 0 1 51.05,251 c 0,0 0,0 0,0 40.77,-38.4 107.22,-54.82 129.26,-62.1 28.23,-9.33 132.38,3.32 179.12,3.44 46.74,0.12 230.09,-0.76 258.68,-2 28.59,-1.24 235.36,22.19 276.6,24.8 33.69,2.13 64.85,8.89 75.14,11.3 6.13,3.35 10.58,6.8 12.59,10.78 a 8.67,8.67 0 0 1 0.38,0.82 v 0 a 10.56,10.56 0 0 1 0.77,5 11.11,11.11 0 0 1 -0.66,4.18 z"
         id="path21"
         inkscape:connector-curvature="0"
         style="fill:#8f6a58" />
      <path
         class="cls-7"
         d="m 984.36,247.65 c -1.15,3.16 -3.85,7.56 -10.18,11.84 v 0 c -10.63,7.21 -31.49,14.12 -72.35,14.48 -86.58,0.76 -197,-21.1 -235.35,-22.88 -38.35,-1.78 -212.2,-20.36 -234.62,-24.95 -22.42,-4.59 -116,-16.08 -245.25,-12 0,0 -81.19,68.41 -151.72,64.65 108.8,-38.29 142.43,-77.11 142.43,-77.11 13.44,3.37 139,3.88 182.9,5.08 43.9,1.2 218.7,6.29 282.23,15.47 63.53,9.18 244.57,11.64 300.31,12 33.42,0.25 40.93,7.59 41.6,13.42 z"
         id="path23"
         inkscape:connector-curvature="0"
         style="fill:#b3978b" />
      <g
         class="cls-8"
         clip-path="url(#clip-path)"
         id="g141">
        <path
           class="cls-9"
           d="m 812.91,144.5 c 0,0 -4.54,1.65 -11.2,14.85 -6.66,13.2 -5.67,43 11.65,42.47 19.92,-0.49 16.79,-35.69 43.45,-36 0,0 -17.77,-30.12 -21.92,-30 -4.15,0.12 -21.98,8.68 -21.98,8.68 z"
           id="path25"
           inkscape:connector-curvature="0"
           style="fill:#73442a;stroke:#462919;stroke-width:2.07999992px;stroke-miterlimit:10" />
        <ellipse
           class="cls-9"
           cx="802.34003"
           cy="212.25"
           rx="7.5300002"
           ry="6.1399999"
           transform="rotate(-88.9,802.30797,212.26483)"
           id="ellipse27"
           style="fill:#73442a;stroke:#462919;stroke-width:2.07999992px;stroke-miterlimit:10" />
        <path
           class="cls-9"
           d="m 733.7,113 c 0,0 -5.23,1.8 -8.49,9.36 -3.26,7.56 -1.8,22 17.85,26.14 19.65,4.14 40.64,-6.84 38.17,-22.47 C 778.76,110.4 733.7,113 733.7,113 Z"
           id="path29"
           inkscape:connector-curvature="0"
           style="fill:#73442a;stroke:#462919;stroke-width:2.07999992px;stroke-miterlimit:10" />
        <path
           class="cls-9"
           d="m 651.23,231.61 a 41.51,41.51 0 0 1 -8.06,-10.43 c -11.94,-21.82 -6.86,-50.22 4.74,-71.09 5.43,-9.76 16,-23.18 29,-19.46 16.19,4.64 7.72,26.14 4.46,36.84 a 88,88 0 0 0 -4,27 c 0.11,6.94 0.52,14.64 2.92,21.22 3.38,9.26 1.76,23.77 -10.72,24.17 a 20.43,20.43 0 0 1 -8.49,-1.8 33.91,33.91 0 0 1 -9.85,-6.45 z"
           id="path31"
           inkscape:connector-curvature="0"
           style="fill:#73442a;stroke:#462919;stroke-width:2.07999992px;stroke-miterlimit:10" />
        <path
           class="cls-9"
           d="m 580.76,175.65 c 13,1.89 17.68,-14.72 20,-23.37 2.32,-8.65 9.94,-24 13.06,-30.65 3.12,-6.65 6.84,-25.06 -14.29,-26.76 -21.13,-1.7 -25.45,20.28 -29,35 -3.55,14.72 -8.42,43.13 10.23,45.78 z"
           id="path33"
           inkscape:connector-curvature="0"
           style="fill:#73442a;stroke:#462919;stroke-width:2.07999992px;stroke-miterlimit:10" />
        <path
           class="cls-9"
           d="m 526.28,132.54 c 11.61,0.47 12,11.52 10.77,20.46 -1.23,8.94 -3.85,17.58 -4.58,28.73 -0.73,11.15 -0.32,30 -16.68,29.94 -16.36,-0.06 -24.87,-16.67 -21.92,-34.83 2.95,-18.16 14.37,-45.04 32.41,-44.3 z"
           id="path35"
           inkscape:connector-curvature="0"
           style="fill:#73442a;stroke:#462919;stroke-width:2.07999992px;stroke-miterlimit:10" />
        <path
           class="cls-9"
           d="m 433.62,123 c 0,0 -10.62,14.56 -9.62,29.77 0.4,6 2.92,12.56 8.68,15.19 a 20.6,20.6 0 0 0 10,1.49 c 4.19,-0.27 8.46,-1.38 11.69,-4 a 18.15,18.15 0 0 0 4.84,-6.55 c 2.16,-4.68 2.86,-9.9 5.08,-14.57 2.94,-6.2 8.47,-11.06 12.85,-16.25 4.82,-5.7 9.45,-11.65 12.82,-18.35 a 17.34,17.34 0 0 0 2,-5.73 3.9,3.9 0 0 0 -0.37,-2.5 c -1.42,-2.31 -6,-1.4 -8.27,-1.15 a 79.9,79.9 0 0 0 -8,1.33 134.73,134.73 0 0 0 -18.9,5.46 75.15,75.15 0 0 0 -15.5,7.43 24.47,24.47 0 0 0 -5,4.15 10.52,10.52 0 0 0 -1.49,2.14 C 434,121.4 434,122.48 433.62,123 Z"
           id="path37"
           inkscape:connector-curvature="0"
           style="fill:#73442a;stroke:#462919;stroke-width:2.07999992px;stroke-miterlimit:10" />
        <path
           class="cls-9"
           d="m 379.09,161.71 a 25.86,25.86 0 0 0 -10.94,0 c -4.62,1 -7.86,4.33 -10.35,8.17 -6.06,9.41 -13.83,17 -11.21,24.72 2.77,8.09 13.28,11.25 21.09,9.69 14.71,-2.93 20.13,-20.17 18.27,-33.4 -0.4,-2.85 -1.27,-5.87 -3.56,-7.62 a 9.48,9.48 0 0 0 -3.3,-1.56 z"
           id="path39"
           inkscape:connector-curvature="0"
           style="fill:#73442a;stroke:#462919;stroke-width:2.07999992px;stroke-miterlimit:10" />
        <path
           class="cls-9"
           d="m 289.89,149.93 c -0.66,0.37 -6.31,37.66 17,35.9 20.54,-1.29 7.17,-21.68 17.92,-40.82 10.75,-19.14 -23.78,-19.15 -31.25,-15.4 -7.47,3.75 -3.67,20.32 -3.67,20.32 z"
           id="path41"
           inkscape:connector-curvature="0"
           style="fill:#73442a;stroke:#462919;stroke-width:2.07999992px;stroke-miterlimit:10" />
        <path
           class="cls-9"
           d="m 136.92,144.38 c 0,0 -16.57,17.34 -17.92,34.62 -1.35,17.28 6.26,25.57 20.62,21.57 14.36,-4 20.31,-36.75 37.58,-36.68 17.27,0.07 2.94,-17.6 -8.55,-21.19 -11.49,-3.59 -31.73,1.68 -31.73,1.68 z"
           id="path43"
           inkscape:connector-curvature="0"
           style="fill:#73442a;stroke:#462919;stroke-width:2.07999992px;stroke-miterlimit:10" />
        <circle
           class="cls-9"
           cx="779.19"
           cy="164.72"
           r="3.3800001"
           id="circle45"
           style="fill:#73442a;stroke:#462919;stroke-width:2.07999992px;stroke-miterlimit:10" />
        <circle
           class="cls-9"
           cx="740.12"
           cy="161.89"
           r="3.8900001"
           id="circle47"
           style="fill:#73442a;stroke:#462919;stroke-width:2.07999992px;stroke-miterlimit:10" />
        <circle
           class="cls-9"
           cx="715.40997"
           cy="150.5"
           r="4.4099998"
           id="circle49"
           style="fill:#73442a;stroke:#462919;stroke-width:2.07999992px;stroke-miterlimit:10" />
        <circle
           class="cls-9"
           cx="684.12"
           cy="197.77"
           r="2.8599999"
           id="circle51"
           style="fill:#73442a;stroke:#462919;stroke-width:2.07999992px;stroke-miterlimit:10" />
        <circle
           class="cls-9"
           cx="711.28003"
           cy="126.97"
           r="4.0700002"
           id="circle53"
           style="fill:#73442a;stroke:#462919;stroke-width:2.07999992px;stroke-miterlimit:10" />
        <circle
           class="cls-9"
           cx="689.28998"
           cy="127.06"
           r="4.0700002"
           id="circle55"
           style="fill:#73442a;stroke:#462919;stroke-width:2.07999992px;stroke-miterlimit:10" />
        <circle
           class="cls-9"
           cx="665.53998"
           cy="119.85"
           r="4.0700002"
           id="circle57"
           style="fill:#73442a;stroke:#462919;stroke-width:2.07999992px;stroke-miterlimit:10" />
        <circle
           class="cls-9"
           cx="641.53003"
           cy="134.8"
           r="5.4499998"
           id="circle59"
           style="fill:#73442a;stroke:#462919;stroke-width:2.07999992px;stroke-miterlimit:10" />
        <circle
           class="cls-9"
           cx="614.90997"
           cy="141.89999"
           r="2.51"
           id="circle61"
           style="fill:#73442a;stroke:#462919;stroke-width:2.07999992px;stroke-miterlimit:10" />
        <circle
           class="cls-9"
           cx="611.08002"
           cy="160.87"
           r="5.1100001"
           id="circle63"
           style="fill:#73442a;stroke:#462919;stroke-width:2.07999992px;stroke-miterlimit:10" />
        <circle
           class="cls-9"
           cx="625.70001"
           cy="183.83"
           r="5.1100001"
           id="circle65"
           style="fill:#73442a;stroke:#462919;stroke-width:2.07999992px;stroke-miterlimit:10" />
        <circle
           class="cls-9"
           cx="601.25"
           cy="181.03"
           r="3.1199999"
           id="circle67"
           style="fill:#73442a;stroke:#462919;stroke-width:2.07999992px;stroke-miterlimit:10" />
        <circle
           class="cls-9"
           cx="559.12"
           cy="175.37"
           r="5.71"
           id="circle69"
           style="fill:#73442a;stroke:#462919;stroke-width:2.07999992px;stroke-miterlimit:10" />
        <circle
           class="cls-9"
           cx="555.89001"
           cy="154.17999"
           r="4.6700001"
           id="circle71"
           style="fill:#73442a;stroke:#462919;stroke-width:2.07999992px;stroke-miterlimit:10" />
        <circle
           class="cls-9"
           cx="568.62"
           cy="113.75"
           r="3.1199999"
           id="circle73"
           style="fill:#73442a;stroke:#462919;stroke-width:2.07999992px;stroke-miterlimit:10" />
        <circle
           class="cls-9"
           cx="533.91998"
           cy="117.4"
           r="2.5999999"
           id="circle75"
           style="fill:#73442a;stroke:#462919;stroke-width:2.07999992px;stroke-miterlimit:10" />
        <circle
           class="cls-9"
           cx="509.51999"
           cy="125.94"
           r="5.02"
           id="circle77"
           style="fill:#73442a;stroke:#462919;stroke-width:2.07999992px;stroke-miterlimit:10" />
        <circle
           class="cls-9"
           cx="479.39999"
           cy="139.64"
           r="4.4099998"
           id="circle79"
           style="fill:#73442a;stroke:#462919;stroke-width:2.07999992px;stroke-miterlimit:10" />
        <circle
           class="cls-9"
           cx="487.63"
           cy="179.44"
           r="3.2"
           id="circle81"
           style="fill:#73442a;stroke:#462919;stroke-width:2.07999992px;stroke-miterlimit:10" />
        <circle
           class="cls-9"
           cx="469.66"
           cy="159.88"
           r="3.2"
           id="circle83"
           style="fill:#73442a;stroke:#462919;stroke-width:2.07999992px;stroke-miterlimit:10" />
        <circle
           class="cls-9"
           cx="459.67001"
           cy="193.27"
           r="3.2"
           id="circle85"
           style="fill:#73442a;stroke:#462919;stroke-width:2.07999992px;stroke-miterlimit:10" />
        <circle
           class="cls-9"
           cx="446.54001"
           cy="178.22"
           r="4.5"
           id="circle87"
           style="fill:#73442a;stroke:#462919;stroke-width:2.07999992px;stroke-miterlimit:10" />
        <circle
           class="cls-9"
           cx="423.35999"
           cy="172.66"
           r="3.3800001"
           id="circle89"
           style="fill:#73442a;stroke:#462919;stroke-width:2.07999992px;stroke-miterlimit:10" />
        <circle
           class="cls-9"
           cx="414.54001"
           cy="136.14"
           r="3.3800001"
           id="circle91"
           style="fill:#73442a;stroke:#462919;stroke-width:2.07999992px;stroke-miterlimit:10" />
        <circle
           class="cls-9"
           cx="395.95001"
           cy="157.77"
           r="4.4099998"
           id="circle93"
           style="fill:#73442a;stroke:#462919;stroke-width:2.07999992px;stroke-miterlimit:10" />
        <circle
           class="cls-9"
           cx="379.03"
           cy="146.19"
           r="3.8900001"
           id="circle95"
           style="fill:#73442a;stroke:#462919;stroke-width:2.07999992px;stroke-miterlimit:10" />
        <circle
           class="cls-9"
           cx="362.42999"
           cy="154.53"
           r="3.03"
           id="circle97"
           style="fill:#73442a;stroke:#462919;stroke-width:2.07999992px;stroke-miterlimit:10" />
        <circle
           class="cls-9"
           cx="395.13"
           cy="191.16"
           r="3.03"
           id="circle99"
           style="fill:#73442a;stroke:#462919;stroke-width:2.07999992px;stroke-miterlimit:10" />
        <circle
           class="cls-9"
           cx="337.75"
           cy="186.42"
           r="2.51"
           id="circle101"
           style="fill:#73442a;stroke:#462919;stroke-width:2.07999992px;stroke-miterlimit:10" />
        <circle
           class="cls-9"
           cx="324.60999"
           cy="185.48"
           r="3.8900001"
           id="circle103"
           style="fill:#73442a;stroke:#462919;stroke-width:2.07999992px;stroke-miterlimit:10" />
        <circle
           class="cls-9"
           cx="307.29999"
           cy="194.49001"
           r="5.2800002"
           id="circle105"
           style="fill:#73442a;stroke:#462919;stroke-width:2.07999992px;stroke-miterlimit:10" />
        <circle
           class="cls-9"
           cx="172.28999"
           cy="179.69"
           r="5.2800002"
           id="circle107"
           style="fill:#73442a;stroke:#462919;stroke-width:2.07999992px;stroke-miterlimit:10" />
        <circle
           class="cls-9"
           cx="163.28"
           cy="193.45"
           r="3.46"
           id="circle109"
           style="fill:#73442a;stroke:#462919;stroke-width:2.07999992px;stroke-miterlimit:10" />
        <circle
           class="cls-9"
           cx="139.74001"
           cy="211.35001"
           r="4.6700001"
           id="circle111"
           style="fill:#73442a;stroke:#462919;stroke-width:2.07999992px;stroke-miterlimit:10" />
        <circle
           class="cls-9"
           cx="114.63"
           cy="202.55"
           r="5.3699999"
           id="circle113"
           style="fill:#73442a;stroke:#462919;stroke-width:2.07999992px;stroke-miterlimit:10" />
        <circle
           class="cls-9"
           cx="115.35"
           cy="156.35001"
           r="5.3699999"
           id="circle115"
           style="fill:#73442a;stroke:#462919;stroke-width:2.07999992px;stroke-miterlimit:10" />
        <circle
           class="cls-9"
           cx="285.51999"
           cy="183.50999"
           r="3.8900001"
           id="circle117"
           style="fill:#73442a;stroke:#462919;stroke-width:2.07999992px;stroke-miterlimit:10" />
        <circle
           class="cls-9"
           cx="279.44"
           cy="162.19"
           r="3.1199999"
           id="circle119"
           style="fill:#73442a;stroke:#462919;stroke-width:2.07999992px;stroke-miterlimit:10" />
        <path
           class="cls-10"
           d="m 762,246.79 a 4.68,4.68 0 0 1 -4.37,-3.26 c -3.89,-12.3 -5.14,-23.23 -3.83,-33.42 1.9,-14.67 11,-27.9 24.91,-36.29 a 4.67,4.67 0 1 1 4.82,8 c -11.47,6.91 -18.93,17.65 -20.46,29.48 -1.14,8.81 0,18.43 3.47,29.4 a 4.68,4.68 0 0 1 -4.54,6.08 z"
           id="path121"
           inkscape:connector-curvature="0"
           style="fill:#e5bfac" />
        <path
           class="cls-10"
           d="m 738.32,238.74 a 4.59,4.59 0 0 1 -4.41,-3.76 c -2.15,-11.93 -2.66,-21.62 -1.6,-30.48 1.89,-15.7 9.17,-29 20,-36.48 a 4.5742349,4.5742349 0 1 1 5.21,7.52 c -8.67,6 -14.54,17 -16.12,30.05 -0.95,7.93 -0.46,16.75 1.53,27.76 a 4.59,4.59 0 0 1 -3.69,5.32 4.71,4.71 0 0 1 -0.92,0.07 z"
           id="path123"
           inkscape:connector-curvature="0"
           style="fill:#e5bfac" />
        <path
           class="cls-10"
           d="m 717.12,229.32 a 4.27,4.27 0 0 1 -4,-3.22 76.31,76.31 0 0 1 -1,-31.38 c 1.24,-7.11 4.77,-20 14.48,-26.77 a 4.26,4.26 0 0 1 4.85,7 c -7.43,5.14 -10.13,16.56 -10.94,21.23 a 67.56,67.56 0 0 0 0.91,27.85 4.26,4.26 0 0 1 -3.1,5.16 3.9,3.9 0 0 1 -1.2,0.13 z"
           id="path125"
           inkscape:connector-curvature="0"
           style="fill:#e5bfac" />
        <path
           class="cls-10"
           d="m 696.63,204.76 a 4.42,4.42 0 0 1 -4.32,-4.19 56.54,56.54 0 0 1 1.33,-15.44 39.09,39.09 0 0 1 6.54,-14.8 4.42,4.42 0 1 1 7,5.34 30.23,30.23 0 0 0 -5,11.4 48.25,48.25 0 0 0 -1.12,13.05 4.41,4.41 0 0 1 -4.18,4.63 z"
           id="path127"
           inkscape:connector-curvature="0"
           style="fill:#e5bfac" />
        <path
           class="cls-11"
           d="m 759.9,246.75 a 4.68,4.68 0 0 1 -4.37,-3.26 c -3.89,-12.3 -5.14,-23.23 -3.82,-33.42 1.89,-14.67 11,-27.9 24.9,-36.29 a 4.68,4.68 0 1 1 4.83,8 C 770,188.7 762.5,199.44 761,211.27 c -1.14,8.81 0,18.43 3.46,29.4 a 4.68,4.68 0 0 1 -4.54,6.08 z"
           id="path129"
           inkscape:connector-curvature="0"
           style="fill:#502b1b" />
        <path
           class="cls-11"
           d="m 736.25,238.7 a 4.57,4.57 0 0 1 -4.41,-3.76 c -2.16,-11.93 -2.67,-21.62 -1.6,-30.48 1.88,-15.7 9.17,-29 20,-36.48 a 4.5713893,4.5713893 0 1 1 5.2,7.52 c -8.67,6 -14.54,16.95 -16.11,30.05 -1,7.93 -0.47,16.75 1.52,27.76 a 4.57,4.57 0 0 1 -4.59,5.39 z"
           id="path131"
           inkscape:connector-curvature="0"
           style="fill:#502b1b" />
        <path
           class="cls-11"
           d="m 715.05,229.28 a 4.27,4.27 0 0 1 -4,-3.22 76.14,76.14 0 0 1 -1,-31.38 c 1.24,-7.11 4.77,-20 14.47,-26.77 a 4.26,4.26 0 1 1 4.85,7 c -7.42,5.14 -10.12,16.56 -10.94,21.23 a 67.73,67.73 0 0 0 0.91,27.85 4.25,4.25 0 0 1 -3.09,5.16 3.94,3.94 0 0 1 -1.2,0.13 z"
           id="path133"
           inkscape:connector-curvature="0"
           style="fill:#502b1b" />
        <path
           class="cls-11"
           d="m 694.55,204.72 a 4.43,4.43 0 0 1 -4.32,-4.19 56.94,56.94 0 0 1 1.33,-15.44 39,39 0 0 1 6.55,-14.8 4.41,4.41 0 1 1 7,5.34 30.23,30.23 0 0 0 -5,11.4 48.65,48.65 0 0 0 -1.12,13.05 4.41,4.41 0 0 1 -4.18,4.63 z"
           id="path135"
           inkscape:connector-curvature="0"
           style="fill:#502b1b" />
        <path
           class="cls-11"
           d="m 905.54,280.72 a 3.09,3.09 0 0 1 -2.58,-1.47 C 902.8,279 891.13,261.08 857.09,254.55 a 3.12,3.12 0 1 1 1.17,-6.12 c 37,7.1 49.48,26.71 50,27.54 a 3.12,3.12 0 0 1 -2.71,4.75 z"
           id="path137"
           inkscape:connector-curvature="0"
           style="fill:#502b1b" />
        <path
           class="cls-12"
           d="m 915.82,252.61 a 2.08,2.08 0 0 1 0,-4.15 57.47,57.47 0 0 0 23.18,-5.81 2.08,2.08 0 1 1 1.87,3.71 60.58,60.58 0 0 1 -25,6.25 z"
           id="path139"
           inkscape:connector-curvature="0"
           style="fill:#6f4129" />
      </g>
      <path
         class="cls-13"
         d="m 974.17,259.5 c -10.63,7.21 -31.49,14.12 -72.35,14.48 -86.58,0.76 -197,-21.1 -235.35,-22.88 -38.35,-1.78 -212.2,-20.36 -234.62,-24.95 -22.42,-4.59 -116,-16.08 -245.25,-12 0,0 -81.19,68.41 -151.72,64.65 0,0 19.12,-2.28 59.35,-14.66 40.23,-12.38 90.88,-53.65 90.88,-53.65 0,0 4.17,-0.78 39,-0.11 34.83,0.67 148.82,3 204.42,10.51 55.6,7.51 214.09,21.26 232.91,24.22 18.82,2.96 191.15,25.32 241.87,25.26 49.9,-0.06 70.23,-10.55 70.86,-10.87 z"
         id="path143"
         inkscape:connector-curvature="0"
         style="fill:#cfbcb5" />
      <path
         class="cls-14"
         d="m 356.06,246.76 a 2.63,2.63 0 0 1 -0.71,-3.62 7.64,7.64 0 0 1 2.64,-2.31 c 5.6,-3.35 41.08,-20.33 55.95,-32.94 0,0 11.24,-3.94 37,-7.6 a 135,135 0 0 1 14.65,-1.39 c 12.53,-0.37 14.6,2.62 15.15,4.82 0.74,2.87 -34.74,39.06 -124.68,43.04 z"
         id="path145"
         inkscape:connector-curvature="0"
         style="fill:#73432d" />
      <path
         class="cls-15"
         d="m 861.9,188.6 c 3,0.9 14.18,5.6 20.81,10.36 6.63,4.76 11.85,8.19 11.64,9.16 -0.21,0.97 -16.92,3.31 -21.45,2.57 -4.53,-0.74 -12.3,-4.81 -13.71,-12.6 -1.41,-7.79 1.23,-9.94 2.71,-9.49 z"
         id="path147"
         inkscape:connector-curvature="0"
         style="fill:#502a1d" />
      <circle
         class="cls-15"
         cx="870.54999"
         cy="203.22"
         r="9.3500004"
         id="circle149"
         style="fill:#502a1d" />
      <path
         class="cls-16"
         d="m 870.4,211.07 a 7.85,7.85 0 1 1 8,-7.7 7.85,7.85 0 0 1 -8,7.7 z m 0.28,-14.66 a 6.82,6.82 0 1 0 6.68,6.94 6.81,6.81 0 0 0 -6.68,-6.94 z"
         id="path151"
         inkscape:connector-curvature="0"
         style="fill:#ffffff" />
      <path
         class="cls-14"
         d="m 710.12,227.35 a 40,40 0 0 1 -6.49,9.66 c -23.39,26.05 -80.32,28.94 -90.55,26.65 C 601.7,261.1 606,242 569.75,221.27 c -21.71,-14 -33.26,-12.16 -39.29,-15.43 a 8.17,8.17 0 0 1 -3.45,-3.57 c -4.51,-8.65 22.49,-21.64 63.78,-21.62 41.29,0.02 127.64,20.16 119.33,46.7 z"
         id="path153"
         inkscape:connector-curvature="0"
         style="fill:#73432d" />
      <path
         class="cls-3"
         d="m 710.12,227.35 a 40,40 0 0 1 -6.49,9.66 c -0.74,-13.66 -11.87,-29.59 -50.59,-39.06 -68,-16.63 -100.87,-7.92 -114.2,-3 -12.16,4.5 -9,9.94 -8.38,10.87 a 8.17,8.17 0 0 1 -3.45,-3.57 c -4.51,-8.65 22.49,-21.64 63.78,-21.62 41.29,0.02 127.64,20.18 119.33,46.72 z"
         id="path155"
         inkscape:connector-curvature="0"
         style="fill:#8d6448" />
      <path
         class="cls-3"
         d="m 356.06,246.76 a 2.63,2.63 0 0 1 -0.71,-3.62 c 11.5,0.48 35.94,-1.58 67.21,-10.94 40.22,-12 48.62,-25.72 48.52,-29.36 -0.1,-3.64 -5.47,-3.91 -5.47,-3.91 v 0 c 12.53,-0.37 14.6,2.62 15.15,4.82 0.72,2.84 -34.76,39.03 -124.7,43.01 z"
         id="path157"
         inkscape:connector-curvature="0"
         style="fill:#8d6448" />
      <path
         class="cls-17"
         d="m 983.61,243 a 10.56,10.56 0 0 0 -0.77,-5 v 0 a 8.67,8.67 0 0 0 -0.38,-0.82 v 0 c -3.54,-7 -14.66,-12.39 -29.18,-18.39 -2.5,-1 -5.1,-2.08 -7.78,-3.16 -0.27,-0.1 -0.52,-0.21 -0.78,-0.32 -0.55,-0.2 -1.1,-0.43 -1.66,-0.66 l -3.37,-1.35 c -1.13,-0.46 -2.28,-0.92 -3.43,-1.4 -1.38,-0.56 -2.76,-1.12 -4.17,-1.71 l -2.85,-1.2 c -1.37,-0.58 -2.75,-1.16 -4.14,-1.77 l -1.76,-0.77 c -1,-0.45 -2,-0.92 -3.08,-1.38 L 919,204.5 c -0.79,-0.36 -1.58,-0.72 -2.38,-1.1 l -1.26,-0.6 c -1.73,-0.81 -3.45,-1.65 -5.18,-2.52 l -1.11,-0.57 c -0.6,-0.3 -1.19,-0.6 -1.79,-0.92 -1.12,-0.58 -2.24,-1.17 -3.36,-1.79 -3.61,-2 -7.19,-4 -10.68,-6.26 C 872.68,179.27 758.87,101.94 618.11,94.04 527.75,92.27 462.46,119.75 419,127.92 375.54,136.09 178.85,174.19 178.85,174.19 94,107.8 0,114 0,114 a 117,117 0 0 0 9.58,26.75 L 4.41,118.54 c 0,0 95.59,0.46 173.27,64.28 0,0 81.31,-20.83 144.28,-30.46 159.74,-24.45 180.67,-50.53 302.18,-49.23 121.51,1.3 275,102.24 301.15,112.09 12,4.51 52.91,7.52 56.77,34.13 a 18.3,18.3 0 0 0 0.74,-1.73 c 0,-0.14 0.1,-0.27 0.13,-0.4 a 11.11,11.11 0 0 0 0.68,-4.22 z"
         id="path159"
         inkscape:connector-curvature="0"
         style="opacity:0.36000001;fill:#ffffff" />
      <path
         class="cls-17"
         d="m 224,185.1 a 5.19,5.19 0 0 1 -0.65,-10.33 c 15.16,-2.21 31,-5.26 46.36,-8.2 13.58,-2.61 27.62,-5.31 41.15,-7.42 45.71,-7.13 89,-15.51 134.88,-24.38 l 19.05,-3.68 10.17,-2 c 29.29,-5.7 59.57,-11.59 90.2,-13.3 a 502,502 0 0 1 152.66,14.92 511.64,511.64 0 0 1 118.79,47.39 5.1915797,5.1915797 0 1 1 -5,9.1 501.28,501.28 0 0 0 -116.33,-46.4 491.27,491.27 0 0 0 -149.51,-14.61 c -29.92,1.67 -59.85,7.49 -88.79,13.12 l -10.2,2 -19,3.68 c -45.95,8.88 -89.36,17.28 -135.25,24.44 -13.35,2.09 -27.3,4.77 -40.8,7.36 -15.45,3 -31.43,6 -46.81,8.28 A 4.91,4.91 0 0 1 224,185.1 Z"
         id="path161"
         inkscape:connector-curvature="0"
         style="opacity:0.36000001;fill:#ffffff" />
      <path
         class="cls-18"
         d="m 674.48,132.06 -0.7,-0.06 c -1.84,-0.29 -9,-1.34 -10.8,-1.6 a 5.1922851,5.1922851 0 1 1 1.47,-10.28 l 10.92,1.61 a 5.2,5.2 0 0 1 -0.89,10.33 z"
         id="path163"
         inkscape:connector-curvature="0"
         style="opacity:0.66000001;fill:#ffffff" />
      <path
         class="cls-18"
         d="M 541.23,128.35 A 5.19,5.19 0 0 1 540.73,118 c 8.6,-1 16.6,-1.74 24.46,-2.18 16.68,-0.93 33.62,-1 50.36,-0.28 a 5.2,5.2 0 0 1 -0.47,10.38 c -16.39,-0.73 -33,-0.64 -49.31,0.27 -7.64,0.43 -15.43,1.12 -23.81,2.12 a 6.06,6.06 0 0 1 -0.73,0.04 z"
         id="path165"
         inkscape:connector-curvature="0"
         style="opacity:0.66000001;fill:#ffffff" />
    </g>
  </g>
</svg>
