<?xml version="1.0" encoding="utf-8"?>
<!-- Generator: Adobe Illustrator 19.0.0, SVG Export Plug-In . SVG Version: 6.00 Build 0)  -->
<svg version="1.1" id="foreground" xmlns="http://www.w3.org/2000/svg" xmlns:xlink="http://www.w3.org/1999/xlink" x="0px" y="0px"
	 viewBox="0 0 1920 1039.9" style="enable-background:new 0 0 1920 1039.9;" xml:space="preserve">
<style type="text/css">
	.st0{clip-path:url(#SVGID_2_);}
	.st1{clip-path:url(#SVGID_4_);}
	.st2{fill:#007FB8;}
	.st3{fill:#51BAC1;}
	.st4{fill:#12FFC2;}
	.st5{fill:#1B73C2;}
	.st6{clip-path:url(#SVGID_4_);fill:#97EBFF;}
	.st7{clip-path:url(#SVGID_4_);fill:#41D4FF;}
	.st8{clip-path:url(#SVGID_4_);fill:#C7F7FF;}
	.st9{clip-path:url(#SVGID_4_);fill:#30EEDD;}
	.st10{clip-path:url(#SVGID_4_);fill:#77F7ED;}
	.st11{clip-path:url(#SVGID_4_);fill:#A6FFF6;}
	.st12{clip-path:url(#SVGID_6_);fill:#00929E;}
	.st13{clip-path:url(#SVGID_6_);fill:#31CDB4;}
	.st14{clip-path:url(#SVGID_6_);fill:#005E60;}
	.st15{clip-path:url(#SVGID_6_);fill:#006971;}
	.st16{clip-path:url(#SVGID_6_);fill:#12AD96;}
	.st17{clip-path:url(#SVGID_8_);fill:#006971;}
	.st18{clip-path:url(#SVGID_8_);fill:#00929E;}
	.st19{clip-path:url(#SVGID_8_);fill:#31CDB4;}
	.st20{clip-path:url(#SVGID_8_);fill:#12AD96;}
	.st21{clip-path:url(#SVGID_10_);fill:#00929E;}
	.st22{clip-path:url(#SVGID_10_);fill:#006971;}
	.st23{clip-path:url(#SVGID_10_);fill:#12AD96;}
	.st24{clip-path:url(#SVGID_4_);fill:#00929E;}
	.st25{clip-path:url(#SVGID_12_);fill:#31CDB4;}
	.st26{clip-path:url(#SVGID_12_);fill:#00929E;}
	.st27{clip-path:url(#SVGID_12_);fill:#12AD96;}
	.st28{clip-path:url(#SVGID_14_);fill:#00929E;}
	.st29{clip-path:url(#SVGID_14_);fill:#31CDB4;}
	.st30{clip-path:url(#SVGID_14_);fill:#005E60;}
	.st31{clip-path:url(#SVGID_14_);fill:#006971;}
	.st32{clip-path:url(#SVGID_14_);fill:#12AD96;}
	.st33{clip-path:url(#SVGID_16_);fill:#006971;}
	.st34{clip-path:url(#SVGID_16_);fill:#00929E;}
	.st35{clip-path:url(#SVGID_16_);fill:#31CDB4;}
	.st36{clip-path:url(#SVGID_16_);fill:#12AD96;}
	.st37{clip-path:url(#SVGID_18_);fill:#00929E;}
	.st38{clip-path:url(#SVGID_18_);fill:#006971;}
	.st39{clip-path:url(#SVGID_18_);fill:#12AD96;}
	.st40{clip-path:url(#SVGID_20_);fill:#31CDB4;}
	.st41{clip-path:url(#SVGID_20_);fill:#00929E;}
	.st42{clip-path:url(#SVGID_20_);fill:#12AD96;}
	.st43{opacity:0.89;clip-path:url(#SVGID_22_);fill:url(#SVGID_23_);}
	.st44{opacity:0.89;clip-path:url(#SVGID_22_);fill:url(#SVGID_24_);}
	.st45{opacity:0.89;clip-path:url(#SVGID_22_);fill:url(#SVGID_25_);}
</style>
<g>
	<defs>
		<rect id="SVGID_1_" x="0.1" y="-0.1" width="1920" height="1040"/>
	</defs>
	<clipPath id="SVGID_2_">
		<use xlink:href="#SVGID_1_"  style="overflow:visible;"/>
	</clipPath>
	<g class="st0">
		<g>
			<g>
				<defs>
					<polygon id="SVGID_3_" points="1922.9,1078.7 -79.4,1038.3 -60,-82.8 1933.1,-48.4 					"/>
				</defs>
				<clipPath id="SVGID_4_">
					<use xlink:href="#SVGID_3_"  style="overflow:visible;"/>
				</clipPath>
				<g class="st1">
					<path class="st2" d="M1234.2,991.7l72-19.2l-23.2-1.7c-8.1-0.6-14.2-7.3-13.6-15c0.6-7.7,7.7-13.4,15.8-12.8l30.4,2.2
						c-0.9-2.4-1-5.1-0.3-7.8c2-7.4,10-11.9,17.9-10l24.8,6.1l-44.9-22.3c-7.2-3.6-10-12-6.2-18.8c3.8-6.8,12.7-9.4,19.9-5.9
						l26.7,13.3c2.9-4.7,7.6-8.3,13.3-10l-13.5-37.3c-2.6-7.3,1.4-15.2,9.1-17.7s16.1,1.4,18.7,8.7l6.3,17.3c0.7-0.1,1.3-0.1,2-0.1
						c4.1-0.1,8,0.8,11.4,2.5l-7.3-20.1c-2.6-7.3,1.5-15.2,9.1-17.7s16.1,1.4,18.7,8.7l10.4,28.5c0.5,0,0.9-0.1,1.4-0.1
						c4-0.1,7.8,0.8,11.2,2.4l-8.1-16.3c-3.4-7-0.3-15.3,7.1-18.5s16.1-0.2,19.6,6.8l20.5,41.5c0.4,0.8,0.7,1.7,1,2.6
						c1.2-2.9,2.9-5.6,5.2-7.7l-15.6-31.6c-3.4-7-0.3-15.3,7.1-18.5c7.4-3.2,16.1-0.2,19.6,6.8l16,32.4c3.2-1.7,6.9-2.7,10.9-2.8
						c2.9-0.1,5.7,0.4,8.3,1.3l-0.7-18.4c-0.3-7.7,6.1-14.1,14.2-14.4c8.1-0.3,14.9,5.8,15.2,13.4l0.9,24.3
						c7.6,1.8,13.7,7,16.4,13.9c0.8-0.5,1.6-1,2.5-1.4l-1.3-35c-0.3-7.7,6.1-14.1,14.2-14.4c8.1-0.3,14.9,5.8,15.2,13.4l1.1,29.1
						c4-2.5,8.8-3.9,14-4.1c6.8-0.2,13.1,2.1,18,6l2.1-16.9c1-7.6,8.3-13.1,16.4-12.1c8.1,0.9,13.8,7.9,12.9,15.5L1672,899
						c4.2,2.4,7.5,6,9.4,10.3l6.2-13.6c3.2-7,11.9-10.3,19.4-7.2c7.5,3.1,10.9,11.3,7.6,18.3l-14.8,32.2c0.9,2.8,1.5,5.7,1.6,8.8
						c0.4,14.6-9.8,27-24,30.8c0.4,1.8,0.7,3.7,0.7,5.6c0.5,17.3-14,31.6-32.2,32c-8.6,0.2-16.5-2.8-22.6-7.8
						c-2,7.4-8,13.4-15.8,15.6l0.1,28c0,7.7-6.6,13.9-14.7,13.9h0c-8.1,0-14.7-6.2-14.8-13.9l-0.1-21.3l-11.5,17.8
						c-4.3,6.5-13.3,8.6-20.2,4.6c-6.9-4-9.1-12.6-4.8-19.2l3.3-5.1l-44.6,32.9c-6.4,4.7-15.7,3.6-20.7-2.4h0
						c-5-6.1-3.9-14.8,2.5-19.5l12.1-8.9c-2.7-0.1-5.3-0.6-7.7-1.5l-49.4,28.8c-6.9,4-16,2-20.3-4.6v0c-4.3-6.6-2.1-15.1,4.8-19.2
						l34.2-19.9c-1.8-1-3.6-2.5-5.2-4.7l-55.4,32.3c-6.9,4-16,2-20.3-4.6v0c-0.3-0.5-0.6-0.9-0.8-1.4l-27.6,16.1
						c-6.9,4-16,2-20.3-4.6v0c-4.3-6.6-2.1-15.1,4.8-19.2l9.1-5.3c-1.1-2.3-1.7-4.9-1.9-7.5l-53.5,26.2c-7.2,3.5-16.1,0.8-19.8-6
						c-3.7-6.8-0.9-15.2,6.3-18.8l28-13.7l-57,15.2c-7.8,2.1-16-2.2-18.2-9.6C1221.9,1001.5,1226.4,993.8,1234.2,991.7z"/>
					<path class="st3" d="M1534.9,841.3c0.2,7.9,7.2,14.2,15.6,14.1c8.4-0.2,15-6.8,14.8-14.7s-7.2-14.2-15.6-14.1
						C1541.4,826.7,1534.7,833.3,1534.9,841.3z"/>
					<path class="st3" d="M1471.5,835.1c0.2,7.9,7.2,14.2,15.6,14.1c8.4-0.2,15-6.8,14.8-14.7s-7.2-14.2-15.6-14.1
						S1471.3,827.1,1471.5,835.1z"/>
					<path class="st3" d="M1648.5,858.3c0.2,7.9,7.2,14.2,15.6,14.1s15-6.8,14.8-14.7s-7.2-14.2-15.6-14.1
						S1648.3,850.3,1648.5,858.3z"/>
					<path class="st3" d="M1581.6,843.4c0.2,7.9,7.2,14.2,15.6,14.1c8.4-0.2,15-6.8,14.8-14.7s-7.2-14.2-15.6-14.1
						C1588,828.8,1581.4,835.4,1581.6,843.4z"/>
					<path class="st3" d="M1616.3,899.9c0.2,7.9,7.2,14.2,15.6,14.1c8.4-0.2,15-6.8,14.8-14.7s-7.2-14.2-15.6-14.1
						C1622.8,885.3,1616.1,891.9,1616.3,899.9z"/>
					<path class="st3" d="M1545.9,904.6c0.2,7.9,7.2,14.2,15.6,14.1s15-6.8,14.8-14.7c-0.2-7.9-7.2-14.2-15.6-14.1
						C1552.4,890.1,1545.7,896.6,1545.9,904.6z"/>
					<path class="st3" d="M1391.8,839.4c0.2,7.9,7.2,14.2,15.6,14.1c8.4-0.2,15-6.8,14.8-14.7s-7.2-14.2-15.6-14.1
						C1398.2,824.8,1391.6,831.4,1391.8,839.4z"/>
					<path class="st3" d="M1304.6,898.9c0.2,7.9,7.2,14.2,15.6,14.1c8.4-0.2,15-6.8,14.8-14.7c-0.2-7.9-7.2-14.2-15.6-14.1
						C1311,884.4,1304.3,891,1304.6,898.9z"/>
					<path class="st3" d="M1267.9,957.3c0.2,7.9,7.2,14.2,15.6,14.1s15-6.8,14.8-14.7c-0.2-7.9-7.2-14.2-15.6-14.1
						C1274.3,942.8,1267.6,949.4,1267.9,957.3z"/>
					<path class="st4" d="M1263.1,1030.2c0.2,7.9,7.2,14.2,15.6,14.1s15-6.8,14.8-14.7c-0.2-7.9-7.2-14.2-15.6-14.1
						C1269.6,1015.6,1262.9,1022.2,1263.1,1030.2z"/>
					<path class="st3" d="M1223.2,1005.9c0.2,7.9,7.2,14.2,15.6,14.1c8.4-0.2,15-6.8,14.8-14.7s-7.2-14.2-15.6-14.1
						S1223,997.9,1223.2,1005.9z"/>
					<path class="st4" d="M1320.3,1040.9c0.2,7.9,7.2,14.2,15.6,14.1c8.4-0.2,15-6.8,14.8-14.7c-0.2-7.9-7.2-14.2-15.6-14.1
						C1326.8,1026.3,1320.1,1032.9,1320.3,1040.9z"/>
					<path class="st4" d="M1413.7,1047.6c0.2,7.9,7.2,14.2,15.6,14.1s15-6.8,14.8-14.7c-0.2-7.9-7.2-14.2-15.6-14.1
						S1413.5,1039.7,1413.7,1047.6z"/>
					<path class="st4" d="M1474.6,1050.4c0.2,7.9,7.2,14.2,15.6,14.1c8.4-0.2,15-6.8,14.8-14.7c-0.2-7.9-7.2-14.2-15.6-14.1
						C1481.1,1035.8,1474.4,1042.4,1474.6,1050.4z"/>
					<path class="st4" d="M1540,1043.6c0.2,7.9,7.2,14.2,15.6,14.1s15-6.8,14.8-14.7c-0.2-7.9-7.2-14.2-15.6-14.1
						C1546.4,1029,1539.8,1035.6,1540,1043.6z"/>
					<path class="st4" d="M1576.2,1053.1c0.2,7.9,7.2,14.2,15.6,14.1c8.4-0.2,15-6.8,14.8-14.7c-0.2-7.9-7.2-14.2-15.6-14.1
						S1576,1045.2,1576.2,1053.1z"/>
					<path class="st5" d="M1596.6,910.6L1596.6,910.6c7.5,3,16.1-0.3,19.3-7.4l19.5-43.9c3.1-7.1-0.4-15.3-7.9-18.2l0,0
						c-7.5-3-16.1,0.3-19.3,7.4l-19.5,43.9C1585.6,899.5,1589.1,907.7,1596.6,910.6z"/>
					<path class="st5" d="M1606.5,984.9L1606.5,984.9c4.9,6.1,14.1,7.4,20.6,2.8l40.2-28.6c6.5-4.6,7.8-13.4,2.9-19.5h0
						c-4.9-6.1-14.1-7.4-20.6-2.8l-40.2,28.6C1602.8,970,1601.6,978.7,1606.5,984.9z"/>
					<path class="st5" d="M1559.7,968.1L1559.7,968.1c4.9,6.1,14.1,7.4,20.6,2.8l28.8-20.5c6.5-4.6,7.8-13.4,2.9-19.5v0
						c-4.9-6.1-14.1-7.4-20.6-2.8l-28.8,20.5C1556.1,953.2,1554.8,962,1559.7,968.1z"/>
					<path class="st5" d="M1577.2,974.5L1577.2,974.5c-7,3.9-9.4,12.4-5.3,19l18.2,29.5c4.1,6.6,13.1,8.9,20.1,5v0
						c7-3.9,9.4-12.4,5.3-19l-18.2-29.5C1593.2,972.9,1584.2,970.6,1577.2,974.5z"/>
					<path class="st5" d="M1561.8,976.7l-0.9,0c-7.9-0.3-14.6,5.5-14.9,12.9l-1.6,34.9c-0.3,7.5,5.8,13.8,13.7,14.1l0.9,0
						c7.9,0.3,14.6-5.5,14.9-12.9l1.6-34.9C1575.8,983.4,1569.7,977.1,1561.8,976.7z"/>
					<path class="st5" d="M1536.3,914.7l-0.8,0.3c-7.4,2.7-11,10.5-8.2,17.5l13.3,32.6c2.9,7,11.1,10.4,18.5,7.8l0.8-0.3
						c7.4-2.7,11-10.5,8.2-17.5l-13.3-32.6C1552,915.5,1543.7,912,1536.3,914.7z"/>
					<path class="st5" d="M1529.6,847.8l-0.8,0.3c-7.4,2.7-11,10.5-8.2,17.5l13.3,32.6c2.9,7,11.1,10.4,18.5,7.8l0.8-0.3
						c7.4-2.7,11-10.5,8.2-17.5l-13.3-32.6C1545.2,848.6,1536.9,845.1,1529.6,847.8z"/>
					<path class="st5" d="M1435.8,864.7l-0.6,0.6c-5.4,5.4-5.1,14,0.7,19.1l27,23.9c5.8,5.1,14.8,4.8,20.2-0.6l0.6-0.6
						c5.4-5.4,5.1-14-0.7-19.1l-27-23.9C1450.2,859,1441.1,859.2,1435.8,864.7z"/>
					<path class="st5" d="M1375.5,858.3l-0.6,0.6c-5.4,5.4-5.1,14,0.7,19.1l27,23.9c5.8,5.1,14.8,4.8,20.2-0.6l0.6-0.6
						c5.4-5.4,5.1-14-0.7-19.1l-27-23.9C1389.9,852.6,1380.9,852.9,1375.5,858.3z"/>
					<path class="st5" d="M1494.3,911.3l-0.8,0.3c-7.4,2.7-11,10.5-8.2,17.5l13.3,32.6c2.9,7,11.1,10.4,18.5,7.8l0.8-0.3
						c7.4-2.7,11-10.5,8.2-17.5l-13.3-32.6C1510,912.1,1501.7,908.7,1494.3,911.3z"/>
					<path class="st5" d="M1487,1031.2l0.6,0.5c5.8,5.1,14.8,4.8,20.2-0.7l25.1-25.5c5.4-5.5,5-14-0.7-19.1l-0.6-0.5
						c-5.8-5.1-14.8-4.8-20.2,0.7l-25.1,25.5C1480.9,1017.5,1481.2,1026.1,1487,1031.2z"/>
					<path class="st5" d="M1442.1,1015l0.5,0.6c4.7,6,13.7,7.2,20,2.8l29.6-20.8c6.3-4.5,7.6-12.9,2.9-18.9l-0.5-0.6
						c-4.7-6-13.7-7.2-20-2.8l-29.6,20.8C1438.7,1000.5,1437.4,1009,1442.1,1015z"/>
					<path class="st5" d="M1437.8,913.3l-0.8,0.3c-7.4,2.6-11.2,10.3-8.5,17.4l12.8,32.8c2.7,7,11,10.6,18.4,8l0.8-0.3
						c7.4-2.6,11.2-10.3,8.5-17.4l-12.8-32.8C1453.4,914.3,1445.2,910.7,1437.8,913.3z"/>
					<path class="st5" d="M1380.1,1005.7L1380.1,1005.7c5.4,5.7,14.7,6.2,20.8,1.1l26.8-22.7c6-5.1,6.5-13.9,1.1-19.7l0,0
						c-5.4-5.7-14.7-6.2-20.8-1.1l-26.8,22.7C1375.1,991.1,1374.6,999.9,1380.1,1005.7z"/>
					<path class="st5" d="M1372.1,910.7L1372.1,910.7c-5.3,5.8-4.5,14.6,1.6,19.6l27.4,22.2c6.2,5,15.5,4.3,20.8-1.5v0
						c5.3-5.8,4.5-14.6-1.6-19.6l-27.4-22.2C1386.7,904.2,1377.4,904.9,1372.1,910.7z"/>
					<path class="st5" d="M1304.9,969.3L1304.9,969.3c0.1,7.7,6.8,13.9,14.9,13.8l36-0.3c8.1-0.1,14.6-6.4,14.5-14.1l0,0
						c-0.1-7.7-6.8-13.9-14.9-13.8l-36,0.3C1311.3,955.3,1304.8,961.6,1304.9,969.3z"/>
					<path class="st3" d="M1607,853.3c0.2,7.9,7.2,14.2,15.6,14.1c8.4-0.2,15-6.8,14.8-14.7s-7.2-14.2-15.6-14.1
						C1613.5,838.7,1606.8,845.3,1607,853.3z"/>
					<path class="st3" d="M1585.8,939.9c0.2,7.9,7.2,14.2,15.6,14.1c8.4-0.2,15-6.8,14.8-14.7s-7.2-14.2-15.6-14.1
						S1585.6,932,1585.8,939.9z"/>
					<path class="st3" d="M1642.6,946.8c0.2,7.9,7.2,14.2,15.6,14.1c8.4-0.2,15-6.8,14.8-14.7c-0.2-7.9-7.2-14.2-15.6-14.1
						S1642.3,938.9,1642.6,946.8z"/>
					<path class="st3" d="M1589.6,1018.5c0.2,7.9,7.2,14.2,15.6,14.1s15-6.8,14.8-14.7c-0.2-7.9-7.2-14.2-15.6-14.1
						C1596,1004,1589.4,1010.6,1589.6,1018.5z"/>
					<path class="st4" d="M1543.2,1026.2c0.2,7.9,7.2,14.2,15.6,14.1c8.4-0.2,15-6.8,14.8-14.7c-0.2-7.9-7.2-14.2-15.6-14.1
						S1543,1018.2,1543.2,1026.2z"/>
					<path class="st3" d="M1527.6,927.7c0.2,7.9,7.2,14.2,15.6,14.1c8.4-0.2,15-6.8,14.8-14.7s-7.2-14.2-15.6-14.1
						C1534,913.1,1527.4,919.7,1527.6,927.7z"/>
					<path class="st3" d="M1483.2,923.3c0.2,7.9,7.2,14.2,15.6,14.1c8.4-0.2,15-6.8,14.8-14.7c-0.2-7.9-7.2-14.2-15.6-14.1
						C1489.6,908.8,1483,915.4,1483.2,923.3z"/>
					<path class="st3" d="M1481.5,1020.9c0.2,7.9,7.2,14.2,15.6,14.1c8.4-0.2,15-6.8,14.8-14.7s-7.2-14.2-15.6-14.1
						C1487.9,1006.4,1481.3,1013,1481.5,1020.9z"/>
					<path class="st3" d="M1437.6,1008.4c0.2,7.9,7.2,14.2,15.6,14.1c8.4-0.2,15-6.8,14.8-14.7s-7.2-14.2-15.6-14.1
						C1444,993.8,1437.4,1000.4,1437.6,1008.4z"/>
					<path class="st3" d="M1427.4,926.1c0.2,7.9,7.2,14.2,15.6,14.1c8.4-0.2,15-6.8,14.8-14.7c-0.2-7.9-7.2-14.2-15.6-14.1
						S1427.2,918.2,1427.4,926.1z"/>
					<path class="st3" d="M1432,874.7c0.2,7.9,7.2,14.2,15.6,14.1c8.4-0.2,15-6.8,14.8-14.7s-7.2-14.2-15.6-14.1
						S1431.8,866.7,1432,874.7z"/>
					<path class="st3" d="M1369.3,868.8c0.2,7.9,7.2,14.2,15.6,14.1c8.4-0.2,15-6.8,14.8-14.7s-7.2-14.2-15.6-14.1
						S1369.1,860.9,1369.3,868.8z"/>
					<path class="st3" d="M1374.4,998.1c0.2,7.9,7.2,14.2,15.6,14.1c8.4-0.2,15-6.8,14.8-14.7c-0.2-7.9-7.2-14.2-15.6-14.1
						C1380.8,983.6,1374.2,990.2,1374.4,998.1z"/>
					<path class="st3" d="M1302.5,971.1c0.2,7.9,7.2,14.2,15.6,14.1c8.4-0.2,15-6.8,14.8-14.7s-7.2-14.2-15.6-14.1
						C1308.9,956.5,1302.3,963.1,1302.5,971.1z"/>
					<path class="st3" d="M1365.6,918c0.2,7.9,7.2,14.2,15.6,14.1c8.4-0.2,15-6.8,14.8-14.7c-0.2-7.9-7.2-14.2-15.6-14.1
						C1372,903.5,1365.4,910.1,1365.6,918z"/>
					<path class="st3" d="M1518.8,859.9c0.2,7.9,7.2,14.2,15.6,14.1c8.4-0.2,15-6.8,14.8-14.7s-7.2-14.2-15.6-14.1
						S1518.6,851.9,1518.8,859.9z"/>
				</g>
				<g class="st1">
					<path class="st2" d="M1138.5,1061.7l-71.3-21.7l23.2-0.9c8.1-0.3,14.4-6.8,14.1-14.5c-0.3-7.7-7.2-13.7-15.3-13.4l-30.5,1.2
						c0.9-2.4,1.2-5.1,0.6-7.8c-1.8-7.5-9.6-12.3-17.6-10.6l-25,5.2l45.6-20.7c7.3-3.3,10.4-11.6,6.9-18.6
						c-3.5-6.9-12.3-9.9-19.7-6.5l-27.2,12.3c-2.8-4.8-7.3-8.6-12.9-10.4l14.8-36.8c2.9-7.2-0.9-15.2-8.5-18c-7.6-2.7-16.1,0.8-19,8
						l-6.9,17.1c-0.6-0.1-1.3-0.2-2-0.2c-4.1-0.2-8,0.5-11.4,2.1l8-19.8c2.9-7.2-0.9-15.2-8.5-18c-7.6-2.7-16.1,0.8-19,8L945.6,926
						c-0.5-0.1-0.9-0.1-1.4-0.1c-4-0.2-7.9,0.5-11.3,2l8.6-16c3.7-6.8,0.8-15.2-6.5-18.7c-7.2-3.5-16.1-0.8-19.8,6.1L893.4,940
						c-0.4,0.8-0.8,1.7-1.1,2.6c-1.1-3-2.7-5.7-4.9-7.9l16.7-31c3.7-6.8,0.8-15.2-6.5-18.7s-16.1-0.8-19.8,6.1l-17.1,31.8
						c-3.2-1.8-6.8-3-10.8-3.2c-2.9-0.2-5.7,0.2-8.3,1l1.3-18.3c0.6-7.7-5.6-14.3-13.7-14.9c-8.1-0.5-15.1,5.2-15.7,12.9l-1.8,24.3
						c-7.6,1.5-14,6.6-16.9,13.4c-0.8-0.6-1.6-1.1-2.5-1.5l2.5-34.9c0.6-7.7-5.6-14.3-13.7-14.9c-8.1-0.5-15.1,5.2-15.7,12.9
						l-2.1,29.1c-4-2.6-8.7-4.3-13.8-4.5c-6.8-0.4-13.2,1.7-18.2,5.3l-1.5-17c-0.7-7.7-7.8-13.4-15.9-12.7
						c-8.1,0.6-14.1,7.4-13.4,15l3.6,39.2c-4.2,2.3-7.7,5.7-9.8,9.9l-5.8-13.8c-3-7.2-11.6-10.7-19.1-7.8s-11.3,10.9-8.3,18.1
						l13.7,32.7c-1,2.7-1.7,5.7-1.9,8.7c-0.9,14.6,8.9,27.4,22.9,31.6c-0.5,1.8-0.8,3.6-0.9,5.5c-1.1,17.3,12.9,32.1,31.1,33.1
						c8.6,0.5,16.6-2.2,22.8-7c1.8,7.5,7.5,13.7,15.2,16.2l-1,28c-0.3,7.7,6.1,14.1,14.2,14.4h0c8.1,0.3,14.9-5.7,15.2-13.4
						l0.8-21.3l10.9,18.2c4,6.7,13,9,20.1,5.2c7.1-3.8,9.5-12.3,5.5-19l-3.1-5.2l43.4,34.4c6.2,4.9,15.5,4.2,20.7-1.7h0
						c5.2-5.9,4.4-14.7-1.9-19.6l-11.8-9.3c2.7,0,5.3-0.4,7.7-1.2l48.4,30.4c6.8,4.3,15.9,2.5,20.4-3.9v0c4.5-6.4,2.6-15-4.1-19.3
						l-33.5-21.1c1.9-0.9,3.7-2.4,5.3-4.5l54.3,34.2c6.8,4.3,15.9,2.5,20.4-3.9v0c0.3-0.5,0.6-0.9,0.9-1.4l27,17
						c6.8,4.3,15.9,2.5,20.4-3.9v0c4.5-6.4,2.6-15-4.1-19.3l-8.9-5.6c1.2-2.3,1.9-4.8,2.2-7.5l52.5,28c7.1,3.8,16.1,1.4,20-5.3
						c4-6.7,1.5-15.2-5.6-19l-27.6-14.7l56.4,17.2c7.7,2.4,16-1.7,18.5-9C1150.5,1071.9,1146.3,1064.1,1138.5,1061.7z"/>
					<path class="st3" d="M843.2,900.9c-0.5,7.9-7.7,14-16.1,13.5c-8.4-0.5-14.8-7.3-14.3-15.2c0.5-7.9,7.7-14,16.1-13.5
						C837.3,886.2,843.7,893,843.2,900.9z"/>
					<path class="st3" d="M906.7,897c-0.5,7.9-7.7,14-16.1,13.5c-8.4-0.5-14.8-7.3-14.3-15.2c0.5-7.9,7.7-14,16.1-13.5
						C900.8,882.2,907.2,889,906.7,897z"/>
					<path class="st3" d="M729.1,914c-0.5,7.9-7.7,14-16.1,13.5c-8.4-0.5-14.8-7.3-14.3-15.2c0.5-7.9,7.7-14,16.1-13.5
						C723.2,899.3,729.6,906.1,729.1,914z"/>
					<path class="st3" d="M796.5,901.4c-0.5,7.9-7.7,14-16.1,13.5s-14.8-7.3-14.3-15.2c0.5-7.9,7.7-14,16.1-13.5
						C790.6,886.7,797,893.5,796.5,901.4z"/>
					<path class="st3" d="M759.8,956.7c-0.5,7.9-7.7,14-16.1,13.5c-8.4-0.5-14.8-7.3-14.3-15.2c0.5-7.9,7.7-14,16.1-13.5
						S760.3,948.8,759.8,956.7z"/>
					<path class="st3" d="M830,963.9c-0.5,7.9-7.7,14-16.1,13.5c-8.4-0.5-14.8-7.3-14.3-15.2c0.5-7.9,7.7-14,16.1-13.5
						C824.1,949.1,830.5,955.9,830,963.9z"/>
					<path class="st3" d="M986.3,904c-0.5,7.9-7.7,14-16.1,13.5c-8.4-0.5-14.8-7.3-14.3-15.2c0.5-7.9,7.7-14,16.1-13.5
						S986.8,896.1,986.3,904z"/>
					<path class="st3" d="M1071.4,966.5c-0.5,7.9-7.7,14-16.1,13.5c-8.4-0.5-14.8-7.3-14.3-15.2c0.5-7.9,7.7-14,16.1-13.5
						C1065.5,951.8,1071.9,958.6,1071.4,966.5z"/>
					<path class="st3" d="M1106.1,1026.2c-0.5,7.9-7.7,14-16.1,13.5c-8.4-0.5-14.8-7.3-14.3-15.2c0.5-7.9,7.7-14,16.1-13.5
						C1100.2,1011.4,1106.6,1018.3,1106.1,1026.2z"/>
					<path class="st4" d="M1108.3,1099.1c-0.5,7.9-7.7,14-16.1,13.5c-8.4-0.5-14.8-7.3-14.3-15.2c0.5-7.9,7.7-14,16.1-13.5
						C1102.4,1084.4,1108.8,1091.2,1108.3,1099.1z"/>
					<path class="st3" d="M1149,1076.2c-0.5,7.9-7.7,14-16.1,13.5c-8.4-0.5-14.8-7.3-14.3-15.2c0.5-7.9,7.7-14,16.1-13.5
						C1143.1,1061.5,1149.5,1068.3,1149,1076.2z"/>
					<path class="st4" d="M1050.8,1107.9c-0.5,7.9-7.7,14-16.1,13.5c-8.4-0.5-14.8-7.3-14.3-15.2c0.5-7.9,7.7-14,16.1-13.5
						C1044.8,1093.1,1051.2,1099.9,1050.8,1107.9z"/>
					<path class="st4" d="M957.2,1111.4c-0.5,7.9-7.7,14-16.1,13.5s-14.8-7.3-14.3-15.2c0.5-7.9,7.7-14,16.1-13.5
						C951.3,1096.6,957.7,1103.4,957.2,1111.4z"/>
					<path class="st4" d="M896.2,1112c-0.5,7.9-7.7,14-16.1,13.5c-8.4-0.5-14.8-7.3-14.3-15.2c0.5-7.9,7.7-14,16.1-13.5
						C890.3,1097.2,896.7,1104.1,896.2,1112z"/>
					<path class="st4" d="M831.1,1103c-0.5,7.9-7.7,14-16.1,13.5c-8.4-0.5-14.8-7.3-14.3-15.2c0.5-7.9,7.7-14,16.1-13.5
						S831.6,1095,831.1,1103z"/>
					<path class="st4" d="M794.6,1111.3c-0.5,7.9-7.7,14-16.1,13.5s-14.8-7.3-14.3-15.2c0.5-7.9,7.7-14,16.1-13.5
						C788.7,1096.5,795.1,1103.3,794.6,1111.3z"/>
					<path class="st5" d="M779.2,968.2L779.2,968.2c-7.6,2.7-16.1-0.9-19-8.1l-17.9-44.5c-2.9-7.2,0.9-15.2,8.5-18l0,0
						c7.6-2.7,16.1,0.9,19,8.1l17.9,44.5C790.6,957.4,786.8,965.4,779.2,968.2z"/>
					<path class="st5" d="M766.7,1042L766.7,1042c-5.1,6-14.4,6.9-20.7,2l-39.1-30c-6.3-4.8-7.3-13.6-2.2-19.6v0
						c5.1-6,14.4-6.9,20.7-2l39.1,30C770.9,1027.3,771.8,1036,766.7,1042z"/>
					<path class="st5" d="M814,1026.9L814,1026.9c-5.1,6-14.4,6.9-20.7,2l-28-21.5c-6.3-4.8-7.3-13.6-2.2-19.6v0
						c5.1-6,14.4-6.9,20.7-2l28,21.5C818.1,1012.1,819.1,1020.9,814,1026.9z"/>
					<path class="st5" d="M796.4,1032.7L796.4,1032.7c6.9,4.1,8.9,12.7,4.6,19.2l-19.2,28.8c-4.3,6.5-13.4,8.4-20.3,4.3l0,0
						c-6.9-4.1-8.9-12.7-4.6-19.2l19.2-28.8C780.4,1030.5,789.5,1028.5,796.4,1032.7z"/>
					<path class="st5" d="M811.7,1035.4l0.9,0c7.9-0.1,14.4,6,14.4,13.4l0.4,34.9c0.1,7.5-6.3,13.6-14.2,13.6l-0.9,0
						c-7.9,0.1-14.4-6-14.4-13.4l-0.4-34.9C797.4,1041.6,803.8,1035.5,811.7,1035.4z"/>
					<path class="st5" d="M839.2,974.3l0.8,0.3c7.3,2.9,10.6,10.9,7.6,17.8l-14.4,32.1c-3.1,6.9-11.5,10.1-18.7,7.1l-0.8-0.3
						c-7.3-2.9-10.6-10.9-7.6-17.8l14.4-32.1C823.6,974.5,832,971.3,839.2,974.3z"/>
					<path class="st5" d="M848.3,907.6l0.8,0.3c7.3,2.9,10.6,10.9,7.6,17.8l-14.4,32.1c-3.1,6.9-11.5,10.1-18.7,7.1l-0.8-0.3
						c-7.3-2.9-10.6-10.9-7.6-17.8l14.4-32.1C832.7,907.9,841.1,904.7,848.3,907.6z"/>
					<path class="st5" d="M941.5,927.8l0.6,0.6c5.2,5.6,4.6,14.2-1.3,19.1l-27.8,22.9c-5.9,4.9-15,4.3-20.2-1.3l-0.6-0.6
						c-5.2-5.6-4.6-14.2,1.3-19.1l27.8-22.9C927.3,921.6,936.3,922.2,941.5,927.8z"/>
					<path class="st5" d="M1001.9,923.5l0.6,0.6c5.2,5.6,4.6,14.2-1.3,19.1l-27.8,22.9c-5.9,4.9-15,4.3-20.2-1.3l-0.6-0.6
						c-5.2-5.6-4.6-14.2,1.3-19.1l27.8-22.9C987.7,917.3,996.7,917.9,1001.9,923.5z"/>
					<path class="st5" d="M881.3,972.4l0.8,0.3c7.3,2.9,10.6,10.9,7.6,17.8l-14.4,32.1c-3.1,6.9-11.5,10.1-18.7,7.1l-0.8-0.3
						c-7.3-2.9-10.6-10.9-7.6-17.8l14.4-32.1C865.7,972.7,874.1,969.5,881.3,972.4z"/>
					<path class="st5" d="M884.5,1092.4l-0.6,0.5c-6,4.9-15,4.3-20.2-1.4l-24.2-26.4c-5.2-5.6-4.5-14.2,1.4-19.1l0.6-0.5
						c6-4.9,15-4.3,20.2,1.4l24.2,26.4C891.1,1079,890.5,1087.5,884.5,1092.4z"/>
					<path class="st5" d="M929.9,1077.8l-0.5,0.6c-4.9,5.8-13.9,6.8-20.1,2.1l-28.8-21.8c-6.2-4.7-7.2-13.2-2.2-19l0.5-0.6
						c4.9-5.8,13.9-6.8,20.1-2.1l28.8,21.8C933.8,1063.4,934.8,1072,929.9,1077.8z"/>
					<path class="st5" d="M937.8,976.3l0.8,0.3c7.3,2.8,10.8,10.7,7.9,17.6l-13.9,32.3c-3,6.9-11.3,10.2-18.6,7.4l-0.8-0.3
						c-7.3-2.8-10.8-10.7-7.9-17.6l13.9-32.3C922.1,976.8,930.5,973.4,937.8,976.3z"/>
					<path class="st5" d="M992.3,1070.6L992.3,1070.6c-5.6,5.5-14.9,5.7-20.8,0.4l-26-23.6c-5.9-5.3-6.1-14.1-0.4-19.7l0,0
						c5.6-5.5,14.9-5.7,20.8-0.4l26,23.6C997.7,1056.3,997.9,1065.1,992.3,1070.6z"/>
					<path class="st5" d="M1003.5,976L1003.5,976c5.1,6,4,14.8-2.3,19.6l-28.2,21.2c-6.4,4.8-15.6,3.8-20.7-2.2v0
						c-5.1-6-4-14.8,2.3-19.6l28.2-21.2C989.2,969,998.4,970,1003.5,976z"/>
					<path class="st5" d="M1068.7,1036.9L1068.7,1036.9c-0.4,7.7-7.2,13.6-15.4,13.3l-36-1.6c-8.1-0.4-14.4-6.9-14-14.6l0,0
						c0.4-7.7,7.2-13.6,15.4-13.3l36,1.6C1062.7,1022.7,1069,1029.2,1068.7,1036.9z"/>
					<path class="st3" d="M770.7,910.5c-0.5,7.9-7.7,14-16.1,13.5c-8.4-0.5-14.8-7.3-14.3-15.2c0.5-7.9,7.7-14,16.1-13.5
						C764.8,895.7,771.2,902.5,770.7,910.5z"/>
					<path class="st3" d="M788.9,997.8c-0.5,7.9-7.7,14-16.1,13.5c-8.4-0.5-14.8-7.3-14.3-15.2c0.5-7.9,7.7-14,16.1-13.5
						C783,983,789.4,989.9,788.9,997.8z"/>
					<path class="st3" d="M732,1002.8c-0.5,7.9-7.7,14-16.1,13.5c-8.4-0.5-14.8-7.3-14.3-15.2c0.5-7.9,7.7-14,16.1-13.5
						C726.1,988,732.5,994.8,732,1002.8z"/>
					<path class="st3" d="M782.4,1076.2c-0.5,7.9-7.7,14-16.1,13.5s-14.8-7.3-14.3-15.2c0.5-7.9,7.7-14,16.1-13.5
						C776.5,1061.5,782.9,1068.3,782.4,1076.2z"/>
					<path class="st4" d="M828.5,1085.5c-0.5,7.9-7.7,14-16.1,13.5s-14.8-7.3-14.3-15.2c0.5-7.9,7.7-14,16.1-13.5
						S829,1077.5,828.5,1085.5z"/>
					<path class="st3" d="M847.5,987.6c-0.5,7.9-7.7,14-16.1,13.5c-8.4-0.5-14.8-7.3-14.3-15.2c0.5-7.9,7.7-14,16.1-13.5
						C841.6,972.8,848,979.6,847.5,987.6z"/>
					<path class="st3" d="M892,984.7c-0.5,7.9-7.7,14-16.1,13.5c-8.4-0.5-14.8-7.3-14.3-15.2c0.5-7.9,7.7-14,16.1-13.5
						C886.1,970,892.5,976.8,892,984.7z"/>
					<path class="st3" d="M890.4,1082.4c-0.5,7.9-7.7,14-16.1,13.5s-14.8-7.3-14.3-15.2c0.5-7.9,7.7-14,16.1-13.5
						C884.5,1067.6,890.9,1074.4,890.4,1082.4z"/>
					<path class="st3" d="M934.7,1071.3c-0.5,7.9-7.7,14-16.1,13.5s-14.8-7.3-14.3-15.2c0.5-7.9,7.7-14,16.1-13.5
						C928.8,1056.6,935.2,1063.4,934.7,1071.3z"/>
					<path class="st3" d="M947.7,989.5c-0.5,7.9-7.7,14-16.1,13.5c-8.4-0.5-14.8-7.3-14.3-15.2c0.5-7.9,7.7-14,16.1-13.5
						C941.8,974.7,948.2,981.5,947.7,989.5z"/>
					<path class="st3" d="M944.9,937.9c-0.5,7.9-7.7,14-16.1,13.5c-8.4-0.5-14.8-7.3-14.3-15.2c0.5-7.9,7.7-14,16.1-13.5
						C939,923.2,945.4,930,944.9,937.9z"/>
					<path class="st3" d="M1007.8,934.2c-0.5,7.9-7.7,14-16.1,13.5c-8.4-0.5-14.8-7.3-14.3-15.2c0.5-7.9,7.7-14,16.1-13.5
						C1001.8,919.5,1008.3,926.3,1007.8,934.2z"/>
					<path class="st3" d="M998.2,1063.3c-0.5,7.9-7.7,14-16.1,13.5s-14.8-7.3-14.3-15.2c0.5-7.9,7.7-14,16.1-13.5
						C992.3,1048.5,998.7,1055.3,998.2,1063.3z"/>
					<path class="st3" d="M1071,1038.7c-0.5,7.9-7.7,14-16.1,13.5c-8.4-0.5-14.8-7.3-14.3-15.2s7.7-14,16.1-13.5
						C1065.1,1023.9,1071.5,1030.8,1071,1038.7z"/>
					<path class="st3" d="M1009.7,983.5c-0.5,7.9-7.7,14-16.1,13.5c-8.4-0.5-14.8-7.3-14.3-15.2s7.7-14,16.1-13.5
						C1003.8,968.8,1010.2,975.6,1009.7,983.5z"/>
					<path class="st3" d="M858.7,920.1c-0.5,7.9-7.7,14-16.1,13.5s-14.8-7.3-14.3-15.2c0.5-7.9,7.7-14,16.1-13.5
						C852.8,905.3,859.2,912.2,858.7,920.1z"/>
				</g>
				<g class="st1">
					<path class="st2" d="M633,888.2l-71.3-21.7l23.2-0.9c8.1-0.3,14.4-6.8,14.1-14.5c-0.3-7.7-7.2-13.7-15.3-13.4l-30.5,1.2
						c0.9-2.4,1.2-5.1,0.6-7.8c-1.8-7.5-9.6-12.3-17.6-10.6l-25,5.2l45.6-20.7c7.3-3.3,10.4-11.6,6.9-18.6
						c-3.5-6.9-12.3-9.9-19.7-6.5l-27.2,12.3c-2.8-4.8-7.3-8.6-12.9-10.4l14.8-36.8c2.9-7.2-0.9-15.2-8.5-18c-7.6-2.7-16.1,0.8-19,8
						l-6.9,17.1c-0.6-0.1-1.3-0.2-2-0.2c-4.1-0.2-8,0.5-11.4,2.1l8-19.8c2.9-7.2-0.9-15.2-8.5-18s-16.1,0.8-19,8l-11.3,28.2
						c-0.5-0.1-0.9-0.1-1.4-0.1c-4-0.2-7.9,0.5-11.3,2l8.6-16c3.7-6.8,0.8-15.2-6.5-18.7c-7.2-3.5-16.1-0.8-19.8,6.1l-21.9,40.8
						c-0.4,0.8-0.8,1.7-1.1,2.6c-1.1-3-2.7-5.7-4.9-7.9l16.7-31c3.7-6.8,0.8-15.2-6.5-18.7c-7.2-3.5-16.1-0.8-19.8,6.1l-17.1,31.8
						c-3.2-1.8-6.8-3-10.8-3.2c-2.9-0.2-5.7,0.2-8.3,1l1.3-18.3c0.6-7.7-5.6-14.3-13.7-14.9c-8.1-0.5-15.1,5.2-15.7,12.9l-1.8,24.3
						c-7.6,1.5-14,6.6-16.9,13.4c-0.8-0.6-1.6-1.1-2.5-1.5l2.5-34.9c0.6-7.7-5.6-14.3-13.7-14.9c-8.1-0.5-15.1,5.2-15.7,12.9
						l-2.1,29.1c-4-2.6-8.7-4.3-13.8-4.5c-6.8-0.4-13.2,1.7-18.2,5.3l-1.5-17c-0.7-7.7-7.8-13.4-15.9-12.7
						c-8.1,0.6-14.1,7.4-13.4,15l3.6,39.2c-4.2,2.3-7.7,5.7-9.8,9.9l-5.8-13.8c-3-7.2-11.6-10.7-19.1-7.8s-11.3,10.9-8.3,18.1
						l13.7,32.7c-1,2.7-1.7,5.7-1.9,8.7c-0.9,14.6,8.9,27.4,22.9,31.6c-0.5,1.8-0.8,3.6-0.9,5.5c-1.1,17.3,12.9,32.1,31.1,33.1
						c8.6,0.5,16.6-2.2,22.8-7c1.8,7.5,7.5,13.7,15.2,16.2l-1,28c-0.3,7.7,6.1,14.1,14.2,14.4h0c8.1,0.3,14.9-5.7,15.2-13.4
						l0.8-21.3l10.9,18.2c4,6.7,13,9,20.1,5.2c7.1-3.8,9.5-12.3,5.5-19l-3.1-5.2l43.4,34.4c6.2,4.9,15.5,4.2,20.7-1.7h0
						c5.2-5.9,4.4-14.7-1.9-19.6l-11.8-9.3c2.7,0,5.3-0.4,7.7-1.2l48.4,30.4c6.8,4.3,15.9,2.5,20.4-3.9v0c4.5-6.4,2.6-15-4.1-19.3
						l-33.5-21.1c1.9-0.9,3.7-2.4,5.3-4.5l54.3,34.2c6.8,4.3,15.9,2.5,20.4-3.9v0c0.3-0.5,0.6-0.9,0.9-1.4l27,17
						c6.8,4.3,15.9,2.5,20.4-3.9v0c4.5-6.4,2.6-15-4.1-19.3l-8.9-5.6c1.2-2.3,1.9-4.8,2.2-7.5l52.5,28c7.1,3.8,16.1,1.4,20-5.3
						c4-6.7,1.5-15.2-5.6-19l-27.6-14.7l56.4,17.2c7.7,2.4,16-1.7,18.5-9C645.1,898.4,640.8,890.6,633,888.2z"/>
					<path class="st3" d="M337.7,727.4c-0.5,7.9-7.7,14-16.1,13.5c-8.4-0.5-14.8-7.3-14.3-15.2c0.5-7.9,7.7-14,16.1-13.5
						C331.8,712.7,338.2,719.5,337.7,727.4z"/>
					<path class="st3" d="M401.3,723.5c-0.5,7.9-7.7,14-16.1,13.5c-8.4-0.5-14.8-7.3-14.3-15.2s7.7-14,16.1-13.5
						C395.3,708.7,401.8,715.5,401.3,723.5z"/>
					<path class="st3" d="M223.6,740.5c-0.5,7.9-7.7,14-16.1,13.5c-8.4-0.5-14.8-7.3-14.3-15.2c0.5-7.9,7.7-14,16.1-13.5
						C217.7,725.8,224.1,732.6,223.6,740.5z"/>
					<path class="st3" d="M291,727.9c-0.5,7.9-7.7,14-16.1,13.5c-8.4-0.5-14.8-7.3-14.3-15.2s7.7-14,16.1-13.5
						C285.1,713.2,291.5,720,291,727.9z"/>
					<path class="st3" d="M254.3,783.2c-0.5,7.9-7.7,14-16.1,13.5c-8.4-0.5-14.8-7.3-14.3-15.2c0.5-7.9,7.7-14,16.1-13.5
						C248.4,768.5,254.8,775.3,254.3,783.2z"/>
					<path class="st3" d="M324.5,790.4c-0.5,7.9-7.7,14-16.1,13.5c-8.4-0.5-14.8-7.3-14.3-15.2c0.5-7.9,7.7-14,16.1-13.5
						C318.6,775.6,325,782.4,324.5,790.4z"/>
					<path class="st3" d="M480.8,730.5c-0.5,7.9-7.7,14-16.1,13.5c-8.4-0.5-14.8-7.3-14.3-15.2c0.5-7.9,7.7-14,16.1-13.5
						C474.9,715.8,481.3,722.6,480.8,730.5z"/>
					<path class="st3" d="M565.9,793c-0.5,7.9-7.7,14-16.1,13.5c-8.4-0.5-14.8-7.3-14.3-15.2c0.5-7.9,7.7-14,16.1-13.5
						C560,778.3,566.4,785.1,565.9,793z"/>
					<path class="st3" d="M600.6,852.7c-0.5,7.9-7.7,14-16.1,13.5c-8.4-0.5-14.8-7.3-14.3-15.2c0.5-7.9,7.7-14,16.1-13.5
						C594.7,837.9,601.1,844.8,600.6,852.7z"/>
					<path class="st4" d="M602.8,925.6c-0.5,7.9-7.7,14-16.1,13.5c-8.4-0.5-14.8-7.3-14.3-15.2c0.5-7.9,7.7-14,16.1-13.5
						C596.9,910.9,603.3,917.7,602.8,925.6z"/>
					<path class="st3" d="M643.5,902.7c-0.5,7.9-7.7,14-16.1,13.5c-8.4-0.5-14.8-7.3-14.3-15.2c0.5-7.9,7.7-14,16.1-13.5
						C637.6,888,644,894.8,643.5,902.7z"/>
					<path class="st4" d="M545.3,934.4c-0.5,7.9-7.7,14-16.1,13.5c-8.4-0.5-14.8-7.3-14.3-15.2c0.5-7.9,7.7-14,16.1-13.5
						C539.4,919.6,545.8,926.4,545.3,934.4z"/>
					<path class="st4" d="M451.8,937.9c-0.5,7.9-7.7,14-16.1,13.5c-8.4-0.5-14.8-7.3-14.3-15.2c0.5-7.9,7.7-14,16.1-13.5
						C445.8,923.1,452.2,929.9,451.8,937.9z"/>
					<path class="st4" d="M390.7,938.5c-0.5,7.9-7.7,14-16.1,13.5c-8.4-0.5-14.8-7.3-14.3-15.2c0.5-7.9,7.7-14,16.1-13.5
						C384.8,923.8,391.2,930.6,390.7,938.5z"/>
					<path class="st4" d="M325.6,929.5c-0.5,7.9-7.7,14-16.1,13.5c-8.4-0.5-14.8-7.3-14.3-15.2c0.5-7.9,7.7-14,16.1-13.5
						C319.7,914.7,326.1,921.5,325.6,929.5z"/>
					<path class="st4" d="M289.1,937.8c-0.5,7.9-7.7,14-16.1,13.5c-8.4-0.5-14.8-7.3-14.3-15.2s7.7-14,16.1-13.5
						S289.6,929.9,289.1,937.8z"/>
					<path class="st5" d="M273.7,794.7L273.7,794.7c-7.6,2.7-16.1-0.9-19-8.1l-17.9-44.5c-2.9-7.2,0.9-15.2,8.5-18h0
						c7.6-2.7,16.1,0.9,19,8.1l17.9,44.5C285.1,783.9,281.3,791.9,273.7,794.7z"/>
					<path class="st5" d="M261.2,868.5L261.2,868.5c-5.1,6-14.4,6.9-20.7,2l-39.1-30c-6.3-4.8-7.3-13.6-2.2-19.6l0,0
						c5.1-6,14.4-6.9,20.7-2l39.1,30C265.4,853.8,266.4,862.5,261.2,868.5z"/>
					<path class="st5" d="M308.5,853.4L308.5,853.4c-5.1,6-14.4,6.9-20.7,2l-28-21.5c-6.3-4.8-7.3-13.6-2.2-19.6l0,0
						c5.1-6,14.4-6.9,20.7-2l28,21.5C312.7,838.6,313.6,847.4,308.5,853.4z"/>
					<path class="st5" d="M290.9,859.2L290.9,859.2c6.9,4.1,8.9,12.7,4.6,19.2l-19.2,28.8c-4.3,6.5-13.4,8.4-20.3,4.3h0
						c-6.9-4.1-8.9-12.7-4.6-19.2l19.2-28.8C274.9,857,284,855,290.9,859.2z"/>
					<path class="st5" d="M306.2,861.9l0.9,0c7.9-0.1,14.4,6,14.4,13.4l0.4,34.9c0.1,7.5-6.3,13.6-14.2,13.6l-0.9,0
						c-7.9,0.1-14.4-6-14.4-13.4l-0.4-34.9C292,868.1,298.3,862,306.2,861.9z"/>
					<path class="st5" d="M333.7,800.8l0.8,0.3c7.3,2.9,10.6,10.9,7.6,17.8l-14.4,32.1c-3.1,6.9-11.5,10.1-18.7,7.1l-0.8-0.3
						c-7.3-2.9-10.6-10.9-7.6-17.8l14.4-32.1C318.1,801,326.5,797.8,333.7,800.8z"/>
					<path class="st5" d="M342.8,734.1l0.8,0.3c7.3,2.9,10.6,10.9,7.6,17.8l-14.4,32.1c-3.1,6.9-11.5,10.1-18.7,7.1l-0.8-0.3
						c-7.3-2.9-10.6-10.9-7.6-17.8l14.4-32.1C327.2,734.4,335.6,731.2,342.8,734.1z"/>
					<path class="st5" d="M436,754.3l0.6,0.6c5.2,5.6,4.6,14.2-1.3,19.1l-27.8,22.9c-5.9,4.9-15,4.3-20.2-1.3l-0.6-0.6
						c-5.2-5.6-4.6-14.2,1.3-19.1l27.8-22.9C421.8,748.1,430.8,748.7,436,754.3z"/>
					<path class="st5" d="M496.5,750l0.6,0.6c5.2,5.6,4.6,14.2-1.3,19.1l-27.8,22.9c-5.9,4.9-15,4.3-20.2-1.3l-0.6-0.6
						c-5.2-5.6-4.6-14.2,1.3-19.1l27.8-22.9C482.2,743.8,491.3,744.4,496.5,750z"/>
					<path class="st5" d="M375.8,798.9l0.8,0.3c7.3,2.9,10.6,10.9,7.6,17.8l-14.4,32.1c-3.1,6.9-11.5,10.1-18.7,7.1l-0.8-0.3
						c-7.3-2.9-10.6-10.9-7.6-17.8l14.4-32.1C360.2,799.2,368.6,796,375.8,798.9z"/>
					<path class="st5" d="M379,918.9l-0.6,0.5c-6,4.9-15,4.3-20.2-1.4L334,891.7c-5.2-5.6-4.5-14.2,1.4-19.1l0.6-0.5
						c6-4.9,15-4.3,20.2,1.4l24.2,26.4C385.6,905.5,385,914,379,918.9z"/>
					<path class="st5" d="M424.4,904.3l-0.5,0.6c-4.9,5.8-13.9,6.8-20.1,2.1L375,885.1c-6.2-4.7-7.2-13.2-2.2-19l0.5-0.6
						c4.9-5.8,13.9-6.8,20.1-2.1l28.8,21.8C428.3,889.9,429.4,898.5,424.4,904.3z"/>
					<path class="st5" d="M432.3,802.8l0.8,0.3c7.3,2.8,10.8,10.7,7.9,17.6L427.1,853c-3,6.9-11.3,10.2-18.6,7.4l-0.8-0.3
						c-7.3-2.8-10.8-10.7-7.9-17.6l13.9-32.3C416.7,803.3,425,799.9,432.3,802.8z"/>
					<path class="st5" d="M486.8,897.1L486.8,897.1c-5.6,5.5-14.9,5.7-20.8,0.4l-26-23.6c-5.9-5.3-6.1-14.1-0.4-19.7l0,0
						c5.6-5.5,14.9-5.7,20.8-0.4l26,23.6C492.2,882.8,492.4,891.6,486.8,897.1z"/>
					<path class="st5" d="M498,802.5L498,802.5c5.1,6,4,14.8-2.3,19.6l-28.2,21.2c-6.4,4.8-15.6,3.8-20.7-2.2h0
						c-5.1-6-4-14.8,2.3-19.6l28.2-21.2C483.7,795.5,493,796.5,498,802.5z"/>
					<path class="st5" d="M563.2,863.4L563.2,863.4c-0.4,7.7-7.2,13.6-15.4,13.3l-36-1.6c-8.1-0.4-14.4-6.9-14-14.6v0
						c0.4-7.7,7.2-13.6,15.4-13.3l36,1.6C557.3,849.2,563.5,855.7,563.2,863.4z"/>
					<path class="st3" d="M265.2,737c-0.5,7.9-7.7,14-16.1,13.5c-8.4-0.5-14.8-7.3-14.3-15.2c0.5-7.9,7.7-14,16.1-13.5
						C259.3,722.2,265.7,729,265.2,737z"/>
					<path class="st3" d="M283.4,824.3c-0.5,7.9-7.7,14-16.1,13.5c-8.4-0.5-14.8-7.3-14.3-15.2c0.5-7.9,7.7-14,16.1-13.5
						C277.5,809.5,283.9,816.4,283.4,824.3z"/>
					<path class="st3" d="M226.5,829.3c-0.5,7.9-7.7,14-16.1,13.5c-8.4-0.5-14.8-7.3-14.3-15.2s7.7-14,16.1-13.5
						C220.6,814.5,227,821.3,226.5,829.3z"/>
					<path class="st3" d="M277,902.7c-0.5,7.9-7.7,14-16.1,13.5c-8.4-0.5-14.8-7.3-14.3-15.2c0.5-7.9,7.7-14,16.1-13.5
						C271,888,277.4,894.8,277,902.7z"/>
					<path class="st4" d="M323,912c-0.5,7.9-7.7,14-16.1,13.5c-8.4-0.5-14.8-7.3-14.3-15.2c0.5-7.9,7.7-14,16.1-13.5
						C317.1,897.2,323.5,904,323,912z"/>
					<path class="st3" d="M342.1,814.1c-0.5,7.9-7.7,14-16.1,13.5c-8.4-0.5-14.8-7.3-14.3-15.2c0.5-7.9,7.7-14,16.1-13.5
						C336.1,799.3,342.5,806.1,342.1,814.1z"/>
					<path class="st3" d="M386.5,811.2c-0.5,7.9-7.7,14-16.1,13.5c-8.4-0.5-14.8-7.3-14.3-15.2c0.5-7.9,7.7-14,16.1-13.5
						C380.6,796.5,387,803.3,386.5,811.2z"/>
					<path class="st3" d="M384.9,908.9c-0.5,7.9-7.7,14-16.1,13.5c-8.4-0.5-14.8-7.3-14.3-15.2s7.7-14,16.1-13.5
						C379,894.1,385.4,900.9,384.9,908.9z"/>
					<path class="st3" d="M429.2,897.8c-0.5,7.9-7.7,14-16.1,13.5c-8.4-0.5-14.8-7.3-14.3-15.2c0.5-7.9,7.7-14,16.1-13.5
						C423.3,883.1,429.7,889.9,429.2,897.8z"/>
					<path class="st3" d="M442.2,816c-0.5,7.9-7.7,14-16.1,13.5c-8.4-0.5-14.8-7.3-14.3-15.2c0.5-7.9,7.7-14,16.1-13.5
						S442.7,808,442.2,816z"/>
					<path class="st3" d="M439.4,764.4c-0.5,7.9-7.7,14-16.1,13.5c-8.4-0.5-14.8-7.3-14.3-15.2c0.5-7.9,7.7-14,16.1-13.5
						C433.5,749.7,439.9,756.5,439.4,764.4z"/>
					<path class="st3" d="M502.3,760.7c-0.5,7.9-7.7,14-16.1,13.5c-8.4-0.5-14.8-7.3-14.3-15.2c0.5-7.9,7.7-14,16.1-13.5
						C496.4,746,502.8,752.8,502.3,760.7z"/>
					<path class="st3" d="M492.7,889.8c-0.5,7.9-7.7,14-16.1,13.5c-8.4-0.5-14.8-7.3-14.3-15.2c0.5-7.9,7.7-14,16.1-13.5
						C486.8,875,493.2,881.8,492.7,889.8z"/>
					<path class="st3" d="M565.5,865.2c-0.5,7.9-7.7,14-16.1,13.5c-8.4-0.5-14.8-7.3-14.3-15.2c0.5-7.9,7.7-14,16.1-13.5
						C559.6,850.5,566,857.3,565.5,865.2z"/>
					<path class="st3" d="M504.3,810c-0.5,7.9-7.7,14-16.1,13.5c-8.4-0.5-14.8-7.3-14.3-15.2s7.7-14,16.1-13.5
						C498.3,795.3,504.7,802.1,504.3,810z"/>
					<path class="st3" d="M353.2,746.6c-0.5,7.9-7.7,14-16.1,13.5c-8.4-0.5-14.8-7.3-14.3-15.2c0.5-7.9,7.7-14,16.1-13.5
						C347.3,731.8,353.7,738.7,353.2,746.6z"/>
				</g>
				<path class="st6" d="M-52.5,918.9c3.9-1,82.3-88.9,223.1-67.8s184.7,101.5,301.4,89.2s192.7-31.8,260.2-3.7
					c67.5,28.2,213.1,66,296.8,46.7c83.7-19.3,132.5-44.8,230.5-25.4c57.1,11.3,163.8-5.1,264.4-37.7
					c100.6-32.5,305.5-12.4,330.8,6.8c25.3,19.1,15,22.1,131.3-25.8c116.3-47.8,169.2-70.8,192.8-21.6
					c23.5,49.2,30.7,79.4,35.4,104.5c4.7,25,167.4,256.3-151.5,230c-318.9-26.3-1625.5-50.9-1765.2-52.3s-931.5-52.4-942.2-102.5
					c-10.7-50-128.1-9.5,16.8-80.7S-52.5,918.9-52.5,918.9"/>
				<path class="st7" d="M-52.5,922c3.9-1,82.3-88.9,223.1-67.8s184.7,101.5,301.4,89.2s192.7-31.8,260.2-3.7
					c67.5,28.2,213.1,66,296.8,46.7c83.7-19.3,132.5-44.8,230.5-25.4c57.1,11.3,163.8-5.1,264.4-37.7
					c100.6-32.5,305.5-12.4,330.8,6.8c25.3,19.1,15,22.1,131.3-25.8s169.2-70.8,192.8-21.6c23.5,49.2,30.7,79.4,35.4,104.5
					s167.4,256.3-151.5,230c-318.9-26.3-1625.5-50.9-1765.2-52.3s-931.5-52.4-942.2-102.5c-10.7-50-128.1-9.5,16.8-80.7
					S-52.5,922-52.5,922"/>
				<path class="st6" d="M653.7,977.4c-2.2,4.7-16.2,4.9-31.3,0.3c-15.1-4.6-25.6-12.2-23.5-16.9c2.2-4.7,16.2-4.9,31.3-0.3
					S655.8,972.7,653.7,977.4z"/>
				<path class="st6" d="M741.7,948.7c-2.2,4.7-16.2,4.9-31.3,0.3s-25.6-12.2-23.5-16.9c2.2-4.7,16.2-4.9,31.3-0.3
					C733.4,936.4,743.9,944,741.7,948.7z"/>
				<path class="st6" d="M1209.5,958.3c1.4,5.7-12.1,12.6-30.2,15.4c-18.1,2.8-33.9,0.5-35.3-5.2s12.1-12.6,30.2-15.4
					C1192.3,950.2,1208.1,952.6,1209.5,958.3z"/>
				<path class="st6" d="M1126.1,988.5c1.1,3-5.6,7.2-15,9.5c-9.4,2.3-17.9,1.7-19-1.2c-1.1-3,5.6-7.2,15-9.5
					C1116.5,985,1125,985.5,1126.1,988.5z"/>
				<path class="st8" d="M1201.2,959.2c0.6,2.6-5.6,5.8-14.1,7.1c-8.4,1.3-15.7,0.2-16.4-2.4c-0.6-2.6,5.6-5.8,14.1-7.1
					C1193.2,955.4,1200.6,956.5,1201.2,959.2z"/>
				<path class="st8" d="M691.7,931.4c-1.2,2.9,5.3,7.4,14.6,10s17.8,2.3,19-0.6s-5.3-7.4-14.6-10
					C701.4,928.2,692.9,928.5,691.7,931.4z"/>
				<path class="st6" d="M826.8,1000.2c-4,8.7-29.6,8.9-57.3,0.5c-27.7-8.4-47-22.3-43-30.9s29.6-8.9,57.3-0.5
					C811.5,977.6,830.7,991.5,826.8,1000.2z"/>
				<path class="st9" d="M1371.2,1011.1c-5.4-20.7-27.7-35.8-66.2-44.8c-58.1-13.6-94,1.6-128.6,16.2
					c-24.5,10.4-47.6,20.2-78.5,19.9c-34.3-0.2-50.6-5.6-69.4-11.9c-22.8-7.5-48.6-16.1-109.5-17.1
					c-109.3-1.9-129.4,17.2-132.3,21.1l-0.2,0.3c-7.3,1.6-13.9,3.2-19.9,4.8c-46.4-7.6-109-10.4-121.1-10.8
					c-13.5-6.2-96.8-42.5-183.3-32c-84.5,10.2-129.4,7.3-165.4-10.9c-19.5-9.8-49.4-23.7-84.3-30.7c-43.3-8.7-82.6-4.5-116.9,12.5
					c-31.8,15.8-74,40.3-115.7,67.5c-16.4,10.7-31.7,21.1-43.1,29.3c-18.8,13.6-19.8,15.8-20,19c-0.2,2.5,1,4.9,3.3,6.4
					c2.4,1.6,3.8,2.6,92,15.3c42.6,6.1,85.3,12.1,85.8,12.1l1,0.1c22.1,0.7,542.1,16.8,559.9,17.1c4.8,0.1,13.3,0.6,23.1,1.3
					c18.6,1.2,33,2,44,2.2c14.8,0.3,23.5-0.6,28-2.9c5-2.7,16.1-11.1,32.4-23.7c2.5,1,3.5,1.5,3.8,1.8c14.8,9.9,65.2,7.6,81.3,6.6
					c10.7,0.4,178.8,7.5,278.5,7.8l13.8,0c89.5,0.3,89.5,0.3,122.9,0.8c32.5,0.6,45-9.6,56-18.6c2.1-1.8,4.2-3.4,6.3-5
					C1358.7,1057.3,1377.3,1034.6,1371.2,1011.1z"/>
				<path class="st10" d="M1302.9,973.3c-95.4-22.4-127.2,37-205,36.4c-77.8-0.6-68.8-27.1-179.1-29s-125.1,17.8-125.1,17.8l3.4,1.5
					c-11.7,2.3-21.6,4.7-30,7c-50.5-8.5-123.9-11.1-123.9-11.1s-89-43-179.9-32c-90.8,11-134.4,6.6-170.8-11.8S174.7,896.8,99.7,934
					c-75,37.2-178,107.9-174.6,110.2c3.4,2.3,174,25.9,174,25.9s541.8,16.8,559.8,17.1s81.1,6.6,90.6,1.6c5.3-2.8,21.4-15.4,35.3-26
					c4.9,1.9,8.6,3.4,10.4,4.6c13.5,9.1,76,5,76,5s175.2,7.5,278.6,7.8c103.5,0.3,101.7,0.3,136.8,0.9c35,0.6,43-11.8,56.8-22
					C1357.2,1048.9,1398.3,995.6,1302.9,973.3z"/>
				<path class="st9" d="M1005.6,998.4c-1.3,5.2-16.6,6.7-34.3,3.3c-17.7-3.4-30.9-10.3-29.6-15.5c1.3-5.2,16.6-6.7,34.3-3.3
					C993.6,986.3,1006.9,993.2,1005.6,998.4z"/>
				<path class="st9" d="M926.1,999.6c-0.5,2.2-6.2,3-12.6,1.8c-6.4-1.2-11.2-4-10.7-6.2c0.5-2.2,6.2-3,12.6-1.8
					C921.9,994.6,926.7,997.4,926.1,999.6z"/>
				<path class="st9" d="M977.5,1006.9c-0.8,3.1-8.7,4.2-17.7,2.5c-9-1.7-15.7-5.6-14.9-8.7s8.7-4.2,17.7-2.5
					C971.5,999.9,978.2,1003.8,977.5,1006.9z"/>
				<path class="st9" d="M910.2,1017.4c-0.2,1-2.8,1.4-5.8,0.8c-2.9-0.6-5.1-1.8-4.9-2.8c0.2-1,2.8-1.4,5.8-0.8
					S910.4,1016.4,910.2,1017.4z"/>
				<path class="st9" d="M1028.3,998c23.3,6.5,70.1,28.4,80.9,52.7s91.8,11.3,97.9-7.5c6.1-18.8,40.4-75,38.5-75.1
					c-1.9,0-38,7.4-53.1,13.2c-15.2,5.8,3.8,0.6-29.7,11.4c-38.1,15.7-100.6,14.6-124.5,3.7C1014.4,985.6,1028.3,998,1028.3,998z"/>
				<path class="st10" d="M1208.3,1011.4c0.7,5.3-13.2,11-31.1,12.8c-17.9,1.8-33.1-1-33.8-6.3s13.2-11,31.1-12.8
					C1192.5,1003.4,1207.6,1006.2,1208.3,1011.4z"/>
				<path class="st11" d="M972.6,991.1c-0.5,2.2-6.2,3-12.6,1.8c-6.4-1.2-11.2-4-10.7-6.2c0.5-2.2,6.2-3,12.6-1.8
					C968.3,986.2,973.1,988.9,972.6,991.1z"/>
				<path class="st11" d="M1192.9,1012.1c0.1,2.8-6.4,5.2-14.5,5.4c-8.1,0.2-14.8-1.9-14.9-4.7c-0.1-2.8,6.4-5.2,14.5-5.4
					C1186.1,1007.2,1192.8,1009.3,1192.9,1012.1z"/>
				<path class="st11" d="M962.7,1003.6c-0.3,1.1-3,1.5-6.2,0.9c-3.1-0.6-5.5-1.9-5.2-3c0.3-1.1,3-1.5,6.2-0.9
					C960.7,1001.2,963,1002.6,962.7,1003.6z"/>
				<path class="st11" d="M916,997.1c-0.3,1.1-3,1.5-6.2,0.9c-3.1-0.6-5.5-1.9-5.2-3c0.3-1.1,3-1.5,6.2-0.9S916.3,996,916,997.1z"/>
				<path class="st9" d="M1211,983.5l21.5-15.2l26.8-7.4c0,0,120.5,2.2,137.1,62.2c16.6,60-7.3,64-59.7,60.8
					c-52.4-3.2-64.6-1.6-100.7-4.1c-36-2.4-94.3-24.7-87.3-28c7.1-3.3,30.3-11.9,36.9-15.5C1192.2,1032.8,1233.7,1023.9,1211,983.5z
					"/>
				<g class="st1">
					<defs>
						<polygon id="SVGID_5_" points="-73.5,591.8 19,574.7 127.1,597.7 293,776.3 274.4,1102 -132.2,1095 -124,621.2 						"/>
					</defs>
					<clipPath id="SVGID_6_">
						<use xlink:href="#SVGID_5_"  style="overflow:visible;"/>
					</clipPath>
					<polygon class="st12" points="-73.5,591.8 19,574.7 127.1,597.7 293,776.3 274.4,1102 -132.2,1095 -124,621.2 					"/>
					<path class="st13" d="M164.2,562.8c-1.9,0.4-61.4,26.3-61.4,26.3l19.5,38.8l186.4,161.7c0,0,2.5-145,1.6-146.4
						s-0.9-1.5-0.9-1.5L164.2,562.8z"/>
					<path class="st14" d="M6.9,606.7c-0.5,1.9,15.1,45.9,15.1,45.9l26.4,168.5c0,0,39.4,110.6,38.7,121.7
						c-0.7,11,18.4,21.4-7.7,54.1s-31.5,44.6-35,50.8s46.9,35.9-43.7,27.6c-90.6-8.3-162.1-11-161.8-28.7
						c0.3-17.8-27.6-150.8-24.8-230s14.3-131.8,18.9-149.5s21.1-53.9,34.8-68.1s-14-23.3,34.5-22.5S6.9,606.7,6.9,606.7z"/>
					<path class="st15" d="M295.7,757.2l-2.7,19.2L48.3,821.1l-3.4,195.9c0,0,118.1,59.2,158.6,48.8c40.5-10.3,3.5-9.1,51.6-13.5
						s34.3,17.9,56.3-4.3c22-22.2,69.8-149.1,59.2-177.1S295.7,757.2,295.7,757.2z"/>
					<path class="st16" d="M-107.4,606.1l129.3,46.4l100.3-24.7l9.2-57.5c0,0-72.6-47.4-134.2-40.3s-75.8-3.2-87.1,11.5
						C-101.3,556.3-107.4,606.1-107.4,606.1z"/>
				</g>
				<g class="st1">
					<defs>
						<path id="SVGID_7_" d="M141.9,959.8l-9.6-40.9c0,0,137.5-128.1,139.5-126.7c2,1.4,262.3,40.4,262.3,40.4l88.4,234.8
							l-451.9-10.6L141.9,959.8z"/>
					</defs>
					<use xlink:href="#SVGID_7_"  style="overflow:visible;fill:#CCFFF4;"/>
					<clipPath id="SVGID_8_">
						<use xlink:href="#SVGID_7_"  style="overflow:visible;"/>
					</clipPath>
					<path class="st17" d="M141.9,959.8l-9.6-40.9c0,0,137.5-128.1,139.5-126.7c2,1.4,262.3,40.4,262.3,40.4l88.4,234.8l-451.9-10.6
						L141.9,959.8z"/>
					<path class="st18" d="M319.8,852.6l9.7,132.7l265.6-33.6c0,0-25-124.7-47.3-138.9c-22.3-14.2-151.9-47.7-159.4-43.2
						C380.9,774.1,319.8,852.6,319.8,852.6z"/>
					<path class="st19" d="M229.5,720.9l58.7,88.9L266.4,825L121.1,926.5c0,0,34.5-156.8,56.4-175.7s22-20.3,25.2-22.1
						C206,726.9,229.5,720.9,229.5,720.9z"/>
					<path class="st19" d="M86.8,910.7l16.6,27.4l28.9-19.3l197.2,66.4c0,0,21.9,64.3,23.3,65.3c1.4,0.9-81.3,15.6-123.7-2.6
						s-92.5-26.4-101.9-42.3c-9.4-15.8-4.5-3.3-16.1-24.7S52.6,949.3,86.8,910.7z"/>
					<path class="st19" d="M523.7,846l65.9,129.5c0,0,51.8-172.6,23.2-197c-28.6-24.4-7.5-45.7-47.3-29.8
						c-39.8,15.9-63.1,30.2-65.5,34.8C497.6,788.1,523.7,846,523.7,846z"/>
					<polygon class="st20" points="271.8,792.2 266.4,825 319.8,852.6 523.7,846 545.4,817.9 279.1,728.2 					"/>
				</g>
				<g class="st1">
					<defs>
						<polygon id="SVGID_9_" points="352.9,1049.6 384.2,993.2 585,950.3 810.9,989.2 865.2,1088.3 						"/>
					</defs>
					<clipPath id="SVGID_10_">
						<use xlink:href="#SVGID_9_"  style="overflow:visible;"/>
					</clipPath>
					<polygon class="st21" points="352.9,1049.6 384.2,993.2 585,950.3 810.9,989.2 865.2,1088.3 					"/>
					<path class="st22" d="M550.7,960.8l-9,51.8l-19.3,95.5c0,0-176-45.1-175.3-55.6s-5.2-79.5,21.5-106.5
						c26.7-27,11.1-55.9,61.7-33.4S550.7,960.8,550.7,960.8z"/>
					<path class="st23" d="M384.2,993.2l157.5,19.4l306.6-26.2c0,0,68.9-98.7-90.7-103.2c-159.5-4.5-139.9-29.3-227.3-2.8
						s-112.7,34.3-112.7,34.3S348.7,960.8,384.2,993.2z"/>
				</g>
				<path class="st24" d="M-70.5,1030.6c-0.6-4.8,24.6-65.8,24.6-65.8l192.2-17.4l134.1,26.5l71.8,79.9l-203.3,20L-70.5,1030.6z"/>
				<g class="st1">
					<defs>
						<polygon id="SVGID_11_" points="981.6,1065.9 951.7,1006.7 884.1,995.2 815.5,1009.5 735.5,1066.3 						"/>
					</defs>
					<clipPath id="SVGID_12_">
						<use xlink:href="#SVGID_11_"  style="overflow:visible;"/>
					</clipPath>
					<polygon class="st25" points="981.6,1065.9 951.7,1006.7 884.1,995.2 815.5,1009.5 735.5,1066.3 					"/>
					<path class="st26" d="M864,992.7l-5.3,35.7l-30.4,81.5c0,0,176.4,0.5,182.9-22.3s29.7,13,1.2-40
						c-28.6-52.9-29.5-78.9-60.3-83.6c-30.8-4.7-54.2-3.5-55.2-2C895.8,963.7,864,992.7,864,992.7z"/>
					<path class="st27" d="M953.1,1007.8l-94.4,20.7L777,992.3c0,0-50.1-53.8,37-55.4s111-8.5,136,6c25,14.5,51,27.4,47,40.8
						C993.1,997,953.1,1007.8,953.1,1007.8z"/>
				</g>
				<g class="st1">
					<defs>
						<polygon id="SVGID_13_" points="1971.9,697.8 1895.5,677.8 1804.7,697.3 1660.8,870.6 1666,1196.7 2004.8,1202.6 2013,728.8 
													"/>
					</defs>
					<clipPath id="SVGID_14_">
						<use xlink:href="#SVGID_13_"  style="overflow:visible;"/>
					</clipPath>
					<polygon class="st28" points="1971.9,697.8 1895.5,677.8 1804.7,697.3 1660.8,870.6 1666,1196.7 2004.8,1202.6 2013,728.8 
											"/>
					<path class="st29" d="M1774.9,661.3c1.6,0.5,50.3,28.2,50.3,28.2l-17.5,38.1l-160.4,155.7c0,0,2.5-145,3.3-146.4
						c0.8-1.4,0.8-1.4,0.8-1.4L1774.9,661.3z"/>
					<path class="st30" d="M1904.5,710.1c0.4,1.9-14,45.4-14,45.4L1863.2,923c0,0-36.3,109.3-36.1,120.4c0.2,11-16,20.9,4.7,54.3
						s24.8,45.6,27.5,51.9c2.7,6.3-40.2,34.4,35.5,28.9s135.4-5.8,135.7-23.6s27.8-149.8,28-229s-7.7-132.2-11-150
						s-15.9-54.5-26.8-69.1s12.4-22.8-28-23.5C1952.2,682.6,1904.5,710.1,1904.5,710.1z"/>
					<path class="st31" d="M1659.1,851.3l1.7,19.2l202.4,52.5l-3.4,195.9c0,0-100.2,55.4-133.6,43.8c-33.4-11.6-2.6-9.2-42.6-15.1
						c-39.9-6-29.1,16.8-46.7-6.1c-17.6-22.9-53.4-151.2-43.7-178.9S1659.1,851.3,1659.1,851.3z"/>
					<path class="st32" d="M1999.7,713.2l-109.2,42.3l-82.8-27.8l-5.8-57.7c0,0,62-45,113.1-36c51.1,9,63.2-0.8,72.2,14.2
						C1996.2,663.2,1999.7,713.2,1999.7,713.2z"/>
				</g>
				<g class="st1">
					<defs>
						<path id="SVGID_15_" d="M1780.9,1058.7l9.3-40.6c0,0-110.5-132.4-112.2-131c-1.7,1.4-219.7,32.1-219.7,32.1l-81.1,231.9
							l376.7,3.7L1780.9,1058.7z"/>
					</defs>
					<use xlink:href="#SVGID_15_"  style="overflow:visible;fill:#CCFFF4;"/>
					<clipPath id="SVGID_16_">
						<use xlink:href="#SVGID_15_"  style="overflow:visible;"/>
					</clipPath>
					<path class="st33" d="M1780.9,1058.7l9.3-40.6c0,0-110.5-132.4-112.2-131c-1.7,1.4-219.7,32.1-219.7,32.1l-81.1,231.9
						l376.7,3.7L1780.9,1058.7z"/>
					<path class="st34" d="M1636.1,946l-12.3,132.3l-220.2-42c0,0,24.8-123.8,43.8-137.3s128.1-42.9,134.1-38.2
						C1587.7,865.6,1636.1,946,1636.1,946z"/>
					<path class="st35" d="M1715.4,817.2l-51.7,87l17.7,16l117.8,106c0,0-23.7-157.8-41.4-177.4s-17.7-21-20.3-22.9
						C1734.9,823.9,1715.4,817.2,1715.4,817.2z"/>
					<path class="st35" d="M1828.3,1011.4l-14.7,26.9l-23.4-20.2l-166.3,60.2c0,0-20.3,63.6-21.4,64.5c-1.2,0.9,67.2,18.2,103.1,1.3
						s77.9-23.5,86.2-39s3.9-3.2,14.2-24.1C1816.3,1060,1855.6,1051,1828.3,1011.4z"/>
					<path class="st35" d="M1466.5,932.9l-59,127.4c0,0-37.6-174.1-13.1-197.6c24.6-23.5,7.7-45.4,40.4-28.3
						c32.7,17.1,51.6,32.2,53.4,36.8C1490.1,875.8,1466.5,932.9,1466.5,932.9z"/>
					<polygon class="st36" points="1678,887.1 1681.4,920.1 1636.1,946 1466.5,932.9 1449.3,904.1 1673.9,822.9 					"/>
				</g>
				<g class="st1">
					<defs>
						<polygon id="SVGID_17_" points="1602.3,1141.8 1578,1084.5 1412.1,1035.2 1222.8,1066.9 1174.3,1164.2 						"/>
					</defs>
					<clipPath id="SVGID_18_">
						<use xlink:href="#SVGID_17_"  style="overflow:visible;"/>
					</clipPath>
					<polygon class="st37" points="1602.3,1141.8 1578,1084.5 1412.1,1035.2 1222.8,1066.9 1174.3,1164.2 					"/>
					<path class="st38" d="M1440.3,1046.8l5.8,52.1l13.1,96c0,0,148-39.5,147.8-50s6.8-79.3-14.6-107.1
						c-21.4-27.8-7.4-56.2-50.3-35.3C1499.3,1023.2,1440.3,1046.8,1440.3,1046.8z"/>
					<path class="st39" d="M1578,1084.5l-131.8,14.4l-254.5-35.9c0,0-54.3-100.8,78.8-100.3s117.5-24.8,189.4,4.4
						c71.9,29.3,92.8,37.8,92.8,37.8S1608.6,1053.2,1578,1084.5z"/>
				</g>
				<path class="st24" d="M1955.6,1136.3c0.7-4.8-18.4-66.6-18.4-66.6l-159.5-23.5l-112.6,22.2l-62.3,77.6l168.7,26.4L1955.6,1136.3
					z"/>
				<g class="st1">
					<defs>
						<polygon id="SVGID_19_" points="1078.2,1138.2 1104.9,1080 1161.6,1070.6 1218.2,1087.1 1283.1,1146.4 						"/>
					</defs>
					<clipPath id="SVGID_20_">
						<use xlink:href="#SVGID_19_"  style="overflow:visible;"/>
					</clipPath>
					<polygon class="st40" points="1078.2,1138.2 1104.9,1080 1161.6,1070.6 1218.2,1087.1 1283.1,1146.4 					"/>
					<path class="st41" d="M1178.4,1068.8l3.3,35.9l22.8,82.4c0,0-146.9-5.1-151.6-28.1c-4.7-22.9-25.2,12,0.3-40
						c25.5-52,27.1-77.9,52.9-81.6c25.8-3.7,45.3-1.8,46-0.2C1152.8,1038.7,1178.4,1068.8,1178.4,1068.8z"/>
					<path class="st42" d="M1103.7,1081l78,23.7l69.2-33.6c0,0,43.4-52.2-29-56.6c-72.5-4.4-92.2-12-113.5,1.7
						c-21.3,13.7-43.3,25.7-40.5,39.3C1070.8,1069,1103.7,1081,1103.7,1081z"/>
				</g>
			</g>
			<g>
				<defs>
					<path id="SVGID_21_" d="M2214,984c-4.7-25-11.9-55.2-35.4-104.5c-21.8-45.6-69-29.2-168.4,11.6l2.8-162.3l-41.1-31l-76.5-20
						l-90.8,19.6L1677.1,851c-2.7-4.6-7.8-7.6-13.7-7.5c-3.3,0.1-6.3,1.1-8.8,2.9c-3.7,2.1-6.3,5.8-6.9,10.2l-2.1,16.9
						c-3.9-3.1-8.7-5.1-13.9-5.8l2.6-5.9c2.1-2.5,3.3-5.8,3.2-9.2c-0.2-7.9-7.2-14.2-15.6-14.1c-3.6,0.1-6.9,1.3-9.4,3.4
						c-0.4-5.4-4-9.9-9-11.8c-2.1-1-4.5-1.5-7-1.5c-8.4,0.2-15,6.8-14.8,14.7c0.1,2.3,0.7,4.4,1.7,6.3l1.1,28.8
						c-0.9,0.4-1.7,0.9-2.5,1.4c-2.7-6.9-8.8-12.2-16.4-13.9l-0.8-20.8c0.5-1.5,0.7-3,0.7-4.6c-0.2-7.9-7.2-14.2-15.6-14.1
						c-8.4,0.2-15,6.8-14.8,14.7c0,0.7,0.1,1.3,0.2,2l0.1,1.9c-0.5,0-1.1-0.1-1.6,0c-8.4,0.2-15,6.8-14.8,14.7
						c0,0.5,0.1,1.1,0.1,1.6c-0.8,0.3-1.5,0.7-2.3,1l-14.9-30.3c-1.3-6.9-7.7-12-15.3-11.9c-8.4,0.2-15,6.8-14.8,14.7
						c0.1,3.3,1.4,6.3,3.4,8.7l14.6,29.6c-2.3,2.2-4.1,4.8-5.2,7.7c-0.2-0.9-0.5-1.7-1-2.6l-20.5-41.5c-3.4-7-12.2-10-19.6-6.8
						c-7.4,3.2-10.5,11.5-7.1,18.5l5.9,12c-1.4,0.5-2.7,1.1-3.8,1.9c-0.2,0.1-0.4,0.3-0.6,0.4c-1.5-0.3-3.1-0.4-4.6-0.3
						c-0.5,0-0.9,0.1-1.4,0.1l-10.4-28.5c-1.1-3-3.2-5.5-5.8-7.1c-2.5-1.6-5.6-2.6-8.9-2.5c-8.4,0.2-15,6.8-14.8,14.7
						c0.1,3.4,1.4,6.5,3.6,8.9l4.9,13.5l-4.6-4c-3-2.7-6.9-3.8-10.7-3.6l-3.8-10.5c-2.6-7.3-11-11.2-18.7-8.7
						c-7.7,2.5-11.8,10.4-9.1,17.7l13.5,37.3c-5.6,1.6-10.4,5.3-13.3,10l-23.2-11.5c-2.8-2.7-6.8-4.3-11.1-4.2
						c-8.4,0.2-15,6.8-14.8,14.7c0.2,6.5,4.8,11.8,11.1,13.5l42.5,21.1l-24.8-6.1c-7.9-1.9-15.9,2.6-17.9,10
						c-0.7,2.7-0.6,5.4,0.3,7.8l-28.2-2.1c-1.5-0.4-3.1-0.7-4.8-0.6c-8.4,0.2-15,6.8-14.8,14.7c0,0.6,0.1,1.3,0.2,1.9
						c-3-0.4-5.9-0.9-8.7-1.4c-81.2-16-128.6-1.3-190,15.2c1.2-1.9,1.9-4.1,2.1-6.5c0.5-7.9-5.9-14.8-14.3-15.2
						c-4.3-0.2-8.3,1.2-11.2,3.8l-23.5,10.7c-2.8-4.8-7.3-8.6-12.9-10.4l14.8-36.8c2.9-7.2-0.9-15.2-8.5-18c-7.6-2.7-16.1,0.8-19,8
						l-4.2,10.3c-3.8-0.4-7.7,0.7-10.8,3.2l-4.7,3.9l5.4-13.3c2.2-2.3,3.7-5.4,3.9-8.8c0.5-7.9-5.9-14.8-14.3-15.2
						c-3.3-0.2-6.4,0.6-9,2.2c-2.7,1.5-4.9,3.9-6.1,6.9L945.6,926c-0.5-0.1-0.9-0.1-1.4-0.1c-1.6-0.1-3.1,0-4.6,0.2
						c-0.2-0.1-0.4-0.3-0.6-0.4c-1.1-0.8-2.4-1.5-3.7-2l6.3-11.8c3.7-6.8,0.8-15.2-6.5-18.7c-7.2-3.5-16.1-0.8-19.8,6.1L893.4,940
						c-0.4,0.8-0.8,1.7-1.1,2.6c-1.1-3-2.7-5.7-4.9-7.9l15.6-29c2.1-2.3,3.5-5.3,3.7-8.6c0.5-7.9-5.9-14.8-14.3-15.2
						c-7.6-0.4-14.2,4.5-15.7,11.3l-16,29.7c-0.7-0.4-1.5-0.8-2.2-1.1c0.1-0.5,0.2-1,0.2-1.6c0.5-7.9-5.9-14.8-14.3-15.2
						c-0.5,0-1.1,0-1.6,0l0.1-1.9c0.1-0.7,0.2-1.3,0.3-2c0.5-7.9-5.9-14.8-14.3-15.2c-8.4-0.5-15.6,5.6-16.1,13.5
						c-0.1,1.6,0.1,3.2,0.5,4.6l-1.5,20.7c-7.6,1.5-14,6.6-16.9,13.4c-0.8-0.6-1.6-1.1-2.5-1.5l2.1-28.7c1.1-1.8,1.8-4,1.9-6.2
						c0.5-7.9-5.9-14.8-14.3-15.2c-2.5-0.1-4.9,0.3-7.1,1.2c-5,1.8-8.8,6.2-9.4,11.5c-2.5-2.1-5.7-3.5-9.3-3.7
						c-8.4-0.5-15.6,5.6-16.1,13.5c-0.2,3.5,0.9,6.7,2.9,9.3l2.4,6c-5.3,0.5-10.1,2.3-14.1,5.3l-1.5-17c-0.4-4.4-2.9-8.1-6.5-10.4
						c-2.4-1.8-5.4-3-8.7-3.2c-8.4-0.5-15.6,5.6-16.1,13.5c-0.2,3.2,0.8,6.3,2.5,8.8l0.5,6c-29.8-6.5-62-5.9-99-2.4
						c0-1.7-0.4-3.4-1-5c-1.2-3-3.4-5.7-6.6-7.4l-27.6-14.7l51.3,15.6c2.4,1.8,5.3,2.9,8.5,3.1c8.4,0.5,15.6-5.6,16.1-13.5
						c0.4-7-4.5-13.2-11.5-14.8l-66.9-20.3c0.1-0.4,0.2-0.8,0.2-1.2l16.4-0.6c0.9,0.2,1.8,0.4,2.8,0.4c8.4,0.5,15.6-5.6,16.1-13.5
						c0.5-7.9-5.9-14.8-14.3-15.2c-1.7-0.1-3.3,0.1-4.8,0.5l-28.3,1.1c0.9-2.4,1.2-5.1,0.6-7.8c-1.8-7.5-9.6-12.3-17.6-10.6l-25,5.2
						l43.2-19.6c6.3-1.5,11.1-6.7,11.5-13.1c0.5-7.9-5.9-14.8-14.3-15.2c-4.3-0.2-8.3,1.2-11.2,3.8l-23.5,10.7
						c-2.8-4.8-7.3-8.6-12.9-10.4l14.8-36.8c2.9-7.2-0.9-15.2-8.5-18c-7.6-2.7-16.1,0.8-19,8l-4.2,10.3c-3.8-0.4-7.7,0.7-10.8,3.2
						l-4.7,3.9l5.4-13.3c2.2-2.3,3.7-5.4,3.9-8.8c0.5-7.9-5.9-14.8-14.3-15.2c-3.3-0.2-6.4,0.6-9,2.2c-2.7,1.5-4.9,3.9-6.1,6.9
						l-11.3,28.2c-0.5-0.1-0.9-0.1-1.4-0.1c-1.6-0.1-3.1,0-4.6,0.2c-0.2-0.1-0.4-0.3-0.6-0.4c-1.1-0.8-2.4-1.5-3.7-2l6.3-11.8
						c3.7-6.8,0.8-15.2-6.5-18.7c-7.2-3.5-16.1-0.8-19.8,6.1l-21.9,40.8c-0.4,0.8-0.8,1.7-1.1,2.6c-1.1-3-2.7-5.7-4.9-7.9l15.6-29
						c2.1-2.3,3.5-5.3,3.7-8.6c0.5-7.9-5.9-14.8-14.3-15.2c-7.6-0.4-14.2,4.5-15.7,11.3l-16,29.7c-0.7-0.4-1.5-0.8-2.2-1.1
						c0.1-0.5,0.2-1,0.2-1.6c0.5-7.9-5.9-14.8-14.3-15.2c-0.5,0-1.1,0-1.6,0l0.1-1.9c0.1-0.7,0.2-1.3,0.3-2
						c0.5-7.9-5.9-14.8-14.3-15.2c-8.4-0.5-15.6,5.6-16.1,13.5c-0.1,1.6,0.1,3.2,0.5,4.6l-1.5,20.7c-7.6,1.5-14,6.6-16.9,13.4
						c-0.8-0.6-1.6-1.1-2.5-1.5l2.1-28.7c1.1-1.8,1.8-4,1.9-6.2c0.5-7.9-5.9-14.8-14.3-15.2c-2.5-0.1-4.9,0.3-7.1,1.2
						c-5,1.8-8.8,6.2-9.4,11.5c-2.5-2.1-5.7-3.5-9.3-3.7c-2.6-0.1-5.1,0.3-7.4,1.3L127.1,597.7L19,574.7l-92.5,17.1l-50.4,29.4
						l-5.1,297c-130.5,0.3-392.3,7.9-499,60.3c-59,29-74.5,39.5-71.4,45.1c-5.7,12.1,47.6,5.8,54.6,38.7
						c10.7,50,802.4,101.1,942.2,102.5c139.8,1.4,1446.3,26,1765.2,52.3c156.4,12.9,196.9-36.2,197.1-92.4
						C2261.4,1065.4,2216.5,997,2214,984z"/>
				</defs>
				<clipPath id="SVGID_22_">
					<use xlink:href="#SVGID_21_"  style="overflow:visible;"/>
				</clipPath>
				<radialGradient id="SVGID_23_" cx="460.0027" cy="-14.9802" r="1121.8912" gradientUnits="userSpaceOnUse">
					<stop  offset="0" style="stop-color:#290B63"/>
					<stop  offset="1" style="stop-color:#290B63;stop-opacity:0"/>
				</radialGradient>
				<path class="st43" d="M801,461c0,0-806-284-864-270s-294,260-286,370s-186,398,186,512s1276,146,1308,142s662,114,778,68
					s398-156,348-288s-44-254-208-354s-302-166-466-198S801,461,801,461z"/>
				<radialGradient id="SVGID_24_" cx="-238.3496" cy="630.0859" r="398.9913" gradientUnits="userSpaceOnUse">
					<stop  offset="0" style="stop-color:#290B63"/>
					<stop  offset="1" style="stop-color:#290B63;stop-opacity:0"/>
				</radialGradient>
				<path class="st44" d="M801,461c0,0-806-284-864-270s-294,260-286,370s-186,398,186,512s1276,146,1308,142s662,114,778,68
					s398-156,348-288s-44-254-208-354s-302-166-466-198S801,461,801,461z"/>
				
					<radialGradient id="SVGID_25_" cx="2117" cy="750.0798" r="1034.1805" gradientTransform="matrix(1.158223e-002 0.9999 -0.5881 6.811532e-003 2533.574 -1371.8873)" gradientUnits="userSpaceOnUse">
					<stop  offset="0" style="stop-color:#290B63"/>
					<stop  offset="1" style="stop-color:#290B63;stop-opacity:0"/>
				</radialGradient>
				<path class="st45" d="M801,461c0,0-806-284-864-270s-294,260-286,370s-186,398,186,512s1276,146,1308,142s662,114,778,68
					s398-156,348-288s-44-254-208-354s-302-166-466-198S801,461,801,461z"/>
			</g>
		</g>
	</g>
</g>
</svg>
