<?xml version="1.0" encoding="utf-8"?>
<!-- Generator: Adobe Illustrator 22.0.1, SVG Export Plug-In . SVG Version: 6.00 Build 0)  -->
<svg version="1.1" id="seaweeds" xmlns="http://www.w3.org/2000/svg" xmlns:xlink="http://www.w3.org/1999/xlink" x="0px" y="0px"
	 viewBox="0 0 1920 1039.9" style="enable-background:new 0 0 1920 1039.9;" xml:space="preserve">
<style type="text/css">
	.st0{clip-path:url(#SVGID_2_);}
	.st1{fill:#042189;}
	.st2{fill:#00428A;}
	.st3{fill:#022996;}
	.st4{fill:#0152A7;}
	.st5{fill:#025BB7;}
	.st6{fill:#092A9F;}
	.st7{fill:#228CC4;}
	.st8{fill:#0D50AB;}
	.st9{fill:#237DAF;}
	.st10{fill:#043BA6;}
	.st11{fill:#0838AF;}
	.st12{fill:#0E97E2;}
	.st13{fill:#2EBCF0;}
	.st14{fill:#002D68;}
	.st15{fill:#093281;}
	.st16{fill:#093993;}
	.st17{fill:#032F8B;}
	.st18{fill:#1542A5;}
	.st19{fill:#165DBC;}
	.st20{fill:#041E63;}
	.st21{fill:#05237E;}
	.st22{fill:#04268E;}
	.st23{fill:#09309F;}
	.st24{fill:#02298E;}
	.st25{fill:#0538A5;}
	.st26{fill:#093EB1;}
	.st27{clip-path:url(#SVGID_2_);fill:url(#SVGID_3_);}
	.st28{clip-path:url(#SVGID_2_);fill:url(#SVGID_4_);}
	.st29{display:none;clip-path:url(#SVGID_2_);fill:url(#SVGID_5_);}
</style>
<g>
	<defs>
		<rect id="SVGID_1_" x="-0.1" width="1920.1" height="1039.9"/>
	</defs>
	<clipPath id="SVGID_2_">
		<use xlink:href="#SVGID_1_"  style="overflow:visible;"/>
	</clipPath>
	<g class="st0">
		<path class="st1" d="M2.5,547.3c0,0,4.4-18,26-19.2c21.5-1.2,55.3,3.6,94-25.9c0,0-8.3,19.4-23.1,27.3c0,0,5.4,6.1,17-3.3
			c0,0-10.3,18.8-42.5,24.6s-49.8-15.7-70.8,4.3C-18,575.1,2.5,547.3,2.5,547.3z"/>
		<path class="st1" d="M-28.1,587.7c0,0,9.5-24,30.3-21.8c20.8,2.3,50.1,1.5,57-11.2c0,0-6.9,38.6-37.6,57
			c-30.7,18.4-52.9-11.9-52.9-11.9L-28.1,587.7z"/>
		<path class="st1" d="M88.1,341.4l-1.4,3.5c0,0,19.5,3.2,38-13c18.5-16.3,32.9-61.6,62.4-53.8c0,0,2.7,35.7-34.1,62.8
			s-70.9,9.6-70.9,9.6l1.7-10.9L88.1,341.4z"/>
		<path class="st1" d="M62.7,200.5c0,0-29.8,38.7-16.8,67.7c13,28.9,43.3,37.9,40.2,56.3c-3.1,18.4,12.7-15.9,12-18.1
			c-0.7-2.2-2.1-11.4-2.1-11.4s-13.5-8.4-10.2-24.4C89.1,254.5,78.6,213.2,62.7,200.5z"/>
		<path class="st3" d="M-79.2,1106.4c1.6,0,3.2-0.4,4.7-1.4c4.2-2.6,5.5-8.1,2.9-12.3l0,0c-0.1-0.2-13.2-21.6-24.1-65.2
			c-10.1-40.3-20.6-108.2-12.6-203.2c6.6-78.6,53.4-162.8,103-252c65.8-118.5,133.9-241.1,107.6-358.2c-1.1-4.8-5.9-7.8-10.7-6.8
			c-4.8,1.1-7.8,5.9-6.8,10.7c24.8,110.5-41.6,230-105.8,345.6c-50.5,90.9-98.2,176.8-105.2,259.2c-8.3,98.1,2.7,168.4,13.3,210.1
			c11.7,45.8,25.4,68.2,26,69.1C-85.1,1104.9-82.2,1106.4-79.2,1106.4z"/>
		<path class="st1" d="M-48.5,448L-48.5,448L-48.5,448L-48.5,448L-48.5,448c-0.2,19.9,6.8,55.6,27.9,64.8c6.6,3.3,26.6,4.6,26.6,4.6
			s3.6-20.1,1.7-27.4C3.5,467.6-29.2,452.5-48.5,448z"/>
		<path class="st1" d="M-20.5,401.6L-20.5,401.6L-20.5,401.6L-20.5,401.6L-20.5,401.6c-0.2,19.9,6.8,55.6,27.9,64.8
			C14,469.7,34,471,34,471s3.6-20.1,1.7-27.4C31.5,421.2-1.2,406.1-20.5,401.6z"/>
		<path class="st1" d="M135.5,374.9L135.5,374.9L135.5,374.9L135.5,374.9L135.5,374.9c-19.9-0.2-55.6,6.8-64.8,27.9
			c-3.3,6.6-4.6,26.6-4.6,26.6s20.1,3.6,27.4,1.7C115.9,426.9,131,394.2,135.5,374.9z"/>
		<path class="st1" d="M94.2,485.5L94.2,485.5L94.2,485.5L94.2,485.5L94.2,485.5C80.3,479.2,53,473,39.9,485
			c-4.4,3.6-11.5,17.3-11.5,17.3s13,8.8,18.7,9.8C64.2,515.9,85,497.7,94.2,485.5z"/>
		<path class="st6" d="M-75.9,613.5c3.8,15.2,13.1,26.7,13.1,26.7s5-10.2,5.2-10.4c-25-50.5,14.6-31.6,52.4-44.1
			c13.7-4.5,24.6-15.5,31.2-28.2c3.5-6.8,7.5-16.2,7.1-24.1c0-0.2,0-0.5,0-0.7c-1.1,2.3-1.7,4.9-3,7.1c-2.2,3.8-5.8,6.6-9.4,9.1
			c-7.8,5.4-16.3,10-25.4,12.6c-10.9,3.1-22.4,3.4-33.7,5c-13.6,1.9-31.8,6.5-36.8,21C-78.4,596.5-77.9,605.5-75.9,613.5z"/>
		<path class="st6" d="M-14.3,517.1c4.5,10.1,10.3,16.1,10.3,16.1l5.6-10c0,0-22.8-11-9.4-39.1c13.4-28.1,39-8.3,80.5-34.7
			c37.2-23.6,31.4-58.6,29.8-65.6c-0.2-0.8-0.3-1.3-0.3-1.3c-1.3,12.6-10.1,33.6-28.1,48.9C56.1,446.6-6,453-16.1,482.1
			C-20.8,495.8-18.3,508-14.3,517.1z"/>
		<path class="st6" d="M8.1,433.4c0.3,1.3,0.6,2.5,1,3.6c6.8,19,31.3,14.3,32.5,14l10.5-5.4c0,0-35.4,5.9-29.1-17.5
			c6.3-23.4,34.1-30.9,71.4-54.8c37.3-23.9,37.6-75,37.6-75c-6.5,26.9-33.3,47.8-66.5,63.9C32.4,378.1,3.1,410.2,8.1,433.4z"/>
		<path class="st6" d="M62,335.6c1.3,3.4,3,6.8,4.9,10c3.2,5.7,7,11.1,11.1,16.2c1.5,1.8,3.6,5.5,5.8,6.6c0.6,0.3,0.9-6.4,0.9-6.4
			c0-1-1.9-3.4-2.3-4.3c-1.7-3.6-3.2-7.2-4.3-11c-2.4-8-3.4-17.4,0.9-24.9c3.4-5.9,9.5-9.6,15.3-12.8c6.7-3.7,13.8-6.9,20.3-11.1
			c12.4-8,21.4-19.3,27-32.8c1.8-4.3,4.5-8.2,4.3-13.2c0,0.3-0.1,0.6-0.3,1c-0.9,1.6-3.3,3.9-4,4.7c-1.6,1.9-3.4,3.6-5.3,5.3
			c-3.8,3.3-8.1,6-12.6,8c-9.7,4.3-20.9,5.2-30.9,8.9c-4.5,1.6-9,3.6-13.1,6.1c-7.1,4.3-13.5,10.2-17.3,17.6
			C56.7,314.2,57.9,325.2,62,335.6z"/>
		<path class="st8" d="M-73.7,662.4c-3.2-4.6-6.2-9-0.9-17.1c9.6-14.8,29.1,4.7,49.2,10c19.8,5.2,31.5-14.4,31.9-14.9
			c-10.4,4.6-15.7,0.3-15.7,0.3c12.7-4.9,19.3-14.3,21.9-18.7c0.8-1.4,1.2-2.3,1.2-2.4c-34.7,25.1-77.2-5.1-94.2,15.2
			c-14.8,17.7-2.2,34.2,1.5,38.3C-77.2,669.4-75,665.1-73.7,662.4z"/>
		<path class="st3" d="M96.8,265.3c0,0,50.7-38.4,50.8-84.2s-9.9-86.5,9.5-111.6c0,0-41.5,32.2-47.1,61.5s-2.3,56.8-2.3,56.8
			s2.8,18.6-9.4,41.5S96.8,265.3,96.8,265.3z"/>
		<path class="st3" d="M106.4,232.7c0,0,1.5-34.7-6.9-52.1s-15.6-33.8-7.9-49.8c0,0-26.4,29.1-17.1,62.2S104.5,288.2,106.4,232.7z"
			/>
		<path class="st3" d="M106.7,243.9c0,0,21.3-27.4,39-35.3s33.8-15.7,38.3-32.9c0,0,1.3,39.3-27.2,58.5S72.3,287.4,106.7,243.9z"/>
		<g>
			<path class="st6" d="M113.8,392.9l-12.6,8.4c-4.2,2.8-8.3,5.7-12.4,8.6c-4.1,2.9-8.1,5.9-12,9.1c-2,1.6-3.8,3.3-5.7,5l-2.7,2.6
				c-0.8,1-1.6,1.9-2.5,2.9c2.6-4.4,6.2-8.1,9.9-11.5c0.9-0.9,1.9-1.7,2.9-2.5c1-0.8,1.9-1.6,2.9-2.4c2-1.6,4-3.1,6.1-4.6
				c4.1-2.9,8.4-5.7,12.7-8.3C104.8,397.5,109.2,395.1,113.8,392.9z"/>
			<path class="st6" d="M170.5,300c-2.5,6.6-6.2,12.7-10.5,18.3c-2.1,2.8-4.5,5.5-7,8c-2.5,2.5-5.2,4.8-8,7
				c-2.8,2.2-5.8,4.1-8.8,5.9c-3.1,1.8-6.3,3.3-9.5,4.7c-6.6,2.7-13.5,4.4-20.5,5.2c6.8-1.6,13.5-3.8,19.8-6.7
				c6.3-3,12.3-6.5,17.7-10.8c5.5-4.2,10.5-9.1,15-14.4c2.2-2.7,4.4-5.4,6.3-8.3C167.1,306.1,168.9,303.1,170.5,300z"/>
			<path class="st6" d="M83.3,299.8c-5.2-4.9-9.6-10.5-13.3-16.7c-0.5-0.8-0.9-1.6-1.3-2.3c-0.4-0.8-0.9-1.6-1.2-2.4l-1.2-2.4
				c-0.4-0.8-0.7-1.7-1-2.5l-0.5-1.3c-0.2-0.4-0.3-0.9-0.4-1.3l-0.8-2.6c-0.2-0.9-0.4-1.8-0.6-2.6l-0.3-1.3
				c-0.1-0.4-0.1-0.9-0.2-1.3c-1-7.1-1.3-14.2-1.3-21.4c0-7.1,0.4-14.2,1.5-21.3c-0.3,7.1-0.3,14.2-0.1,21.3
				c0.1,3.5,0.3,7.1,0.6,10.6c0.2,1.8,0.3,3.5,0.4,5.3c0.1,0.9,0.2,1.8,0.3,2.6l0.4,2.6c0.1,0.4,0.1,0.9,0.2,1.3l0.3,1.3
				c0.2,0.8,0.4,1.7,0.6,2.5c0.5,1.7,1,3.4,1.6,5c1.1,3.3,2.7,6.5,4.3,9.6c1.7,3.1,3.5,6.1,5.6,9C78.8,294.3,80.9,297.1,83.3,299.8z
				"/>
			<path class="st6" d="M34.2,471.4c-3.9-3.8-7.4-8-10.9-12.1c-3.5-4.1-7-8.3-10.4-12.6c-3.4-4.2-6.8-8.5-10-12.9
				c-3.3-4.3-6.5-8.7-9.5-13.3l5.3,6.2l5.3,6.2c3.5,4.2,6.9,8.4,10.3,12.6c3.4,4.2,6.8,8.5,10.1,12.8l4.9,6.5
				C30.9,467.1,32.5,469.3,34.2,471.4z"/>
			<path class="st6" d="M78.5,489.2c-8.5,2.1-17.1,3.9-25.7,5.9c-4.3,0.9-8.5,1.9-12.8,3c-2.1,0.6-4.2,1.1-6.3,1.8
				c-1,0.3-2.1,0.7-3.1,1.1c-1,0.4-2,0.9-2.8,1.7c0.6-0.9,1.6-1.6,2.5-2.1c1-0.6,2-1,3-1.5c2-0.9,4.1-1.6,6.2-2.3
				c4.2-1.4,8.5-2.4,12.8-3.4c4.3-0.9,8.6-1.8,13-2.5C69.8,490.2,74.1,489.6,78.5,489.2z"/>
			<path class="st6" d="M6.5,518.1c-3.7-4.7-7.4-9.4-11-14.2l-10.8-14.3c-3.6-4.8-7.2-9.6-10.8-14.3c-0.9-1.2-1.8-2.4-2.7-3.5
				c-0.9-1.2-1.8-2.4-2.8-3.5l-1.4-1.8c-0.5-0.6-1-1.1-1.5-1.7c-1-1.2-2-2.2-3.1-3.3l1.8,1.4c0.6,0.5,1.1,1,1.7,1.5
				c0.5,0.5,1.1,1,1.6,1.6l1.6,1.6c1,1.1,2,2.2,3,3.3c1,1.1,2,2.3,2.9,3.4c3.9,4.6,7.5,9.3,11.1,14.1c3.6,4.8,7.1,9.6,10.5,14.6
				C0,508,3.3,513,6.5,518.1z"/>
			<path class="st6" d="M82.8,533.5c-5.6,2.2-11.5,3.8-17.5,4.8c-6,1.1-12.1,1.4-18.1,1.2c-1.5,0-3-0.3-4.6-0.4l-4.5-0.5
				c-3-0.3-6-0.5-8.9-0.7c-3-0.1-6-0.1-8.9,0.3c-3,0.3-5.9,1.2-8.4,2.9c2.3-2,5.2-3.1,8.2-3.7c3-0.6,6-0.8,9.1-0.8
				c3,0,6.1,0.2,9.1,0.4c1.5,0.1,3,0.3,4.5,0.4c1.5,0.1,3,0.3,4.4,0.3c1.5,0.1,3,0.1,4.5,0.1c0.7,0,1.5,0,2.2,0l2.2-0.1
				c1.5,0,3-0.2,4.5-0.3c1.5-0.2,3-0.3,4.5-0.5c3-0.4,5.9-0.8,8.9-1.4C77,534.9,79.9,534.3,82.8,533.5z"/>
			<path class="st8" d="M33.6,577.3c0,0.3-0.3,0.6-0.4,0.8c-0.2,0.3-0.4,0.5-0.5,0.8c-0.4,0.5-0.8,1-1.2,1.5c-0.8,1-1.7,1.9-2.5,2.8
				c-1.8,1.8-3.6,3.5-5.6,5c-3.9,3.1-8.2,5.8-12.9,7.8c-4.6,2-9.6,3.3-14.7,3.6c-5.1,0.3-10.2-0.7-14.7-2.7
				c4.8,1.3,9.8,1.7,14.6,1.3c4.9-0.5,9.6-1.9,14.1-3.8c4.5-1.9,8.7-4.4,12.7-7.3c2-1.4,4-2.9,5.8-4.5c0.9-0.8,1.9-1.6,2.8-2.5
				c0.4-0.4,0.9-0.9,1.3-1.3c0.2-0.2,0.4-0.4,0.6-0.7C33.3,577.8,33.6,577.6,33.6,577.3z"/>
			<path class="st10" d="M134.4,92.2c-2.9,12.6-5,25.4-6.2,38.3c-0.6,6.4-0.9,12.9-0.8,19.4c0.1,3.2,0.3,6.4,0.4,9.7
				c0.1,3.3,0.1,6.5,0,9.8c-0.5,13-2.2,26-5.2,38.6c-1.5,6.3-3.4,12.6-5.9,18.6c-1.3,3-2.7,6-4.4,8.8c-1.8,2.8-3.9,5.5-6.9,7.3
				l-1.2,0.7l0-1.4c0-7.4-0.6-14.8-1.7-22.2c-0.5-3.7-1.3-7.3-2.3-10.8l-0.8-2.6l-1-2.6c-0.3-0.9-0.8-1.7-1.2-2.5l-0.6-1.2l-0.8-1.1
				c-0.9-1.5-2.2-3-3.1-4.7c-1-1.6-1.8-3.3-2.6-5c-1.5-3.4-2.6-7.1-3.5-10.7c-0.8-3.7-1.4-7.4-1.8-11.1c-0.4-3.7-0.5-7.5-0.3-11.2
				c-0.1,3.7,0.2,7.5,0.7,11.1c0.5,3.7,1.1,7.4,2.1,11c0.9,3.6,2.1,7.1,3.7,10.5c0.8,1.7,1.6,3.3,2.6,4.9c0.4,0.8,1,1.5,1.6,2.3
				c0.5,0.7,1.1,1.5,1.6,2.3l0.8,1.2l0.7,1.3c0.4,0.8,0.9,1.7,1.2,2.6l1.1,2.6l0.9,2.7c1.1,3.6,1.9,7.3,2.5,11
				c1.2,7.4,1.8,14.9,1.8,22.4l-1.2-0.7c2.6-1.6,4.6-4.1,6.3-6.8c1.7-2.7,3-5.6,4.3-8.6c2.4-5.9,4.2-12.2,5.8-18.4
				c3-12.5,4.8-25.4,5.4-38.3c0.1-3.2,0.1-6.4,0.1-9.7c-0.1-3.2-0.3-6.5-0.3-9.7c0-6.5,0.4-13,1.1-19.5c0.7-6.5,1.7-12.9,2.9-19.2
				C131.3,104.8,132.7,98.5,134.4,92.2z"/>
			<path class="st10" d="M171.6,200.3c-3.1,6-7.3,11.4-12.3,16c-5,4.6-10.7,8.4-17,11.1c-3.1,1.3-6.4,2.3-9.6,3.3
				c-1.6,0.5-3.2,1-4.7,1.6c-1.6,0.6-3.1,1.2-4.7,1.8c-6.2,2.5-12.4,5.1-18.4,8c5.7-3.5,11.7-6.6,17.9-9.3c3.1-1.4,6.2-2.6,9.4-3.7
				c3.2-1.1,6.4-2.1,9.4-3.4c6-2.6,11.7-6.2,16.8-10.5C163.4,210.9,167.9,205.9,171.6,200.3z"/>
			<g>
				<path class="st11" d="M8.1,433.4c0.3,1.3,0.6,2.5,1,3.6c0-0.7-0.1-1.5-0.1-2.2c-2.5-46.9,66.8-72,94.3-92s28.7-44.4,28.7-44.4
					c-6.5,26.9-33.3,47.8-66.5,63.9C32.4,378.1,3.1,410.2,8.1,433.4z"/>
				<path class="st11" d="M62,335.6c-12.5-55.1,45.4-56,62.8-62.9c14.6-5.8,19.5-16.5,20.7-19.8c-0.9,1.6-3.3,3.9-4,4.7
					c-1.6,1.9-3.4,3.6-5.3,5.3c-3.8,3.3-8.1,6-12.6,8c-9.7,4.3-20.9,5.2-30.9,8.9c-4.5,1.6-9,3.6-13.1,6.1
					c-7.1,4.3-13.5,10.2-17.3,17.6C56.7,314.2,57.9,325.2,62,335.6z"/>
				<path class="st11" d="M-15.6,513.1c-12.3-38,16.7-51.4,48.3-61.8C64.3,440.9,78,436.5,92,412.9c8.7-14.7,10.5-24,10.6-29.2
					c-0.2-0.8-0.3-1.3-0.3-1.3c0.3,0.9-0.4,2.8-0.6,3.7c-0.3,1.4-0.6,2.8-1,4.2c-0.9,3.2-2,6.3-3.3,9.4c-3.1,7.2-7.2,14-12.2,20.2
					c-3.9,4.9-8.3,9.7-13.5,13.2c-4,2.7-8.4,4.7-12.8,6.5c-13.2,5.4-27,9.3-40.2,14.7c-11,4.6-23.1,10.2-30.5,20
					c-1.8,2.3-3.2,4.9-4.2,7.7c-4.7,13.7-2.2,26,1.8,35C-14.6,515.9-15.1,514.6-15.6,513.1z"/>
				<path class="st11" d="M-75.9,613.5c0.1-1.2,0.1-2.6-0.1-4.2c-4.1-31,12.2-35.3,43.6-39.7c31.4-4.4,46.9-12.6,56.5-20.5
					c6.7-5.4,8.4-12,8.9-15.6c0-0.2,0-0.5,0-0.7c-1.1,2.3-1.7,4.9-3,7.1c-2.2,3.8-5.8,6.6-9.4,9.1c-7.8,5.4-16.3,10-25.4,12.6
					c-10.9,3.1-22.4,3.4-33.7,5c-13.6,1.9-31.8,6.5-36.8,21C-78.4,596.5-77.9,605.5-75.9,613.5z"/>
				<path class="st12" d="M-80,634.5c4-4.4,9-6.4,14.8-7c12.3-1.3,24.9,1.9,37.2,2.5c14.8,0.8,29.6-1.6,41.8-10.5
					c0,0.1-0.4,1-1.2,2.4c-4.1,4.2-15.2,12.4-39.4,10.2c-6.8-0.6-13.6-1.3-20.4-2c-6.9-0.6-14.1-1.8-21-0.4
					c-3.8,0.8-7.3,2.7-10.1,5.4c-10.5,10.2-9.5,27.1-0.5,37.8c0,0,0,0,0,0c-4.6-5.3-8-11.9-8.4-18.9
					C-87.7,646.9-84.8,639.7-80,634.5z"/>
				<path class="st11" d="M103.9,286.9c-0.1-0.5,0.9,3.5-15.3,12.3c-16.2,8.9-24.4,23.5-19,39.6c5.4,16,7.3,17.9,7.3,17.9
					c0,0,1.6-1,1.8-1.1c-2.4-5.5-4.5-11.1-6.3-16.8c-1.2-3.8-2.1-7.5-2-11.5c0.2-4.8,1.9-9.4,4.7-13.3c1.4-2,3-3.8,4.8-5.4
					c2-1.9,4.3-3.3,6.5-5c3.7-2.6,7.3-5.3,10.8-8.1C99.8,293.5,104.6,290.7,103.9,286.9z"/>
				<path class="st11" d="M89.7,365.5c0,0-23.5,15-35.5,22.7c-12,7.7-41.7,20.9-38.8,43.8c2.4,18.8,15.4,18.2,15.4,18.2l2.9-0.6
					c0,0-9.8-1.2-14-10.2c-4.2-9-3.2-22.6,11.7-33.7C46.3,394.5,89.3,369.3,89.7,365.5z"/>
				<path class="st11" d="M55.6,451.4c-2.1,1.6-4.5,2.7-7,3.7c-2.5,0.9-5,1.7-7.5,2.5c-2.5,0.7-5.1,1.3-7.7,1.9l-7.7,1.5
					c-5.1,1-10.2,2.1-15,4c-2.4,0.9-4.8,2-7,3.3c-0.6,0.3-1.1,0.7-1.6,1c-0.5,0.4-1.1,0.7-1.6,1.1c-0.5,0.4-1,0.8-1.5,1.2l-1.4,1.3
					c-1.8,1.8-3.5,3.7-5,5.9c-1.4,2.1-2.6,4.4-3.6,6.8c-0.9,2.4-1.6,4.9-2.1,7.4c-0.4,2.5-0.6,5.1-0.5,7.7l0.1,1.9l0.2,1.9
					c0.1,1.3,0.4,2.5,0.7,3.8c0.6,2.5,1.5,4.9,2.7,7.2c2.2,4.7,5.4,8.9,8.9,12.7l-0.7,0.6c-3.6-3.8-6.8-8.1-9.2-12.8
					c-1.2-2.4-2.1-4.9-2.8-7.4c-0.3-1.3-0.6-2.6-0.8-3.9l-0.3-2l-0.1-2c-0.1-2.7,0-5.3,0.5-7.9c0.5-2.6,1.2-5.2,2.1-7.7
					c1-2.5,2.2-4.8,3.7-7c1.5-2.2,3.2-4.2,5.1-6.1c1.9-1.8,4.1-3.4,6.3-4.8c2.3-1.4,4.7-2.5,7.2-3.4c5-1.9,10.1-3,15.3-4l7.7-1.4
					c2.5-0.5,5.1-1.1,7.6-1.8c2.5-0.7,5-1.5,7.4-2.4C50.6,453.1,53,452.2,55.6,451.4z"/>
			</g>
		</g>
	</g>
	<g class="st0">
		<path class="st14" d="M1035.3,1014.5c0,0-4.4-18-25.9-19.2c-21.4-1.2-55.1,3.6-93.7-25.8c0,0,8.3,19.3,23,27.3c0,0-5.4,6.1-17-3.3
			c0,0,10.3,18.8,42.4,24.6c32.1,5.8,49.6-15.7,70.6,4.3C1055.8,1042.3,1035.3,1014.5,1035.3,1014.5z"/>
		<path class="st14" d="M1065.8,1054.9c0,0-9.5-24-30.2-21.7c-20.7,2.3-50,1.5-56.8-11.2c0,0,6.9,38.5,37.5,56.9
			c30.6,18.4,52.8-11.8,52.8-11.8L1065.8,1054.9z"/>
		<path class="st15" d="M950,809.3l1.4,3.5c0,0-19.5,3.2-37.9-13c-18.4-16.2-32.8-61.5-62.3-53.6c0,0-2.7,35.6,34,62.7
			c36.7,27.1,70.7,9.5,70.7,9.5l-1.7-10.9L950,809.3z"/>
		<path class="st15" d="M975.3,668.7c0,0,29.7,38.6,16.8,67.5C979.2,765,948.9,774,952,792.3s-12.7-15.9-12-18
			c0.7-2.2,2.1-11.4,2.1-11.4s13.5-8.4,10.2-24.3S959.5,681.4,975.3,668.7z"/>
		<path class="st14" d="M1100.9,1123.5l0.9-3.9l1.9-0.7l0.7-4.1c0,0,0.4-0.7,1.2-1.9c0.4-6.3,1.9-17.5,8.1-28.7
			c9.3-17.1,17.4-27.2,15.8-42.2c-1.6-15,1.7-46.3,27.9-69.8c0,0,12.5,30,2.1,60.2c-9.1,26.2-38.3,41.8-46.3,70.4
			c3.9-4.6,8.9-9.7,14.6-13.5c13.7-9.2,15-26,33.1-38.7c12-8.1,30.4-10.6,30.4-10.6s-1.1,27.3-25.4,43.3
			c-24.4,16.1-31,1.3-50.4,39.4c20.8-3.1,43.8-16.3,58.4-24.2c16.6-9,47-11.3,47-11.3s-5.9,16.1-21.7,29.2s-37.7,15.1-55.2,12.3
			c-17.6-2.8-36,0.8-36.7,1.1C1107.2,1129.8,1089.1,1124.7,1100.9,1123.5z"/>
		<path class="st16" d="M1116.8,1572.1c-1.6,0-3.2-0.4-4.7-1.3c-4.2-2.6-5.4-8.1-2.9-12.2l0,0c0.1-0.2,13.1-21.6,24.1-65
			c10.1-40.2,20.5-107.9,12.5-202.6c-6.6-78.4-53.3-162.4-102.7-251.3c-65.7-118.2-133.6-240.4-107.3-357.2
			c1.1-4.8,5.8-7.8,10.6-6.7c4.8,1.1,7.8,5.8,6.7,10.6c-24.8,110.2,41.4,229.4,105.5,344.6c50.4,90.6,97.9,176.3,104.9,258.5
			c8.2,97.8-2.7,167.9-13.3,209.5c-11.6,45.7-25.3,68-25.9,68.9C1122.7,1570.6,1119.8,1572.1,1116.8,1572.1z"/>
		<path class="st14" d="M1086.1,915.5L1086.1,915.5L1086.1,915.5L1086.1,915.5L1086.1,915.5c0.2,19.9-6.8,55.4-27.8,64.7
			c-6.6,3.3-26.5,4.6-26.5,4.6s-3.6-20-1.7-27.3C1034.3,935.1,1066.9,920,1086.1,915.5z"/>
		<path class="st17" d="M1116.7,966.3L1116.7,966.3L1116.7,966.3L1116.7,966.3L1116.7,966.3c3.4,22,1.2,62.5-20.6,76
			c-6.8,4.7-28.7,9.3-28.7,9.3s-7.1-21.6-6.2-30C1062.4,996.2,1096.1,974.3,1116.7,966.3z"/>
		<path class="st14" d="M1058.2,869.2L1058.2,869.2L1058.2,869.2L1058.2,869.2L1058.2,869.2c0.2,19.9-6.8,55.4-27.8,64.7
			c-6.6,3.3-26.5,4.6-26.5,4.6s-3.6-20-1.7-27.3C1006.4,888.8,1039,873.7,1058.2,869.2z"/>
		<path class="st15" d="M902.7,842.7L902.7,842.7L902.7,842.7L902.7,842.7L902.7,842.7c19.9-0.2,55.4,6.8,64.7,27.8
			c3.3,6.6,4.6,26.5,4.6,26.5s-20,3.6-27.3,1.7C922.3,894.5,907.2,861.9,902.7,842.7z"/>
		<path class="st14" d="M943.9,953L943.9,953L943.9,953L943.9,953L943.9,953c13.9-6.3,41.1-12.5,54.1-0.6
			c4.4,3.6,11.5,17.2,11.5,17.2s-13,8.7-18.7,9.7C973.7,983.3,953,965.1,943.9,953z"/>
		<path class="st8" d="M1113.5,1080.6c-3.8,15.2-13.1,26.6-13.1,26.6s-5-10.2-5.2-10.3c25-50.4-14.5-31.5-52.2-43.9
			c-13.7-4.5-24.5-15.5-31.1-28.1c-3.5-6.7-7.4-16.1-7.1-24c0-0.2,0-0.5,0-0.7c1.1,2.3,1.7,4.8,3,7.1c2.2,3.8,5.8,6.6,9.4,9.1
			c7.7,5.4,16.2,10,25.3,12.6c10.9,3.1,22.4,3.4,33.6,4.9c13.5,1.9,31.7,6.5,36.7,21C1116,1063.7,1115.5,1072.6,1113.5,1080.6z"/>
		<path class="st18" d="M1052.1,984.4c-4.5,10.1-10.3,16.1-10.3,16.1l-5.6-10c0,0,22.8-11,9.4-39c-13.4-28-38.9-8.3-80.3-34.6
			c-37.1-23.5-31.3-58.4-29.7-65.5c0.2-0.8,0.3-1.3,0.3-1.3c1.3,12.6,10.1,33.5,28,48.7c18,15.2,79.9,21.6,89.9,50.6
			C1058.6,963.2,1056,975.4,1052.1,984.4z"/>
		<path class="st18" d="M1029.8,900.9c-0.3,1.3-0.6,2.5-1,3.6c-6.8,19-31.2,14.2-32.4,14l-10.4-5.4c0,0,35.3,5.9,29-17.5
			c-6.3-23.3-34-30.8-71.2-54.7c-37.2-23.8-37.5-74.8-37.5-74.8c6.5,26.8,33.2,47.7,66.3,63.7
			C1005.5,845.8,1034.7,877.8,1029.8,900.9z"/>
		<path class="st18" d="M976,803.5c-1.3,3.4-3,6.8-4.8,10c-3.2,5.7-7,11.1-11.1,16.2c-1.5,1.8-3.6,5.5-5.8,6.6
			c-0.5,0.3-0.9-6.3-0.9-6.3c0-1,1.9-3.4,2.3-4.3c1.7-3.5,3.2-7.2,4.3-11c2.4-7.9,3.4-17.3-0.9-24.8c-3.4-5.9-9.5-9.5-15.3-12.7
			c-6.7-3.7-13.8-6.9-20.3-11.1c-12.4-8-21.3-19.2-27-32.7c-1.8-4.3-4.5-8.2-4.2-13.1c0,0.3,0.1,0.6,0.3,1c0.9,1.6,3.3,3.9,4,4.7
			c1.6,1.9,3.4,3.6,5.3,5.3c3.8,3.2,8,5.9,12.6,7.9c9.7,4.3,20.8,5.2,30.8,8.8c4.5,1.6,8.9,3.6,13.1,6.1
			c7.1,4.3,13.4,10.1,17.2,17.5C981.2,782.1,980.1,793.1,976,803.5z"/>
		<path class="st16" d="M941.3,733.4c0,0-50.6-38.3-50.7-84s9.8-86.3-9.5-111.3c0,0,41.4,32.1,46.9,61.3c5.6,29.2,2.3,56.7,2.3,56.7
			s-2.8,18.6,9.3,41.4C951.8,720.3,941.3,733.4,941.3,733.4z"/>
		<path class="st16" d="M931.7,700.9c0,0-1.5-34.6,6.8-52c8.4-17.4,15.6-33.7,7.9-49.7c0,0,26.3,29,17.1,62
			C954.3,694.1,933.6,756.2,931.7,700.9z"/>
		<path class="st16" d="M931.4,712.1c0,0-21.2-27.3-38.9-35.2c-17.6-7.9-33.7-15.6-38.2-32.8c0,0-1.3,39.2,27.1,58.3
			C909.8,721.5,965.7,755.4,931.4,712.1z"/>
		<g>
			<path class="st18" d="M924.3,860.6c4.6,2.2,9,4.6,13.3,7.2c4.3,2.6,8.6,5.4,12.7,8.3c2.1,1.5,4.1,3,6.1,4.6c1,0.8,2,1.6,2.9,2.4
				c1,0.8,1.9,1.7,2.9,2.5c3.7,3.4,7.3,7.1,9.9,11.5c-0.8-0.9-1.7-1.9-2.5-2.9l-2.7-2.6c-1.8-1.7-3.7-3.4-5.7-4.9
				c-3.9-3.2-7.9-6.2-12-9.1c-4.1-2.9-8.2-5.8-12.4-8.6L924.3,860.6z"/>
			<path class="st18" d="M867.8,768c1.6,3.1,3.4,6.1,5.4,9c2,2.9,4.1,5.6,6.3,8.3c4.5,5.3,9.5,10.1,14.9,14.4
				c5.5,4.3,11.4,7.8,17.7,10.8c6.3,2.9,12.9,5.1,19.8,6.7c-7-0.8-13.9-2.5-20.4-5.2c-3.3-1.4-6.5-2.9-9.5-4.7c-3-1.8-6-3.7-8.8-5.9
				c-2.8-2.2-5.5-4.5-8-7c-2.5-2.5-4.8-5.2-7-8C874,780.6,870.3,774.5,867.8,768z"/>
			<path class="st18" d="M954.8,767.8c2.3-2.7,4.5-5.5,6.5-8.4c2-2.9,3.9-5.9,5.5-9c1.6-3.1,3.2-6.2,4.3-9.6c0.7-1.6,1.1-3.3,1.6-5
				c0.2-0.8,0.4-1.7,0.6-2.5l0.3-1.3c0.1-0.4,0.1-0.9,0.2-1.3l0.4-2.6c0.1-0.9,0.2-1.7,0.3-2.6c0.2-1.8,0.3-3.5,0.4-5.3
				c0.3-3.5,0.4-7,0.6-10.6c0.2-7.1,0.3-14.1-0.1-21.2c1,7,1.4,14.1,1.5,21.2c0,7.1-0.3,14.2-1.3,21.3c-0.1,0.4-0.1,0.9-0.2,1.3
				l-0.3,1.3c-0.2,0.9-0.4,1.8-0.6,2.6l-0.8,2.6c-0.1,0.4-0.3,0.9-0.4,1.3l-0.5,1.2c-0.3,0.8-0.7,1.7-1,2.5l-1.1,2.4
				c-0.4,0.8-0.8,1.6-1.2,2.4c-0.4,0.8-0.8,1.6-1.3,2.3C964.4,757.2,959.9,762.9,954.8,767.8z"/>
			<path class="st8" d="M1003.7,938.9c1.7-2.1,3.3-4.3,4.9-6.5l4.9-6.5c3.3-4.3,6.7-8.5,10.1-12.8c3.4-4.2,6.8-8.4,10.3-12.6
				l5.2-6.2l5.3-6.2c-3,4.6-6.2,8.9-9.4,13.3c-3.3,4.3-6.6,8.6-10,12.8c-3.4,4.2-6.8,8.4-10.4,12.5
				C1011.1,930.9,1007.6,935.1,1003.7,938.9z"/>
			<path class="st8" d="M959.5,956.6c4.4,0.3,8.7,0.9,13.1,1.6c4.3,0.7,8.6,1.5,12.9,2.5c4.3,1,8.5,2,12.7,3.4
				c2.1,0.7,4.2,1.4,6.2,2.3c1,0.5,2,0.9,3,1.5c0.9,0.6,1.9,1.2,2.5,2.1c-0.7-0.8-1.8-1.3-2.7-1.7c-1-0.4-2-0.8-3.1-1.1
				c-2.1-0.7-4.2-1.2-6.3-1.8c-4.2-1.1-8.5-2-12.7-3C976.6,960.6,968,958.8,959.5,956.6z"/>
			<path class="st8" d="M1031.3,985.4c3.1-5.1,6.4-10.1,9.8-15c3.4-4.9,6.9-9.8,10.4-14.5c3.6-4.8,7.2-9.5,11.1-14.1
				c1-1.2,1.9-2.3,2.9-3.4c1-1.1,2-2.2,3-3.3l1.5-1.6c0.5-0.5,1.1-1,1.6-1.6c0.6-0.5,1-1.1,1.6-1.5l1.8-1.4
				c-1.1,1.1-2.1,2.1-3.1,3.2c-0.5,0.6-1,1.1-1.5,1.7l-1.4,1.7c-0.9,1.1-1.9,2.3-2.8,3.5c-0.9,1.2-1.8,2.3-2.7,3.5
				c-3.6,4.7-7.2,9.5-10.7,14.3l-10.8,14.3C1038.7,976,1035.1,980.8,1031.3,985.4z"/>
			<path class="st8" d="M955.2,1000.8c2.9,0.8,5.8,1.4,8.8,2c2.9,0.6,5.9,1,8.8,1.4c1.5,0.2,3,0.3,4.4,0.5c1.5,0.1,3,0.3,4.5,0.3
				l2.2,0.1c0.7,0,1.5,0,2.2,0c1.5,0,3,0,4.4-0.1c1.5,0,3-0.2,4.4-0.3c1.5-0.1,3-0.3,4.5-0.4c3-0.2,6-0.4,9.1-0.4
				c3,0,6.1,0.2,9.1,0.8c3,0.6,5.9,1.7,8.2,3.7c-2.5-1.7-5.4-2.6-8.3-2.9c-2.9-0.4-5.9-0.4-8.9-0.3c-3,0.1-5.9,0.4-8.9,0.7l-4.5,0.5
				c-1.5,0.1-3,0.3-4.5,0.4c-6.1,0.3-12.1-0.1-18.1-1.2C966.7,1004.5,960.8,1003,955.2,1000.8z"/>
			<path class="st8" d="M1073.9,1041.4c5-10.1,10.4-19.9,16-29.6c5.6-9.7,11.4-19.4,17.6-28.7c-5,10.1-10.4,19.9-16,29.6
				C1085.8,1022.4,1080.1,1032.1,1073.9,1041.4z"/>
			<path class="st8" d="M1107.4,1113.1c-0.2-10.7,2.6-21.5,8.4-30.7c0.7-1.2,1.5-2.2,2.3-3.3c0.8-1.1,1.6-2.1,2.4-3.2
				c1.6-2.1,3.1-4.3,4.5-6.5c2.8-4.5,5.3-9.2,7.4-14c2.1-4.8,3.9-9.8,5.1-15c0.7-2.6,1.1-5.2,1.4-7.8c0.3-2.6,0.5-5.3,0.9-8
				c0.8-5.3,2-10.6,3.5-15.7c0.8-2.6,1.7-5.1,2.7-7.6c1-2.5,2.2-4.9,3.8-7c-1.5,2.2-2.5,4.7-3.4,7.2c-0.9,2.5-1.6,5.1-2.3,7.6
				c-1.3,5.1-2.3,10.4-2.9,15.6c-0.3,2.6-0.4,5.2-0.7,8c-0.3,2.7-0.7,5.4-1.3,8c-1.2,5.3-3,10.4-5.1,15.3c-2.2,4.9-4.7,9.7-7.7,14.2
				c-1.5,2.2-3,4.4-4.7,6.6c-0.8,1.1-1.7,2.1-2.5,3.2c-0.8,1-1.6,2.1-2.3,3.2c-2.9,4.4-5.2,9.2-6.8,14.3
				C1108.5,1102.4,1107.6,1107.7,1107.4,1113.1z"/>
			<path class="st18" d="M903.8,560.8c1.7,6.2,3.1,12.6,4.3,18.9c1.2,6.4,2.2,12.8,2.9,19.2c0.7,6.4,1.2,12.9,1.1,19.4
				c0,3.2-0.2,6.5-0.3,9.7c-0.1,3.2-0.1,6.4,0.1,9.6c0.5,12.9,2.4,25.7,5.4,38.2c1.6,6.2,3.3,12.4,5.8,18.3c1.2,3,2.6,5.8,4.3,8.5
				c1.7,2.7,3.7,5.2,6.2,6.8l-1.2,0.7c0.1-7.5,0.6-15,1.8-22.4c0.6-3.7,1.4-7.4,2.5-11l0.9-2.7l1.1-2.6c0.3-0.9,0.8-1.7,1.2-2.5
				l0.7-1.3l0.8-1.2c0.5-0.8,1.1-1.6,1.6-2.3c0.5-0.7,1.1-1.5,1.6-2.3c1-1.5,1.8-3.2,2.6-4.8c1.6-3.3,2.7-6.9,3.7-10.4
				c0.9-3.6,1.6-7.2,2.1-10.9c0.4-3.7,0.8-7.4,0.7-11.1c0.2,3.7,0,7.4-0.3,11.2c-0.4,3.7-0.9,7.4-1.8,11c-0.9,3.6-1.9,7.2-3.5,10.7
				c-0.8,1.7-1.6,3.4-2.6,5c-0.9,1.6-2.2,3.1-3.1,4.6l-0.8,1.1l-0.6,1.2c-0.4,0.8-0.9,1.6-1.2,2.5l-1,2.6l-0.8,2.6
				c-1,3.5-1.8,7.2-2.3,10.8c-1.1,7.3-1.6,14.7-1.7,22.1l0,1.4l-1.2-0.7c-3-1.8-5.1-4.5-6.9-7.3c-1.8-2.8-3.2-5.8-4.4-8.8
				c-2.5-6-4.4-12.3-5.9-18.6c-3-12.6-4.7-25.6-5.2-38.5c-0.1-3.2-0.1-6.5,0-9.7c0.2-3.3,0.4-6.4,0.4-9.7c0.1-6.4-0.2-12.9-0.8-19.3
				C908.8,586.2,906.7,573.4,903.8,560.8z"/>
			<path class="st18" d="M866.7,668.6c3.7,5.6,8.2,10.6,13.2,14.9c5.1,4.3,10.7,7.9,16.7,10.5c3,1.3,6.2,2.3,9.4,3.4
				c3.2,1.1,6.4,2.3,9.4,3.7c6.1,2.7,12.1,5.8,17.8,9.3c-6.1-2.9-12.2-5.5-18.4-8c-1.6-0.6-3.1-1.2-4.7-1.8
				c-1.6-0.6-3.1-1.1-4.7-1.6c-3.2-1-6.4-2-9.5-3.3c-6.2-2.7-12-6.5-16.9-11.1C873.9,679.9,869.7,674.5,866.7,668.6z"/>
			<g>
				<path class="st19" d="M1029.8,900.9c-0.3,1.3-0.6,2.5-1,3.6c0-0.7,0.1-1.4,0.1-2.2c2.5-46.8-66.6-71.8-94-91.8
					c-27.4-20-28.6-44.3-28.6-44.3c6.5,26.8,33.2,47.7,66.3,63.7C1005.5,845.8,1034.7,877.8,1029.8,900.9z"/>
				<path class="st19" d="M976,803.5c12.5-54.9-45.2-55.8-62.6-62.7c-14.6-5.8-19.5-16.4-20.7-19.7c0.9,1.6,3.3,3.9,4,4.7
					c1.6,1.9,3.4,3.6,5.3,5.3c3.8,3.2,8,5.9,12.6,7.9c9.7,4.3,20.8,5.2,30.8,8.8c4.5,1.6,8.9,3.6,13.1,6.1
					c7.1,4.3,13.4,10.1,17.2,17.5C981.2,782.1,980.1,793.1,976,803.5z"/>
				<path class="st19" d="M1053.3,980.4c12.3-37.9-16.6-51.3-48.1-61.6c-31.5-10.3-45.1-14.7-59.1-38.2c-8.7-14.6-10.5-24-10.5-29.1
					c0.2-0.8,0.3-1.3,0.3-1.3c-0.3,0.9,0.4,2.8,0.6,3.7c0.3,1.4,0.6,2.8,1,4.2c0.9,3.2,2,6.3,3.3,9.3c3.1,7.2,7.2,14,12.1,20.1
					c3.9,4.9,8.3,9.7,13.5,13.2c3.9,2.7,8.4,4.7,12.8,6.5c13.2,5.4,26.9,9.3,40.1,14.7c11,4.5,23,10.2,30.4,19.9
					c1.8,2.3,3.2,4.9,4.2,7.7c4.7,13.7,2.2,25.9-1.8,34.9C1052.4,983.2,1052.8,981.9,1053.3,980.4z"/>
				<path class="st12" d="M1113.5,1080.6c-0.1-1.2-0.1-2.6,0.1-4.2c4-30.9-12.1-35.2-43.5-39.6c-31.3-4.3-46.8-12.6-56.4-20.4
					c-6.6-5.4-8.4-12-8.9-15.6c0-0.2,0-0.5,0-0.7c1.1,2.3,1.7,4.8,3,7.1c2.2,3.8,5.8,6.6,9.4,9.1c7.7,5.4,16.2,10,25.3,12.6
					c10.9,3.1,22.4,3.4,33.6,4.9c13.5,1.9,31.7,6.5,36.7,21C1116,1063.7,1115.5,1072.6,1113.5,1080.6z"/>
				<path class="st19" d="M934.2,754.9c0.1-0.5-0.9,3.4,15.3,12.3c16.2,8.8,24.3,23.4,18.9,39.4c-5.4,16-7.3,17.8-7.3,17.8
					c0,0-1.6-1-1.8-1.1c2.4-5.5,4.5-11.1,6.2-16.8c1.2-3.8,2.1-7.5,1.9-11.4c-0.2-4.8-1.9-9.4-4.7-13.3c-1.4-2-3-3.8-4.8-5.4
					c-2-1.8-4.3-3.3-6.5-4.9c-3.6-2.6-7.2-5.3-10.8-8.1C938.3,761.5,933.5,758.7,934.2,754.9z"/>
				<path class="st19" d="M948.3,833.3c0,0,23.4,15,35.4,22.6c12,7.6,41.5,20.8,38.7,43.6c-2.3,18.8-15.3,18.1-15.3,18.1l-2.8-0.6
					c0,0,9.7-1.2,13.9-10.2c4.2-9,3.1-22.5-11.7-33.6C991.7,862.2,948.8,837,948.3,833.3z"/>
				<path class="st12" d="M982.4,918.9c2.5,0.8,4.9,1.7,7.3,2.6c2.4,0.9,4.9,1.7,7.4,2.4c2.5,0.7,5,1.3,7.6,1.8l7.7,1.4
					c5.1,1,10.3,2.1,15.2,4c2.5,0.9,4.9,2,7.2,3.4c2.3,1.4,4.4,3,6.3,4.8c1.9,1.8,3.6,3.9,5.1,6.1c1.5,2.2,2.7,4.6,3.7,7
					c1,2.5,1.7,5,2.1,7.6c0.5,2.6,0.6,5.3,0.5,7.9l-0.1,2l-0.3,2c-0.2,1.3-0.5,2.6-0.8,3.9c-0.7,2.6-1.6,5-2.8,7.4
					c-2.3,4.7-5.6,9-9.1,12.8l-0.7-0.6c3.5-3.8,6.6-8,8.9-12.7c1.1-2.3,2-4.7,2.7-7.2c0.3-1.2,0.6-2.5,0.7-3.8l0.2-1.9l0.1-1.9
					c0.1-2.6,0-5.1-0.5-7.7c-0.5-2.5-1.1-5-2.1-7.4c-1-2.4-2.2-4.6-3.6-6.8c-1.4-2.1-3.1-4.1-5-5.8l-1.4-1.3c-0.5-0.4-1-0.8-1.5-1.2
					c-0.5-0.4-1-0.8-1.6-1.1c-0.5-0.4-1.1-0.7-1.6-1c-2.2-1.3-4.5-2.4-6.9-3.3c-4.8-1.8-9.9-3-15-4l-7.7-1.5
					c-2.6-0.6-5.1-1.2-7.6-1.9c-2.5-0.7-5-1.5-7.5-2.5C986.9,921.6,984.5,920.5,982.4,918.9z"/>
			</g>
		</g>
	</g>
	<g class="st0">
		<path class="st20" d="M2016.9,724.7c0,0-4.4-17.9-25.8-19.1c-21.4-1.2-55,3.6-93.4-25.7c0,0,8.3,19.2,23,27.2c0,0-5.4,6-16.9-3.3
			c0,0,10.3,18.7,42.3,24.5c32,5.8,49.5-15.6,70.4,4.3C2037.3,752.4,2016.9,724.7,2016.9,724.7z"/>
		<path class="st21" d="M1931.8,520.1l1.4,3.5c0,0-19.4,3.2-37.8-13c-18.4-16.2-32.7-61.3-62.1-53.5c0,0-2.7,35.5,33.9,62.5
			s70.5,9.5,70.5,9.5l-1.7-10.8L1931.8,520.1z"/>
		<path class="st22" d="M2098.1,1280.5c-1.6,0-3.2-0.4-4.7-1.3c-4.2-2.6-5.4-8-2.9-12.2l0,0c0.1-0.2,13.1-21.5,24-64.8
			c10.1-40,20.4-107.5,12.5-201.9c-6.6-78.1-53.1-161.9-102.4-250.5c-65.4-117.8-133.1-239.6-106.9-356c1.1-4.8,5.8-7.8,10.6-6.7
			c4.8,1.1,7.8,5.8,6.7,10.6c-24.7,109.8,41.3,228.6,105.1,343.5c50.2,90.4,97.6,175.7,104.5,257.6c8.2,97.5-2.7,167.4-13.2,208.9
			c-11.6,45.6-25.3,67.8-25.8,68.7C2104,1279,2101.1,1280.5,2098.1,1280.5z"/>
		<path class="st21" d="M1884.7,553.4L1884.7,553.4L1884.7,553.4L1884.7,553.4L1884.7,553.4c19.8-0.2,55.2,6.8,64.5,27.8
			c3.3,6.6,4.6,26.5,4.6,26.5s-19.9,3.6-27.2,1.7C1904.2,605,1889.2,572.6,1884.7,553.4z"/>
		<path class="st23" d="M2033.6,694.7c-4.4,10.1-10.3,16-10.3,16l-5.6-10c0,0,22.7-11,9.4-38.9c-13.3-27.9-38.8-8.3-80-34.5
			c-37-23.5-31.2-58.2-29.6-65.3c0.2-0.8,0.3-1.3,0.3-1.3c1.3,12.5,10.1,33.4,28,48.6c17.9,15.2,79.7,21.5,89.6,50.4
			C2040.1,673.6,2037.6,685.7,2033.6,694.7z"/>
		<path class="st23" d="M2011.4,611.5c-0.3,1.3-0.6,2.4-1,3.6c-6.8,18.9-31.1,14.2-32.3,14l-10.4-5.4c0,0,35.2,5.8,28.9-17.4
			c-6.3-23.3-33.9-30.7-71-54.5c-37.1-23.8-37.4-74.5-37.4-74.5c6.5,26.8,33.1,47.6,66.1,63.5
			C1987.2,556.6,2016.3,588.5,2011.4,611.5z"/>
		<path class="st23" d="M1957.8,514.4c-1.3,3.4-3,6.7-4.8,10c-3.2,5.7-6.9,11-11,16.1c-1.5,1.8-3.6,5.5-5.8,6.6
			c-0.5,0.3-0.9-6.3-0.9-6.3c0-1,1.8-3.4,2.3-4.3c1.7-3.5,3.2-7.2,4.3-11c2.4-7.9,3.4-17.3-0.9-24.7c-3.4-5.9-9.4-9.5-15.2-12.7
			c-6.7-3.7-13.8-6.9-20.2-11c-12.3-7.9-21.3-19.1-26.9-32.6c-1.8-4.3-4.4-8.1-4.2-13.1c0,0.3,0.1,0.6,0.3,1c0.9,1.6,3.2,3.9,4,4.7
			c1.6,1.9,3.4,3.6,5.3,5.2c3.8,3.2,8,5.9,12.6,7.9c9.6,4.3,20.7,5.2,30.7,8.8c4.5,1.6,8.9,3.6,13,6c7.1,4.2,13.4,10.1,17.2,17.5
			C1963,493.1,1961.8,504,1957.8,514.4z"/>
		<path class="st24" d="M1923.2,444.5c0,0-50.4-38.2-50.5-83.7s9.8-86-9.5-110.9c0,0,41.2,32,46.8,61.1c5.5,29.1,2.3,56.5,2.3,56.5
			s-2.8,18.5,9.3,41.2C1933.6,431.4,1923.2,444.5,1923.2,444.5z"/>
		<path class="st24" d="M1913.6,412.1c0,0-1.5-34.5,6.8-51.8c8.3-17.4,15.5-33.6,7.9-49.5c0,0,26.2,28.9,17,61.8
			S1915.5,467.2,1913.6,412.1z"/>
		<path class="st24" d="M1913.3,423.2c0,0-21.1-27.3-38.7-35.1c-17.6-7.8-33.6-15.6-38.1-32.7c0,0-1.2,39,27,58.1
			C1891.8,432.7,1947.5,466.5,1913.3,423.2z"/>
		<g>
			<path class="st23" d="M1906.3,571.3c4.5,2.2,9,4.6,13.3,7.2c4.3,2.6,8.5,5.4,12.7,8.3c2.1,1.5,4.1,3,6.1,4.5
				c1,0.8,1.9,1.6,2.9,2.4c1,0.8,1.9,1.6,2.8,2.5c3.7,3.4,7.3,7.1,9.9,11.5c-0.8-0.9-1.7-1.9-2.5-2.8l-2.7-2.6
				c-1.8-1.7-3.7-3.4-5.6-4.9c-3.9-3.2-7.8-6.2-11.9-9.1c-4.1-2.9-8.2-5.8-12.4-8.6L1906.3,571.3z"/>
			<path class="st23" d="M1849.9,479c1.6,3.1,3.4,6.1,5.4,8.9c1.9,2.9,4.1,5.6,6.3,8.3c4.5,5.3,9.4,10.1,14.9,14.3
				c5.4,4.2,11.4,7.8,17.6,10.7c6.3,2.8,12.9,5.1,19.7,6.7c-6.9-0.8-13.8-2.5-20.3-5.2c-3.2-1.4-6.4-2.9-9.5-4.7
				c-3-1.8-6-3.7-8.8-5.9c-2.8-2.2-5.4-4.5-7.9-7c-2.5-2.5-4.8-5.2-7-7.9C1856.1,491.6,1852.4,485.5,1849.9,479z"/>
			<path class="st25" d="M1885.8,272.4c1.7,6.2,3.1,12.5,4.3,18.8c1.2,6.3,2.2,12.7,2.9,19.1c0.7,6.4,1.2,12.9,1.1,19.3
				c0,3.2-0.2,6.5-0.3,9.7c-0.1,3.2-0.1,6.4,0.1,9.6c0.5,12.8,2.4,25.6,5.4,38c1.6,6.2,3.3,12.4,5.7,18.3c1.2,2.9,2.6,5.8,4.2,8.5
				c1.6,2.7,3.7,5.2,6.2,6.7l-1.2,0.7c0.1-7.5,0.6-14.9,1.8-22.3c0.6-3.7,1.4-7.3,2.5-10.9l0.9-2.7l1.1-2.6c0.3-0.9,0.8-1.7,1.2-2.5
				l0.7-1.3l0.8-1.2c0.5-0.8,1.1-1.6,1.6-2.3c0.5-0.7,1.1-1.5,1.6-2.3c1-1.5,1.8-3.2,2.6-4.8c1.5-3.3,2.7-6.8,3.7-10.4
				c0.9-3.6,1.6-7.2,2.1-10.9c0.4-3.7,0.8-7.4,0.7-11.1c0.2,3.7,0,7.4-0.3,11.1c-0.4,3.7-0.9,7.4-1.8,11c-0.9,3.6-1.9,7.2-3.4,10.6
				c-0.8,1.7-1.6,3.4-2.6,5c-0.9,1.6-2.2,3.1-3.1,4.6l-0.7,1.1l-0.6,1.2c-0.4,0.8-0.9,1.6-1.2,2.5l-1,2.6l-0.8,2.6
				c-1,3.5-1.8,7.1-2.3,10.8c-1.1,7.3-1.6,14.7-1.7,22l0,1.4l-1.2-0.7c-3-1.8-5.1-4.5-6.8-7.3c-1.7-2.8-3.2-5.7-4.4-8.7
				c-2.5-6-4.4-12.2-5.9-18.5c-3-12.6-4.7-25.5-5.2-38.4c-0.1-3.2-0.1-6.5,0-9.7c0.2-3.3,0.4-6.4,0.4-9.6c0.1-6.4-0.2-12.8-0.8-19.2
				C1890.8,297.7,1888.7,285,1885.8,272.4z"/>
			<path class="st25" d="M1848.8,379.9c3.7,5.6,8.1,10.5,13.2,14.8c5,4.2,10.7,7.8,16.7,10.4c3,1.3,6.2,2.3,9.3,3.4
				c3.2,1.1,6.3,2.3,9.4,3.6c6.1,2.7,12.1,5.8,17.8,9.2c-6-2.9-12.1-5.5-18.3-7.9c-1.5-0.6-3.1-1.2-4.6-1.8
				c-1.6-0.6-3.1-1.1-4.7-1.6c-3.2-1-6.4-2-9.5-3.3c-6.2-2.7-11.9-6.5-16.9-11C1856.1,391.2,1851.9,385.8,1848.8,379.9z"/>
			<g>
				<path class="st26" d="M2011.4,611.5c-0.3,1.3-0.6,2.4-1,3.6c0-0.7,0.1-1.4,0.1-2.2c2.5-46.6-66.4-71.5-93.7-91.5
					s-28.6-44.2-28.6-44.2c6.5,26.8,33.1,47.6,66.1,63.5C1987.2,556.6,2016.3,588.5,2011.4,611.5z"/>
				<path class="st26" d="M1957.8,514.4c12.5-54.7-45.1-55.6-62.4-62.5c-14.5-5.8-19.4-16.4-20.6-19.6c0.9,1.6,3.2,3.9,4,4.7
					c1.6,1.9,3.4,3.6,5.3,5.2c3.8,3.2,8,5.9,12.6,7.9c9.6,4.3,20.7,5.2,30.7,8.8c4.5,1.6,8.9,3.6,13,6c7.1,4.2,13.4,10.1,17.2,17.5
					C1963,493.1,1961.8,504,1957.8,514.4z"/>
				<path class="st26" d="M2034.8,690.7c12.3-37.8-16.6-51.1-48-61.4c-31.4-10.3-45-14.6-58.9-38.1c-8.6-14.6-10.5-23.9-10.5-29
					c0.2-0.8,0.3-1.3,0.3-1.3c-0.3,0.9,0.4,2.8,0.6,3.7c0.3,1.4,0.6,2.8,1,4.2c0.9,3.2,2,6.3,3.3,9.3c3.1,7.2,7.2,13.9,12.1,20
					c3.9,4.9,8.3,9.6,13.5,13.2c3.9,2.7,8.4,4.6,12.7,6.4c13.1,5.4,26.8,9.2,39.9,14.7c11,4.5,23,10.1,30.3,19.8
					c1.8,2.3,3.2,4.9,4.2,7.7c4.7,13.7,2.2,25.8-1.8,34.8C2033.9,693.6,2034.4,692.2,2034.8,690.7z"/>
				<path class="st26" d="M1916.1,465.9c0.1-0.5-0.9,3.4,15.2,12.3s24.2,23.3,18.8,39.3c-5.4,15.9-7.2,17.8-7.3,17.8
					c0,0-1.6-1-1.7-1.1c2.4-5.5,4.5-11,6.2-16.7c1.2-3.7,2.1-7.4,1.9-11.4c-0.2-4.8-1.9-9.4-4.7-13.3c-1.4-2-3-3.8-4.8-5.4
					c-2-1.8-4.2-3.3-6.5-4.9c-3.6-2.6-7.2-5.3-10.7-8C1920.2,472.5,1915.4,469.7,1916.1,465.9z"/>
			</g>
		</g>
	</g>
	<linearGradient id="SVGID_3_" gradientUnits="userSpaceOnUse" x1="40.3788" y1="281.9825" x2="-31.4915" y2="600.6526">
		<stop  offset="0" style="stop-color:#0E178B;stop-opacity:0"/>
		<stop  offset="1" style="stop-color:#0E178A"/>
	</linearGradient>
	<path class="st27" d="M125.9,330.8c6-17.5,6.1-32.5,6.1-32.5c-4.2,17.1-16.6,31.9-33.6,44.4c3.2-13.3,5.7-26.5,7.4-39.7
		c3-1.6,5.9-3.2,8.7-5c12.4-8,21.4-19.3,27-32.8c1.8-4.3,4.5-8.2,4.3-13.2c0,0.3-0.1,0.6-0.3,1c-0.9,1.6-3.3,3.9-4,4.7
		c-1.6,1.9-3.4,3.6-5.3,5.3c-3.8,3.3-8.1,6-12.6,8c-4.9,2.2-10.3,3.5-15.6,4.7c0.1-4.3,0.2-8.7,0.1-13c13.2-5.4,34.5-18.8,48.8-28.4
		c28.4-19.2,27.2-58.5,27.2-58.5c-4.5,17.2-20.6,25-38.3,32.9c-1.7,0.7-3.4,1.7-5.1,2.7c4.2-9.4,6.9-19.7,7-30.3
		c0.1-45.8-9.9-86.5,9.5-111.6c0,0-41.5,32.2-47.1,61.5c-5.6,29.3-2.3,56.8-2.3,56.8s1.3,9-1.9,22.1c-0.8-10.1-2.6-21.5-6.3-29.3
		c-8.4-17.5-15.6-33.8-7.9-49.8c0,0-26.4,29.1-17.1,62.2c3.4,12,8.2,27.8,13.1,40.4c2.4,15.7,3,31.5,2.1,47.5
		c-1.2,0.5-2.3,0.9-3.4,1.5c-1.1-3.3-1.5-7.3-0.6-11.8c3.3-16-7.2-57.3-23.1-70c0,0-29.8,38.7-16.8,67.7c5.4,12,13.8,20.6,21.5,27.8
		c-2,2.3-3.7,4.8-5.1,7.5c-5.5,10.8-4.3,21.8-0.3,32.2c1.3,3.4,3,6.8,4.9,10c2.3,4.1,4.9,8,7.7,11.8c-3,1.6-6,3.1-9.1,4.6
		c-24.6,11.9-47.1,32.7-55,52.1c-10.5-6.2-22.1-10.5-31-12.6l0,0l0,0l0,0l0,0c-0.2,17.9,5.5,48.5,21.9,61.2
		c-2.8,1.7-5.4,3.6-7.8,5.7C-18.7,458-36.3,450.9-48.5,448l0,0v0l0,0l0,0c-0.2,19.9,6.8,55.6,27.9,64.8c1.3,0.6,3.1,1.2,5.2,1.7
		c0.3,0.9,0.7,1.7,1,2.5c4.2,9.5,9.6,15.3,10.3,16.1c-5.6,10.2-11.3,20.4-16.9,30.6c-0.2,0.3-0.4,0.6-0.5,1c-1,0.1-2,0.2-3,0.3
		c0.8-4.1,1.3-8,1-10.6c-1.3-25.6-35.1-47.4-55.7-55.5l0,0l0,0l0,0l0,0c-3.2,21-1.4,58.8,17.7,74.1c-6.3,3.2-11.5,7.8-13.9,14.6
		c-3.1,8.9-2.6,17.9-0.6,25.9c1.4,5.6,3.6,10.7,5.7,14.9c-0.3,0.1-0.7,0.2-1,0.3c-1.2-3.7-2.8-7.7-4.9-11.6
		c-9.3-17.1-17.5-27.3-15.9-42.3c1.6-15-1.7-46.4-27.9-70c0,0-12.5,30.1-2.1,60.3c8.6,25,35.6,40.3,45.1,66.5
		c-0.5,0.3-0.9,0.7-1.3,1.1c-3.4-3.7-7.4-7.5-11.9-10.5c-13.8-9.2-15-26.1-33.2-38.8c-12-8.2-30.5-10.6-30.5-10.6
		s1.1,27.3,25.5,43.4c21,13.9,28.9,4.8,43.1,26.4c-1.7,3.9-2.3,7.6-2.1,11c-18.1-4.9-36.6-15.5-49-22.2
		c-16.7-9.1-47.2-11.3-47.2-11.3s5.9,16.2,21.8,29.3c15.8,13.2,37.8,15.2,55.4,12.3c7.1-1.1,14.2-1.2,20.4-0.9
		c1.9,5.8,5.3,10.2,7,12.2c-1.3,2.7-2.5,5.3-3.8,8c-1.5,0.4-2.9,0.8-4.4,1.2c-2.6,0.8-5.1,1.7-7.6,2.5c-0.9,0.3-1.7,0.5-2.6,0.8
		c-6.5,2.4-13,5.2-18.7,9.3c-0.8,0.5-1.5,1.1-2.2,1.7c-0.2,0.1-0.3,0.3-0.5,0.4c0,0,0,0,0,0c-4,3.3-7,7.3-8.5,12c0,0,0,0,0,0.1
		c0,0,0,0,0,0c-0.1,0.4-0.2,0.8-0.4,1.3c0,0.1,0,0.2-0.1,0.2c-0.1,0.5-0.2,0.9-0.3,1.4c-1.5,8.9-0.4,16.8,1.8,23.5v0
		c4.4,13.5,13.3,21.6,13.3,21.6s0-0.1,0.1-0.3c-2.5,8.3-4.8,16.5-6.7,24.7c-17.7,11.2-31.9,23.4-33.3,35c-0.7,6.1-0.1,10.8,1.4,14.5
		c0,0,0,0,0,0c4.9,11.8,18.7,12.7,23.6,12.9c-0.9,15.8-1.4,30.9-1.4,45.2c-0.5,0.6-0.9,1.1-1.3,1.7c-2.7,3.7-4.7,7.1-6.2,10.3
		c-2.7-2.2-4.8-6.6-4-15.1c1.9-19.3-4.1-68-44-73.9c0,0,15.7,11,8.6,39.1c-6.6,26,11.8,74.3,36.5,70.6c2.1,8.9,8.4,14.5,12,17
		c0.6,8.3,1.3,16.3,2.1,23.9c-3.9,3.2-7.2,7.2-8.8,12.1c-2.6,7.7-2,16.3,0.6,23.9c0.5,1.4,1.6,3.4,3.1,5.7
		c5.1,7.9,14.2,18.9,15.5,20.4c0.7,2.9,1.3,5.6,2,8.3c11.7,45.8,25.4,68.2,26,69.1c1.7,2.7,4.6,4.2,7.6,4.2c1.6,0,3.2-0.4,4.7-1.4
		c4.2-2.6,5.5-8.1,2.9-12.3c-0.1-0.2-13.2-21.6-24.1-65.2c-0.8-3-1.5-6.2-2.3-9.5c3-0.2,8.2,0.3,16.9,2.6c18.9,5,45.8-3.8,61.4-29.6
		s7.6-43.9,7.6-43.9s-3.9,24.6-29.6,29.2c-24.6,4.4-49.4,7.3-58.8,30.2c-1.6-8.2-3.2-17.2-4.6-26.9c0,0,0.1,0,0.1,0
		c5.9-0.8,11.8-0.6,17.7-1.2c6.9-0.8,13.5-2.6,20-5.1c12.6-4.9,24.3-12.6,33.3-22.7c6.8-7.7,12.1-16.9,15.2-26.7
		c1.5-4.9,2.5-10,2.9-15.1c0.3-3.5-0.2-7.2-0.1-10.7c0-0.5,0.1-1,0.1-1.4c-3.3,13-11.8,27.3-23.8,35.7c-11,7.7-23.3,12-36.4,14.5
		c-10.7,2.1-21.8,3.5-32.2,7c-1.8-19-3-40.2-3-63.8c16.2-6.2,37.6,1.3,70.4-15.3c46.3-23.4,31.9-62.5,31.9-62.5s0,0,0,0
		C-33.5,862.8-80.5,861-111,875.5c0.1-6.9,0.4-14,0.7-21.2c9.3,4.6,28,9.2,50.6-11.2c32.3-29.2,17.5-57.1,17.5-57.1
		c-3.1,18.5-21.6,29.6-40.8,35.6c-11.9,3.7-21.2,12.7-26.6,18.9c0.3-5.3,0.7-10.6,1.2-16.1c0.8-9.3,2.1-18.7,4-28.1
		c19.7-7.5,44.6-15.2,63.9-26.9c36.8-22.2,35.7-63.5,35.7-63.5c-0.1,0.4-0.3,0.8-0.4,1.2c0,0,0,0,0,0c-3.5,9.7-15.4,19-26.9,26.8
		c25.9-34.5,7.7-61.1,7.7-61.1c-1.1,21.4-20.9,36.5-41.9,45.7c-7.7,3.4-14.1,8.6-19.1,14c3.5-9.1,7.3-18.3,11.4-27.6
		c4.9-1.7,10-3.7,15-6.3c19.7-10.3,26.7-31.1,28.8-45c1.6,0.6,3.2,1.1,4.9,1.5c19.8,5.2,31.5-14.4,31.9-14.9
		c-10.4,4.6-15.7,0.3-15.7,0.3c12.7-4.9,19.3-14.3,21.9-18.7c0.8-1.4,1.2-2.3,1.2-2.4c-0.7,0.5-1.5,1.1-2.3,1.5c0,0-0.1,0.1-0.1,0.1
		c-11.7,7.5-25.4,9.5-39.2,8.8c-0.1,0-0.2,0-0.4,0c-2.8-0.1-5.6-0.4-8.5-0.8c4-7.4,8-14.8,12.1-22.2c8.8,7.6,25.6,17.1,46.1,4.8
		c30.7-18.4,37.6-57,37.6-57c-5,9.3-22.2,12.2-39.2,12.2c2.2-3,4.2-6.1,5.9-9.3c1.6-3.1,3.3-6.8,4.6-10.6c12,1.8,25.4,7.1,43.3,3.8
		c32.2-5.8,42.5-24.6,42.5-24.6c-11.6,9.4-17,3.3-17,3.3c14.8-8,23.1-27.3,23.1-27.3c-38.7,29.5-72.5,24.7-94,25.9
		c-4.1,0.2-7.6,1.1-10.6,2.3c4.7-8.6,9.4-17.3,13.9-25.9c4.3,2.7,11.4,6.9,15.3,7.6c17.1,3.9,37.9-14.3,47.1-26.5l0,0l0,0l0,0l0,0
		c-12.9-5.9-37.1-11.6-51.1-3c4.1-8,8-16,11.9-24.1c5.6-2.2,11.5-5.1,17.8-9.1c8.7-5.5,15.1-11.7,19.7-18c0.3-0.1,0.6-0.1,0.9-0.2
		c22.5-4.3,37.6-37,42.1-56.3l0,0h0l0,0l0,0c-14-0.1-35.6,3.3-50.6,12.6c1.3-3.5,2.5-7.1,3.6-10.6c1.9-1.2,3.9-2.4,5.9-3.7
		c7.5-4.8,13.5-10.8,18.4-17.1c11.7-0.6,25.8-4.4,40.3-15.1c36.8-27.2,34.1-62.8,34.1-62.8C158.2,270.5,143.8,313.6,125.9,330.8z
		 M68.1,429.8c1.6,0.3,3.9,0.6,6.6,0.9c-0.2,0.2-0.4,0.4-0.7,0.6c-0.3,0.2-0.6,0.5-0.9,0.7c-0.5,0.3-0.9,0.7-1.4,1
		c-0.1,0.1-0.2,0.1-0.3,0.2c-0.3,0.2-0.6,0.4-0.9,0.6c-1.7,1-3.5,2.1-5.6,3C66.1,434.6,67.1,432.2,68.1,429.8z M24,546.5
		c-1.1,0.9-2.3,1.8-3.5,2.6c-5.8,4.1-12.1,7.7-18.7,10.3c1.1-2.1,2.3-4.1,3.4-6.2C11.7,548,17.7,546.4,24,546.5z M78,346.7
		c-2.4-8-3.4-17.4,0.9-24.9c1.5-2.6,3.5-4.8,5.8-6.7c0.3,0.7,0.6,1.3,0.8,2c-1.8,10.3-4.2,20.7-7,31C78.3,347.7,78.2,347.2,78,346.7
		z M1.5,523.1c-0.9-0.5-4.8-2.7-8.1-6.9c4.6,0.6,9,1,11.2,1.2C3.6,519.3,2.5,521.2,1.5,523.1z M-66.7,648.3l-0.1-0.5
		c0,0-0.4-0.7-1.2-1.9c-0.1-1.6-0.3-3.4-0.5-5.5c1.7-0.6,3.6-0.7,5.6-0.4c0.1,0.2,0.2,0.3,0.2,0.3s0-0.1,0.1-0.2c0.1,0,0.1,0,0.2,0
		C-63.9,642.8-65.3,645.6-66.7,648.3z M-73.7,662.3c-0.1-0.1-0.1-0.2-0.2-0.3c0.1,0,0.2,0,0.3,0.1
		C-73.7,662.1-73.7,662.2-73.7,662.3z M-45.7,646.6c3.7,1.8,7.5,3.8,11.4,5.4c-2.3,3.3-5.3,6.2-8.4,8.8c-5,4.1-10.2,8.1-15.9,11.3
		C-54.6,663.7-50.2,655.2-45.7,646.6z M7.8,490.1c-1.1-5.8-4.2-11.2-8.4-16c3.6-3.2,7.7-5,12.4-6.2c5.3,1.4,12.5,2.2,17.3,2.7
		c-7.2,14.3-14.7,28.6-22.4,42.8C7.7,507.2,9.1,495.3,7.8,490.1z M-94.7,758.8c2.9,1.2,6.7,2.3,11.1,2.9c-4.6,2.3-9.4,4.7-14.2,7.3
		C-96.8,765.6-95.7,762.2-94.7,758.8z M-128.5,917.4c0.1,1.6,0.1,3.1,0.2,4.7c-0.8-1.1-1.4-2.3-1.8-3.8
		C-129.5,917.9-129,917.6-128.5,917.4z M-121.1,992.9c1.1,6.8,2.3,13.2,3.5,19.2c-0.2,0-0.4,0-0.6-0.1
		C-120.3,1009.4-124.8,1002.2-121.1,992.9z M-126.1,822.9c-0.3,4.1-0.6,8.2-0.9,12.2c-4.3-0.1-12.5-2.2-10.2-16.5
		c0.8-5.2,5.8-9.6,13.3-13.7C-124.9,810.9-125.6,817-126.1,822.9z M-108.8,744.4c-13.3-23.7-4.4-28.6,12.6-33.2
		C-100.8,722.4-105,733.4-108.8,744.4z M-58.8,627.2c-16-33.7-0.8-34.2,22.7-36.1c-6.7,12.2-13.3,24.2-19.6,36.2
		C-56.8,627.2-57.8,627.2-58.8,627.2z M41.1,446.2C41.1,446.2,41,446.2,41.1,446.2c-1.6,0-3.3-0.2-4.9-0.4c-0.1-0.8-0.2-1.5-0.4-2.1
		c-1.4-7.2-5.7-13.7-11.6-19.2c5.6-14.3,20.3-22.5,40.5-33.8C57.8,409.1,49.8,427.6,41.1,446.2z"/>
	<linearGradient id="SVGID_4_" gradientUnits="userSpaceOnUse" x1="1036.4484" y1="796.4801" x2="1036.4484" y2="1026.9435">
		<stop  offset="0" style="stop-color:#1012B0;stop-opacity:0"/>
		<stop  offset="1" style="stop-color:#1012B0"/>
	</linearGradient>
	<path class="st28" d="M1177.9,1352.2c0.8,8.5-1.3,12.9-4,15.1c-1.5-3.2-3.5-6.7-6.2-10.3c-0.4-0.6-0.9-1.1-1.3-1.7
		c0-14.2-0.5-29.2-1.4-45c4.9-0.1,18.7-1,23.6-12.8c0,0,0,0,0,0c1.5-3.7,2.2-8.4,1.4-14.5c-1.4-11.6-15.6-23.8-33.2-34.9
		c-1.9-8.2-4.1-16.4-6.7-24.6c0.1,0.2,0.1,0.3,0.1,0.3s8.9-8.1,13.3-21.6v0c2.2-6.6,3.3-14.5,1.8-23.4c-0.1-0.5-0.2-0.9-0.3-1.4
		c0-0.1,0-0.2-0.1-0.2c-0.1-0.4-0.2-0.8-0.4-1.3c0,0,0,0,0,0c0,0,0,0,0,0c-1.5-4.8-4.5-8.7-8.5-12c0,0,0,0,0,0
		c-0.2-0.1-0.3-0.3-0.5-0.4c-0.7-0.6-1.5-1.2-2.2-1.7c-5.6-4.1-12.1-6.9-18.6-9.3c-0.8-0.3-1.7-0.6-2.6-0.8c-2.5-0.8-5-1.7-7.6-2.5
		c-1.4-0.4-2.9-0.8-4.4-1.2c-1.2-2.6-2.5-5.3-3.8-8c1.7-1.9,5.1-6.3,7-12.1c6.1-0.3,13.3-0.2,20.3,0.9c17.6,2.8,39.4,0.8,55.2-12.3
		s21.7-29.2,21.7-29.2s-30.4,2.3-47,11.3c-12.4,6.7-30.8,17.3-48.9,22.2c0.1-3.4-0.4-7.1-2.1-11c14.1-21.5,22-12.5,43-26.3
		c24.3-16,25.4-43.3,25.4-43.3s-18.4,2.5-30.4,10.6c-18.1,12.7-19.3,29.5-33.1,38.7c-4.5,3-8.5,6.7-11.9,10.4
		c-0.4-0.4-0.9-0.7-1.3-1.1c9.5-26,36.4-41.4,45-66.3c10.4-30.2-2.1-60.2-2.1-60.2c-26.2,23.6-29.4,54.9-27.9,69.8
		s-6.5,25.1-15.8,42.2c-2.1,3.9-3.7,7.9-4.9,11.6c-0.3-0.1-0.7-0.2-1-0.3c2.2-4.2,4.3-9.3,5.7-14.9c2-7.9,2.5-16.9-0.6-25.8
		c-2.4-6.8-7.6-11.4-13.8-14.6c19.1-15.3,20.8-52.9,17.6-73.9l0,0l0,0l0,0l0,0c-20.6,8-54.3,29.8-55.5,55.3c-0.3,2.6,0.2,6.5,1,10.6
		c-1-0.1-2-0.2-3-0.3c-0.2-0.3-0.4-0.6-0.5-1c-5.6-10.1-11.3-20.3-16.9-30.5c0.7-0.7,6.1-6.6,10.2-16c0.4-0.8,0.7-1.7,1-2.5
		c2.1-0.5,3.9-1.1,5.2-1.7c21.1-9.2,28-44.8,27.8-64.7l0,0l0,0v0l0,0c-12.2,2.8-29.7,9.9-42,20.4c-2.4-2.1-5-4-7.8-5.7
		c16.4-12.7,22-43.2,21.9-61.1l0,0l0,0v0l0,0c-8.8,2.1-20.5,6.4-30.9,12.6c-7.9-19.4-30.3-40.1-54.8-51.9c-3.1-1.5-6.1-3-9.1-4.6
		c2.8-3.8,5.4-7.7,7.7-11.8c1.8-3.2,3.5-6.6,4.8-10c4.1-10.4,5.3-21.3-0.3-32.1c-1.4-2.7-3.1-5.2-5.1-7.5
		c7.7-7.2,16.1-15.8,21.5-27.8c12.9-28.8-16.8-67.5-16.8-67.5c-15.9,12.7-26.3,53.9-23,69.8c0.9,4.6,0.5,8.5-0.6,11.8
		c-1.1-0.5-2.3-1-3.4-1.5c-0.8-15.9-0.2-31.7,2.1-47.4c4.9-12.6,9.8-28.4,13.1-40.3c9.2-32.9-17.1-62-17.1-62
		c7.7,16,0.5,32.3-7.9,49.7c-3.8,7.8-5.5,19.2-6.3,29.2c-3.2-13.1-1.9-22.1-1.9-22.1s3.3-27.5-2.3-56.7
		c-5.6-29.2-46.9-61.3-46.9-61.3c19.4,25,9.4,65.5,9.5,111.3c0,10.6,2.8,20.8,6.9,30.2c-1.7-1-3.4-2-5.1-2.7
		c-17.6-7.9-33.7-15.6-38.2-32.8c0,0-1.3,39.2,27.1,58.3c14.3,9.6,35.5,23,48.7,28.4c-0.1,4.3-0.1,8.6,0.1,13
		c-5.3-1.2-10.7-2.6-15.6-4.7c-4.6-2-8.8-4.7-12.6-7.9c-1.9-1.6-3.7-3.4-5.3-5.3c-0.7-0.8-3.1-3.1-4-4.7c-0.2-0.4-0.3-0.7-0.3-1
		c-0.2,4.9,2.5,8.8,4.2,13.1c5.6,13.5,14.6,24.8,27,32.7c2.8,1.8,5.7,3.4,8.7,5c1.6,13.2,4.1,26.3,7.4,39.6
		c-17-12.5-29.3-27.2-33.5-44.3c0,0,0.1,14.9,6.1,32.4c-17.8-17.1-32.2-60.1-61-52.5c0,0-2.7,35.6,34,62.7
		c14.4,10.7,28.5,14.4,40.2,15c4.8,6.4,10.8,12.3,18.3,17.1c2,1.3,3.9,2.5,5.8,3.7c1.2,3.5,2.4,7.1,3.6,10.6
		c-14.9-9.3-36.5-12.7-50.4-12.5l0,0l0,0l0,0l0,0c4.5,19.2,19.5,51.8,42,56.1c0.3,0.1,0.6,0.1,0.9,0.2c4.6,6.3,10.9,12.4,19.6,17.9
		c6.3,4,12.2,6.9,17.8,9.1c3.8,8,7.8,16,11.8,24c-13.9-8.6-38.1-2.9-50.9,2.9l0,0l0,0l0,0l0,0c9.1,12.1,29.9,30.3,47,26.4
		c3.9-0.7,11-4.9,15.3-7.5c4.6,8.6,9.2,17.3,13.9,25.9c-3-1.2-6.4-2.1-10.6-2.3c-21.4-1.2-55.1,3.6-93.7-25.8c0,0,8.3,19.3,23,27.3
		c0,0-5.4,6.1-17-3.3c0,0,10.3,18.8,42.4,24.6c17.9,3.2,31.2-2,43.2-3.8c1.3,3.8,3,7.4,4.6,10.5c1.7,3.2,3.7,6.4,5.9,9.3
		c-16.9,0-34-2.9-39.1-12.2c0,0,6.9,38.5,37.5,56.9c20.5,12.3,37.1,2.8,45.9-4.8c4.1,7.4,8.1,14.8,12,22.2c-2.8,0.3-5.6,0.6-8.4,0.7
		c-0.1,0-0.2,0-0.4,0c-13.7,0.7-27.4-1.4-39.1-8.8c0,0-0.1-0.1-0.1-0.1c-0.8-0.5-1.5-1-2.3-1.5c0,0.1,0.4,1,1.2,2.4
		c2.5,4.4,9.2,13.8,21.8,18.7c0,0-5.3,4.3-15.7-0.3c0.3,0.5,12,20,31.8,14.9c1.6-0.4,3.2-1,4.9-1.5c2.1,13.8,9.1,34.6,28.7,44.9
		c5,2.6,10.1,4.7,15,6.3c4.1,9.2,7.9,18.4,11.3,27.5c-5-5.3-11.4-10.6-19.1-13.9c-21-9.2-40.7-24.2-41.8-45.6
		c0,0-18.1,26.5,7.7,60.9c-11.5-7.7-23.3-17-26.9-26.7c0,0,0,0,0,0c-0.1-0.4-0.3-0.8-0.4-1.2c0,0-1.1,41.1,35.6,63.3
		c19.2,11.6,44,19.4,63.7,26.8c1.8,9.4,3.2,18.8,4,28.1c0.5,5.4,0.8,10.8,1.2,16c-5.3-6.2-14.6-15.1-26.5-18.9
		c-19.1-6-37.6-17.1-40.7-35.5c0,0-14.7,27.7,17.5,56.9c22.5,20.3,41.2,15.8,50.4,11.2c0.3,7.2,0.6,14.3,0.7,21.2
		c-30.4-14.5-77.3-12.8-101.8-63c0,0,0,0,0,0s-14.3,39,31.9,62.3c32.6,16.5,54,9.1,70.2,15.3c0,23.5-1.1,44.7-3,63.6
		c-10.4-3.4-21.4-4.9-32.1-7c-13-2.5-25.3-6.9-36.3-14.5c-12-8.4-20.5-22.6-23.8-35.6c0.1,0.5,0.1,1,0.1,1.4
		c0.2,3.5-0.3,7.1-0.1,10.7c0.4,5.1,1.4,10.2,2.9,15c3.1,9.8,8.3,18.9,15.1,26.6c9,10.1,20.6,17.8,33.2,22.7
		c6.4,2.5,13.1,4.3,19.9,5c5.9,0.7,11.8,0.4,17.7,1.2c0,0,0.1,0,0.1,0c-1.4,9.7-2.9,18.6-4.6,26.8c-9.4-22.8-34.1-25.7-58.6-30.1
		c-25.7-4.6-29.5-29.1-29.5-29.1s-8,18,7.6,43.7c15.6,25.7,42.4,34.5,61.3,29.5c8.7-2.3,13.9-2.8,16.9-2.6c-0.7,3.3-1.5,6.5-2.3,9.5
		c-10.9,43.4-23.9,64.8-24.1,65c-2.6,4.2-1.3,9.7,2.9,12.2c1.5,0.9,3.1,1.3,4.7,1.3c3,0,5.9-1.5,7.6-4.2
		c0.6-0.9,14.3-23.2,25.9-68.9c0.7-2.6,1.3-5.4,2-8.2c1.3-1.5,10.4-12.5,15.5-20.4c1.4-2.2,2.5-4.2,3-5.7c2.6-7.5,3.3-16.2,0.6-23.8
		c-1.7-4.8-4.9-8.9-8.8-12.1c0.8-7.6,1.5-15.5,2.1-23.8c3.6-2.5,9.9-8.1,12-17c24.7,3.7,43-44.5,36.4-70.4c-7.1-28.1,8.5-39,8.5-39
		C1182,1284.5,1176,1333,1177.9,1352.2z M1167.5,1384.4c-0.4,1.5-1,2.7-1.7,3.8c0.1-1.5,0.1-3.1,0.2-4.6
		C1166.4,1383.9,1167,1384.1,1167.5,1384.4z M1121.1,1228.3c4.4-0.5,8.2-1.7,11.1-2.8c1.1,3.4,2.1,6.8,3,10.1
		C1130.5,1233,1125.7,1230.6,1121.1,1228.3z M1032.5,1020.4c1.1,2.1,2.3,4.1,3.4,6.2c-6.6-2.6-12.8-6.2-18.6-10.3
		c-1.2-0.8-2.3-1.7-3.5-2.6C1020.1,1013.6,1026.2,1015.2,1032.5,1020.4z M966.5,900.9c-0.1-0.1-0.2-0.1-0.3-0.2
		c-0.5-0.3-0.9-0.7-1.4-1c-0.3-0.2-0.6-0.5-0.9-0.7c-0.2-0.2-0.4-0.4-0.7-0.6c2.7-0.3,5-0.7,6.6-0.9c1,2.4,2.1,4.7,3.1,7.1
		c-2-1-3.9-2-5.5-3C967.1,901.3,966.8,901.1,966.5,900.9z M1100.1,1107c0.1,0,0.1,0,0.2,0c0.1,0.1,0.1,0.2,0.1,0.2s0.1-0.1,0.2-0.3
		c2-0.3,3.9-0.1,5.6,0.4c-0.3,2.1-0.5,4-0.5,5.5c-0.8,1.2-1.2,1.9-1.2,1.9l-0.1,0.5C1102.9,1112.5,1101.5,1109.8,1100.1,1107z
		 M1083.4,1113.6c4.5,8.5,8.8,17,12.9,25.5c-5.7-3.2-10.9-7.2-15.9-11.3c-3.1-2.5-6.1-5.4-8.4-8.8
		C1075.9,1117.4,1079.8,1115.4,1083.4,1113.6z M1111.5,1128.9c-0.1,0.1-0.1,0.2-0.2,0.3c0-0.1-0.1-0.2-0.1-0.2
		C1111.3,1128.9,1111.4,1128.9,1111.5,1128.9z M1044.4,983.5c-3.4,4.3-7.2,6.4-8.1,6.9c-1-1.9-2.1-3.8-3.1-5.7
		C1035.4,984.5,1039.8,984.1,1044.4,983.5z M959.1,789.7c4.3,7.5,3.2,16.9,0.9,24.8c-0.1,0.5-0.3,1-0.5,1.5c-2.8-10.4-5.2-20.7-7-31
		c0.2-0.7,0.5-1.3,0.8-2C955.6,785,957.6,787.1,959.1,789.7z M1026,935.4c4.7,1.2,8.8,3,12.4,6.2c-4.2,4.8-7.3,10.1-8.4,15.9
		c-1.3,5.2,0.2,17.1,1.1,23.3c-7.7-14.2-15.2-28.5-22.4-42.7C1013.5,937.6,1020.7,936.8,1026,935.4z M1013.6,892
		c-5.8,5.6-10.1,12-11.5,19.2c-0.2,0.6-0.3,1.3-0.3,2.1c-1.6,0.2-3.3,0.4-4.9,0.4c0,0,0,0,0,0c-8.7-18.5-16.7-37-23.6-55.4
		C993.4,869.5,1008,877.7,1013.6,892z M1073.8,1058.2c23.4,1.9,38.6,2.4,22.7,36c-1,0-2.1,0-3.1,0.1
		C1087.1,1082.4,1080.5,1070.3,1073.8,1058.2z M1146.3,1211.1c-3.7-11-7.9-22-12.5-33.1C1150.7,1182.7,1159.5,1187.5,1146.3,1211.1z
		 M1174.6,1285.1c2.3,14.2-5.9,16.3-10.1,16.4c-0.3-4-0.6-8.1-0.9-12.2c-0.5-6-1.2-12-2.1-18
		C1168.9,1275.5,1173.8,1279.9,1174.6,1285.1z M1155.1,1477.9c1.2-6,2.4-12.3,3.5-19.1c3.7,9.4-0.9,16.5-2.9,19
		C1155.5,1477.9,1155.3,1478,1155.1,1477.9z"/>
	<linearGradient id="SVGID_5_" gradientUnits="userSpaceOnUse" x1="2017.0367" y1="192.1972" x2="2017.0367" y2="1074.9768">
		<stop  offset="0" style="stop-color:#1012B0;stop-opacity:0"/>
		<stop  offset="1" style="stop-color:#1012B0"/>
	</linearGradient>
	<path class="st29" d="M2201.7,989.9c-39.6,5.9-45.6,54.3-43.7,73.5c0.8,8.5-1.3,12.8-3.9,15c-1.5-3.2-3.5-6.6-6.1-10.3
		c-0.4-0.6-0.9-1.1-1.3-1.7c0-14.2-0.5-29.1-1.4-44.9c4.9-0.1,18.6-1,23.5-12.8c0,0,0,0,0,0c1.5-3.7,2.2-8.4,1.4-14.4
		c-1.4-11.5-15.5-23.7-33.1-34.8c-1.9-8.1-4.1-16.3-6.6-24.5c0.1,0.2,0.1,0.3,0.1,0.3s8.8-8.1,13.2-21.5v0
		c2.2-6.6,3.3-14.5,1.7-23.3c-0.1-0.5-0.2-0.9-0.3-1.4c0-0.1,0-0.2-0.1-0.2c-0.1-0.4-0.2-0.8-0.3-1.2c0,0,0,0,0,0c0,0,0,0,0-0.1
		c-1.5-4.8-4.5-8.7-8.5-12c0,0,0,0,0,0c-0.2-0.1-0.3-0.3-0.5-0.4c-0.7-0.6-1.5-1.2-2.2-1.7c-5.6-4-12.1-6.9-18.5-9.3
		c-0.8-0.3-1.7-0.6-2.6-0.8c-2.5-0.8-5-1.7-7.5-2.4c-1.4-0.4-2.9-0.8-4.3-1.2c-1.2-2.6-2.5-5.3-3.8-7.9c1.7-1.9,5.1-6.3,7-12.1
		c6.1-0.3,13.2-0.2,20.2,0.9c17.5,2.8,39.3,0.8,55.1-12.3c15.7-13.1,21.7-29.2,21.7-29.2s-30.3,2.3-46.9,11.3
		c-12.4,6.7-30.8,17.2-48.7,22.1c0.1-3.4-0.4-7.1-2.1-11c14.1-21.5,21.9-12.5,42.8-26.3c24.2-16,25.4-43.2,25.4-43.2
		s-18.3,2.5-30.3,10.6c-18.1,12.7-19.3,29.4-33,38.6c-4.5,3-8.5,6.7-11.8,10.4c-0.4-0.4-0.9-0.7-1.3-1.1c9.5-26,36.2-41.2,44.8-66.1
		c10.4-30.1-2.1-60-2.1-60c-26.1,23.5-29.3,54.7-27.8,69.6c1.6,14.9-6.5,25.1-15.8,42.1c-2.1,3.9-3.7,7.8-4.9,11.5
		c-0.3-0.1-0.7-0.2-1-0.3c2.1-4.2,4.3-9.3,5.7-14.8c2-7.9,2.5-16.9-0.6-25.7c-2.4-6.8-7.5-11.3-13.8-14.5
		c19-15.2,20.8-52.8,17.6-73.6l0,0l0,0v0l0,0c-20.5,8-54.1,29.7-55.4,55.1c-0.3,2.6,0.2,6.5,1,10.5c-1-0.1-2-0.2-3-0.3
		c-0.2-0.3-0.4-0.6-0.5-1c-5.6-10.1-11.2-20.2-16.8-30.4c0.7-0.7,6.1-6.5,10.2-16c0.4-0.8,0.7-1.6,1-2.5c2.1-0.5,3.9-1.1,5.2-1.7
		c21-9.2,28-44.7,27.8-64.5l0,0l0,0v0l0,0c-12.1,2.8-29.6,9.9-41.9,20.4c-2.4-2.1-5-4-7.7-5.7c16.4-12.7,22-43.1,21.8-60.9l0,0l0,0
		v0l0,0c-8.8,2.1-20.4,6.3-30.8,12.5c-7.8-19.3-30.2-39.9-54.7-51.8c-3.1-1.5-6.1-3-9-4.6c2.8-3.8,5.4-7.7,7.7-11.8
		c1.8-3.2,3.5-6.6,4.8-10c4.1-10.3,5.2-21.3-0.3-32c-1.4-2.7-3.1-5.2-5.1-7.4c7.7-7.2,16-15.7,21.4-27.7
		c12.9-28.8-16.7-67.3-16.7-67.3c-15.8,12.7-26.3,53.7-23,69.6c0.9,4.5,0.5,8.5-0.6,11.8c-1.1-0.5-2.3-1-3.4-1.5
		c-0.8-15.9-0.2-31.6,2.1-47.2c4.9-12.6,9.7-28.3,13.1-40.2c9.2-32.8-17-61.8-17-61.8c7.7,15.9,0.5,32.2-7.9,49.5
		c-3.8,7.8-5.5,19.1-6.3,29.1c-3.2-13.1-1.9-22-1.9-22s3.3-27.4-2.3-56.5c-5.5-29.1-46.8-61.1-46.8-61.1
		c19.3,24.9,9.4,65.3,9.5,110.9c0,10.6,2.7,20.7,6.9,30.1c-1.7-1-3.4-2-5-2.7c-17.6-7.8-33.6-15.6-38.1-32.7c0,0-1.2,39,27,58.1
		c14.2,9.6,35.4,22.9,48.5,28.3c-0.1,4.3-0.1,8.6,0.1,12.9c-5.3-1.2-10.6-2.6-15.5-4.7c-4.5-2-8.8-4.7-12.6-7.9
		c-1.9-1.6-3.7-3.4-5.3-5.2c-0.7-0.8-3.1-3.1-4-4.7c-0.2-0.4-0.3-0.7-0.3-1c-0.2,4.9,2.4,8.8,4.2,13.1c5.6,13.5,14.5,24.7,26.9,32.6
		c2.8,1.8,5.7,3.4,8.7,5c1.6,13.1,4.1,26.3,7.3,39.4c-16.9-12.5-29.2-27.1-33.4-44.2c0,0,0.1,14.9,6.1,32.3
		c-17.8-17-32.1-59.9-60.8-52.3c0,0-2.7,35.5,33.9,62.5c14.4,10.6,28.4,14.4,40,15c4.8,6.4,10.8,12.2,18.2,17c2,1.3,3.9,2.5,5.8,3.6
		c1.2,3.5,2.4,7,3.6,10.6c-14.8-9.3-36.4-12.6-50.3-12.5l0,0l0,0h0l0,0c4.5,19.2,19.5,51.6,41.8,55.9c0.3,0.1,0.6,0.1,0.9,0.2
		c4.6,6.2,10.9,12.4,19.6,17.9c6.3,4,12.2,6.9,17.7,9.1c3.8,8,7.8,15.9,11.8,23.9c-13.8-8.6-38-2.9-50.8,2.9l0,0l0,0l0,0l0,0
		c9.1,12.1,29.8,30.2,46.8,26.3c3.8-0.7,11-4.9,15.2-7.5c4.5,8.6,9.2,17.2,13.8,25.8c-2.9-1.2-6.4-2.1-10.5-2.3
		c-21.4-1.2-55,3.6-93.4-25.7c0,0,8.3,19.2,23,27.2c0,0-5.4,6-16.9-3.3c0,0,10.3,18.7,42.3,24.5c17.8,3.2,31.1-2,43-3.8
		c1.3,3.8,3,7.4,4.6,10.5c1.7,3.2,3.7,6.3,5.9,9.3c-16.9,0-33.9-2.9-38.9-12.1c0,0,6.9,38.4,37.4,56.7c20.4,12.2,37,2.8,45.8-4.7
		c4.1,7.4,8.1,14.8,12,22.1c-2.8,0.3-5.6,0.6-8.4,0.7c-0.1,0-0.2,0-0.4,0c-13.7,0.7-27.3-1.4-39-8.8c0,0-0.1-0.1-0.1-0.1
		c-0.8-0.5-1.5-1-2.2-1.5c0,0.1,0.4,1,1.2,2.4c2.5,4.4,9.1,13.7,21.7,18.6c0,0-5.3,4.2-15.6-0.3c0.3,0.5,12,20,31.7,14.8
		c1.6-0.4,3.2-1,4.8-1.5c2.1,13.8,9.1,34.4,28.7,44.7c5,2.6,10,4.6,14.9,6.3c4.1,9.2,7.8,18.3,11.3,27.4c-5-5.3-11.4-10.6-19-13.9
		c-21-9.2-40.6-24.2-41.7-45.5c0,0-18,26.5,7.7,60.7c-11.5-7.7-23.3-16.9-26.8-26.6c0,0,0,0,0,0c-0.1-0.4-0.3-0.8-0.4-1.2
		c0,0-1.1,41,35.5,63.1c19.2,11.6,43.9,19.3,63.5,26.7c1.8,9.4,3.2,18.7,4,28c0.5,5.4,0.8,10.7,1.2,16c-5.3-6.2-14.5-15.1-26.4-18.8
		c-19.1-5.9-37.5-17-40.5-35.4c0,0-14.7,27.7,17.4,56.7c22.4,20.3,41,15.7,50.3,11.1c0.3,7.2,0.6,14.3,0.7,21.1
		c-30.3-14.5-77-12.7-101.5-62.8c0,0,0,0,0,0s-14.2,38.8,31.8,62.2c32.5,16.5,53.8,9.1,69.9,15.2c0,23.4-1.1,44.5-3,63.4
		c-10.3-3.4-21.3-4.9-32-7c-13-2.5-25.2-6.8-36.2-14.4c-12-8.3-20.4-22.5-23.7-35.5c0.1,0.5,0.1,1,0.1,1.4c0.2,3.5-0.3,7.1-0.1,10.6
		c0.4,5.1,1.4,10.1,2.9,15c3.1,9.8,8.3,18.9,15.1,26.5c9,10.1,20.5,17.7,33.1,22.6c6.4,2.5,13,4.3,19.9,5c5.8,0.7,11.8,0.4,17.6,1.2
		c0,0,0.1,0,0.1,0c-1.4,9.7-2.9,18.6-4.6,26.7c-9.3-22.7-34-25.7-58.5-30c-25.6-4.6-29.5-29-29.5-29s-8,18,7.6,43.6
		c15.5,25.6,42.3,34.4,61.1,29.4c8.7-2.3,13.8-2.8,16.8-2.6c-0.7,3.3-1.5,6.4-2.3,9.4c-10.9,43.3-23.9,64.6-24,64.8
		c-2.6,4.2-1.3,9.6,2.9,12.2c1.5,0.9,3.1,1.3,4.7,1.3c3,0,5.9-1.5,7.5-4.2c0.6-0.9,14.2-23.2,25.8-68.7c0.7-2.6,1.3-5.4,2-8.2
		c1.3-1.5,10.4-12.5,15.4-20.3c1.4-2.2,2.5-4.2,3-5.6c2.6-7.5,3.3-16.1,0.6-23.8c-1.7-4.8-4.9-8.8-8.8-12c0.8-7.5,1.5-15.5,2.1-23.8
		c3.6-2.5,9.9-8.1,11.9-16.9c24.6,3.7,42.8-44.3,36.3-70.2C2186.1,1000.8,2201.7,989.9,2201.7,989.9z M2147.7,1095.5
		c-0.4,1.5-1,2.7-1.7,3.8c0.1-1.5,0.1-3.1,0.2-4.6C2146.6,1094.9,2147.1,1095.2,2147.7,1095.5z M2101.4,939.8
		c4.4-0.5,8.2-1.7,11.1-2.8c1.1,3.4,2.1,6.7,3,10.1C2110.8,944.5,2106,942.1,2101.4,939.8z M2013.1,732.6c1.1,2.1,2.3,4.1,3.4,6.2
		c-6.6-2.6-12.8-6.2-18.5-10.2c-1.2-0.8-2.3-1.7-3.5-2.6C2000.8,725.8,2006.8,727.4,2013.1,732.6z M1947.3,613.4
		c-0.1-0.1-0.2-0.1-0.3-0.2c-0.5-0.3-0.9-0.7-1.4-1c-0.3-0.2-0.6-0.5-0.9-0.7c-0.2-0.2-0.4-0.4-0.7-0.6c2.7-0.3,5-0.7,6.6-0.9
		c1,2.4,2.1,4.7,3.1,7.1c-2-1-3.9-2-5.5-3C1947.9,613.9,1947.6,613.7,1947.3,613.4z M2080.5,819c0.1,0,0.1,0,0.2,0
		c0.1,0.1,0.1,0.2,0.1,0.2s0.1-0.1,0.2-0.3c2-0.3,3.8-0.1,5.6,0.4c-0.3,2.1-0.5,3.9-0.5,5.5c-0.8,1.2-1.2,1.9-1.2,1.9l-0.1,0.5
		C2083.3,824.4,2081.9,821.7,2080.5,819z M2063.9,825.5c4.4,8.5,8.8,17,12.9,25.4c-5.6-3.2-10.8-7.2-15.8-11.3
		c-3.1-2.5-6.1-5.4-8.4-8.7C2056.4,829.2,2060.2,827.3,2063.9,825.5z M2091.9,840.7c-0.1,0.1-0.1,0.2-0.2,0.3c0-0.1-0.1-0.2-0.1-0.2
		C2091.7,840.8,2091.8,840.8,2091.9,840.7z M2025,695.8c-3.3,4.2-7.2,6.4-8.1,6.9c-1-1.9-2.1-3.8-3.1-5.7
		C2016,696.8,2020.4,696.4,2025,695.8z M1940,502.7c4.3,7.5,3.2,16.8,0.9,24.7c-0.1,0.5-0.3,1-0.5,1.5c-2.8-10.3-5.2-20.6-7-30.9
		c0.2-0.7,0.5-1.3,0.8-2C1936.5,497.9,1938.5,500.1,1940,502.7z M2006.6,647.9c4.7,1.2,8.8,3,12.4,6.2c-4.2,4.8-7.2,10.1-8.4,15.9
		c-1.3,5.2,0.2,17,1.1,23.2c-7.7-14.2-15.1-28.4-22.3-42.6C1994.2,650.1,2001.4,649.2,2006.6,647.9z M1994.3,604.6
		c-5.8,5.6-10.1,12-11.5,19.1c-0.2,0.6-0.3,1.3-0.3,2.1c-1.6,0.2-3.3,0.4-4.8,0.4c0,0,0,0,0,0c-8.7-18.4-16.7-36.9-23.5-55.2
		C1974.2,582.2,1988.7,590.4,1994.3,604.6z M2054.3,770.3c23.4,1.9,38.5,2.4,22.6,35.9c-1,0-2.1,0-3.1,0.1
		C2067.5,794.4,2060.9,782.4,2054.3,770.3z M2126.5,922.7c-3.7-10.9-7.9-21.9-12.5-33C2130.9,894.3,2139.7,899.1,2126.5,922.7z
		 M2154.8,996.5c2.3,14.2-5.9,16.2-10.1,16.4c-0.3-4-0.6-8-0.9-12.1c-0.5-6-1.2-11.9-2.1-17.9C2149,986.9,2153.9,991.3,2154.8,996.5
		z M2135.3,1188.7c1.2-5.9,2.4-12.3,3.5-19c3.7,9.3-0.9,16.5-2.9,19C2135.7,1188.7,2135.5,1188.7,2135.3,1188.7z"/>
</g>
</svg>
