<?xml version="1.0" encoding="utf-8"?>
<!-- Generator: Adobe Illustrator 19.0.0, SVG Export Plug-In . SVG Version: 6.00 Build 0)  -->
<svg version="1.1" id="background" xmlns="http://www.w3.org/2000/svg" xmlns:xlink="http://www.w3.org/1999/xlink" x="0px" y="0px"
	 viewBox="0 0 1920 1039.9" style="enable-background:new 0 0 1920 1039.9;" xml:space="preserve">
<style type="text/css">
	.st0{clip-path:url(#SVGID_2_);fill:#0786FF;}
	.st1{clip-path:url(#SVGID_2_);fill:#0933DC;}
	.st2{clip-path:url(#SVGID_2_);fill:url(#SVGID_3_);}
	.st3{clip-path:url(#SVGID_2_);}
	.st4{fill:url(#SVGID_4_);}
	.st5{fill:url(#SVGID_5_);}
	.st6{fill:url(#SVGID_6_);}
	.st7{fill:url(#SVGID_7_);}
	.st8{fill:url(#SVGID_8_);}
	.st9{fill:url(#SVGID_9_);}
	.st10{fill:url(#SVGID_10_);}
	.st11{fill:url(#SVGID_11_);}
	.st12{clip-path:url(#SVGID_2_);fill:url(#SVGID_12_);}
	.st13{opacity:0.21;clip-path:url(#SVGID_2_);}
	.st14{fill:#39E2FF;}
	.st15{opacity:0.6;}
	.st16{opacity:0.37;clip-path:url(#SVGID_2_);}
	.st17{opacity:0.29;clip-path:url(#SVGID_2_);}
	.st18{opacity:0.22;clip-path:url(#SVGID_2_);}
	.st19{fill:url(#SVGID_13_);}
	.st20{fill:url(#SVGID_14_);}
	.st21{fill:url(#SVGID_15_);}
	.st22{fill:url(#SVGID_16_);}
	.st23{clip-path:url(#SVGID_2_);fill:url(#XMLID_4_);}
	.st24{clip-path:url(#SVGID_2_);fill:url(#XMLID_5_);}
	.st25{opacity:0.21;clip-path:url(#SVGID_2_);fill:url(#SVGID_17_);}
	.st26{opacity:0.11;clip-path:url(#SVGID_2_);fill:url(#SVGID_18_);}
	.st27{clip-path:url(#SVGID_2_);fill:url(#SVGID_19_);}
</style>
<g>
	<defs>
		<rect id="SVGID_1_" width="1920" height="1039.9"/>
	</defs>
	<clipPath id="SVGID_2_">
		<use xlink:href="#SVGID_1_"  style="overflow:visible;"/>
	</clipPath>
	<rect x="-258.3" y="-236.2" class="st0" width="2436.6" height="1512.2"/>
	<rect x="-359" y="-263" class="st1" width="2852" height="1652"/>
	
		<linearGradient id="SVGID_3_" gradientUnits="userSpaceOnUse" x1="959.6464" y1="-4.317917e-008" x2="959.6464" y2="1039.9161" gradientTransform="matrix(1 0 0 -1 0 1039.9161)">
		<stop  offset="0" style="stop-color:#005BF6;stop-opacity:0"/>
		<stop  offset="1" style="stop-color:#0056F5"/>
	</linearGradient>
	<rect x="0.1" class="st2" width="1919.1" height="1039.9"/>
	<g class="st3">
		
			<radialGradient id="SVGID_4_" cx="1465.0031" cy="244.0003" r="775.4741" gradientTransform="matrix(-0.2236 0.9747 -0.8433 -0.1934 1998.2678 -1136.7336)" gradientUnits="userSpaceOnUse">
			<stop  offset="0.1595" style="stop-color:#015BF7"/>
			<stop  offset="0.4074" style="stop-color:#015BF7;stop-opacity:0.9"/>
			<stop  offset="0.8471" style="stop-color:#015DFC;stop-opacity:0.2322"/>
			<stop  offset="1" style="stop-color:#015FFF;stop-opacity:0"/>
		</radialGradient>
		<path class="st4" d="M-5-141C-201,83-211-77-181,257s-186,676,28,870s768,432,1118,438s594-38,796-160s530-200,466-778
			s152-546-122-810s-42-316-324-264s-752,120-752,120"/>
		
			<radialGradient id="SVGID_5_" cx="119.7351" cy="-51.24" r="619.2622" gradientTransform="matrix(0.2471 0.969 -0.8789 0.2241 45.1147 -155.7785)" gradientUnits="userSpaceOnUse">
			<stop  offset="0.2453" style="stop-color:#015BF7;stop-opacity:0.9"/>
			<stop  offset="0.8244" style="stop-color:#015EFC;stop-opacity:0.5"/>
			<stop  offset="0.9851" style="stop-color:#015FFF;stop-opacity:0"/>
		</radialGradient>
		<path class="st5" d="M-5-141C-201,83-211-77-181,257s-186,676,28,870s768,432,1118,438s594-38,796-160s530-200,466-778
			s152-546-122-810s-42-316-324-264s-752,120-752,120"/>
		
			<radialGradient id="SVGID_6_" cx="284.7516" cy="-27.2376" r="1014.3188" gradientTransform="matrix(0.9998 2.070562e-002 -7.751224e-003 0.3743 -0.1501 -22.9393)" gradientUnits="userSpaceOnUse">
			<stop  offset="0.2453" style="stop-color:#015BF7;stop-opacity:0.9"/>
			<stop  offset="0.8003" style="stop-color:#015EFC;stop-opacity:0.1779"/>
			<stop  offset="0.8218" style="stop-color:#015EFC;stop-opacity:0.15"/>
			<stop  offset="0.9851" style="stop-color:#015FFF;stop-opacity:0"/>
		</radialGradient>
		<path class="st6" d="M-5-141C-201,83-211-77-181,257s-186,676,28,870s768,432,1118,438s594-38,796-160s530-200,466-778
			s152-546-122-810s-42-316-324-264s-752,120-752,120"/>
		
			<radialGradient id="SVGID_7_" cx="1193.8425" cy="8.766" r="1014.3188" gradientTransform="matrix(0.9998 2.070562e-002 -7.751224e-003 0.3743 0.3239 -19.2341)" gradientUnits="userSpaceOnUse">
			<stop  offset="0.2453" style="stop-color:#015BF7;stop-opacity:0.9"/>
			<stop  offset="0.8003" style="stop-color:#015EFC;stop-opacity:0.1779"/>
			<stop  offset="0.8218" style="stop-color:#015EFC;stop-opacity:0.15"/>
			<stop  offset="0.9851" style="stop-color:#015FFF;stop-opacity:0"/>
		</radialGradient>
		<path class="st7" d="M-5-141C-201,83-211-77-181,257s-186,676,28,870s768,432,1118,438s594-38,796-160s530-200,466-778
			s152-546-122-810s-42-316-324-264s-752,120-752,120"/>
	</g>
	<g class="st3">
		
			<radialGradient id="SVGID_8_" cx="1465.0031" cy="244.0003" r="775.4741" gradientTransform="matrix(-0.2236 0.9747 -0.8433 -0.1934 1998.2678 -1136.7336)" gradientUnits="userSpaceOnUse">
			<stop  offset="0.1595" style="stop-color:#015BF7"/>
			<stop  offset="0.4074" style="stop-color:#015BF7;stop-opacity:0.9"/>
			<stop  offset="1" style="stop-color:#015FFF;stop-opacity:0"/>
		</radialGradient>
		<path class="st8" d="M-5-141C-201,83-211-77-181,257s-186,676,28,870s768,432,1118,438s594-38,796-160s530-200,466-778
			s152-546-122-810s-42-316-324-264s-752,120-752,120"/>
		
			<radialGradient id="SVGID_9_" cx="119.7351" cy="-51.24" r="619.2622" gradientTransform="matrix(0.2471 0.969 -0.8789 0.2241 45.1147 -155.7785)" gradientUnits="userSpaceOnUse">
			<stop  offset="0.2453" style="stop-color:#015BF7;stop-opacity:0.9"/>
			<stop  offset="0.6759" style="stop-color:#015EFC;stop-opacity:0.5"/>
			<stop  offset="0.9158" style="stop-color:#015FFF;stop-opacity:0"/>
		</radialGradient>
		<path class="st9" d="M-5-141C-201,83-211-77-181,257s-186,676,28,870s768,432,1118,438s594-38,796-160s530-200,466-778
			s152-546-122-810s-42-316-324-264s-752,120-752,120"/>
		
			<radialGradient id="SVGID_10_" cx="284.7516" cy="-27.2376" r="1014.3188" gradientTransform="matrix(0.9998 2.070562e-002 -7.751224e-003 0.3743 -0.1501 -22.9393)" gradientUnits="userSpaceOnUse">
			<stop  offset="0.2453" style="stop-color:#015BF7;stop-opacity:0.9"/>
			<stop  offset="0.8003" style="stop-color:#015EFC;stop-opacity:0.1779"/>
			<stop  offset="0.8218" style="stop-color:#015EFC;stop-opacity:0.15"/>
			<stop  offset="0.9851" style="stop-color:#015FFF;stop-opacity:0"/>
		</radialGradient>
		<path class="st10" d="M-5-141C-201,83-211-77-181,257s-186,676,28,870s768,432,1118,438s594-38,796-160s530-200,466-778
			s152-546-122-810s-42-316-324-264s-752,120-752,120"/>
		
			<radialGradient id="SVGID_11_" cx="1193.8425" cy="8.766" r="1014.3188" gradientTransform="matrix(0.9998 2.070562e-002 -7.751224e-003 0.3743 0.3239 -19.2341)" gradientUnits="userSpaceOnUse">
			<stop  offset="0.2453" style="stop-color:#015BF7;stop-opacity:0.9"/>
			<stop  offset="0.8003" style="stop-color:#015EFC;stop-opacity:0.1779"/>
			<stop  offset="0.8218" style="stop-color:#015EFC;stop-opacity:0.15"/>
			<stop  offset="0.9851" style="stop-color:#015FFF;stop-opacity:0"/>
		</radialGradient>
		<path class="st11" d="M-5-141C-201,83-211-77-181,257s-186,676,28,870s768,432,1118,438s594-38,796-160s530-200,466-778
			s152-546-122-810s-42-316-324-264s-752,120-752,120"/>
	</g>
	<linearGradient id="SVGID_12_" gradientUnits="userSpaceOnUse" x1="959.6464" y1="230.2602" x2="959.6464" y2="-3.7289">
		<stop  offset="0" style="stop-color:#015FFF;stop-opacity:0"/>
		<stop  offset="1" style="stop-color:#015BF7"/>
	</linearGradient>
	<rect x="0.1" class="st12" width="1919.1" height="1039.9"/>
	<g class="st13">
		<path class="st14" d="M473.4-61.1c-0.7,0.7-18.4,16.9,120.4,16.5c138.8-0.4,117-12.6,113.5-14.7C703.9-61.5,504.3-90.1,473.4-61.1
			z"/>
		<path class="st14" d="M748.8-60.4c0,0,22.1,12.1,56.1,12.6c34,0.4,76.4-6.7,75.5-15.2S726.7-75.4,748.8-60.4z"/>
		<path class="st14" d="M919.1-58c1.2,0.6,19.6,12.8,56.8,14.1c37.1,1.3,83.6-0.6,120.4-0.6s131.9,6.3,139.4-1.9
			c7.5-8.2,8.7-15.2,8.7-15.2s-165.6-38.5-221.8-31.4s-49,1.5-69.2,10.4C933.1-73.8,919.1-58,919.1-58z"/>
		<path class="st14" d="M1313.9-55.4c0,0.6-5.6,8,25.6,7.8c31.2-0.2,41.2-0.4,72.7-2.2c31.5-1.7,75.8-0.9,107,2.6
			c31.2,3.5,108.8,7.1,109.5-3.2s-25.3-22.9-25.3-22.9S1393.8-86,1384.7-83.6c-9,2.4-13.7,3.9-20.9,6.7
			C1356.7-74.1,1313.9-55.4,1313.9-55.4z"/>
		<path class="st14" d="M1657.6-57c0,0-9.4,10.6,3.4,12.6c12.8,1.9,53.3,12.6,128.5-18.4c75.2-31-131.9-4.8-132.9-2.8
			S1657.6-57,1657.6-57z"/>
		<path class="st14" d="M1772.1-46.4c-1.8,6.9,23.7,20.1,61.4,19.5c37.7-0.6,46.5-9.1,47.1-13.9s-29-7.8-45.8-9.7
			S1775.2-58.7,1772.1-46.4z"/>
		<path class="st14" d="M842.7-39.6c-29.9,0.2-74.9,0.6-77.7,12.6c-2.8,11.9,3.4,31.8,52.4,25.3c49-6.5,65.2-12.6,119.1-11.5
			c54,1.1,83,1.1,108.2,1.1s74.9-0.2,76.4-10.6c1.6-10.4-32.4-12.1-58.3-13.2s-85.5-4.3-121.9-4.1C904.4-39.9,842.7-39.6,842.7-39.6
			z"/>
		<path class="st14" d="M1150.2-23.8c0,14.1,62.4,11.9,111.3,10c49-1.9,133.2-3.9,168.1-5.2c34.9-1.3,76.1-9.7,74.9-17.5
			s-37.7-5.4-74.5-4.3s-158.7,5.2-170,5.2s-20,3.7-33.4,4.1C1213.2-31.2,1150.2-32.7,1150.2-23.8z"/>
		<path class="st14" d="M1639.5,2.6c-0.7,6.3,12.5,9.3-17.2,16.9s-55.5,11-52.7,19.7s37.4,9.5,83.9,3.2
			c46.5-6.3,97.3-13.6,98.2-24.7s-57.1-16.7-76.7-18.8S1640.5-5.4,1639.5,2.6z"/>
		<path class="st14" d="M1594.6-2.6c1,10.4-60.2,19-95.1,21.4s-97.3-3.7-124.1-3.9s-131,10.2-130.4-0.4c0.6-10.6,73-19.5,123.8-24
			c50.8-4.5,137.2-7.1,173.4-6.3S1594-9.3,1594.6-2.6z"/>
		<path class="st14" d="M472.1,19.1c-0.7,7.6,74.2,18.9,111.4,21.5s104.6,4.8,171.7-0.3s110-5.3,170.9-14.1
			c60.9-8.8,73.2-14.1,72.4-21.4c-0.8-7.2-62.4-14.7-99.2-9.1c-36.8,5.6-29.7,12.7-68.4,15.6C792.3,14.2,670,11.2,638.4,12
			S472.7,11.9,472.1,19.1z"/>
		<path class="st14" d="M273.5,17.5c-1.2,10.8,61.1,19.7,112.9,24.2s96.4,1.3,97.6-5c1.2-6.3-50.8-12.1-64.9-16.2
			c-14-4.1-55.2-18.2-79.8-18.2c-24.6,0-14,3.9-29.9,5.8S274.1,11.7,273.5,17.5z"/>
		<path class="st14" d="M1.8-3.1C-5,9,31.2,16.4,58.3,23.3s72,24.7,140,27.1s87.3-1.1,87-6.9s-34.9-25.1-56.5-27.3
			s-74.5-2.4-121.9-14.1S8.1-14.1,1.8-3.1z"/>
		<path class="st14" d="M469.4,56.7c-0.7,2.9,21.2,20.1,83.9,23.8s65.8-9.5,64.6-13.4c-1.2-3.9-45.2-10.8-77-13.6
			S471.2,48.5,469.4,56.7z"/>
		<path class="st14" d="M641.2,60.1c-0.6,5.3,47.4,15.2,101.7,16.5c54.3,1.3,100.4,0.9,102.3-6.9c1.9-7.8-52.4-10.4-83.6-11.3
			S642.4,49.1,641.2,60.1z"/>
		<path class="st14" d="M859.2,48c-2.2,10.6,46.5,25.3,111.3,25.3s66.1-3,88.6-10.6c22.5-7.6,46.2-16.2,69.9-16
			c23.7,0.2,85.5-10,86.4-21.6s-90.4-8.2-129.4-8C1047,17.3,861.1,38.9,859.2,48z"/>
		<g class="st15">
			<path class="st14" d="M16.8-43.5c-0.5,3.3,1.6,8.7,53,26.4S136.9,3.2,179.3,6.2s106,0.9,107.6-8.7c1.6-9.5-16.8-19-10.3-25.8
				s48.7-0.9,47.7-10.2c-0.9-9.3-39.3-31.8-57.1-34.2S20.6-66.3,16.8-43.5z"/>
			<path class="st14" d="M352.7-19.5c-1.3,14.9,3.1,17.3,70.2,19.9s230.8,8.2,270.7,2.8s49.3-7.6,49.6-18S701.1-36.6,623.7-39
				s-140-4.5-160.6-5.4C442.5-45.3,355.5-52.8,352.7-19.5z"/>
			<path class="st14" d="M1537.2-31.2c0,6.6,24,11.5,62.7,11.9c38.7,0.4,67.7-0.4,86.7,4.1s38.7,10,58.9,3.7s22.5-18.4-18.7-22.3
				c-41.2-3.9-119.1-6.1-135.4-6.5C1575.3-40.7,1537.2-37.5,1537.2-31.2z"/>
			<path class="st14" d="M1780.2-5c-5.7,10.5,15.3,14.5,19,21s-15.3,7.1-8.7,13s38.4,9.5,67.1-0.4c28.7-10,32.7-15.4,51.5-21.6
				s14.7-17.7-6.2-20.8C1881.9-16.9,1790.5-24.1,1780.2-5z"/>
			<path class="st14" d="M1069.2,2.8c0.4,4.4,25.8,10,53.9,8.9s99.8-6.9,99.4-15c-0.4-8.1-54.5-4.3-70.3-4
				C1136.4-7,1068.6-4.7,1069.2,2.8z"/>
			<path class="st14" d="M209.9,67.1c-1.4,6.9,38.1,9.7,98.6,10.4c60.5,0.6,138.2-2.4,136.9-10.8c-1.2-8.4-29-12.6-71.1-15.8
				c-42.1-3.2-67.1-4.1-70.2,1.3c-3.1,5.4-6.9,5-37.1,8C236.7,63.2,211.1,60.8,209.9,67.1z"/>
			<path class="st14" d="M1124.9,62.3c1,4.4-1.6,12.6,83,5c84.5-7.6,136-13.2,191.8-14.7s102.6-5.2,102.9-13.9
				c0.3-8.7-55.2-10-90.4-10.6c-35.2-0.6-80.5-6.3-148.5,4.3C1195.7,43,1122.8,52.4,1124.9,62.3z"/>
		</g>
	</g>
	<path class="st16" d="M1827.7-0.1c0,0,43.3,47.4,26.3,141.7s-60.6,143.5-115.9,213.2c-67.6,85.1-120.5,225.6,0,347.7
		c120.5,122.1,221,148.1,146.8,337.5l35.1-0.1V-0.1H1827.7z"/>
	<path class="st17" d="M1506.7,992.5c-108.1-15.9-185.2-7.8-316.7-58.5c-125.1-48.2-181.3-153-152-290.4
		c29.2-137.4,18.5-247.5-69.2-336.2s-165.7-93.6-326.5-129.6S432.7,0.4,432.7,0.4L0-0.1V1040h1640.2
		C1640.2,1040,1612.9,1008.1,1506.7,992.5z"/>
	<g class="st18">
		<g>
			
				<linearGradient id="SVGID_13_" gradientUnits="userSpaceOnUse" x1="743.9133" y1="-90.0844" x2="743.9133" y2="534.7877" gradientTransform="matrix(0.996 8.937037e-002 -8.937037e-002 0.996 27.627 -72.3143)">
				<stop  offset="0" style="stop-color:#39E2FF"/>
				<stop  offset="0.9409" style="stop-color:#39E2FF;stop-opacity:0"/>
			</linearGradient>
			<polygon class="st19" points="618.6,-69.4 943.3,-42 940.8,621.9 487.1,583.7 			"/>
			
				<linearGradient id="SVGID_14_" gradientUnits="userSpaceOnUse" x1="315.9807" y1="-94.029" x2="315.9807" y2="539.5398" gradientTransform="matrix(0.9477 0.3191 -0.3191 0.9477 93.0084 -154.0344)">
				<stop  offset="0" style="stop-color:#39E2FF"/>
				<stop  offset="0.9409" style="stop-color:#39E2FF;stop-opacity:0"/>
			</linearGradient>
			<polygon class="st20" points="274.1,-155.7 583,-58.1 415.7,587 -15.9,450.6 			"/>
		</g>
		<g>
			
				<linearGradient id="SVGID_15_" gradientUnits="userSpaceOnUse" x1="1535.572" y1="-161.1195" x2="1535.572" y2="463.7527" gradientTransform="matrix(-0.996 8.937037e-002 8.937037e-002 0.996 2688.647 -72.3143)">
				<stop  offset="0" style="stop-color:#39E2FF"/>
				<stop  offset="0.9409" style="stop-color:#39E2FF;stop-opacity:0"/>
			</linearGradient>
			<polygon class="st21" points="1302.9,-69.4 978.2,-42 980.7,621.9 1434.3,583.7 			"/>
			
				<linearGradient id="SVGID_16_" gradientUnits="userSpaceOnUse" x1="1073.8195" y1="-349.1652" x2="1073.8195" y2="284.4036" gradientTransform="matrix(-0.9477 0.3191 0.3191 0.9477 2623.2656 -154.0344)">
				<stop  offset="0" style="stop-color:#39E2FF"/>
				<stop  offset="0.9409" style="stop-color:#39E2FF;stop-opacity:0"/>
			</linearGradient>
			<polygon class="st22" points="1642.6,-155.7 1333.6,-58.1 1500.9,587 1932.6,450.6 			"/>
		</g>
	</g>
	
		<radialGradient id="XMLID_4_" cx="1038.6692" cy="-356.9236" r="826.7251" gradientTransform="matrix(4.612250e-011 1 -1.493 6.885990e-011 505.7899 -1395.5929)" gradientUnits="userSpaceOnUse">
		<stop  offset="0" style="stop-color:#66CBEA;stop-opacity:0.8"/>
		<stop  offset="2.288759e-002" style="stop-color:#65C9E9;stop-opacity:0.7817"/>
		<stop  offset="0.4452" style="stop-color:#55A3D5;stop-opacity:0.4439"/>
		<stop  offset="0.7858" style="stop-color:#4B8CC9;stop-opacity:0.1714"/>
		<stop  offset="1" style="stop-color:#4784C4;stop-opacity:0"/>
	</radialGradient>
	<rect id="XMLID_3_" x="7.1" y="-317.6" class="st23" width="1924.9" height="1154.6"/>
	
		<radialGradient id="XMLID_5_" cx="1626.6692" cy="-356.9236" r="826.7251" gradientTransform="matrix(4.612250e-011 1 -1.493 6.885990e-011 1093.7899 -1983.5929)" gradientUnits="userSpaceOnUse">
		<stop  offset="0" style="stop-color:#66CBEA;stop-opacity:0.8"/>
		<stop  offset="2.288759e-002" style="stop-color:#65C9E9;stop-opacity:0.7817"/>
		<stop  offset="0.4452" style="stop-color:#55A3D5;stop-opacity:0.4439"/>
		<stop  offset="0.7858" style="stop-color:#4B8CC9;stop-opacity:0.1714"/>
		<stop  offset="1" style="stop-color:#4784C4;stop-opacity:0"/>
	</radialGradient>
	<rect id="XMLID_2_" x="7.1" y="-317.6" class="st24" width="1924.9" height="1154.6"/>
	
		<radialGradient id="SVGID_17_" cx="453.7429" cy="822.8356" r="1446.7919" gradientTransform="matrix(0.9222 0.3867 -7.355435e-002 0.1754 95.818 503.0374)" gradientUnits="userSpaceOnUse">
		<stop  offset="0.1843" style="stop-color:#2323AF"/>
		<stop  offset="0.6577" style="stop-color:#2323AF;stop-opacity:0"/>
	</radialGradient>
	<path class="st25" d="M1415.9-69.2c-312-132-1887.2-156-1902.2-135s96,480,105,858.1c9,378,54,606.1,216,753.1s252,351,984.1,231
		c732.1-120,804.1-168,1017.1-291s291-48,330-276s123-777.1,66-942.1s42-204-147-225s-705.1-21-705.1-21L1415.9-69.2z"/>
	<radialGradient id="SVGID_18_" cx="356.7588" cy="779.8431" r="939.5731" gradientUnits="userSpaceOnUse">
		<stop  offset="0" style="stop-color:#2323AF"/>
		<stop  offset="0.922" style="stop-color:#2323AF;stop-opacity:0"/>
	</radialGradient>
	<path class="st26" d="M1415.9-69.2c-312-132-1887.2-156-1902.2-135s96,480,105,858.1c9,378,54,606.1,216,753.1s252,351,984.1,231
		c732.1-120,804.1-168,1017.1-291s291-48,330-276s123-777.1,66-942.1s42-204-147-225s-705.1-21-705.1-21L1415.9-69.2z"/>
	<linearGradient id="SVGID_19_" gradientUnits="userSpaceOnUse" x1="960" y1="1032.5873" x2="960" y2="306.4202">
		<stop  offset="0" style="stop-color:#2D1D8F"/>
		<stop  offset="1" style="stop-color:#2D1D8F;stop-opacity:0"/>
	</linearGradient>
	<rect y="-29.5" class="st27" width="1920" height="1067.6"/>
</g>
</svg>
